<?xml version="1.0" encoding="utf-8" standalone="no"?>
<!DOCTYPE svg PUBLIC "-//W3C//DTD SVG 1.1//EN"
  "http://www.w3.org/Graphics/SVG/1.1/DTD/svg11.dtd">
<svg height="488.228031pt" version="1.1" viewBox="0 0 565.330394 488.228031" width="565.330394pt" xmlns="http://www.w3.org/2000/svg" xmlns:xlink="http://www.w3.org/1999/xlink">
 <metadata>
  <rdf:RDF xmlns:cc="http://creativecommons.org/ns#" xmlns:dc="http://purl.org/dc/elements/1.1/" xmlns:rdf="http://www.w3.org/1999/02/22-rdf-syntax-ns#">
   <cc:Work>
    <dc:type rdf:resource="http://purl.org/dc/dcmitype/StillImage"/>
    <dc:date>2023-10-10T14:12:20.769713</dc:date>
    <dc:format>image/svg+xml</dc:format>
    <dc:creator>
     <cc:Agent>
      <dc:title>Matplotlib v3.4.2, https://matplotlib.org/</dc:title>
     </cc:Agent>
    </dc:creator>
   </cc:Work>
  </rdf:RDF>
 </metadata>
 <defs>
  <style type="text/css">*{stroke-linecap:butt;stroke-linejoin:round;}</style>
 </defs>
 <g id="figure_1">
  <g id="patch_1">
   <path d="M 0 488.228031 
L 565.330394 488.228031 
L 565.330394 0 
L 0 0 
z
" style="fill:#ffffff;"/>
  </g>
  <g id="axes_1">
   <g id="patch_2">
    <path d="M 169.599118 341.759622 
L 452.264315 341.759622 
L 452.264315 97.645606 
L 169.599118 97.645606 
z
" style="fill:#ffffff;"/>
   </g>
   <g id="matplotlib.axis_1">
    <g id="xtick_1">
     <g id="line2d_1">
      <defs>
       <path d="M 0 0 
L 0 3.5 
" id="m9c7548c937" style="stroke:#000000;stroke-width:0.8;"/>
      </defs>
      <g>
       <use style="stroke:#000000;stroke-width:0.8;" x="181.892928" xlink:href="#m9c7548c937" y="341.759622"/>
      </g>
     </g>
     <g id="text_1">
      <!-- −0.2 -->
      <g transform="translate(175.97074 353.05431)scale(0.06 -0.06)">
       <defs>
        <path d="M 266 1850 
L 266 2672 
L 3469 2672 
L 3469 1850 
L 266 1850 
z
" id="Arial-BoldMT-2212" transform="scale(0.015625)"/>
        <path d="M 1756 4600 
Q 2422 4600 2797 4125 
Q 3244 3563 3244 2259 
Q 3244 959 2794 391 
Q 2422 -78 1756 -78 
Q 1088 -78 678 436 
Q 269 950 269 2269 
Q 269 3563 719 4131 
Q 1091 4600 1756 4600 
z
M 1756 3872 
Q 1597 3872 1472 3770 
Q 1347 3669 1278 3406 
Q 1188 3066 1188 2259 
Q 1188 1453 1269 1151 
Q 1350 850 1473 750 
Q 1597 650 1756 650 
Q 1916 650 2041 751 
Q 2166 853 2234 1116 
Q 2325 1453 2325 2259 
Q 2325 3066 2244 3367 
Q 2163 3669 2039 3770 
Q 1916 3872 1756 3872 
z
" id="Arial-BoldMT-30" transform="scale(0.015625)"/>
        <path d="M 459 0 
L 459 878 
L 1338 878 
L 1338 0 
L 459 0 
z
" id="Arial-BoldMT-2e" transform="scale(0.015625)"/>
        <path d="M 3238 816 
L 3238 0 
L 159 0 
Q 209 463 459 877 
Q 709 1291 1447 1975 
Q 2041 2528 2175 2725 
Q 2356 2997 2356 3263 
Q 2356 3556 2198 3714 
Q 2041 3872 1763 3872 
Q 1488 3872 1325 3706 
Q 1163 3541 1138 3156 
L 263 3244 
Q 341 3969 753 4284 
Q 1166 4600 1784 4600 
Q 2463 4600 2850 4234 
Q 3238 3869 3238 3325 
Q 3238 3016 3127 2736 
Q 3016 2456 2775 2150 
Q 2616 1947 2200 1565 
Q 1784 1184 1673 1059 
Q 1563 934 1494 816 
L 3238 816 
z
" id="Arial-BoldMT-32" transform="scale(0.015625)"/>
       </defs>
       <use xlink:href="#Arial-BoldMT-2212"/>
       <use x="58.398438" xlink:href="#Arial-BoldMT-30"/>
       <use x="114.013672" xlink:href="#Arial-BoldMT-2e"/>
       <use x="141.796875" xlink:href="#Arial-BoldMT-32"/>
      </g>
     </g>
    </g>
    <g id="xtick_2">
     <g id="line2d_2">
      <g>
       <use style="stroke:#000000;stroke-width:0.8;" x="218.866794" xlink:href="#m9c7548c937" y="341.759622"/>
      </g>
     </g>
     <g id="text_2">
      <!-- 0.0 -->
      <g transform="translate(214.696794 353.05431)scale(0.06 -0.06)">
       <use xlink:href="#Arial-BoldMT-30"/>
       <use x="55.615234" xlink:href="#Arial-BoldMT-2e"/>
       <use x="83.398438" xlink:href="#Arial-BoldMT-30"/>
      </g>
     </g>
    </g>
    <g id="xtick_3">
     <g id="line2d_3">
      <g>
       <use style="stroke:#000000;stroke-width:0.8;" x="255.84066" xlink:href="#m9c7548c937" y="341.759622"/>
      </g>
     </g>
     <g id="text_3">
      <!-- 0.2 -->
      <g transform="translate(251.67066 353.05431)scale(0.06 -0.06)">
       <use xlink:href="#Arial-BoldMT-30"/>
       <use x="55.615234" xlink:href="#Arial-BoldMT-2e"/>
       <use x="83.398438" xlink:href="#Arial-BoldMT-32"/>
      </g>
     </g>
    </g>
    <g id="xtick_4">
     <g id="line2d_4">
      <g>
       <use style="stroke:#000000;stroke-width:0.8;" x="292.814526" xlink:href="#m9c7548c937" y="341.759622"/>
      </g>
     </g>
     <g id="text_4">
      <!-- 0.4 -->
      <g transform="translate(288.644526 353.05431)scale(0.06 -0.06)">
       <defs>
        <path d="M 1994 0 
L 1994 922 
L 119 922 
L 119 1691 
L 2106 4600 
L 2844 4600 
L 2844 1694 
L 3413 1694 
L 3413 922 
L 2844 922 
L 2844 0 
L 1994 0 
z
M 1994 1694 
L 1994 3259 
L 941 1694 
L 1994 1694 
z
" id="Arial-BoldMT-34" transform="scale(0.015625)"/>
       </defs>
       <use xlink:href="#Arial-BoldMT-30"/>
       <use x="55.615234" xlink:href="#Arial-BoldMT-2e"/>
       <use x="83.398438" xlink:href="#Arial-BoldMT-34"/>
      </g>
     </g>
    </g>
    <g id="xtick_5">
     <g id="line2d_5">
      <g>
       <use style="stroke:#000000;stroke-width:0.8;" x="329.788392" xlink:href="#m9c7548c937" y="341.759622"/>
      </g>
     </g>
     <g id="text_5">
      <!-- 0.6 -->
      <g transform="translate(325.618392 353.05431)scale(0.06 -0.06)">
       <defs>
        <path d="M 3247 3459 
L 2397 3366 
Q 2366 3628 2234 3753 
Q 2103 3878 1894 3878 
Q 1616 3878 1423 3628 
Q 1231 3378 1181 2588 
Q 1509 2975 1997 2975 
Q 2547 2975 2939 2556 
Q 3331 2138 3331 1475 
Q 3331 772 2918 347 
Q 2506 -78 1859 -78 
Q 1166 -78 719 461 
Q 272 1000 272 2228 
Q 272 3488 737 4044 
Q 1203 4600 1947 4600 
Q 2469 4600 2811 4308 
Q 3153 4016 3247 3459 
z
M 1256 1544 
Q 1256 1116 1453 883 
Q 1650 650 1903 650 
Q 2147 650 2309 840 
Q 2472 1031 2472 1466 
Q 2472 1913 2297 2120 
Q 2122 2328 1859 2328 
Q 1606 2328 1431 2129 
Q 1256 1931 1256 1544 
z
" id="Arial-BoldMT-36" transform="scale(0.015625)"/>
       </defs>
       <use xlink:href="#Arial-BoldMT-30"/>
       <use x="55.615234" xlink:href="#Arial-BoldMT-2e"/>
       <use x="83.398438" xlink:href="#Arial-BoldMT-36"/>
      </g>
     </g>
    </g>
    <g id="xtick_6">
     <g id="line2d_6">
      <g>
       <use style="stroke:#000000;stroke-width:0.8;" x="366.762258" xlink:href="#m9c7548c937" y="341.759622"/>
      </g>
     </g>
     <g id="text_6">
      <!-- 0.8 -->
      <g transform="translate(362.592258 353.05431)scale(0.06 -0.06)">
       <defs>
        <path d="M 1025 2472 
Q 684 2616 529 2867 
Q 375 3119 375 3419 
Q 375 3931 733 4265 
Q 1091 4600 1750 4600 
Q 2403 4600 2764 4265 
Q 3125 3931 3125 3419 
Q 3125 3100 2959 2851 
Q 2794 2603 2494 2472 
Q 2875 2319 3073 2025 
Q 3272 1731 3272 1347 
Q 3272 713 2867 316 
Q 2463 -81 1791 -81 
Q 1166 -81 750 247 
Q 259 634 259 1309 
Q 259 1681 443 1992 
Q 628 2303 1025 2472 
z
M 1206 3356 
Q 1206 3094 1354 2947 
Q 1503 2800 1750 2800 
Q 2000 2800 2150 2948 
Q 2300 3097 2300 3359 
Q 2300 3606 2151 3754 
Q 2003 3903 1759 3903 
Q 1506 3903 1356 3753 
Q 1206 3603 1206 3356 
z
M 1125 1394 
Q 1125 1031 1311 828 
Q 1497 625 1775 625 
Q 2047 625 2225 820 
Q 2403 1016 2403 1384 
Q 2403 1706 2222 1901 
Q 2041 2097 1763 2097 
Q 1441 2097 1283 1875 
Q 1125 1653 1125 1394 
z
" id="Arial-BoldMT-38" transform="scale(0.015625)"/>
       </defs>
       <use xlink:href="#Arial-BoldMT-30"/>
       <use x="55.615234" xlink:href="#Arial-BoldMT-2e"/>
       <use x="83.398438" xlink:href="#Arial-BoldMT-38"/>
      </g>
     </g>
    </g>
    <g id="xtick_7">
     <g id="line2d_7">
      <g>
       <use style="stroke:#000000;stroke-width:0.8;" x="403.736124" xlink:href="#m9c7548c937" y="341.759622"/>
      </g>
     </g>
     <g id="text_7">
      <!-- 1.0 -->
      <g transform="translate(399.566124 353.05431)scale(0.06 -0.06)">
       <defs>
        <path d="M 2519 0 
L 1641 0 
L 1641 3309 
Q 1159 2859 506 2644 
L 506 3441 
Q 850 3553 1253 3867 
Q 1656 4181 1806 4600 
L 2519 4600 
L 2519 0 
z
" id="Arial-BoldMT-31" transform="scale(0.015625)"/>
       </defs>
       <use xlink:href="#Arial-BoldMT-31"/>
       <use x="55.615234" xlink:href="#Arial-BoldMT-2e"/>
       <use x="83.398438" xlink:href="#Arial-BoldMT-30"/>
      </g>
     </g>
    </g>
    <g id="xtick_8">
     <g id="line2d_8">
      <g>
       <use style="stroke:#000000;stroke-width:0.8;" x="440.70999" xlink:href="#m9c7548c937" y="341.759622"/>
      </g>
     </g>
     <g id="text_8">
      <!-- 1.2 -->
      <g transform="translate(436.53999 353.05431)scale(0.06 -0.06)">
       <use xlink:href="#Arial-BoldMT-31"/>
       <use x="55.615234" xlink:href="#Arial-BoldMT-2e"/>
       <use x="83.398438" xlink:href="#Arial-BoldMT-32"/>
      </g>
     </g>
    </g>
   </g>
   <g id="matplotlib.axis_2">
    <g id="ytick_1">
     <g id="line2d_9">
      <defs>
       <path d="M 0 0 
L -3.5 0 
" id="m88e3c45bc6" style="stroke:#000000;stroke-width:0.8;"/>
      </defs>
      <g>
       <use style="stroke:#000000;stroke-width:0.8;" x="169.599118" xlink:href="#m88e3c45bc6" y="321.907048"/>
      </g>
     </g>
     <g id="text_9">
      <!-- 2 -->
      <g transform="translate(159.262556 324.054392)scale(0.06 -0.06)">
       <use xlink:href="#Arial-BoldMT-32"/>
      </g>
     </g>
    </g>
    <g id="ytick_2">
     <g id="line2d_10">
      <g>
       <use style="stroke:#000000;stroke-width:0.8;" x="169.599118" xlink:href="#m88e3c45bc6" y="290.535691"/>
      </g>
     </g>
     <g id="text_10">
      <!-- 4 -->
      <g transform="translate(159.262556 292.683035)scale(0.06 -0.06)">
       <use xlink:href="#Arial-BoldMT-34"/>
      </g>
     </g>
    </g>
    <g id="ytick_3">
     <g id="line2d_11">
      <g>
       <use style="stroke:#000000;stroke-width:0.8;" x="169.599118" xlink:href="#m88e3c45bc6" y="259.164334"/>
      </g>
     </g>
     <g id="text_11">
      <!-- 6 -->
      <g transform="translate(159.262556 261.311678)scale(0.06 -0.06)">
       <use xlink:href="#Arial-BoldMT-36"/>
      </g>
     </g>
    </g>
    <g id="ytick_4">
     <g id="line2d_12">
      <g>
       <use style="stroke:#000000;stroke-width:0.8;" x="169.599118" xlink:href="#m88e3c45bc6" y="227.792978"/>
      </g>
     </g>
     <g id="text_12">
      <!-- 8 -->
      <g transform="translate(159.262556 229.940321)scale(0.06 -0.06)">
       <use xlink:href="#Arial-BoldMT-38"/>
      </g>
     </g>
    </g>
    <g id="ytick_5">
     <g id="line2d_13">
      <g>
       <use style="stroke:#000000;stroke-width:0.8;" x="169.599118" xlink:href="#m88e3c45bc6" y="196.421621"/>
      </g>
     </g>
     <g id="text_13">
      <!-- 10 -->
      <g transform="translate(155.925993 198.568965)scale(0.06 -0.06)">
       <use xlink:href="#Arial-BoldMT-31"/>
       <use x="55.615234" xlink:href="#Arial-BoldMT-30"/>
      </g>
     </g>
    </g>
    <g id="ytick_6">
     <g id="line2d_14">
      <g>
       <use style="stroke:#000000;stroke-width:0.8;" x="169.599118" xlink:href="#m88e3c45bc6" y="165.050264"/>
      </g>
     </g>
     <g id="text_14">
      <!-- 12 -->
      <g transform="translate(155.925993 167.197608)scale(0.06 -0.06)">
       <use xlink:href="#Arial-BoldMT-31"/>
       <use x="55.615234" xlink:href="#Arial-BoldMT-32"/>
      </g>
     </g>
    </g>
    <g id="ytick_7">
     <g id="line2d_15">
      <g>
       <use style="stroke:#000000;stroke-width:0.8;" x="169.599118" xlink:href="#m88e3c45bc6" y="133.678907"/>
      </g>
     </g>
     <g id="text_15">
      <!-- 14 -->
      <g transform="translate(155.925993 135.826251)scale(0.06 -0.06)">
       <use xlink:href="#Arial-BoldMT-31"/>
       <use x="55.615234" xlink:href="#Arial-BoldMT-34"/>
      </g>
     </g>
    </g>
    <g id="ytick_8">
     <g id="line2d_16">
      <g>
       <use style="stroke:#000000;stroke-width:0.8;" x="169.599118" xlink:href="#m88e3c45bc6" y="102.30755"/>
      </g>
     </g>
     <g id="text_16">
      <!-- 16 -->
      <g transform="translate(155.925993 104.454894)scale(0.06 -0.06)">
       <use xlink:href="#Arial-BoldMT-31"/>
       <use x="55.615234" xlink:href="#Arial-BoldMT-36"/>
      </g>
     </g>
    </g>
   </g>
   <g id="line2d_17">
    <path clip-path="url(#p8579505184)" d="M 182.447536 296.974244 
L 183.187012 298.078243 
L 184.29623 301.390254 
L 185.405446 290.902225 
L 186.514659 287.038218 
L 187.623874 301.390258 
L 188.733095 308.01428 
L 189.842311 310.774281 
L 190.951523 309.118283 
L 192.060742 300.838255 
L 193.169954 297.526251 
L 194.279172 302.494257 
L 195.388391 298.63025 
L 196.497605 293.11023 
L 197.60682 292.006231 
L 198.716036 291.454224 
L 199.825254 294.214236 
L 200.934469 291.454232 
L 202.043685 294.766235 
L 203.1529 293.110237 
L 205.371334 287.590214 
L 206.48055 282.622208 
L 207.589766 292.55823 
L 208.698981 300.286252 
L 209.808197 299.734248 
L 210.917414 294.766239 
L 212.026629 295.318238 
L 213.135845 300.286252 
L 214.245061 289.798219 
L 215.354277 284.278202 
L 216.463493 297.526243 
L 217.572709 298.078243 
L 218.681925 285.934212 
L 219.791141 220.246013 
L 220.900358 123.645737 
L 222.009574 108.741698 
L 223.11879 149.037836 
L 224.228005 181.605915 
L 225.337222 198.165948 
L 226.446438 219.694025 
L 227.555653 256.678129 
L 228.664869 268.822168 
L 229.774087 274.894179 
L 230.883301 288.69422 
L 231.992518 288.694212 
L 233.101735 285.382209 
L 234.210949 285.382201 
L 235.320166 299.182249 
L 236.429381 301.942261 
L 237.538598 292.55823 
L 238.647815 289.798226 
L 239.75703 288.69422 
L 240.866247 284.278202 
L 243.084678 293.110237 
L 244.193894 295.318238 
L 245.303109 296.422237 
L 247.521543 283.174204 
L 248.630758 269.926166 
L 249.739974 272.686174 
L 250.849192 279.310189 
L 251.958407 274.342176 
L 253.067623 268.270157 
L 254.176836 267.166166 
L 255.286054 279.8622 
L 256.395269 285.934212 
L 257.504485 278.206183 
L 258.613706 280.966199 
L 259.722918 278.758194 
L 260.832134 279.862192 
L 261.941352 288.142224 
L 263.050568 293.110237 
L 264.15978 291.454224 
L 265.268999 280.966199 
L 266.378211 284.27821 
L 267.48743 294.214236 
L 268.596648 303.04626 
L 269.705861 307.462273 
L 270.815079 300.838255 
L 271.924297 297.526236 
L 273.03351 297.526243 
L 274.142728 299.182249 
L 275.251946 303.598267 
L 276.361159 298.078243 
L 277.470377 295.318238 
L 278.579595 298.07825 
L 279.688808 299.734248 
L 280.798026 293.662237 
L 281.907245 289.798226 
L 284.125681 303.046263 
L 286.344106 305.254265 
L 287.453325 315.190295 
L 288.562532 311.326288 
L 289.671756 299.734248 
L 290.780968 301.390254 
L 291.890192 305.254265 
L 292.999399 302.49426 
L 294.108617 305.806268 
L 295.21783 310.222281 
L 296.327048 309.118275 
L 297.436267 316.8463 
L 298.545479 319.606308 
L 299.654703 312.98229 
L 300.763916 309.118279 
L 301.873129 308.566276 
L 302.982352 305.806268 
L 304.091565 301.390258 
L 305.200789 301.942261 
L 306.309996 312.430286 
L 307.419214 311.878287 
L 308.528421 310.222278 
L 309.637645 313.534289 
L 310.746863 308.566276 
L 311.856071 308.566276 
L 312.965294 310.774281 
L 314.074507 311.326284 
L 315.183731 309.670286 
L 316.292932 310.222281 
L 317.402156 312.430286 
L 318.511369 304.150266 
L 319.620593 301.942253 
L 320.729794 304.150262 
L 321.839018 306.91027 
L 322.948231 312.430286 
L 324.057455 307.462273 
L 325.166667 304.150262 
L 326.27588 310.222281 
L 327.385104 310.774281 
L 328.494327 308.014276 
L 329.603529 309.670282 
L 330.712753 306.358275 
L 331.821966 310.222285 
L 332.931178 313.534293 
L 334.040391 308.014276 
L 335.149615 299.182249 
L 336.258828 297.526243 
L 338.477264 288.69422 
L 339.586477 300.286255 
L 340.6957 309.118279 
L 341.804902 310.774285 
L 342.914115 316.8463 
L 344.023339 316.8463 
L 345.132551 302.49426 
L 346.241775 306.358271 
L 347.350977 309.118279 
L 348.4602 304.150266 
L 349.569413 307.462273 
L 350.678637 309.670278 
L 351.787861 310.222285 
L 354.006297 316.8463 
L 355.115488 311.326288 
L 356.224712 308.01428 
L 357.333935 310.774285 
L 358.443148 310.774281 
L 359.55235 304.702269 
L 360.661573 300.838255 
L 361.770786 306.358271 
L 362.88001 308.566272 
L 363.989234 306.910274 
L 365.098457 305.806268 
L 367.316872 305.806268 
L 368.426096 306.358267 
L 369.535308 300.838251 
L 370.644532 300.286255 
L 371.753745 305.806272 
L 372.862968 312.430286 
L 373.97217 314.086292 
L 375.081383 308.56628 
L 376.190596 306.358267 
L 377.299819 306.910274 
L 378.409043 306.910274 
L 379.518267 310.222281 
L 380.627469 300.838258 
L 381.736692 292.55823 
L 382.845905 301.390258 
L 383.955118 304.150262 
L 385.064341 297.526243 
L 386.173543 296.422237 
L 387.282767 308.014276 
L 388.39198 303.04626 
L 389.501192 293.662237 
L 390.610416 296.974244 
L 391.71964 299.182245 
L 392.828842 299.182249 
L 393.938065 303.598263 
L 395.047278 305.254265 
L 396.156502 297.526243 
L 397.265714 296.422245 
L 398.374927 296.974244 
L 399.48414 301.390258 
L 400.593353 307.462273 
L 401.702565 304.150262 
L 402.811789 296.422245 
L 403.921002 296.974244 
L 405.030203 296.422237 
L 406.139449 273.790173 
L 407.248651 257.230132 
L 409.467076 293.11023 
L 410.5763 291.454232 
L 411.685502 293.110237 
L 412.794704 292.006231 
L 413.903927 294.766239 
L 415.013173 303.04626 
L 416.122375 298.63025 
L 417.231576 284.830213 
L 418.340822 285.382209 
L 419.450024 282.622208 
L 420.559226 274.894187 
L 421.668449 283.726207 
L 422.777673 284.278195 
L 423.886875 274.342176 
L 424.996099 280.414196 
L 426.1053 284.278202 
L 427.214524 290.902225 
L 428.323748 288.69422 
L 429.432949 279.310189 
L 430.542195 285.382216 
L 431.651397 285.382209 
L 432.760621 281.518194 
L 433.869822 285.934219 
L 434.979046 290.902225 
L 436.08827 287.590221 
L 437.197449 278.758194 
L 438.306673 279.310189 
L 439.415897 288.694227 
L 439.415897 288.694227 
" style="fill:none;stroke:#ff0000;stroke-linecap:square;stroke-opacity:0.3;"/>
   </g>
   <g id="line2d_18">
    <path clip-path="url(#p8579505184)" d="M 218.866794 341.759622 
L 218.866794 97.645606 
" style="fill:none;stroke:#1f77b4;stroke-linecap:square;"/>
   </g>
   <g id="line2d_19">
    <path clip-path="url(#p8579505184)" d="M 182.447536 305.508389 
L 183.187012 308.394281 
L 184.29623 310.906706 
L 185.405446 308.190572 
L 186.514659 304.523789 
L 187.623874 304.931213 
L 188.733095 304.048466 
L 189.842311 302.622493 
L 190.951523 305.202824 
L 192.060742 309.141222 
L 193.169954 312.60429 
L 194.279172 310.431383 
L 195.388391 309.005413 
L 196.497605 308.597993 
L 197.60682 305.949766 
L 199.825254 308.258471 
L 200.934469 307.104117 
L 202.043685 309.820254 
L 203.1529 310.567188 
L 204.262116 307.783152 
L 205.371334 307.918958 
L 206.48055 306.085564 
L 207.589766 307.17202 
L 208.698981 309.752351 
L 209.808197 308.258475 
L 210.917414 306.085572 
L 212.026629 309.277028 
L 213.135845 311.925258 
L 214.245061 307.17202 
L 215.354277 304.727501 
L 216.463493 308.054767 
L 217.572709 310.906709 
L 218.681925 308.597993 
L 219.791141 267.788072 
L 220.900358 183.859507 
L 222.009574 144.000218 
L 223.11879 170.686258 
L 224.228005 202.73665 
L 226.446438 248.163988 
L 227.555653 264.32499 
L 228.664869 275.664868 
L 229.774087 290.399893 
L 230.883301 299.702659 
L 231.992518 299.431044 
L 233.101735 298.412491 
L 234.210949 301.603948 
L 235.320166 301.332333 
L 236.429381 297.122327 
L 237.538598 298.887811 
L 238.647815 304.387984 
L 239.75703 305.813957 
L 240.866247 299.023616 
L 241.975463 296.171674 
L 243.084678 300.585395 
L 244.193894 300.789103 
L 245.303109 299.906363 
L 246.412325 296.714907 
L 247.521543 292.6407 
L 248.630758 295.764253 
L 249.739974 300.721204 
L 250.849192 302.079267 
L 251.958407 294.134575 
L 253.067623 290.060376 
L 254.176836 299.091523 
L 255.286054 302.962014 
L 256.395269 298.07297 
L 257.504485 297.190226 
L 258.613706 299.97427 
L 259.722918 302.350885 
L 260.832134 301.468138 
L 261.941352 297.393935 
L 263.050568 297.597647 
L 264.15978 299.159422 
L 265.268999 301.807656 
L 266.378211 301.739753 
L 267.48743 296.714899 
L 268.596648 298.208775 
L 269.705861 298.819908 
L 270.815079 301.060722 
L 271.924297 302.282979 
L 273.03351 296.782813 
L 274.142728 295.560545 
L 275.251946 297.733452 
L 276.361159 301.196523 
L 277.470377 302.6225 
L 278.579595 303.029917 
L 279.688808 298.819908 
L 280.798026 298.819908 
L 281.907245 303.708952 
L 283.016457 302.826205 
L 284.125681 302.96201 
L 285.234894 303.369435 
L 286.344106 299.634748 
L 287.453325 298.208772 
L 288.562532 300.449589 
L 290.780968 306.153471 
L 291.890192 307.104121 
L 292.999399 302.622497 
L 294.108617 298.616196 
L 295.21783 300.110075 
L 296.327048 302.894108 
L 297.436267 305.202821 
L 298.545479 305.610245 
L 299.654703 303.573143 
L 300.763916 301.875562 
L 301.873129 301.060718 
L 302.982352 304.863307 
L 304.091565 304.795404 
L 305.200789 303.980559 
L 306.309996 305.202824 
L 307.419214 302.894111 
L 308.528421 301.060722 
L 309.637645 299.498943 
L 311.856071 305.202824 
L 312.965294 306.492984 
L 314.074507 305.678144 
L 315.183731 305.542342 
L 316.292932 305.542342 
L 317.402156 302.486691 
L 318.511369 301.128621 
L 319.620593 305.202821 
L 320.729794 306.6967 
L 321.839018 302.418785 
L 322.948231 303.09782 
L 324.057455 305.474439 
L 325.166667 303.573143 
L 326.27588 303.776855 
L 327.385104 303.165722 
L 328.494327 305.270723 
L 329.603529 308.665896 
L 330.712753 305.202824 
L 331.821966 303.641049 
L 332.931178 303.165722 
L 334.040391 301.060718 
L 335.149615 302.622497 
L 336.258828 304.455886 
L 337.36804 307.17202 
L 338.477264 306.425085 
L 339.586477 305.542342 
L 340.6957 309.752351 
L 341.804902 307.443638 
L 342.914115 305.474435 
L 344.023339 306.085572 
L 345.132551 305.33863 
L 346.241775 307.851059 
L 347.350977 306.832506 
L 348.4602 300.992815 
L 349.569413 302.079267 
L 351.787861 307.647343 
L 354.006297 302.079267 
L 355.115488 309.073316 
L 356.224712 308.733795 
L 357.333935 302.418785 
L 358.443148 303.029917 
L 359.55235 305.542342 
L 360.661573 307.647346 
L 361.770786 305.474435 
L 362.88001 302.079274 
L 363.989234 304.931217 
L 365.098457 306.968315 
L 366.20767 303.641049 
L 368.426096 305.542342 
L 369.535308 303.708948 
L 370.644532 306.017665 
L 371.753745 304.999112 
L 372.862968 304.387984 
L 373.97217 304.7954 
L 375.081383 303.844758 
L 376.190596 302.282979 
L 377.299819 303.844758 
L 378.409043 304.523797 
L 379.518267 304.184268 
L 380.627469 304.795404 
L 381.736692 306.425082 
L 382.845905 307.17202 
L 383.955118 305.678151 
L 385.064341 307.375728 
L 386.173543 304.320081 
L 387.282767 302.282986 
L 388.39198 306.289276 
L 389.501192 306.832506 
L 390.610416 305.542342 
L 392.828842 306.900409 
L 395.047278 308.530086 
L 396.156502 306.357179 
L 397.265714 306.425082 
L 398.374927 306.357183 
L 400.593353 307.104121 
L 401.702565 308.054771 
L 402.811789 306.28928 
L 405.030203 297.326036 
L 406.139449 280.485999 
L 407.248651 267.176944 
L 408.357853 273.559856 
L 409.467076 289.720865 
L 410.5763 294.881517 
L 411.685502 292.436995 
L 412.794704 291.486349 
L 413.903927 286.665207 
L 415.013173 280.146489 
L 416.122375 283.813261 
L 417.231576 286.393596 
L 418.340822 279.874863 
L 419.450024 280.689703 
L 420.559226 283.609549 
L 421.668449 280.010668 
L 422.777673 278.924224 
L 423.886875 278.652613 
L 424.996099 275.39325 
L 426.1053 280.757602 
L 427.214524 283.949066 
L 428.323748 284.831806 
L 429.432949 280.893415 
L 430.542195 275.596954 
L 431.651397 281.504552 
L 432.760621 285.578748 
L 433.869822 286.393589 
L 434.979046 283.677463 
L 436.08827 283.881167 
L 437.197449 286.257776 
L 438.306673 287.683752 
L 439.415897 292.436995 
L 439.415897 292.436995 
" style="fill:none;stroke:#ff0000;stroke-linecap:square;"/>
   </g>
   <g id="line2d_20">
    <path clip-path="url(#p8579505184)" d="M 182.447536 316.649765 
L 183.187012 313.058719 
L 184.29623 312.484154 
L 185.405446 316.21884 
L 186.514659 312.484154 
L 187.623874 314.207857 
L 188.733095 318.517108 
L 190.951523 312.771438 
L 192.060742 313.346003 
L 193.169954 316.21884 
L 194.279172 316.218836 
L 195.388391 314.207853 
L 196.497605 314.495141 
L 197.60682 316.793401 
L 199.825254 309.898598 
L 200.934469 313.633288 
L 202.043685 313.346003 
L 203.1529 319.091673 
L 204.262116 326.561043 
L 205.371334 319.378957 
L 206.48055 316.21884 
L 207.589766 314.782418 
L 208.698981 318.517104 
L 209.808197 323.975493 
L 210.917414 325.124625 
L 212.026629 319.953522 
L 213.135845 311.622304 
L 214.245061 310.18589 
L 215.354277 311.047739 
L 216.463493 315.069706 
L 217.572709 314.207857 
L 218.681925 307.025769 
L 219.791141 258.187592 
L 220.900358 168.842438 
L 222.009574 135.80484 
L 224.228005 179.471919 
L 226.446438 244.972539 
L 227.555653 267.09336 
L 228.664869 280.595693 
L 229.774087 285.47951 
L 231.992518 298.119982 
L 233.101735 300.130966 
L 234.210949 297.258129 
L 235.320166 298.694547 
L 236.429381 297.54541 
L 237.538598 295.247146 
L 238.647815 294.3853 
L 239.75703 292.087028 
L 240.866247 294.959858 
L 241.975463 291.225179 
L 243.084678 290.363326 
L 244.193894 292.087028 
L 245.303109 294.959858 
L 246.412325 298.981832 
L 247.521543 296.109003 
L 248.630758 294.959858 
L 249.739974 293.523443 
L 250.849192 295.821715 
L 251.958407 299.843681 
L 254.176836 290.363326 
L 255.286054 294.672573 
L 256.395269 297.832698 
L 257.504485 296.39628 
L 258.613706 292.661594 
L 259.722918 296.108995 
L 260.832134 301.56738 
L 263.050568 292.661594 
L 264.15978 294.959858 
L 265.268999 301.56738 
L 266.378211 303.003806 
L 267.48743 296.970845 
L 268.596648 300.418246 
L 269.705861 305.302066 
L 270.815079 303.865648 
L 271.924297 300.992811 
L 273.03351 303.291087 
L 274.142728 305.014786 
L 275.251946 305.589351 
L 276.361159 305.014786 
L 277.470377 296.68356 
L 278.579595 298.407267 
L 279.688808 301.2801 
L 280.798026 296.970848 
L 281.907245 295.821711 
L 283.016457 300.992819 
L 284.125681 303.291087 
L 285.234894 299.843681 
L 286.344106 290.650606 
L 287.453325 290.937898 
L 288.562532 297.258129 
L 289.671756 296.970845 
L 290.780968 297.832698 
L 291.890192 302.429233 
L 292.999399 301.56738 
L 294.108617 297.545417 
L 295.21783 306.163919 
L 296.327048 309.611325 
L 297.436267 303.003802 
L 298.545479 301.2801 
L 299.654703 303.578367 
L 300.763916 307.887615 
L 301.873129 311.622304 
L 302.982352 309.036756 
L 304.091565 303.865648 
L 305.200789 300.992815 
L 306.309996 306.163916 
L 307.419214 307.887615 
L 308.528421 304.727501 
L 309.637645 307.025769 
L 310.746863 308.749468 
L 311.856071 307.887618 
L 312.965294 312.484154 
L 314.074507 311.047732 
L 315.183731 301.2801 
L 316.292932 303.003795 
L 317.402156 306.163919 
L 318.511369 304.727505 
L 319.620593 307.025765 
L 320.729794 311.909589 
L 321.839018 311.909589 
L 322.948231 308.46218 
L 324.057455 309.898602 
L 325.166667 308.749472 
L 326.27588 304.440217 
L 327.385104 303.865648 
L 328.494327 305.876635 
L 329.603529 302.42923 
L 330.712753 303.865652 
L 332.931178 303.865648 
L 334.040391 308.174903 
L 335.149615 304.727501 
L 337.36804 310.760455 
L 338.477264 305.876635 
L 339.586477 304.152932 
L 340.6957 304.440217 
L 342.914115 302.141949 
L 344.023339 299.556397 
L 345.132551 297.258129 
L 346.241775 299.843685 
L 347.350977 303.865648 
L 348.4602 305.014786 
L 349.569413 305.876635 
L 350.678637 303.578371 
L 351.787861 303.865648 
L 352.897073 304.440217 
L 354.006297 299.843681 
L 355.115488 302.141949 
L 356.224712 306.451196 
L 357.333935 305.302066 
L 358.443148 305.876635 
L 359.55235 302.141953 
L 360.661573 299.269116 
L 361.770786 301.567376 
L 362.88001 305.014786 
L 365.098457 309.036749 
L 366.20767 306.4512 
L 367.316872 297.832698 
L 368.426096 306.451204 
L 369.535308 305.876635 
L 370.644532 296.108995 
L 371.753745 298.981832 
L 372.862968 298.981832 
L 373.97217 299.843685 
L 375.081383 298.119982 
L 376.190596 292.661594 
L 377.299819 290.363326 
L 378.409043 290.363333 
L 379.518267 295.821715 
L 380.627469 297.545413 
L 381.736692 295.821715 
L 382.845905 296.39628 
L 383.955118 292.948874 
L 385.064341 291.512463 
L 386.173543 293.810724 
L 387.282767 298.119982 
L 388.39198 300.418246 
L 389.501192 300.705527 
L 390.610416 300.705531 
L 391.71964 300.418246 
L 392.828842 295.821715 
L 393.938065 296.108995 
L 395.047278 300.130966 
L 396.156502 295.821711 
L 397.265714 298.981835 
L 398.374927 295.821715 
L 399.48414 285.76679 
L 400.593353 291.512463 
L 401.702565 298.694547 
L 402.811789 293.810731 
L 403.921002 287.777777 
L 405.030203 286.628647 
L 406.139449 276.286431 
L 407.248651 259.336715 
L 408.357853 266.231518 
L 409.467076 282.606681 
L 410.5763 284.043091 
L 411.685502 283.755803 
L 412.794704 287.490497 
L 413.903927 288.352339 
L 415.013173 282.893961 
L 416.122375 283.468523 
L 417.231576 279.159275 
L 418.340822 271.977184 
L 419.450024 285.192221 
L 420.559226 290.076045 
L 421.668449 280.021125 
L 422.777673 282.606681 
L 423.886875 287.490497 
L 424.996099 284.61766 
L 426.1053 279.159275 
L 427.214524 281.170262 
L 428.323748 289.214188 
L 429.432949 294.672581 
L 430.542195 289.214196 
L 431.651397 282.319385 
L 432.760621 286.341359 
L 433.869822 288.065058 
L 434.979046 289.214188 
L 436.08827 294.672573 
L 437.197449 292.948885 
L 438.306673 292.087021 
L 439.415897 291.799744 
L 439.415897 291.799744 
" style="fill:none;stroke:#000000;stroke-linecap:square;stroke-opacity:0.3;"/>
   </g>
   <g id="line2d_21">
    <path clip-path="url(#p8579505184)" d="M 218.866794 341.759622 
L 218.866794 97.645606 
" style="fill:none;stroke:#1f77b4;stroke-linecap:square;"/>
   </g>
   <g id="line2d_22">
    <path clip-path="url(#p8579505184)" d="M 182.447536 310.3022 
L 183.187012 307.709176 
L 184.29623 305.668761 
L 185.405446 307.454121 
L 186.514659 306.8165 
L 187.623874 307.53914 
L 188.733095 309.53705 
L 189.842311 308.686876 
L 190.951523 308.261792 
L 192.060742 309.664575 
L 193.169954 307.666666 
L 194.279172 306.306393 
L 195.388391 306.944025 
L 196.497605 306.986531 
L 197.60682 309.622065 
L 198.716036 308.219279 
L 199.825254 307.921714 
L 200.934469 309.53705 
L 202.043685 307.836705 
L 203.1529 309.834607 
L 204.262116 310.429726 
L 205.371334 308.729382 
L 206.48055 308.516836 
L 207.589766 309.111959 
L 208.698981 307.284093 
L 209.808197 308.55935 
L 210.917414 309.579556 
L 212.026629 307.53914 
L 213.135845 308.899421 
L 214.245061 308.644366 
L 215.354277 306.64646 
L 216.463493 307.156563 
L 217.572709 308.389322 
L 218.681925 307.326595 
L 219.791141 264.392896 
L 220.900358 166.835639 
L 222.009574 122.201607 
L 223.11879 152.255194 
L 224.228005 188.472528 
L 225.337222 220.694051 
L 226.446438 243.52117 
L 227.555653 255.126025 
L 228.664869 265.073039 
L 229.774087 278.930843 
L 230.883301 287.900165 
L 231.992518 291.72594 
L 233.101735 292.151031 
L 234.210949 293.341268 
L 235.320166 296.401889 
L 236.429381 293.978897 
L 237.538598 292.066 
L 238.647815 292.491094 
L 239.75703 295.976806 
L 240.866247 294.574012 
L 241.975463 289.217935 
L 243.084678 289.940584 
L 244.193894 291.810948 
L 245.303109 291.088304 
L 246.412325 285.604694 
L 247.521543 278.208195 
L 248.630758 277.443041 
L 249.739974 280.078582 
L 250.849192 280.503665 
L 251.958407 275.870219 
L 253.067623 275.657673 
L 254.176836 281.26882 
L 255.286054 281.736409 
L 256.395269 278.463254 
L 257.504485 277.485554 
L 258.613706 279.48346 
L 259.722918 280.971262 
L 260.832134 283.691808 
L 261.941352 284.116899 
L 263.050568 282.246512 
L 264.15978 282.544077 
L 265.268999 284.201911 
L 266.378211 285.264623 
L 267.48743 283.649302 
L 268.596648 282.799128 
L 269.705861 285.73222 
L 270.815079 285.052085 
L 271.924297 281.651397 
L 273.03351 281.566377 
L 275.251946 284.754528 
L 276.361159 288.410268 
L 277.470377 289.770544 
L 278.579595 284.116899 
L 279.688808 284.797034 
L 280.798026 287.942671 
L 281.907245 286.582401 
L 283.016457 290.323146 
L 284.125681 289.472979 
L 285.234894 284.967073 
L 287.453325 290.960782 
L 288.562532 287.900172 
L 289.671756 288.537801 
L 290.780968 292.151019 
L 291.890192 292.363569 
L 292.999399 293.723845 
L 294.108617 289.940584 
L 295.21783 287.730125 
L 296.327048 292.278553 
L 297.436267 290.70573 
L 298.545479 291.385865 
L 299.654703 292.873671 
L 300.763916 292.448588 
L 301.873129 293.086217 
L 302.982352 294.446494 
L 304.091565 294.318964 
L 305.200789 290.663221 
L 306.309996 291.513395 
L 307.419214 293.59632 
L 308.528421 292.746146 
L 309.637645 291.470889 
L 310.746863 294.106419 
L 311.856071 294.574012 
L 312.965294 295.551712 
L 314.074507 298.484807 
L 315.183731 293.086213 
L 316.292932 291.895972 
L 317.402156 295.849273 
L 318.511369 297.294566 
L 319.620593 295.466692 
L 321.839018 292.533608 
L 322.948231 291.598411 
L 324.057455 292.746153 
L 325.166667 294.191438 
L 326.27588 295.934289 
L 327.385104 296.954498 
L 328.494327 296.784466 
L 329.603529 290.875759 
L 330.712753 289.175422 
L 331.821966 294.40398 
L 332.931178 298.05972 
L 334.040391 297.464601 
L 335.149615 294.446486 
L 336.258828 293.681339 
L 337.36804 295.466696 
L 338.477264 293.128727 
L 339.586477 291.853462 
L 340.6957 292.533604 
L 341.804902 294.191442 
L 342.914115 293.723845 
L 344.023339 291.725936 
L 345.132551 293.766351 
L 346.241775 294.021399 
L 347.350977 293.298758 
L 348.4602 294.744047 
L 349.569413 292.958691 
L 350.678637 289.770537 
L 351.787861 287.432568 
L 352.897073 289.175422 
L 354.006297 293.001197 
L 355.115488 292.23605 
L 356.224712 293.46879 
L 357.333935 295.33917 
L 358.443148 294.489 
L 359.55235 291.003295 
L 360.661573 291.13081 
L 361.770786 292.066011 
L 362.88001 290.153122 
L 363.989234 289.643019 
L 365.098457 291.513391 
L 366.20767 292.236043 
L 367.316872 287.262529 
L 368.426096 284.83954 
L 369.535308 289.685525 
L 370.644532 290.918276 
L 371.753745 288.02769 
L 372.862968 288.452774 
L 373.97217 290.195628 
L 375.081383 289.387967 
L 376.190596 289.175422 
L 377.299819 290.450679 
L 378.409043 289.132908 
L 379.518267 285.349643 
L 380.627469 286.539888 
L 381.736692 291.258347 
L 382.845905 290.74824 
L 383.955118 288.665319 
L 385.064341 288.792845 
L 386.173543 290.280647 
L 387.282767 289.770544 
L 388.39198 289.557999 
L 389.501192 287.815145 
L 390.610416 285.434655 
L 391.71964 284.201911 
L 392.828842 286.284844 
L 393.938065 290.79075 
L 395.047278 289.940569 
L 396.156502 288.452774 
L 397.265714 288.070196 
L 398.374927 288.367754 
L 399.48414 288.877864 
L 400.593353 287.390069 
L 401.702565 288.282742 
L 402.811789 286.879959 
L 403.921002 285.052078 
L 405.030203 278.208195 
L 406.139449 265.073046 
L 407.248651 262.224952 
L 408.357853 264.732975 
L 409.467076 274.594969 
L 410.5763 282.629097 
L 411.685502 279.058376 
L 412.794704 281.651404 
L 413.903927 282.118994 
L 415.013173 274.977546 
L 416.122375 271.534352 
L 417.231576 273.404731 
L 418.340822 272.512051 
L 419.450024 271.194273 
L 420.559226 273.617277 
L 421.668449 271.491846 
L 422.777673 268.856304 
L 423.886875 274.509942 
L 424.996099 276.125277 
L 426.1053 275.530155 
L 427.214524 275.615175 
L 428.323748 273.192186 
L 429.432949 277.273009 
L 430.542195 278.12319 
L 431.651397 280.461159 
L 432.760621 284.159398 
L 433.869822 281.523871 
L 434.979046 279.866037 
L 436.08827 281.778923 
L 437.197449 279.355934 
L 438.306673 278.378227 
L 439.415897 280.588678 
L 439.415897 280.588678 
" style="fill:none;stroke:#000000;stroke-linecap:square;"/>
   </g>
   <g id="line2d_23">
    <path clip-path="url(#p8579505184)" d="M 182.447536 301.910035 
L 183.187012 306.616295 
L 184.29623 311.422695 
L 185.405446 310.2211 
L 186.514659 304.012834 
L 187.623874 302.610978 
L 188.733095 305.21444 
L 189.842311 303.612302 
L 190.951523 304.012841 
L 192.060742 306.416028 
L 193.169954 305.815239 
L 194.279172 305.815239 
L 195.388391 304.213109 
L 196.497605 307.016835 
L 197.60682 308.418701 
L 198.716036 308.218426 
L 199.825254 307.016835 
L 200.934469 303.211766 
L 202.043685 306.215764 
L 203.1529 305.414708 
L 204.262116 301.8099 
L 206.48055 303.011502 
L 207.589766 304.813897 
L 209.808197 293.598975 
L 210.917414 296.60298 
L 212.026629 303.412038 
L 213.135845 304.613641 
L 214.245061 301.809903 
L 215.354277 303.011502 
L 216.463493 301.809903 
L 217.572709 303.011499 
L 218.681925 304.413365 
L 219.791141 307.417366 
L 220.900358 309.420032 
L 222.009574 308.819233 
L 223.11879 305.815232 
L 224.228005 301.609639 
L 226.446438 308.018166 
L 227.555653 308.218434 
L 228.664869 304.012834 
L 229.774087 298.205107 
L 230.883301 303.612302 
L 231.992518 305.414704 
L 233.101735 306.215764 
L 234.210949 309.420032 
L 235.320166 307.217102 
L 236.429381 306.816563 
L 237.538598 310.421364 
L 238.647815 312.42403 
L 240.866247 306.215771 
L 241.975463 306.816571 
L 243.084678 310.020832 
L 244.193894 310.221096 
L 245.303109 305.614964 
L 246.412325 303.612302 
L 247.521543 306.015496 
L 248.630758 306.015503 
L 249.739974 306.816571 
L 250.849192 307.217102 
L 251.958407 306.816563 
L 253.067623 308.819233 
L 254.176836 306.416035 
L 255.286054 306.416035 
L 256.395269 308.819233 
L 257.504485 306.215771 
L 258.613706 305.214432 
L 259.722918 305.815232 
L 260.832134 302.610971 
L 261.941352 301.809903 
L 263.050568 305.414704 
L 264.15978 304.213098 
L 265.268999 302.610971 
L 266.378211 303.612298 
L 267.48743 305.014172 
L 268.596648 304.413365 
L 270.815079 308.218437 
L 271.924297 308.018166 
L 273.03351 309.019501 
L 274.142728 308.819233 
L 275.251946 308.819229 
L 276.361159 306.215764 
L 277.470377 306.015496 
L 278.579595 305.414704 
L 279.688808 307.417366 
L 280.798026 311.622963 
L 281.907245 311.422699 
L 283.016457 310.821895 
L 284.125681 304.012834 
L 285.234894 302.010171 
L 286.344106 309.019501 
L 287.453325 309.219769 
L 288.562532 308.618969 
L 289.671756 310.421367 
L 290.780968 308.418701 
L 291.890192 307.617638 
L 292.999399 309.820568 
L 294.108617 308.819233 
L 295.21783 307.617634 
L 296.327048 307.016835 
L 297.436267 308.418701 
L 298.545479 309.620296 
L 299.654703 308.418698 
L 300.763916 308.618965 
L 301.873129 307.817902 
L 304.091565 307.817894 
L 305.200789 307.016835 
L 306.309996 307.016835 
L 307.419214 307.217102 
L 308.528421 300.608304 
L 309.637645 298.004843 
L 310.746863 307.016827 
L 311.856071 307.417366 
L 312.965294 305.214432 
L 314.074507 307.617634 
L 315.183731 306.215771 
L 316.292932 304.613641 
L 317.402156 307.417366 
L 318.511369 305.614972 
L 319.620593 302.410703 
L 320.729794 305.414704 
L 321.839018 306.015503 
L 322.948231 309.219765 
L 324.057455 308.618969 
L 325.166667 307.016835 
L 326.27588 311.222427 
L 327.385104 313.825897 
L 328.494327 311.82323 
L 329.603529 306.816563 
L 330.712753 302.811238 
L 332.931178 310.221096 
L 334.040391 309.420032 
L 335.149615 309.019501 
L 336.258828 304.813901 
L 337.36804 304.012841 
L 338.477264 302.410699 
L 339.586477 298.205107 
L 340.6957 300.207773 
L 341.804902 301.609639 
L 342.914115 300.808568 
L 344.023339 303.011502 
L 345.132551 311.622966 
L 346.241775 307.417366 
L 347.350977 299.807237 
L 348.4602 304.213101 
L 349.569413 306.215771 
L 350.678637 304.813901 
L 351.787861 302.210435 
L 352.897073 304.012841 
L 354.006297 307.817902 
L 355.115488 305.414704 
L 356.224712 302.610967 
L 357.333935 306.616303 
L 358.443148 306.616303 
L 359.55235 302.410703 
L 360.661573 306.616303 
L 361.770786 311.622963 
L 362.88001 308.618969 
L 363.989234 310.020828 
L 365.098457 313.825897 
L 366.20767 312.824565 
L 367.316872 311.222431 
L 368.426096 307.217102 
L 369.535308 309.219769 
L 370.644532 312.42403 
L 371.753745 308.218434 
L 372.862968 305.815232 
L 373.97217 303.812566 
L 375.081383 309.219765 
L 376.190596 310.621631 
L 377.299819 305.014165 
L 378.409043 300.608304 
L 379.518267 304.012834 
L 380.627469 310.2211 
L 381.736692 302.811235 
L 382.845905 300.808576 
L 383.955118 305.21444 
L 385.064341 308.218434 
L 386.173543 310.621631 
L 387.282767 310.821899 
L 388.39198 309.219765 
L 389.501192 313.024829 
L 390.610416 316.229098 
L 391.71964 311.022167 
L 392.828842 309.019497 
L 393.938065 308.218434 
L 395.047278 308.418701 
L 396.156502 308.218434 
L 397.265714 311.422695 
L 398.374927 314.226428 
L 399.48414 310.020828 
L 401.702565 304.613641 
L 402.811789 306.21576 
L 403.921002 311.82323 
L 405.030203 304.613641 
L 406.139449 277.377393 
L 407.248651 260.955528 
L 409.467076 289.994182 
L 410.5763 292.998172 
L 411.685502 284.386715 
L 412.794704 278.979512 
L 413.903927 280.781918 
L 415.013173 281.182446 
L 416.122375 280.982175 
L 417.231576 279.580327 
L 418.340822 278.578977 
L 419.450024 275.775251 
L 420.559226 275.374716 
L 421.668449 275.174444 
L 422.777673 274.573652 
L 423.886875 270.56832 
L 424.996099 270.768591 
L 426.1053 273.572317 
L 427.214524 268.565658 
L 428.323748 267.364051 
L 429.432949 273.171782 
L 430.542195 277.377386 
L 431.651397 276.376051 
L 432.760621 279.580312 
L 433.869822 289.193111 
L 434.979046 284.787251 
L 436.08827 279.380055 
L 437.197449 284.186451 
L 438.306673 283.585652 
L 439.415897 286.389378 
L 439.415897 286.389378 
" style="fill:none;stroke:#0000ff;stroke-linecap:square;stroke-opacity:0.3;"/>
   </g>
   <g id="line2d_24">
    <path clip-path="url(#p8579505184)" d="M 218.866794 341.759622 
L 218.866794 97.645606 
" style="fill:none;stroke:#1f77b4;stroke-linecap:square;"/>
   </g>
   <g id="line2d_25">
    <path clip-path="url(#p8579505184)" d="M 182.447536 303.887196 
L 183.187012 304.85199 
L 184.29623 307.808616 
L 185.405446 309.831567 
L 186.514659 309.489225 
L 187.623874 307.030556 
L 188.733095 304.291786 
L 190.951523 308.462191 
L 192.060742 310.049426 
L 193.169954 310.578512 
L 194.279172 306.906067 
L 195.388391 303.949445 
L 196.497605 305.443317 
L 197.60682 308.306572 
L 198.716036 307.777494 
L 199.825254 306.501477 
L 200.934469 308.119839 
L 202.043685 309.209125 
L 203.1529 307.466271 
L 204.262116 307.497393 
L 205.371334 306.563722 
L 206.48055 306.688211 
L 207.589766 308.742288 
L 208.698981 309.893815 
L 209.808197 308.026472 
L 210.917414 306.563722 
L 212.026629 306.314744 
L 213.135845 307.155049 
L 214.245061 310.73412 
L 215.354277 309.240244 
L 216.463493 307.03056 
L 217.572709 307.59076 
L 218.681925 308.648921 
L 219.791141 311.325446 
L 220.900358 309.644833 
L 222.009574 306.906071 
L 223.11879 306.937193 
L 224.228005 305.785662 
L 225.337222 305.038724 
L 226.446438 306.159129 
L 227.555653 306.843822 
L 228.664869 308.150957 
L 230.883301 306.781574 
L 231.992518 310.578512 
L 233.101735 310.298408 
L 234.210949 307.99535 
L 235.320166 307.310656 
L 236.429381 306.190251 
L 237.538598 305.879028 
L 238.647815 307.40403 
L 239.75703 308.150968 
L 240.866247 307.933105 
L 241.975463 308.835654 
L 243.084678 310.920857 
L 244.193894 311.418813 
L 245.303109 310.32953 
L 246.412325 308.711169 
L 247.521543 305.754539 
L 248.630758 305.381072 
L 249.739974 306.159129 
L 250.849192 306.283622 
L 251.958407 308.991266 
L 253.067623 309.489222 
L 254.176836 306.750455 
L 255.286054 306.563722 
L 256.395269 307.59076 
L 257.504485 308.088716 
L 258.613706 306.750455 
L 259.722918 307.123923 
L 260.832134 309.022388 
L 261.941352 307.248412 
L 263.050568 305.25658 
L 264.15978 306.096884 
L 266.378211 309.924933 
L 267.48743 310.827486 
L 268.596648 308.77341 
L 269.705861 308.960143 
L 270.815079 309.271366 
L 271.924297 308.088716 
L 273.03351 307.310656 
L 274.142728 307.372904 
L 275.251946 307.808612 
L 276.361159 309.05351 
L 277.470377 308.960143 
L 278.579595 307.715246 
L 279.688808 307.777494 
L 280.798026 305.567802 
L 281.907245 305.598924 
L 283.016457 308.36882 
L 284.125681 308.897903 
L 285.234894 306.719333 
L 286.344106 307.0928 
L 287.453325 308.244331 
L 288.562532 308.150965 
L 289.671756 306.625966 
L 290.780968 307.684127 
L 291.890192 308.088716 
L 292.999399 307.372901 
L 294.108617 310.951975 
L 295.21783 308.119839 
L 296.327048 306.532596 
L 297.436267 307.590756 
L 298.545479 307.559634 
L 299.654703 308.431065 
L 300.763916 306.874952 
L 301.873129 307.777494 
L 304.091565 307.217289 
L 305.200789 308.929021 
L 306.309996 309.053514 
L 307.419214 308.586672 
L 308.528421 309.458103 
L 309.637645 308.77341 
L 310.746863 308.431069 
L 311.856071 309.55147 
L 312.965294 306.376985 
L 314.074507 306.8127 
L 315.183731 308.399939 
L 316.292932 307.590756 
L 317.402156 308.680043 
L 318.511369 309.302492 
L 319.620593 308.804532 
L 320.729794 305.567806 
L 321.839018 307.030552 
L 322.948231 310.0183 
L 324.057455 307.248415 
L 325.166667 306.781578 
L 326.27588 309.55147 
L 327.385104 309.924941 
L 328.494327 308.742284 
L 329.603529 306.968311 
L 330.712753 306.03464 
L 331.821966 306.501477 
L 332.931178 306.843822 
L 334.040391 308.804532 
L 335.149615 308.742288 
L 336.258828 307.933105 
L 337.36804 309.924937 
L 338.477264 309.738204 
L 340.6957 307.870864 
L 341.804902 307.404027 
L 342.914115 309.769326 
L 344.023339 309.022388 
L 345.132551 308.555554 
L 346.241775 309.924941 
L 347.350977 308.431065 
L 348.4602 306.501477 
L 349.569413 305.163217 
L 350.678637 305.723417 
L 351.787861 308.711169 
L 352.897073 309.489225 
L 354.006297 309.240244 
L 355.115488 309.146873 
L 356.224712 307.933109 
L 357.333935 308.119842 
L 358.443148 307.372901 
L 359.55235 307.155045 
L 360.661573 308.586676 
L 362.88001 309.115755 
L 363.989234 309.115755 
L 365.098457 306.159129 
L 366.20767 307.27953 
L 367.316872 309.209121 
L 368.426096 308.462191 
L 369.535308 306.719333 
L 370.644532 303.980563 
L 372.862968 309.800448 
L 373.97217 305.941273 
L 375.081383 303.949437 
L 376.190596 308.337694 
L 377.299819 308.306568 
L 378.409043 305.287706 
L 379.518267 305.536684 
L 380.627469 309.333614 
L 381.736692 311.263198 
L 382.845905 308.960143 
L 383.955118 307.777494 
L 385.064341 307.186167 
L 386.173543 304.229538 
L 387.282767 304.136171 
L 388.39198 306.408111 
L 389.501192 307.684131 
L 390.610416 308.586672 
L 391.71964 309.177999 
L 393.938065 308.399939 
L 395.047278 309.177999 
L 396.156502 306.874941 
L 397.265714 307.155049 
L 398.374927 306.843822 
L 399.48414 306.937185 
L 400.593353 309.458103 
L 401.702565 307.559634 
L 402.811789 307.964231 
L 403.921002 308.524428 
L 405.030203 298.160682 
L 406.139449 276.188277 
L 407.248651 263.490351 
L 408.357853 271.364312 
L 409.467076 284.186735 
L 410.5763 291.687222 
L 411.685502 291.313755 
L 412.794704 284.871425 
L 413.903927 281.354602 
L 415.013173 283.28419 
L 416.122375 283.470916 
L 417.231576 280.763272 
L 418.340822 279.020418 
L 419.450024 279.176037 
L 420.559226 278.77144 
L 421.668449 278.646951 
L 422.777673 276.748486 
L 423.886875 276.18827 
L 424.996099 275.379099 
L 426.1053 275.50358 
L 427.214524 279.238266 
L 428.323748 279.051548 
L 429.432949 280.732142 
L 430.542195 280.70102 
L 431.651397 280.856639 
L 432.760621 283.004082 
L 433.869822 286.085193 
L 434.979046 287.983666 
L 436.08827 283.004082 
L 437.197449 282.350507 
L 438.306673 282.599493 
L 439.415897 283.53316 
L 439.415897 283.53316 
" style="fill:none;stroke:#0000ff;stroke-linecap:square;"/>
   </g>
   <g id="line2d_26">
    <path clip-path="url(#p8579505184)" d="M 182.447536 296.741216 
L 183.187012 295.987393 
L 184.29623 306.540999 
L 185.405446 315.586944 
L 186.514659 321.61758 
L 187.623874 314.079287 
L 188.733095 311.06397 
L 189.842311 317.094601 
L 190.951523 324.632895 
L 192.060742 317.094605 
L 193.169954 311.06397 
L 194.279172 321.617583 
L 195.388391 311.06397 
L 196.497605 305.033342 
L 197.60682 314.079287 
L 198.716036 309.556309 
L 199.825254 312.571631 
L 200.934469 323.125238 
L 202.043685 311.063974 
L 203.1529 305.033338 
L 204.262116 300.510364 
L 205.371334 292.972079 
L 206.48055 295.987386 
L 207.589766 305.033338 
L 208.698981 309.556313 
L 209.808197 311.063974 
L 210.917414 318.602266 
L 212.026629 317.094605 
L 213.135845 318.602266 
L 214.245061 323.125236 
L 215.354277 324.632895 
L 216.463493 311.063974 
L 217.572709 306.540999 
L 218.681925 314.079287 
L 219.791141 306.540995 
L 220.900358 317.094605 
L 222.009574 330.663529 
L 223.11879 320.109919 
L 224.228005 317.094605 
L 225.337222 320.109919 
L 226.446438 311.063974 
L 228.664869 320.109919 
L 229.774087 312.571631 
L 230.883301 306.540999 
L 231.992518 317.094605 
L 233.101735 326.140556 
L 234.210949 323.125238 
L 235.320166 323.125238 
L 236.429381 317.094605 
L 237.538598 314.079287 
L 238.647815 321.61758 
L 239.75703 330.66353 
L 240.866247 323.125238 
L 241.975463 314.079287 
L 243.084678 324.632895 
L 244.193894 320.109923 
L 245.303109 311.063974 
L 246.412325 305.033335 
L 247.521543 294.479729 
L 248.630758 291.464408 
L 249.739974 306.540999 
L 250.849192 317.094605 
L 251.958407 306.540995 
L 253.067623 302.018025 
L 254.176836 302.018025 
L 255.286054 312.571631 
L 256.395269 312.571631 
L 258.613706 324.632895 
L 259.722918 311.063974 
L 260.832134 308.048652 
L 261.941352 317.094605 
L 263.050568 323.125238 
L 264.15978 317.094605 
L 265.268999 317.094605 
L 266.378211 318.602262 
L 267.48743 315.586944 
L 268.596648 324.632899 
L 269.705861 326.140556 
L 270.815079 321.61758 
L 273.03351 315.586944 
L 274.142728 317.094605 
L 275.251946 311.063974 
L 276.361159 315.586944 
L 277.470377 321.617576 
L 279.688808 306.540995 
L 280.798026 312.571627 
L 281.907245 320.109923 
L 283.016457 324.632895 
L 284.125681 327.648213 
L 286.344106 309.556313 
L 287.453325 302.018025 
L 288.562532 297.49505 
L 289.671756 302.018025 
L 291.890192 295.987382 
L 292.999399 302.018021 
L 294.108617 283.926127 
L 295.21783 276.387831 
L 296.327048 285.433787 
L 297.436267 291.464415 
L 298.545479 285.43378 
L 299.654703 288.449101 
L 300.763916 289.956754 
L 302.982352 308.048656 
L 304.091565 299.0027 
L 305.200789 299.002707 
L 306.309996 302.018021 
L 307.419214 308.048656 
L 308.528421 299.002707 
L 309.637645 302.018013 
L 310.746863 309.556313 
L 311.856071 309.556313 
L 312.965294 308.048656 
L 314.074507 311.06397 
L 315.183731 318.602262 
L 316.292932 311.06397 
L 318.511369 311.063974 
L 319.620593 308.048656 
L 320.729794 308.04866 
L 322.948231 305.033342 
L 324.057455 306.540999 
L 325.166667 317.094605 
L 326.27588 323.125238 
L 327.385104 320.109919 
L 328.494327 303.525682 
L 329.603529 305.033335 
L 330.712753 321.61758 
L 331.821966 330.66353 
L 332.931178 321.617576 
L 334.040391 308.048656 
L 335.149615 309.556313 
L 336.258828 318.602262 
L 337.36804 315.586944 
L 338.477264 299.002707 
L 339.586477 305.033342 
L 340.6957 306.540995 
L 341.804902 306.540999 
L 342.914115 302.018025 
L 344.023339 300.510357 
L 345.132551 314.079287 
L 346.241775 314.079287 
L 347.350977 312.571631 
L 348.4602 308.04866 
L 349.569413 305.033338 
L 350.678637 315.586948 
L 351.787861 315.586944 
L 352.897073 299.002711 
L 354.006297 305.033338 
L 355.115488 312.571631 
L 356.224712 311.06397 
L 357.333935 314.079287 
L 358.443148 314.079287 
L 359.55235 308.048656 
L 360.661573 300.510364 
L 361.770786 306.540999 
L 362.88001 315.586944 
L 363.989234 308.048656 
L 365.098457 312.571631 
L 366.20767 315.586948 
L 367.316872 308.048652 
L 368.426096 312.571627 
L 370.644532 324.632895 
L 371.753745 309.556313 
L 372.862968 305.033338 
L 373.97217 321.617576 
L 375.081383 321.61758 
L 376.190596 317.094605 
L 378.409043 305.033338 
L 380.627469 302.018025 
L 382.845905 305.033338 
L 383.955118 297.495043 
L 385.064341 309.556313 
L 386.173543 314.079287 
L 387.282767 299.002707 
L 388.39198 312.571627 
L 389.501192 315.586944 
L 390.610416 306.540995 
L 391.71964 294.479725 
L 392.828842 297.49505 
L 393.938065 306.540999 
L 395.047278 302.018021 
L 396.156502 299.002707 
L 397.265714 288.449101 
L 398.374927 282.418459 
L 399.48414 285.433787 
L 400.593353 282.418459 
L 401.702565 300.510364 
L 402.811789 311.063974 
L 403.921002 297.49505 
L 405.030203 299.002707 
L 406.139449 280.910798 
L 407.248651 255.280619 
L 409.467076 288.449101 
L 410.5763 285.433787 
L 412.794704 282.418459 
L 413.903927 289.956747 
L 416.122375 277.895484 
L 417.231576 274.88017 
L 418.340822 268.849535 
L 419.450024 267.341882 
L 420.559226 271.864856 
L 421.668449 270.357196 
L 422.777673 253.772958 
L 423.886875 262.8189 
L 424.996099 273.37251 
L 426.1053 268.849535 
L 427.214524 289.956747 
L 428.323748 300.510364 
L 429.432949 289.956754 
L 430.542195 289.956754 
L 431.651397 282.418459 
L 432.760621 277.895492 
L 433.869822 300.510364 
L 434.979046 289.956747 
L 436.08827 280.910805 
L 437.197449 289.956754 
L 438.306673 292.972072 
L 439.415897 297.49505 
L 439.415897 297.49505 
" style="fill:none;stroke:#008000;stroke-linecap:square;stroke-opacity:0.3;"/>
   </g>
   <g id="line2d_27">
    <path clip-path="url(#p8579505184)" d="M 218.866794 341.759622 
L 218.866794 97.645606 
" style="fill:none;stroke:#1f77b4;stroke-linecap:square;"/>
   </g>
   <g id="line2d_28">
    <path clip-path="url(#p8579505184)" d="M 182.447536 311.368237 
L 183.187012 311.776719 
L 184.29623 311.940109 
L 185.405446 306.05798 
L 186.514659 307.691906 
L 187.623874 307.201732 
L 188.733095 306.548161 
L 189.842311 308.835654 
L 190.951523 308.182087 
L 192.060742 309.489225 
L 193.169954 306.548161 
L 194.279172 307.038338 
L 195.388391 309.489225 
L 196.497605 308.345477 
L 197.60682 310.959754 
L 198.716036 313.900823 
L 199.825254 310.796364 
L 200.934469 304.587447 
L 202.043685 303.77049 
L 203.1529 310.142797 
L 204.262116 309.325832 
L 205.371334 305.567806 
L 206.48055 308.508871 
L 207.589766 306.874941 
L 208.698981 303.77049 
L 209.808197 305.077628 
L 210.917414 312.103506 
L 212.026629 312.920464 
L 213.135845 304.750841 
L 214.245061 302.790135 
L 215.354277 310.959758 
L 216.463493 314.554394 
L 217.572709 308.672261 
L 218.681925 308.835654 
L 219.791141 309.979399 
L 220.900358 304.914231 
L 222.009574 304.260664 
L 223.11879 309.489222 
L 224.228005 310.632967 
L 225.337222 309.489229 
L 226.446438 308.835654 
L 227.555653 305.241018 
L 228.664869 306.874945 
L 229.774087 311.123152 
L 230.883301 312.59368 
L 231.992518 307.691906 
L 233.101735 304.750845 
L 234.210949 310.632974 
L 235.320166 308.999048 
L 236.429381 303.443702 
L 237.538598 306.05798 
L 238.647815 306.548165 
L 239.75703 307.528516 
L 240.866247 307.691909 
L 241.975463 307.365129 
L 243.084678 308.018689 
L 244.193894 307.365122 
L 245.303109 304.424061 
L 246.412325 300.339248 
L 247.521543 303.116915 
L 248.630758 304.914235 
L 250.849192 310.796364 
L 251.958407 311.449932 
L 253.067623 307.201728 
L 254.176836 306.384763 
L 255.286054 307.691906 
L 256.395269 309.979403 
L 257.504485 313.900819 
L 258.613706 311.286542 
L 259.722918 308.345481 
L 260.832134 306.548161 
L 261.941352 305.404412 
L 263.050568 307.855299 
L 264.15978 310.959758 
L 265.268999 308.508867 
L 266.378211 310.796364 
L 267.48743 310.959754 
L 268.596648 303.93388 
L 269.705861 302.13656 
L 270.815079 307.201732 
L 271.924297 309.979399 
L 273.03351 310.46958 
L 274.142728 313.410645 
L 275.251946 307.038334 
L 276.361159 305.077625 
L 277.470377 307.365118 
L 278.579595 305.567802 
L 279.688808 309.489229 
L 280.798026 311.449932 
L 281.907245 308.345477 
L 283.016457 307.201732 
L 284.125681 307.855299 
L 285.234894 304.587455 
L 286.344106 307.528512 
L 287.453325 310.796364 
L 288.562532 309.979407 
L 289.671756 309.489225 
L 290.780968 307.528512 
L 291.890192 308.999048 
L 292.999399 310.959758 
L 294.108617 308.835654 
L 295.21783 311.123152 
L 296.327048 312.757074 
L 297.436267 305.567806 
L 298.545479 306.384763 
L 299.654703 311.940113 
L 300.763916 308.182087 
L 301.873129 303.443702 
L 302.982352 306.384767 
L 304.091565 305.7312 
L 305.200789 303.280312 
L 306.309996 304.09727 
L 307.419214 308.345473 
L 308.528421 311.940113 
L 309.637645 307.201732 
L 310.746863 302.953525 
L 311.856071 307.691909 
L 312.965294 306.548157 
L 314.074507 303.280309 
L 315.183731 307.691909 
L 316.292932 305.894586 
L 317.402156 303.607092 
L 318.511369 306.874948 
L 319.620593 307.855299 
L 320.729794 310.796364 
L 321.839018 308.672264 
L 322.948231 307.201732 
L 324.057455 312.430286 
L 325.166667 307.201732 
L 326.27588 304.914235 
L 327.385104 307.691909 
L 328.494327 307.038334 
L 329.603529 308.672264 
L 330.712753 309.325832 
L 331.821966 304.09727 
L 332.931178 306.711555 
L 334.040391 310.46958 
L 335.149615 309.816013 
L 336.258828 310.306187 
L 337.36804 304.260664 
L 338.477264 302.953525 
L 340.6957 311.123148 
L 341.804902 309.816009 
L 342.914115 303.280312 
L 344.023339 304.424057 
L 345.132551 309.816009 
L 346.241775 308.672261 
L 347.350977 307.365118 
L 348.4602 311.123148 
L 349.569413 313.247248 
L 350.678637 309.325832 
L 351.787861 303.77049 
L 352.897073 303.280305 
L 354.006297 303.607096 
L 355.115488 304.424057 
L 356.224712 306.057983 
L 357.333935 306.548161 
L 358.443148 307.365122 
L 359.55235 311.613329 
L 360.661573 313.410645 
L 361.770786 311.449935 
L 362.88001 306.221373 
L 363.989234 297.88836 
L 365.098457 303.443699 
L 366.20767 309.816009 
L 367.316872 307.855299 
L 368.426096 305.404416 
L 369.535308 305.241022 
L 370.644532 307.365122 
L 371.753745 307.528516 
L 372.862968 307.528512 
L 373.97217 308.835654 
L 375.081383 309.652615 
L 376.190596 306.384767 
L 377.299819 303.607096 
L 378.409043 312.430286 
L 379.518267 315.207961 
L 380.627469 307.201732 
L 381.736692 310.46958 
L 382.845905 314.554394 
L 383.955118 312.266896 
L 385.064341 301.156213 
L 386.173543 302.299957 
L 387.282767 311.123144 
L 388.39198 309.979399 
L 389.501192 305.567806 
L 390.610416 305.89459 
L 391.71964 304.09727 
L 392.828842 300.502634 
L 393.938065 306.548157 
L 395.047278 308.999048 
L 396.156502 306.384767 
L 398.374927 307.365122 
L 399.48414 307.365122 
L 400.593353 307.691909 
L 401.702565 305.7312 
L 402.811789 306.05798 
L 403.921002 304.09727 
L 405.030203 291.025872 
L 406.139449 265.700046 
L 407.248651 250.17775 
L 408.357853 256.876845 
L 409.467076 270.275033 
L 410.5763 277.791092 
L 411.685502 282.039285 
L 412.794704 279.425007 
L 413.903927 266.190224 
L 415.013173 257.8572 
L 416.122375 257.367022 
L 417.231576 251.81168 
L 418.340822 250.341148 
L 419.450024 254.425957 
L 420.559226 253.445595 
L 421.668449 259.491122 
L 422.777673 272.88931 
L 423.886875 259.000944 
L 424.996099 252.792028 
L 426.1053 266.680394 
L 427.214524 265.373251 
L 428.323748 264.719684 
L 429.432949 264.556294 
L 430.542195 263.249144 
L 431.651397 270.438423 
L 432.760621 269.131281 
L 433.869822 262.595592 
L 434.979046 271.908948 
L 436.08827 273.869658 
L 437.197449 279.915185 
L 438.306673 280.568752 
L 439.415897 266.190216 
L 439.415897 266.190216 
" style="fill:none;stroke:#008000;stroke-linecap:square;"/>
   </g>
   <g id="line2d_29">
    <path clip-path="url(#p8579505184)" d="M 403.736124 341.759622 
L 403.736124 97.645606 
" style="fill:none;stroke:#1f77b4;stroke-linecap:square;"/>
   </g>
   <g id="patch_3">
    <path d="M 169.599118 341.759622 
L 169.599118 97.645606 
" style="fill:none;stroke:#000000;stroke-linecap:square;stroke-linejoin:miter;stroke-width:0.8;"/>
   </g>
   <g id="patch_4">
    <path d="M 452.264315 341.759622 
L 452.264315 97.645606 
" style="fill:none;stroke:#000000;stroke-linecap:square;stroke-linejoin:miter;stroke-width:0.8;"/>
   </g>
   <g id="patch_5">
    <path d="M 169.599118 341.759622 
L 452.264315 341.759622 
" style="fill:none;stroke:#000000;stroke-linecap:square;stroke-linejoin:miter;stroke-width:0.8;"/>
   </g>
   <g id="patch_6">
    <path d="M 169.599118 97.645606 
L 452.264315 97.645606 
" style="fill:none;stroke:#000000;stroke-linecap:square;stroke-linejoin:miter;stroke-width:0.8;"/>
   </g>
  </g>
 </g>
 <defs>
  <clipPath id="p8579505184">
   <rect height="244.114016" width="282.665197" x="169.599118" y="97.645606"/>
  </clipPath>
 </defs>
</svg>
