<?xml version="1.0" encoding="utf-8" standalone="no"?>
<!DOCTYPE svg PUBLIC "-//W3C//DTD SVG 1.1//EN"
  "http://www.w3.org/Graphics/SVG/1.1/DTD/svg11.dtd">
<svg height="488.228031pt" version="1.1" viewBox="0 0 565.330394 488.228031" width="565.330394pt" xmlns="http://www.w3.org/2000/svg" xmlns:xlink="http://www.w3.org/1999/xlink">
 <metadata>
  <rdf:RDF xmlns:cc="http://creativecommons.org/ns#" xmlns:dc="http://purl.org/dc/elements/1.1/" xmlns:rdf="http://www.w3.org/1999/02/22-rdf-syntax-ns#">
   <cc:Work>
    <dc:type rdf:resource="http://purl.org/dc/dcmitype/StillImage"/>
    <dc:date>2023-10-10T14:12:23.013681</dc:date>
    <dc:format>image/svg+xml</dc:format>
    <dc:creator>
     <cc:Agent>
      <dc:title>Matplotlib v3.4.2, https://matplotlib.org/</dc:title>
     </cc:Agent>
    </dc:creator>
   </cc:Work>
  </rdf:RDF>
 </metadata>
 <defs>
  <style type="text/css">*{stroke-linecap:butt;stroke-linejoin:round;}</style>
 </defs>
 <g id="figure_1">
  <g id="patch_1">
   <path d="M 0 488.228031 
L 565.330394 488.228031 
L 565.330394 0 
L 0 0 
z
" style="fill:#ffffff;"/>
  </g>
  <g id="axes_1">
   <g id="patch_2">
    <path d="M 169.599118 341.759622 
L 452.264315 341.759622 
L 452.264315 97.645606 
L 169.599118 97.645606 
z
" style="fill:#ffffff;"/>
   </g>
   <g id="matplotlib.axis_1">
    <g id="xtick_1">
     <g id="line2d_1">
      <defs>
       <path d="M 0 0 
L 0 3.5 
" id="m9854d974b8" style="stroke:#000000;stroke-width:0.8;"/>
      </defs>
      <g>
       <use style="stroke:#000000;stroke-width:0.8;" x="181.892928" xlink:href="#m9854d974b8" y="341.759622"/>
      </g>
     </g>
     <g id="text_1">
      <!-- −0.2 -->
      <g transform="translate(175.97074 353.05431)scale(0.06 -0.06)">
       <defs>
        <path d="M 266 1850 
L 266 2672 
L 3469 2672 
L 3469 1850 
L 266 1850 
z
" id="Arial-BoldMT-2212" transform="scale(0.015625)"/>
        <path d="M 1756 4600 
Q 2422 4600 2797 4125 
Q 3244 3563 3244 2259 
Q 3244 959 2794 391 
Q 2422 -78 1756 -78 
Q 1088 -78 678 436 
Q 269 950 269 2269 
Q 269 3563 719 4131 
Q 1091 4600 1756 4600 
z
M 1756 3872 
Q 1597 3872 1472 3770 
Q 1347 3669 1278 3406 
Q 1188 3066 1188 2259 
Q 1188 1453 1269 1151 
Q 1350 850 1473 750 
Q 1597 650 1756 650 
Q 1916 650 2041 751 
Q 2166 853 2234 1116 
Q 2325 1453 2325 2259 
Q 2325 3066 2244 3367 
Q 2163 3669 2039 3770 
Q 1916 3872 1756 3872 
z
" id="Arial-BoldMT-30" transform="scale(0.015625)"/>
        <path d="M 459 0 
L 459 878 
L 1338 878 
L 1338 0 
L 459 0 
z
" id="Arial-BoldMT-2e" transform="scale(0.015625)"/>
        <path d="M 3238 816 
L 3238 0 
L 159 0 
Q 209 463 459 877 
Q 709 1291 1447 1975 
Q 2041 2528 2175 2725 
Q 2356 2997 2356 3263 
Q 2356 3556 2198 3714 
Q 2041 3872 1763 3872 
Q 1488 3872 1325 3706 
Q 1163 3541 1138 3156 
L 263 3244 
Q 341 3969 753 4284 
Q 1166 4600 1784 4600 
Q 2463 4600 2850 4234 
Q 3238 3869 3238 3325 
Q 3238 3016 3127 2736 
Q 3016 2456 2775 2150 
Q 2616 1947 2200 1565 
Q 1784 1184 1673 1059 
Q 1563 934 1494 816 
L 3238 816 
z
" id="Arial-BoldMT-32" transform="scale(0.015625)"/>
       </defs>
       <use xlink:href="#Arial-BoldMT-2212"/>
       <use x="58.398438" xlink:href="#Arial-BoldMT-30"/>
       <use x="114.013672" xlink:href="#Arial-BoldMT-2e"/>
       <use x="141.796875" xlink:href="#Arial-BoldMT-32"/>
      </g>
     </g>
    </g>
    <g id="xtick_2">
     <g id="line2d_2">
      <g>
       <use style="stroke:#000000;stroke-width:0.8;" x="218.866794" xlink:href="#m9854d974b8" y="341.759622"/>
      </g>
     </g>
     <g id="text_2">
      <!-- 0.0 -->
      <g transform="translate(214.696794 353.05431)scale(0.06 -0.06)">
       <use xlink:href="#Arial-BoldMT-30"/>
       <use x="55.615234" xlink:href="#Arial-BoldMT-2e"/>
       <use x="83.398438" xlink:href="#Arial-BoldMT-30"/>
      </g>
     </g>
    </g>
    <g id="xtick_3">
     <g id="line2d_3">
      <g>
       <use style="stroke:#000000;stroke-width:0.8;" x="255.84066" xlink:href="#m9854d974b8" y="341.759622"/>
      </g>
     </g>
     <g id="text_3">
      <!-- 0.2 -->
      <g transform="translate(251.67066 353.05431)scale(0.06 -0.06)">
       <use xlink:href="#Arial-BoldMT-30"/>
       <use x="55.615234" xlink:href="#Arial-BoldMT-2e"/>
       <use x="83.398438" xlink:href="#Arial-BoldMT-32"/>
      </g>
     </g>
    </g>
    <g id="xtick_4">
     <g id="line2d_4">
      <g>
       <use style="stroke:#000000;stroke-width:0.8;" x="292.814526" xlink:href="#m9854d974b8" y="341.759622"/>
      </g>
     </g>
     <g id="text_4">
      <!-- 0.4 -->
      <g transform="translate(288.644526 353.05431)scale(0.06 -0.06)">
       <defs>
        <path d="M 1994 0 
L 1994 922 
L 119 922 
L 119 1691 
L 2106 4600 
L 2844 4600 
L 2844 1694 
L 3413 1694 
L 3413 922 
L 2844 922 
L 2844 0 
L 1994 0 
z
M 1994 1694 
L 1994 3259 
L 941 1694 
L 1994 1694 
z
" id="Arial-BoldMT-34" transform="scale(0.015625)"/>
       </defs>
       <use xlink:href="#Arial-BoldMT-30"/>
       <use x="55.615234" xlink:href="#Arial-BoldMT-2e"/>
       <use x="83.398438" xlink:href="#Arial-BoldMT-34"/>
      </g>
     </g>
    </g>
    <g id="xtick_5">
     <g id="line2d_5">
      <g>
       <use style="stroke:#000000;stroke-width:0.8;" x="329.788392" xlink:href="#m9854d974b8" y="341.759622"/>
      </g>
     </g>
     <g id="text_5">
      <!-- 0.6 -->
      <g transform="translate(325.618392 353.05431)scale(0.06 -0.06)">
       <defs>
        <path d="M 3247 3459 
L 2397 3366 
Q 2366 3628 2234 3753 
Q 2103 3878 1894 3878 
Q 1616 3878 1423 3628 
Q 1231 3378 1181 2588 
Q 1509 2975 1997 2975 
Q 2547 2975 2939 2556 
Q 3331 2138 3331 1475 
Q 3331 772 2918 347 
Q 2506 -78 1859 -78 
Q 1166 -78 719 461 
Q 272 1000 272 2228 
Q 272 3488 737 4044 
Q 1203 4600 1947 4600 
Q 2469 4600 2811 4308 
Q 3153 4016 3247 3459 
z
M 1256 1544 
Q 1256 1116 1453 883 
Q 1650 650 1903 650 
Q 2147 650 2309 840 
Q 2472 1031 2472 1466 
Q 2472 1913 2297 2120 
Q 2122 2328 1859 2328 
Q 1606 2328 1431 2129 
Q 1256 1931 1256 1544 
z
" id="Arial-BoldMT-36" transform="scale(0.015625)"/>
       </defs>
       <use xlink:href="#Arial-BoldMT-30"/>
       <use x="55.615234" xlink:href="#Arial-BoldMT-2e"/>
       <use x="83.398438" xlink:href="#Arial-BoldMT-36"/>
      </g>
     </g>
    </g>
    <g id="xtick_6">
     <g id="line2d_6">
      <g>
       <use style="stroke:#000000;stroke-width:0.8;" x="366.762258" xlink:href="#m9854d974b8" y="341.759622"/>
      </g>
     </g>
     <g id="text_6">
      <!-- 0.8 -->
      <g transform="translate(362.592258 353.05431)scale(0.06 -0.06)">
       <defs>
        <path d="M 1025 2472 
Q 684 2616 529 2867 
Q 375 3119 375 3419 
Q 375 3931 733 4265 
Q 1091 4600 1750 4600 
Q 2403 4600 2764 4265 
Q 3125 3931 3125 3419 
Q 3125 3100 2959 2851 
Q 2794 2603 2494 2472 
Q 2875 2319 3073 2025 
Q 3272 1731 3272 1347 
Q 3272 713 2867 316 
Q 2463 -81 1791 -81 
Q 1166 -81 750 247 
Q 259 634 259 1309 
Q 259 1681 443 1992 
Q 628 2303 1025 2472 
z
M 1206 3356 
Q 1206 3094 1354 2947 
Q 1503 2800 1750 2800 
Q 2000 2800 2150 2948 
Q 2300 3097 2300 3359 
Q 2300 3606 2151 3754 
Q 2003 3903 1759 3903 
Q 1506 3903 1356 3753 
Q 1206 3603 1206 3356 
z
M 1125 1394 
Q 1125 1031 1311 828 
Q 1497 625 1775 625 
Q 2047 625 2225 820 
Q 2403 1016 2403 1384 
Q 2403 1706 2222 1901 
Q 2041 2097 1763 2097 
Q 1441 2097 1283 1875 
Q 1125 1653 1125 1394 
z
" id="Arial-BoldMT-38" transform="scale(0.015625)"/>
       </defs>
       <use xlink:href="#Arial-BoldMT-30"/>
       <use x="55.615234" xlink:href="#Arial-BoldMT-2e"/>
       <use x="83.398438" xlink:href="#Arial-BoldMT-38"/>
      </g>
     </g>
    </g>
    <g id="xtick_7">
     <g id="line2d_7">
      <g>
       <use style="stroke:#000000;stroke-width:0.8;" x="403.736124" xlink:href="#m9854d974b8" y="341.759622"/>
      </g>
     </g>
     <g id="text_7">
      <!-- 1.0 -->
      <g transform="translate(399.566124 353.05431)scale(0.06 -0.06)">
       <defs>
        <path d="M 2519 0 
L 1641 0 
L 1641 3309 
Q 1159 2859 506 2644 
L 506 3441 
Q 850 3553 1253 3867 
Q 1656 4181 1806 4600 
L 2519 4600 
L 2519 0 
z
" id="Arial-BoldMT-31" transform="scale(0.015625)"/>
       </defs>
       <use xlink:href="#Arial-BoldMT-31"/>
       <use x="55.615234" xlink:href="#Arial-BoldMT-2e"/>
       <use x="83.398438" xlink:href="#Arial-BoldMT-30"/>
      </g>
     </g>
    </g>
    <g id="xtick_8">
     <g id="line2d_8">
      <g>
       <use style="stroke:#000000;stroke-width:0.8;" x="440.70999" xlink:href="#m9854d974b8" y="341.759622"/>
      </g>
     </g>
     <g id="text_8">
      <!-- 1.2 -->
      <g transform="translate(436.53999 353.05431)scale(0.06 -0.06)">
       <use xlink:href="#Arial-BoldMT-31"/>
       <use x="55.615234" xlink:href="#Arial-BoldMT-2e"/>
       <use x="83.398438" xlink:href="#Arial-BoldMT-32"/>
      </g>
     </g>
    </g>
   </g>
   <g id="matplotlib.axis_2">
    <g id="ytick_1">
     <g id="line2d_9">
      <defs>
       <path d="M 0 0 
L -3.5 0 
" id="m48eda48a13" style="stroke:#000000;stroke-width:0.8;"/>
      </defs>
      <g>
       <use style="stroke:#000000;stroke-width:0.8;" x="169.599118" xlink:href="#m48eda48a13" y="327.446897"/>
      </g>
     </g>
     <g id="text_9">
      <!-- 2 -->
      <g transform="translate(159.262556 329.594241)scale(0.06 -0.06)">
       <use xlink:href="#Arial-BoldMT-32"/>
      </g>
     </g>
    </g>
    <g id="ytick_2">
     <g id="line2d_10">
      <g>
       <use style="stroke:#000000;stroke-width:0.8;" x="169.599118" xlink:href="#m48eda48a13" y="273.334269"/>
      </g>
     </g>
     <g id="text_10">
      <!-- 4 -->
      <g transform="translate(159.262556 275.481612)scale(0.06 -0.06)">
       <use xlink:href="#Arial-BoldMT-34"/>
      </g>
     </g>
    </g>
    <g id="ytick_3">
     <g id="line2d_11">
      <g>
       <use style="stroke:#000000;stroke-width:0.8;" x="169.599118" xlink:href="#m48eda48a13" y="219.22164"/>
      </g>
     </g>
     <g id="text_11">
      <!-- 6 -->
      <g transform="translate(159.262556 221.368984)scale(0.06 -0.06)">
       <use xlink:href="#Arial-BoldMT-36"/>
      </g>
     </g>
    </g>
    <g id="ytick_4">
     <g id="line2d_12">
      <g>
       <use style="stroke:#000000;stroke-width:0.8;" x="169.599118" xlink:href="#m48eda48a13" y="165.109011"/>
      </g>
     </g>
     <g id="text_12">
      <!-- 8 -->
      <g transform="translate(159.262556 167.256355)scale(0.06 -0.06)">
       <use xlink:href="#Arial-BoldMT-38"/>
      </g>
     </g>
    </g>
    <g id="ytick_5">
     <g id="line2d_13">
      <g>
       <use style="stroke:#000000;stroke-width:0.8;" x="169.599118" xlink:href="#m48eda48a13" y="110.996382"/>
      </g>
     </g>
     <g id="text_13">
      <!-- 10 -->
      <g transform="translate(155.925993 113.143726)scale(0.06 -0.06)">
       <use xlink:href="#Arial-BoldMT-31"/>
       <use x="55.615234" xlink:href="#Arial-BoldMT-30"/>
      </g>
     </g>
    </g>
   </g>
   <g id="line2d_14">
    <path clip-path="url(#p4d3c08ed23)" d="M 182.447536 285.673447 
L 184.29623 271.975436 
L 185.405446 273.801843 
L 187.623874 292.065848 
L 188.733095 288.413039 
L 189.842311 283.847046 
L 190.951523 289.326249 
L 192.060742 279.281034 
L 193.169954 271.062232 
L 195.388391 263.756628 
L 196.497605 266.496239 
L 197.60682 268.322621 
L 198.716036 275.628238 
L 199.825254 281.107441 
L 200.934469 281.107441 
L 202.043685 273.80183 
L 203.1529 267.40943 
L 204.262116 274.715028 
L 205.371334 274.715041 
L 206.48055 276.541442 
L 207.589766 292.065854 
L 208.698981 292.979051 
L 209.808197 277.454639 
L 210.917414 274.715041 
L 212.026629 276.541435 
L 213.135845 280.194244 
L 214.245061 270.149041 
L 215.354277 253.711412 
L 216.463493 258.277418 
L 217.572709 277.454639 
L 218.681925 287.499855 
L 219.791141 291.152657 
L 220.900358 292.065854 
L 222.009574 280.194244 
L 223.11879 292.065854 
L 224.228005 298.458255 
L 225.337222 283.847046 
L 226.446438 290.239459 
L 227.555653 302.111057 
L 228.664869 289.326249 
L 229.774087 288.413052 
L 230.883301 297.545057 
L 231.992518 299.371458 
L 233.101735 292.979045 
L 234.210949 284.760243 
L 235.320166 293.892249 
L 236.429381 297.545064 
L 237.538598 296.63186 
L 238.647815 298.458261 
L 239.75703 285.673441 
L 240.866247 292.979051 
L 241.975463 306.677063 
L 243.084678 294.805459 
L 244.193894 291.152657 
L 246.412325 282.020638 
L 247.521543 280.194231 
L 248.630758 270.149041 
L 249.739974 270.149028 
L 250.849192 275.628238 
L 251.958407 279.281046 
L 253.067623 283.847046 
L 255.286054 271.062245 
L 257.504485 289.326236 
L 258.613706 287.499842 
L 259.722918 283.847046 
L 260.832134 281.107428 
L 261.941352 282.020638 
L 264.15978 274.715028 
L 265.268999 281.107428 
L 266.378211 271.062245 
L 267.48743 268.322621 
L 268.596648 282.933849 
L 270.815079 266.496226 
L 271.924297 266.496226 
L 273.03351 254.624629 
L 274.142728 261.017042 
L 275.251946 278.367836 
L 276.361159 276.541435 
L 277.470377 280.194231 
L 278.579595 285.673447 
L 279.688808 287.499855 
L 280.798026 302.111063 
L 281.907245 300.284662 
L 283.016457 295.71865 
L 284.125681 297.545057 
L 285.234894 280.194244 
L 286.344106 282.020651 
L 287.453325 290.239446 
L 288.562532 289.326249 
L 289.671756 294.805452 
L 290.780968 294.805452 
L 291.890192 282.933849 
L 292.999399 286.586657 
L 294.108617 296.631853 
L 295.21783 281.107441 
L 296.327048 272.888639 
L 297.436267 276.541442 
L 298.545479 287.499855 
L 299.654703 288.413052 
L 300.763916 284.760243 
L 301.873129 279.281046 
L 302.982352 269.235837 
L 304.091565 275.628238 
L 305.200789 278.367836 
L 306.309996 282.933849 
L 307.419214 291.152657 
L 308.528421 286.586657 
L 309.637645 279.281034 
L 310.746863 282.933849 
L 311.856071 290.239446 
L 312.965294 286.586644 
L 315.183731 265.583048 
L 316.292932 261.93022 
L 317.402156 277.45462 
L 318.511369 286.586644 
L 319.620593 293.892255 
L 320.729794 295.718656 
L 321.839018 292.979058 
L 322.948231 294.805459 
L 324.057455 303.02426 
L 325.166667 313.06947 
L 326.27588 306.677069 
L 327.385104 315.809075 
L 328.494327 311.243069 
L 329.603529 296.631866 
L 331.821966 307.59026 
L 332.931178 303.937464 
L 334.040391 295.718663 
L 335.149615 302.111057 
L 336.258828 301.197853 
L 337.36804 298.458255 
L 338.477264 298.458267 
L 339.586477 285.673447 
L 340.6957 294.805452 
L 341.804902 308.50347 
L 342.914115 295.71865 
L 344.023339 286.586644 
L 345.132551 291.152657 
L 346.241775 291.152657 
L 347.350977 300.284662 
L 348.4602 307.590266 
L 349.569413 307.59026 
L 350.678637 300.284662 
L 351.787861 289.326262 
L 352.897073 297.545064 
L 354.006297 296.63186 
L 355.115488 305.763859 
L 356.224712 320.375074 
L 357.333935 309.416661 
L 358.443148 302.111057 
L 359.55235 304.850668 
L 360.661573 299.371458 
L 361.770786 296.631847 
L 362.88001 291.152657 
L 363.989234 270.149028 
L 365.098457 275.628238 
L 366.20767 282.020638 
L 367.316872 272.888639 
L 368.426096 274.715047 
L 369.535308 279.281034 
L 370.644532 290.239446 
L 372.862968 263.756641 
L 373.97217 269.235837 
L 376.190596 292.065854 
L 377.299819 288.413052 
L 378.409043 290.239446 
L 379.518267 286.586644 
L 380.627469 289.326249 
L 381.736692 299.371465 
L 382.845905 291.152657 
L 385.064341 310.329858 
L 386.173543 296.63186 
L 387.282767 296.63186 
L 388.39198 297.545051 
L 390.610416 290.239446 
L 391.71964 289.326249 
L 392.828842 282.933849 
L 393.938065 285.673441 
L 395.047278 300.284662 
L 396.156502 297.545057 
L 397.265714 293.892249 
L 398.374927 306.677069 
L 399.48414 313.982667 
L 400.593353 315.809068 
L 401.702565 309.416668 
L 402.811789 299.371452 
L 403.921002 302.11105 
L 405.030203 291.152657 
L 406.139449 273.801843 
L 407.248651 259.190635 
L 408.357853 252.798221 
L 409.467076 263.756628 
L 410.5763 282.020638 
L 411.685502 277.454632 
L 413.903927 199.83257 
L 415.013173 186.134566 
L 416.122375 183.394954 
L 417.231576 187.047769 
L 418.340822 194.353374 
L 419.450024 216.2702 
L 420.559226 233.621007 
L 421.668449 211.704168 
L 422.777673 216.270187 
L 423.886875 229.968217 
L 424.996099 219.923002 
L 426.1053 219.922989 
L 428.323748 260.103825 
L 429.432949 250.058623 
L 430.542195 248.232215 
L 431.651397 261.017042 
L 432.760621 271.975436 
L 433.869822 279.281046 
L 434.979046 274.715028 
L 436.08827 262.843437 
L 437.197449 270.149028 
L 438.306673 264.669831 
L 439.415897 252.798221 
L 439.415897 252.798221 
" style="fill:none;stroke:#ff0000;stroke-linecap:square;stroke-opacity:0.3;"/>
   </g>
   <g id="line2d_15">
    <path clip-path="url(#p4d3c08ed23)" d="M 218.866794 341.759622 
L 218.866794 97.645606 
" style="fill:none;stroke:#1f77b4;stroke-linecap:square;"/>
   </g>
   <g id="line2d_16">
    <path clip-path="url(#p4d3c08ed23)" d="M 182.447536 268.766328 
L 183.187012 282.704428 
L 184.29623 286.218237 
L 185.405446 275.442567 
L 186.514659 275.325434 
L 187.623874 280.947528 
L 188.733095 281.884534 
L 189.842311 282.235925 
L 190.951523 278.253607 
L 192.060742 271.108871 
L 193.169954 276.028209 
L 194.279172 283.172938 
L 195.388391 279.542004 
L 196.497605 277.78511 
L 197.60682 278.487858 
L 198.716036 282.93868 
L 199.825254 279.542004 
L 200.934469 278.019349 
L 202.043685 280.596143 
L 203.1529 272.748646 
L 204.262116 278.136487 
L 205.371334 276.84809 
L 206.48055 278.839249 
L 207.589766 281.767415 
L 208.698981 278.839243 
L 209.808197 283.172938 
L 210.917414 281.884547 
L 212.026629 282.938687 
L 213.135845 285.632595 
L 214.245061 283.875713 
L 215.354277 276.379586 
L 216.463493 280.713276 
L 217.572709 285.632607 
L 219.791141 262.324347 
L 220.900358 255.882379 
L 223.11879 268.88346 
L 225.337222 287.740886 
L 226.446438 284.695594 
L 227.555653 290.317674 
L 228.664869 297.228165 
L 229.774087 295.002754 
L 230.883301 293.128721 
L 231.992518 293.948609 
L 233.101735 292.660224 
L 234.210949 288.209402 
L 235.320166 286.921005 
L 236.429381 287.389495 
L 237.538598 282.704428 
L 238.647815 284.109952 
L 239.75703 289.380661 
L 240.866247 287.272376 
L 241.975463 287.038124 
L 243.084678 284.461329 
L 244.193894 275.911076 
L 245.303109 278.722123 
L 246.412325 276.613838 
L 247.521543 272.982885 
L 248.630758 282.704441 
L 249.739974 278.722123 
L 250.849192 280.479024 
L 251.958407 286.452495 
L 253.067623 280.596143 
L 254.176836 273.100017 
L 256.395269 280.713276 
L 257.504485 277.550845 
L 258.613706 278.253607 
L 259.722918 276.613825 
L 260.832134 273.217149 
L 261.941352 275.911076 
L 263.050568 278.136481 
L 265.268999 274.037043 
L 266.378211 276.84809 
L 267.48743 281.064653 
L 268.596648 277.199467 
L 269.705861 274.154169 
L 270.815079 276.965209 
L 271.924297 283.172938 
L 273.03351 277.902229 
L 274.142728 274.739811 
L 275.251946 272.631526 
L 276.361159 274.856924 
L 277.470377 281.533163 
L 278.579595 276.145328 
L 279.688808 271.460242 
L 281.907245 282.353044 
L 283.016457 284.929846 
L 284.125681 283.40719 
L 285.234894 275.091182 
L 286.344106 275.325434 
L 287.453325 282.001654 
L 288.562532 279.424872 
L 289.671756 275.325434 
L 291.890192 281.416037 
L 292.999399 280.713276 
L 294.108617 280.713276 
L 295.21783 279.542004 
L 296.327048 277.667965 
L 297.436267 276.145315 
L 298.545479 275.442567 
L 299.654703 278.956368 
L 300.763916 283.290071 
L 301.873129 274.037043 
L 302.982352 270.054719 
L 304.091565 281.416025 
L 305.200789 276.730958 
L 306.309996 279.073501 
L 307.419214 277.199467 
L 308.528421 270.288983 
L 309.637645 280.713276 
L 310.746863 284.344204 
L 311.856071 280.830408 
L 312.965294 273.568527 
L 314.074507 270.640367 
L 315.183731 268.649195 
L 316.292932 277.3166 
L 317.402156 281.298905 
L 318.511369 271.928771 
L 319.620593 277.785097 
L 320.729794 282.353057 
L 321.839018 279.307752 
L 322.948231 276.613838 
L 324.057455 274.97405 
L 325.166667 277.199467 
L 326.27588 275.442554 
L 327.385104 276.613838 
L 328.494327 278.72211 
L 329.603529 279.424885 
L 330.712753 278.605004 
L 331.821966 276.145328 
L 332.931178 271.928758 
L 334.040391 272.982897 
L 335.149615 281.884534 
L 336.258828 278.956368 
L 337.36804 278.839243 
L 338.477264 282.938687 
L 339.586477 274.505553 
L 340.6957 269.117724 
L 341.804902 276.028209 
L 342.914115 281.298905 
L 344.023339 282.470177 
L 345.132551 278.253607 
L 346.241775 271.811639 
L 347.350977 273.334288 
L 348.4602 269.351963 
L 349.569413 270.874606 
L 350.678637 278.72211 
L 351.787861 280.244766 
L 352.897073 285.164091 
L 354.006297 278.956368 
L 355.115488 271.108871 
L 357.333935 277.082335 
L 358.443148 275.676812 
L 359.55235 276.262448 
L 360.661573 276.262448 
L 361.770786 275.559692 
L 362.88001 273.100017 
L 363.989234 276.028196 
L 365.098457 278.370726 
L 366.20767 277.082335 
L 367.316872 279.776249 
L 368.426096 279.65913 
L 369.535308 284.578462 
L 370.644532 282.353044 
L 371.753745 269.820467 
L 372.862968 267.126552 
L 373.97217 273.802791 
L 375.081383 270.406115 
L 376.190596 272.865778 
L 377.299819 280.947534 
L 378.409043 279.073501 
L 379.518267 280.127634 
L 380.627469 275.442567 
L 381.736692 272.865765 
L 382.845905 278.136481 
L 383.955118 271.928758 
L 385.064341 273.802791 
L 386.173543 280.713276 
L 387.282767 280.830408 
L 388.39198 276.028196 
L 389.501192 272.631526 
L 390.610416 274.388421 
L 391.71964 278.72211 
L 392.828842 281.533157 
L 393.938065 281.416037 
L 395.047278 281.884547 
L 396.156502 275.911064 
L 397.265714 278.019361 
L 398.374927 283.641448 
L 399.48414 284.34421 
L 400.593353 278.136481 
L 401.702565 274.622673 
L 402.811789 280.361892 
L 403.921002 278.370739 
L 405.030203 255.882379 
L 406.139449 240.538742 
L 407.248651 238.196211 
L 408.357853 243.232669 
L 409.467076 260.216068 
L 410.5763 270.28897 
L 411.685502 259.044797 
L 412.794704 235.853681 
L 413.903927 231.637098 
L 415.013173 235.268032 
L 416.122375 234.331025 
L 417.231576 225.546501 
L 418.340822 223.555355 
L 419.450024 233.511151 
L 420.559226 239.953119 
L 421.668449 245.223828 
L 422.777673 244.40394 
L 423.886875 238.430463 
L 424.996099 229.060316 
L 426.1053 239.25035 
L 427.214524 252.01718 
L 428.323748 248.386246 
L 429.432949 251.43157 
L 430.542195 260.567426 
L 431.651397 260.918823 
L 432.760621 258.927677 
L 433.869822 256.702253 
L 434.979046 255.648114 
L 436.08827 259.044797 
L 437.197449 261.972975 
L 438.306673 262.324347 
L 439.415897 260.567452 
L 439.415897 260.567452 
" style="fill:none;stroke:#ff0000;stroke-linecap:square;"/>
   </g>
   <g id="line2d_17">
    <path clip-path="url(#p4d3c08ed23)" d="M 182.447536 280.315905 
L 183.187012 284.499518 
L 184.29623 285.057344 
L 185.405446 271.669761 
L 186.514659 272.785389 
L 187.623874 276.132278 
L 188.733095 277.247912 
L 189.842311 288.962054 
L 190.951523 297.887114 
L 192.060742 301.79183 
L 193.169954 299.560555 
L 194.279172 304.023085 
L 195.388391 302.907457 
L 196.497605 297.88712 
L 197.60682 299.560568 
L 198.716036 301.791823 
L 199.825254 304.580905 
L 200.934469 300.676189 
L 202.043685 293.982398 
L 204.262116 283.383903 
L 205.371334 290.635502 
L 206.48055 293.424584 
L 207.589766 299.560561 
L 208.698981 303.465277 
L 209.808197 291.751136 
L 210.917414 290.077688 
L 212.026629 286.730786 
L 213.135845 272.227569 
L 214.245061 266.091585 
L 215.354277 270.554121 
L 216.463493 273.90103 
L 217.572709 269.996314 
L 218.681925 268.322866 
L 219.791141 275.574465 
L 220.900358 277.247912 
L 222.009574 271.111941 
L 223.11879 274.458837 
L 224.228005 278.363553 
L 225.337222 290.077688 
L 226.446438 307.369987 
L 227.555653 306.812167 
L 229.774087 316.85286 
L 230.883301 312.390331 
L 231.992518 307.369987 
L 233.101735 309.043435 
L 234.210949 309.601242 
L 236.429381 296.213659 
L 238.647815 280.037001 
L 239.75703 286.172966 
L 240.866247 290.635502 
L 243.084678 290.635495 
L 244.193894 289.519874 
L 245.303109 297.3293 
L 246.412325 293.424571 
L 247.521543 288.962054 
L 248.630758 283.383897 
L 249.739974 281.152641 
L 250.849192 277.247912 
L 251.958407 265.533777 
L 253.067623 273.343203 
L 254.176836 283.94171 
L 255.286054 286.730792 
L 256.395269 282.826089 
L 257.504485 273.901023 
L 259.722918 291.193322 
L 260.832134 290.077688 
L 261.941352 289.519868 
L 263.050568 281.710442 
L 264.15978 280.036994 
L 265.268999 279.479181 
L 266.378211 280.594828 
L 267.48743 278.921373 
L 268.596648 282.268262 
L 269.705861 286.172978 
L 270.815079 267.765045 
L 271.924297 272.785389 
L 273.03351 281.710449 
L 274.142728 275.016644 
L 275.251946 275.574465 
L 276.361159 272.227569 
L 277.470377 270.554121 
L 278.579595 276.132278 
L 279.688808 273.901017 
L 280.798026 274.458837 
L 281.907245 281.710455 
L 283.016457 277.247912 
L 284.125681 269.438493 
L 285.234894 274.458837 
L 286.344106 285.615158 
L 287.453325 273.343209 
L 288.562532 272.227569 
L 289.671756 272.785389 
L 290.780968 261.071241 
L 291.890192 266.091598 
L 292.999399 269.43848 
L 294.108617 271.669761 
L 295.21783 268.880673 
L 296.327048 261.629061 
L 297.436267 268.322853 
L 298.545479 279.479181 
L 299.654703 272.785389 
L 300.763916 271.111941 
L 301.873129 269.996314 
L 302.982352 275.016644 
L 304.091565 280.594815 
L 305.200789 268.322866 
L 306.309996 272.785389 
L 307.419214 275.016651 
L 308.528421 269.438493 
L 309.637645 267.207225 
L 310.746863 258.839999 
L 311.856071 259.955639 
L 312.965294 264.41815 
L 314.074507 251.588387 
L 315.183731 257.724358 
L 316.292932 271.111928 
L 317.402156 267.207238 
L 318.511369 274.458831 
L 319.620593 274.458837 
L 320.729794 271.669749 
L 321.839018 275.574465 
L 322.948231 268.322853 
L 324.057455 268.322853 
L 325.166667 284.499537 
L 326.27588 292.30895 
L 327.385104 286.172978 
L 328.494327 277.247912 
L 329.603529 277.247912 
L 330.712753 280.037001 
L 331.821966 281.710449 
L 332.931178 282.826076 
L 334.040391 272.227582 
L 335.149615 260.513434 
L 336.258828 260.513434 
L 337.36804 266.649418 
L 338.477264 259.955626 
L 339.586477 259.955614 
L 340.6957 262.186882 
L 341.804902 253.819642 
L 342.914115 268.322866 
L 344.023339 271.111941 
L 345.132551 260.513434 
L 346.241775 258.839986 
L 348.4602 247.683658 
L 349.569413 250.472747 
L 350.678637 262.186895 
L 351.787861 265.533777 
L 354.006297 234.853908 
L 355.115488 236.527343 
L 356.224712 252.146194 
L 357.333935 265.53379 
L 358.443148 258.839986 
L 359.55235 263.86033 
L 360.661573 271.111941 
L 361.770786 268.322853 
L 362.88001 267.207225 
L 363.989234 258.282166 
L 365.098457 258.282179 
L 366.20767 259.955614 
L 367.316872 258.282179 
L 368.426096 254.377463 
L 369.535308 258.282179 
L 370.644532 253.261822 
L 371.753745 243.778942 
L 372.862968 244.33675 
L 373.97217 247.125838 
L 376.190596 236.527343 
L 377.299819 244.894583 
L 378.409043 244.336762 
L 379.518267 253.819642 
L 380.627469 246.010197 
L 381.736692 243.778942 
L 382.845905 247.683658 
L 383.955118 235.411716 
L 385.064341 242.663327 
L 386.173543 253.261835 
L 387.282767 246.568043 
L 388.39198 240.989867 
L 389.501192 248.799286 
L 390.610416 251.03058 
L 391.71964 257.724358 
L 392.828842 256.05091 
L 393.938065 249.914939 
L 395.047278 246.568031 
L 396.156502 238.200778 
L 397.265714 243.221135 
L 398.374927 246.568031 
L 399.48414 252.146194 
L 400.593353 251.588374 
L 401.702565 246.01021 
L 402.811789 242.105507 
L 403.921002 234.853896 
L 405.030203 218.677224 
L 406.139449 199.711477 
L 408.357853 252.146194 
L 409.467076 252.146194 
L 410.5763 233.180448 
L 411.685502 189.112983 
L 412.794704 177.398848 
L 413.903927 183.534806 
L 415.013173 176.283194 
L 416.122375 164.011252 
L 417.231576 137.793893 
L 418.340822 144.487685 
L 419.450024 165.684687 
L 420.559226 156.759653 
L 421.668449 164.011252 
L 422.777673 157.875268 
L 423.886875 140.582982 
L 424.996099 147.276747 
L 426.1053 166.242507 
L 427.214524 157.875268 
L 428.323748 141.140789 
L 429.432949 146.718966 
L 430.542195 158.433049 
L 431.651397 175.725387 
L 432.760621 162.895611 
L 433.869822 147.276773 
L 434.979046 155.086179 
L 436.08827 158.990908 
L 437.197449 157.875268 
L 438.306673 173.494106 
L 439.415897 166.242533 
L 439.415897 166.242533 
" style="fill:none;stroke:#000000;stroke-linecap:square;stroke-opacity:0.3;"/>
   </g>
   <g id="line2d_18">
    <path clip-path="url(#p4d3c08ed23)" d="M 218.866794 341.759622 
L 218.866794 97.645606 
" style="fill:none;stroke:#1f77b4;stroke-linecap:square;"/>
   </g>
   <g id="line2d_19">
    <path clip-path="url(#p4d3c08ed23)" d="M 182.447536 282.133075 
L 184.29623 287.778978 
L 185.405446 284.552756 
L 186.514659 277.293738 
L 187.623874 273.554251 
L 188.733095 278.393581 
L 189.842311 283.819521 
L 190.951523 281.839786 
L 192.060742 285.579273 
L 193.169954 283.086286 
L 194.279172 272.967674 
L 195.388391 275.094034 
L 196.497605 282.719678 
L 197.60682 282.353051 
L 198.716036 277.220413 
L 199.825254 280.373316 
L 200.934469 286.092544 
L 202.043685 284.259454 
L 203.1529 283.232937 
L 204.262116 283.232937 
L 205.371334 281.839792 
L 206.48055 279.346799 
L 207.589766 280.006695 
L 208.698981 279.713407 
L 209.808197 278.906853 
L 210.917414 278.613564 
L 212.026629 278.906853 
L 213.135845 283.892853 
L 214.245061 284.919376 
L 215.354277 280.886581 
L 216.463493 280.446654 
L 217.572709 277.220413 
L 218.681925 277.147094 
L 219.791141 273.480926 
L 220.900358 260.209398 
L 222.009574 263.362307 
L 223.11879 273.187631 
L 224.228005 279.346799 
L 225.337222 287.045743 
L 226.446438 291.885085 
L 227.555653 291.518471 
L 228.664869 296.797753 
L 229.774087 298.924133 
L 230.883301 291.371827 
L 231.992518 295.331284 
L 233.101735 297.824283 
L 234.210949 295.257958 
L 235.320166 293.424874 
L 236.429381 290.638585 
L 237.538598 290.345296 
L 238.647815 287.925622 
L 239.75703 289.318766 
L 240.866247 286.605803 
L 241.975463 279.493443 
L 243.084678 276.560504 
L 244.193894 277.220419 
L 245.303109 276.193883 
L 246.412325 277.073769 
L 247.521543 277.220419 
L 248.630758 273.994185 
L 249.739974 277.953654 
L 250.849192 277.440396 
L 251.958407 271.061251 
L 253.067623 270.108053 
L 254.176836 274.654101 
L 255.286054 269.888083 
L 256.395269 266.295247 
L 257.504485 266.441885 
L 258.613706 262.555747 
L 259.722918 266.368566 
L 260.832134 269.594782 
L 261.941352 267.101795 
L 263.050568 269.888083 
L 264.15978 270.547993 
L 265.268999 267.835036 
L 266.378211 272.527721 
L 267.48743 269.961402 
L 268.596648 268.641583 
L 270.815079 272.821023 
L 271.924297 272.967674 
L 273.03351 271.207889 
L 274.142728 270.914613 
L 275.251946 269.008204 
L 276.361159 271.721174 
L 277.470377 275.680618 
L 278.579595 274.654094 
L 279.688808 271.794493 
L 280.798026 271.79448 
L 281.907245 275.607299 
L 283.016457 272.747691 
L 284.125681 273.187631 
L 285.234894 275.607299 
L 286.344106 271.79448 
L 287.453325 271.501204 
L 288.562532 270.328023 
L 289.671756 270.034734 
L 290.780968 276.267215 
L 291.890192 277.807003 
L 292.999399 267.761704 
L 294.108617 263.215644 
L 295.21783 267.321764 
L 296.327048 273.62757 
L 297.436267 270.254691 
L 298.545479 267.468415 
L 299.654703 265.562019 
L 300.763916 270.841282 
L 301.873129 273.187631 
L 302.982352 265.342023 
L 304.091565 269.081523 
L 305.200789 270.108053 
L 306.309996 270.254704 
L 307.419214 275.973926 
L 308.528421 269.081523 
L 309.637645 260.136079 
L 310.746863 263.069006 
L 311.856071 264.608795 
L 312.965294 271.13457 
L 314.074507 274.800745 
L 315.183731 262.922368 
L 316.292932 258.083032 
L 317.402156 266.295234 
L 318.511369 263.142325 
L 319.620593 260.942627 
L 320.729794 262.409096 
L 321.839018 259.84279 
L 322.948231 265.781963 
L 324.057455 262.555747 
L 325.166667 256.469911 
L 326.27588 260.209398 
L 328.494327 257.276471 
L 329.603529 258.816247 
L 330.712753 254.930122 
L 331.821966 256.98317 
L 332.931178 264.462144 
L 334.040391 260.062747 
L 335.149615 253.610303 
L 336.258828 250.824015 
L 337.36804 250.164092 
L 338.477264 260.795989 
L 339.586477 255.956639 
L 340.6957 244.591528 
L 341.804902 251.190622 
L 344.023339 255.810002 
L 345.132551 256.249941 
L 346.241775 255.003428 
L 347.350977 248.037726 
L 348.4602 245.178118 
L 349.569413 255.443394 
L 350.678637 252.877049 
L 351.787861 246.424618 
L 352.897073 247.891075 
L 354.006297 248.917605 
L 355.115488 243.858286 
L 356.224712 242.831769 
L 357.333935 250.237411 
L 358.443148 251.483911 
L 359.55235 248.477665 
L 360.661573 243.711648 
L 361.770786 240.925359 
L 362.88001 243.784967 
L 363.989234 245.324756 
L 365.098457 245.691377 
L 366.20767 240.632058 
L 367.316872 237.185872 
L 368.426096 243.271709 
L 369.535308 241.145342 
L 370.644532 236.30598 
L 371.753745 238.725674 
L 372.862968 244.151588 
L 373.97217 240.192131 
L 375.081383 233.226403 
L 376.190596 236.012691 
L 378.409043 233.519704 
L 379.518267 237.845782 
L 380.627469 236.96589 
L 381.736692 233.739674 
L 382.845905 233.006446 
L 383.955118 228.387079 
L 385.064341 232.346536 
L 386.173543 237.772437 
L 387.282767 226.847291 
L 388.39198 228.827019 
L 389.501192 238.065739 
L 390.610416 229.926868 
L 391.71964 225.160851 
L 392.828842 228.753687 
L 393.938065 231.686614 
L 395.047278 228.973657 
L 396.156502 230.733416 
L 397.265714 230.806747 
L 398.374927 225.380795 
L 399.48414 226.48067 
L 400.593353 228.313747 
L 401.702565 220.394821 
L 402.811789 219.221653 
L 403.921002 219.514942 
L 405.030203 207.636558 
L 406.139449 197.297976 
L 408.357853 182.340002 
L 409.467076 184.466369 
L 410.5763 187.985912 
L 411.685502 166.355524 
L 412.794704 148.244666 
L 413.903927 150.224369 
L 416.122375 125.954408 
L 417.231576 130.427085 
L 419.450024 153.523968 
L 420.559226 152.864033 
L 421.668449 147.731369 
L 422.777673 151.104248 
L 423.886875 150.88433 
L 424.996099 144.431847 
L 426.1053 146.63152 
L 427.214524 143.551942 
L 428.323748 147.291429 
L 429.432949 152.790701 
L 430.542195 147.438093 
L 431.651397 147.584757 
L 432.760621 150.371058 
L 433.869822 149.711123 
L 434.979046 148.024671 
L 436.08827 150.810998 
L 437.197449 158.65658 
L 438.306673 156.750158 
L 439.415897 149.857761 
L 439.415897 149.857761 
" style="fill:none;stroke:#000000;stroke-linecap:square;"/>
   </g>
   <g id="line2d_20">
    <path clip-path="url(#p4d3c08ed23)" d="M 182.447536 287.547042 
L 183.187012 283.529406 
L 184.29623 281.118833 
L 185.405446 282.324119 
L 186.514659 281.118833 
L 187.623874 270.672995 
L 188.733095 275.895924 
L 189.842311 285.939985 
L 190.951523 275.494166 
L 192.060742 277.502987 
L 193.169954 282.725896 
L 194.279172 293.97525 
L 195.388391 296.787581 
L 196.497605 289.55585 
L 198.716036 295.984058 
L 199.825254 297.189345 
L 200.934469 293.573479 
L 202.043685 288.752328 
L 203.1529 285.538227 
L 204.262116 284.332941 
L 205.371334 276.297675 
L 206.48055 270.673008 
L 207.589766 269.467728 
L 208.698981 275.092389 
L 209.808197 285.538227 
L 212.026629 290.359372 
L 214.245061 283.931176 
L 215.354277 284.734705 
L 216.463493 281.922362 
L 217.572709 280.717075 
L 218.681925 276.297688 
L 219.791141 278.708254 
L 220.900358 287.547042 
L 222.009574 282.725884 
L 223.11879 268.262435 
L 224.228005 265.85185 
L 225.337222 269.869467 
L 226.446438 274.690631 
L 227.555653 283.127641 
L 228.664869 280.315311 
L 229.774087 279.110012 
L 230.883301 279.91354 
L 231.992518 268.6642 
L 233.101735 271.476536 
L 234.210949 280.717075 
L 235.320166 280.717075 
L 236.429381 270.271231 
L 237.538598 273.083568 
L 238.647815 279.110018 
L 240.866247 282.324119 
L 241.975463 273.08358 
L 243.084678 273.485345 
L 244.193894 283.931176 
L 245.303109 277.904732 
L 246.412325 262.235997 
L 247.521543 268.664187 
L 248.630758 276.699433 
L 249.739974 283.127654 
L 250.849192 275.895924 
L 251.958407 273.08358 
L 253.067623 278.306496 
L 254.176836 278.708254 
L 255.286054 279.91354 
L 256.395269 279.511789 
L 257.504485 272.280052 
L 258.613706 267.458907 
L 259.722918 278.306496 
L 260.832134 281.11884 
L 261.941352 272.681816 
L 263.050568 273.887109 
L 264.15978 281.922355 
L 265.268999 283.127641 
L 266.378211 280.315311 
L 267.48743 271.476536 
L 268.596648 266.253601 
L 269.705861 272.681816 
L 270.815079 266.655365 
L 271.924297 266.253614 
L 273.03351 278.306496 
L 274.142728 273.887102 
L 275.251946 277.502974 
L 276.361159 289.957614 
L 277.470377 288.35057 
L 278.579595 279.110012 
L 279.688808 273.887122 
L 280.798026 279.110018 
L 281.907245 283.127654 
L 283.016457 284.734698 
L 285.234894 293.573479 
L 286.344106 292.769957 
L 287.453325 289.154092 
L 288.562532 295.180536 
L 290.780968 270.673008 
L 291.890192 285.136463 
L 292.999399 285.136463 
L 294.108617 276.699452 
L 295.21783 278.708254 
L 296.327048 279.511789 
L 298.545479 266.253614 
L 299.654703 270.672995 
L 300.763916 280.315311 
L 301.873129 293.171715 
L 302.982352 300.403446 
L 304.091565 279.91354 
L 305.200789 275.092395 
L 306.309996 290.761136 
L 308.528421 275.494153 
L 310.746863 264.244806 
L 311.856071 272.280052 
L 312.965294 284.332941 
L 314.074507 277.502968 
L 315.183731 260.628928 
L 316.292932 260.628941 
L 317.402156 267.860658 
L 318.511369 272.280052 
L 319.620593 281.118833 
L 320.729794 287.948806 
L 321.839018 284.734698 
L 322.948231 283.127654 
L 324.057455 276.699452 
L 325.166667 275.092389 
L 326.27588 281.118833 
L 327.385104 272.681816 
L 328.494327 271.074772 
L 329.603529 279.110018 
L 330.712753 278.708254 
L 331.821966 268.262422 
L 332.931178 269.467728 
L 334.040391 283.529406 
L 335.149615 280.315311 
L 336.258828 262.637749 
L 337.36804 258.218355 
L 338.477264 264.244793 
L 339.586477 265.851863 
L 340.6957 270.672995 
L 341.804902 279.511789 
L 342.914115 281.11884 
L 344.023339 280.717075 
L 345.132551 282.324119 
L 346.241775 275.895924 
L 347.350977 274.288867 
L 348.4602 275.895924 
L 349.569413 269.467715 
L 350.678637 265.450086 
L 351.787861 268.664187 
L 352.897073 269.065964 
L 354.006297 265.450086 
L 355.115488 273.887102 
L 356.224712 278.306496 
L 357.333935 271.878288 
L 358.443148 272.280052 
L 359.55235 264.64657 
L 360.661573 262.235985 
L 361.770786 273.485345 
L 362.88001 278.306496 
L 363.989234 273.485345 
L 365.098457 278.708254 
L 366.20767 288.350564 
L 367.316872 279.110018 
L 368.426096 276.297688 
L 369.535308 274.690625 
L 370.644532 269.467728 
L 371.753745 273.083593 
L 372.862968 283.529406 
L 373.97217 283.127661 
L 375.081383 278.306496 
L 376.190596 286.341742 
L 377.299819 281.520604 
L 378.409043 278.306496 
L 379.518267 292.36818 
L 380.627469 294.778772 
L 381.736692 293.573479 
L 382.845905 291.162907 
L 383.955118 284.734705 
L 385.064341 289.55585 
L 386.173543 296.787581 
L 387.282767 300.80521 
L 388.39198 302.814025 
L 389.501192 295.582294 
L 390.610416 284.734698 
L 391.71964 281.922362 
L 392.828842 286.341762 
L 393.938065 278.708254 
L 395.047278 275.895911 
L 396.156502 282.725884 
L 397.265714 278.306496 
L 398.374927 278.708254 
L 399.48414 275.895924 
L 401.702565 273.485332 
L 402.811789 280.315311 
L 403.921002 290.359385 
L 405.030203 271.878288 
L 406.139449 243.35313 
L 407.248651 252.191917 
L 408.357853 277.10121 
L 409.467076 277.10121 
L 410.5763 279.511789 
L 411.685502 272.280052 
L 412.794704 255.406018 
L 413.903927 251.388402 
L 415.013173 241.746086 
L 416.122375 222.863231 
L 417.231576 212.015635 
L 418.340822 217.640321 
L 419.450024 226.88086 
L 420.559226 231.702018 
L 421.668449 232.907298 
L 422.777673 235.719635 
L 423.886875 246.968995 
L 424.996099 253.798961 
L 426.1053 252.593681 
L 427.214524 252.191904 
L 428.323748 246.968995 
L 430.542195 257.013062 
L 431.651397 258.218368 
L 432.760621 270.271231 
L 433.869822 268.262435 
L 434.979046 255.80777 
L 436.08827 261.030705 
L 437.197449 273.887102 
L 438.306673 273.485345 
L 439.415897 258.620132 
L 439.415897 258.620132 
" style="fill:none;stroke:#0000ff;stroke-linecap:square;stroke-opacity:0.3;"/>
   </g>
   <g id="line2d_21">
    <path clip-path="url(#p4d3c08ed23)" d="M 218.866794 341.759622 
L 218.866794 97.645606 
" style="fill:none;stroke:#1f77b4;stroke-linecap:square;"/>
   </g>
   <g id="line2d_22">
    <path clip-path="url(#p4d3c08ed23)" d="M 182.447536 276.072119 
L 183.187012 277.628925 
L 184.29623 279.561531 
L 185.405446 279.346799 
L 186.514659 280.259409 
L 187.623874 282.621459 
L 189.842311 282.353051 
L 190.951523 284.124595 
L 192.060742 278.326816 
L 193.169954 275.964753 
L 194.279172 281.440441 
L 195.388391 284.554065 
L 196.497605 285.735097 
L 197.60682 282.030953 
L 198.716036 276.769997 
L 199.825254 280.688866 
L 200.934469 283.641448 
L 202.043685 280.903605 
L 203.1529 279.61522 
L 205.371334 280.688873 
L 206.48055 281.440434 
L 207.589766 278.112084 
L 208.698981 278.75628 
L 209.808197 282.40674 
L 210.917414 281.923574 
L 212.026629 277.789974 
L 213.135845 279.23942 
L 214.245061 283.587765 
L 215.354277 283.802497 
L 216.463493 283.158295 
L 217.572709 276.340527 
L 218.681925 275.213192 
L 219.791141 283.265668 
L 220.900358 282.084643 
L 222.009574 279.722579 
L 223.11879 283.265668 
L 224.228005 282.94357 
L 225.337222 281.655172 
L 226.446438 278.058395 
L 227.555653 277.306833 
L 228.664869 283.319357 
L 229.774087 282.567783 
L 230.883301 283.587765 
L 231.992518 283.265668 
L 233.101735 276.662638 
L 234.210949 279.13206 
L 235.320166 282.08463 
L 236.429381 281.386764 
L 237.538598 282.353051 
L 238.647815 281.816215 
L 239.75703 281.494124 
L 240.866247 285.305633 
L 241.975463 284.339327 
L 243.084678 281.869891 
L 244.193894 282.782521 
L 245.303109 283.104619 
L 246.412325 284.124582 
L 247.521543 278.756273 
L 248.630758 275.320551 
L 249.739974 279.883628 
L 250.849192 281.279385 
L 251.958407 282.245678 
L 253.067623 284.178271 
L 254.176836 280.688866 
L 255.286054 283.319344 
L 256.395269 284.231954 
L 257.504485 279.239433 
L 258.613706 283.748808 
L 259.722918 283.104619 
L 260.832134 278.863639 
L 263.050568 279.507848 
L 264.15978 280.957287 
L 265.268999 281.708855 
L 266.378211 282.192002 
L 267.48743 281.010977 
L 268.596648 279.132048 
L 269.705861 282.299361 
L 270.815079 281.762532 
L 271.924297 280.849928 
L 273.03351 284.339346 
L 274.142728 280.09836 
L 275.251946 278.273133 
L 276.361159 280.205726 
L 277.470377 278.165761 
L 278.579595 280.581513 
L 279.688808 286.432969 
L 280.798026 282.997246 
L 281.907245 277.575255 
L 284.125681 283.695125 
L 285.234894 282.675149 
L 286.344106 278.541541 
L 287.453325 279.13206 
L 288.562532 279.13206 
L 289.671756 283.641448 
L 290.780968 285.73509 
L 291.890192 281.923594 
L 292.999399 284.446693 
L 294.108617 278.970999 
L 295.21783 278.487865 
L 296.327048 280.849915 
L 297.436267 275.159515 
L 298.545479 275.374234 
L 299.654703 279.454152 
L 300.763916 281.118336 
L 301.873129 279.400482 
L 302.982352 278.648914 
L 304.091565 283.373027 
L 305.200789 284.446706 
L 306.309996 282.943557 
L 307.419214 283.802497 
L 309.637645 279.883628 
L 310.746863 275.535289 
L 312.965294 285.144571 
L 314.074507 280.313086 
L 315.183731 278.64892 
L 316.292932 276.39421 
L 317.402156 277.575255 
L 318.511369 282.138313 
L 319.620593 285.359309 
L 320.729794 282.943557 
L 321.839018 279.561531 
L 322.948231 280.635183 
L 324.057455 282.567783 
L 325.166667 281.869904 
L 326.27588 283.319344 
L 327.385104 283.319344 
L 328.494327 280.366768 
L 329.603529 279.722579 
L 330.712753 277.736297 
L 331.821966 281.064653 
L 332.931178 283.641448 
L 334.040391 283.641448 
L 335.149615 283.211978 
L 336.258828 280.581507 
L 337.36804 280.09836 
L 338.477264 281.708855 
L 339.586477 282.836197 
L 340.6957 279.776256 
L 341.804902 278.165774 
L 342.914115 281.279385 
L 344.023339 283.373027 
L 345.132551 280.903605 
L 346.241775 279.561518 
L 347.350977 281.118336 
L 348.4602 279.400482 
L 349.569413 279.883628 
L 350.678637 284.339327 
L 351.787861 283.426716 
L 352.897073 282.191989 
L 354.006297 281.225715 
L 355.115488 281.708855 
L 356.224712 280.420458 
L 357.333935 278.541541 
L 358.443148 281.386745 
L 359.55235 280.09836 
L 360.661573 281.97727 
L 361.770786 284.768803 
L 362.88001 281.440441 
L 363.989234 280.474134 
L 365.098457 280.527817 
L 366.20767 282.084643 
L 367.316872 283.265655 
L 368.426096 281.064666 
L 369.535308 281.118336 
L 370.644532 281.923581 
L 371.753745 281.172013 
L 372.862968 279.078377 
L 373.97217 277.467889 
L 375.081383 277.951035 
L 376.190596 280.152037 
L 377.299819 282.675149 
L 378.409043 280.420445 
L 379.518267 278.434182 
L 381.736692 286.647707 
L 383.955118 280.152037 
L 385.064341 281.655172 
L 386.173543 280.742556 
L 387.282767 281.494111 
L 388.39198 277.789974 
L 389.501192 278.595231 
L 390.610416 281.225702 
L 391.71964 279.346792 
L 392.828842 282.406727 
L 393.938065 277.951035 
L 395.047278 277.789986 
L 396.156502 284.500376 
L 397.265714 282.514087 
L 398.374927 277.628938 
L 399.48414 277.521565 
L 400.593353 279.507841 
L 401.702565 280.688873 
L 402.811789 283.534076 
L 403.921002 282.728832 
L 406.139449 244.5601 
L 407.248651 236.722349 
L 408.357853 244.345368 
L 409.467076 259.00088 
L 410.5763 262.275553 
L 412.794704 252.344167 
L 413.903927 240.533878 
L 415.013173 223.462619 
L 416.122375 211.652317 
L 417.231576 217.933249 
L 418.340822 229.52882 
L 420.559226 227.381488 
L 421.668449 234.038201 
L 422.777673 239.943339 
L 423.886875 238.010766 
L 424.996099 238.708644 
L 426.1053 240.748597 
L 427.214524 242.198049 
L 428.323748 242.198049 
L 429.432949 238.493912 
L 430.542195 243.164343 
L 431.651397 249.498958 
L 432.760621 248.854762 
L 433.869822 251.753642 
L 434.979046 251.753642 
L 436.08827 252.022057 
L 437.197449 252.12941 
L 438.306673 251.538923 
L 439.415897 251.914691 
L 439.415897 251.914691 
" style="fill:none;stroke:#0000ff;stroke-linecap:square;"/>
   </g>
   <g id="line2d_23">
    <path clip-path="url(#p4d3c08ed23)" d="M 182.447536 289.946732 
L 183.187012 274.677929 
L 184.29623 277.222729 
L 185.405446 267.043532 
L 186.514659 279.767528 
L 187.623874 302.670728 
L 189.842311 282.31234 
L 190.951523 282.312334 
L 192.060742 279.767535 
L 193.169954 282.312334 
L 194.279172 272.13313 
L 195.388391 269.588331 
L 196.497605 297.581136 
L 197.60682 305.215534 
L 198.716036 289.946732 
L 199.825254 292.491531 
L 200.934469 317.939524 
L 202.043685 305.215534 
L 203.1529 305.215534 
L 204.262116 320.48433 
L 205.371334 292.491538 
L 206.48055 300.125935 
L 207.589766 323.029129 
L 208.698981 312.849926 
L 209.808197 310.305133 
L 210.917414 295.03633 
L 212.026629 284.857133 
L 213.135845 297.58113 
L 214.245061 264.498719 
L 215.354277 244.140338 
L 216.463493 269.588344 
L 217.572709 289.946732 
L 218.681925 307.760327 
L 219.791141 300.125935 
L 220.900358 284.857127 
L 222.009574 264.498732 
L 223.11879 256.864334 
L 225.337222 267.043532 
L 226.446438 251.774736 
L 227.555653 244.140338 
L 228.664869 267.043532 
L 229.774087 254.319548 
L 230.883301 256.864334 
L 231.992518 267.043532 
L 233.101735 254.319522 
L 234.210949 261.953933 
L 235.320166 279.767535 
L 236.429381 310.305126 
L 237.538598 312.849932 
L 238.647815 300.125929 
L 239.75703 317.939524 
L 240.866247 323.029123 
L 241.975463 325.573929 
L 243.084678 330.66353 
L 244.193894 323.029123 
L 245.303109 328.118731 
L 246.412325 330.663527 
L 247.521543 328.118728 
L 248.630758 328.118728 
L 249.739974 312.849932 
L 250.849192 307.760327 
L 251.958407 292.491531 
L 253.067623 272.13313 
L 254.176836 284.857127 
L 255.286054 292.491544 
L 256.395269 312.849932 
L 257.504485 295.03633 
L 258.613706 274.677936 
L 259.722918 295.036324 
L 260.832134 289.946732 
L 261.941352 295.03633 
L 263.050568 312.849932 
L 264.15978 317.939537 
L 265.268999 295.036324 
L 266.378211 282.312334 
L 267.48743 300.125923 
L 268.596648 300.125929 
L 269.705861 297.581136 
L 270.815079 305.215534 
L 271.924297 305.215534 
L 273.03351 320.484324 
L 274.142728 328.118728 
L 275.251946 317.939524 
L 277.470377 287.401932 
L 278.579595 277.222729 
L 279.688808 274.677936 
L 280.798026 274.677936 
L 281.907245 264.498732 
L 284.125681 305.215534 
L 285.234894 272.13313 
L 286.344106 246.685137 
L 287.453325 267.043532 
L 288.562532 274.677936 
L 289.671756 279.767541 
L 290.780968 274.677929 
L 291.890192 272.13313 
L 292.999399 279.767528 
L 294.108617 264.498732 
L 295.21783 287.401932 
L 296.327048 272.13313 
L 297.436267 251.774723 
L 298.545479 284.857127 
L 299.654703 287.401932 
L 300.763916 272.13313 
L 302.982352 267.043532 
L 304.091565 269.588331 
L 305.200789 279.767535 
L 306.309996 279.767535 
L 307.419214 292.491531 
L 308.528421 300.125929 
L 309.637645 297.58113 
L 310.746863 284.857127 
L 311.856071 277.222729 
L 312.965294 289.946732 
L 314.074507 297.581123 
L 315.183731 295.03633 
L 316.292932 277.222729 
L 317.402156 261.953933 
L 318.511369 272.13313 
L 319.620593 274.677929 
L 320.729794 300.125929 
L 321.839018 315.394731 
L 322.948231 292.491531 
L 324.057455 297.58113 
L 325.166667 292.491531 
L 326.27588 269.588331 
L 327.385104 297.581136 
L 328.494327 302.670735 
L 329.603529 289.946725 
L 330.712753 310.305126 
L 331.821966 295.036324 
L 332.931178 287.401932 
L 334.040391 272.13313 
L 335.149615 295.03633 
L 336.258828 310.305133 
L 337.36804 274.677936 
L 338.477264 279.767535 
L 339.586477 310.305126 
L 340.6957 312.849932 
L 341.804902 292.491531 
L 342.914115 289.946725 
L 344.023339 284.857133 
L 345.132551 256.864334 
L 346.241775 256.864334 
L 347.350977 279.767541 
L 348.4602 284.857133 
L 349.569413 292.491538 
L 350.678637 279.767528 
L 351.787861 274.677923 
L 354.006297 305.215534 
L 355.115488 295.03633 
L 356.224712 269.588331 
L 357.333935 272.13313 
L 358.443148 282.312334 
L 359.55235 244.140338 
L 360.661573 241.595538 
L 361.770786 256.864334 
L 362.88001 244.140325 
L 363.989234 267.043532 
L 365.098457 277.222742 
L 366.20767 256.864321 
L 367.316872 251.774736 
L 368.426096 282.312321 
L 369.535308 287.401932 
L 370.644532 282.312334 
L 371.753745 315.394731 
L 372.862968 320.48433 
L 376.190596 246.685137 
L 377.299819 261.953933 
L 378.409043 289.946738 
L 379.518267 295.03633 
L 380.627469 282.312334 
L 381.736692 274.677929 
L 382.845905 246.685137 
L 383.955118 239.050739 
L 385.064341 264.498732 
L 386.173543 279.767528 
L 387.282767 282.31234 
L 388.39198 279.767535 
L 389.501192 284.857133 
L 390.610416 282.312334 
L 391.71964 272.13313 
L 392.828842 279.767535 
L 393.938065 279.767535 
L 395.047278 282.31234 
L 396.156502 300.125935 
L 397.265714 292.491518 
L 398.374927 269.588318 
L 399.48414 269.588344 
L 400.593353 289.946738 
L 401.702565 289.946732 
L 402.811789 279.767528 
L 403.921002 282.312334 
L 405.030203 272.13313 
L 406.139449 256.864334 
L 407.248651 228.871516 
L 408.357853 233.961128 
L 409.467076 254.319548 
L 410.5763 246.685124 
L 411.685502 231.416328 
L 412.794704 208.513122 
L 413.903927 190.699552 
L 415.013173 177.97553 
L 416.122375 157.617135 
L 417.231576 139.803527 
L 418.340822 142.34834 
L 419.450024 109.265936 
L 420.559226 114.35556 
L 421.668449 160.161948 
L 422.777673 155.072349 
L 423.886875 165.251559 
L 424.996099 188.15474 
L 426.1053 177.975543 
L 427.214524 162.706734 
L 428.323748 165.251533 
L 429.432949 149.982725 
L 430.542195 165.251546 
L 431.651397 185.609941 
L 432.760621 144.893126 
L 433.869822 144.893126 
L 434.979046 180.520329 
L 436.08827 190.699539 
L 437.197449 177.975543 
L 438.306673 152.527537 
L 439.415897 142.34834 
L 439.415897 142.34834 
" style="fill:none;stroke:#008000;stroke-linecap:square;stroke-opacity:0.3;"/>
   </g>
   <g id="line2d_24">
    <path clip-path="url(#p4d3c08ed23)" d="M 218.866794 341.759622 
L 218.866794 97.645606 
" style="fill:none;stroke:#1f77b4;stroke-linecap:square;"/>
   </g>
   <g id="line2d_25">
    <path clip-path="url(#p4d3c08ed23)" d="M 182.447536 280.098354 
L 183.187012 278.971012 
L 184.29623 282.071219 
L 185.405446 289.680801 
L 186.514659 285.735084 
L 187.623874 274.179791 
L 188.733095 276.998153 
L 189.842311 279.25285 
L 192.060742 287.144278 
L 193.169954 277.843669 
L 195.388391 291.653652 
L 196.497605 279.816521 
L 197.60682 281.225709 
L 198.716036 284.044064 
L 199.825254 274.461624 
L 200.934469 279.25285 
L 203.1529 284.889574 
L 204.262116 284.325909 
L 205.371334 286.862439 
L 206.48055 292.499169 
L 207.589766 279.25285 
L 208.698981 276.716308 
L 209.808197 280.380192 
L 212.026629 279.25285 
L 213.135845 271.925094 
L 214.245061 284.325909 
L 215.354277 298.135899 
L 216.463493 289.680807 
L 217.572709 284.889574 
L 218.681925 275.588979 
L 219.791141 275.588972 
L 220.900358 291.935498 
L 222.009574 287.989774 
L 223.11879 288.835297 
L 224.228005 282.916722 
L 225.337222 278.971018 
L 226.446438 285.171419 
L 227.555653 273.334282 
L 228.664869 272.488772 
L 229.774087 284.044064 
L 230.883301 292.21733 
L 233.101735 274.461624 
L 234.210949 275.870811 
L 235.320166 280.662031 
L 236.429381 281.78938 
L 237.538598 276.998153 
L 238.647815 282.916722 
L 239.75703 293.908356 
L 241.975463 280.662038 
L 243.084678 285.453258 
L 244.193894 284.325909 
L 245.303109 277.279992 
L 246.412325 278.125508 
L 247.521543 282.634883 
L 248.630758 279.534683 
L 249.739974 283.762238 
L 250.849192 282.353051 
L 251.958407 284.88958 
L 253.067623 288.271613 
L 254.176836 280.380199 
L 255.286054 278.125502 
L 256.395269 279.816515 
L 257.504485 283.762232 
L 258.613706 277.279998 
L 259.722918 275.870811 
L 260.832134 276.152643 
L 261.941352 275.307134 
L 263.050568 288.553458 
L 264.15978 290.526317 
L 265.268999 283.480393 
L 267.48743 274.179791 
L 268.596648 278.40734 
L 269.705861 276.15265 
L 270.815079 279.25285 
L 271.924297 284.889587 
L 273.03351 279.25285 
L 274.142728 280.662038 
L 275.251946 276.716321 
L 276.361159 280.09836 
L 277.470377 281.225702 
L 278.579595 270.234075 
L 279.688808 277.561837 
L 280.798026 289.680801 
L 281.907245 287.989787 
L 283.016457 288.271626 
L 284.125681 275.870805 
L 285.234894 275.307134 
L 286.344106 289.117123 
L 287.453325 283.480399 
L 288.562532 280.380192 
L 289.671756 280.380192 
L 290.780968 282.63489 
L 291.890192 278.689173 
L 292.999399 275.588972 
L 294.108617 290.526317 
L 295.21783 290.808156 
L 297.436267 274.743469 
L 298.545479 274.743456 
L 299.654703 282.353057 
L 300.763916 275.588972 
L 301.873129 277.843663 
L 302.982352 276.152643 
L 304.091565 263.469996 
L 305.200789 275.025295 
L 306.309996 289.680801 
L 307.419214 279.816515 
L 308.528421 272.206939 
L 309.637645 276.434476 
L 310.746863 276.998153 
L 311.856071 284.325903 
L 312.965294 286.862426 
L 314.074507 280.380199 
L 315.183731 277.561831 
L 316.292932 270.51592 
L 317.402156 275.307134 
L 318.511369 286.298761 
L 319.620593 293.344685 
L 320.729794 278.40734 
L 321.839018 274.461624 
L 322.948231 291.37182 
L 324.057455 286.298761 
L 325.166667 278.689173 
L 326.27588 277.561824 
L 327.385104 275.025295 
L 328.494327 285.735084 
L 329.603529 295.035698 
L 330.712753 287.707942 
L 331.821966 282.634883 
L 332.931178 272.206927 
L 334.040391 269.106732 
L 335.149615 273.897959 
L 336.258828 269.67041 
L 338.477264 289.117129 
L 339.586477 289.117136 
L 340.6957 281.225702 
L 341.804902 275.30714 
L 342.914115 285.453251 
L 344.023339 276.998153 
L 345.132551 270.797752 
L 346.241775 286.298774 
L 347.350977 290.244478 
L 348.4602 294.753859 
L 349.569413 283.198554 
L 350.678637 267.697558 
L 351.787861 275.588966 
L 352.897073 276.998153 
L 355.115488 287.42611 
L 356.224712 281.225702 
L 357.333935 277.843663 
L 358.443148 279.816528 
L 359.55235 277.279998 
L 361.770786 289.398968 
L 362.88001 277.279998 
L 363.989234 269.952242 
L 365.098457 280.09836 
L 366.20767 287.144278 
L 367.316872 283.762238 
L 368.426096 283.762238 
L 369.535308 275.025295 
L 370.644532 278.125502 
L 371.753745 287.989781 
L 372.862968 268.8249 
L 373.97217 266.852035 
L 375.081383 282.071206 
L 376.190596 281.225702 
L 377.299819 276.152643 
L 378.409043 278.125502 
L 379.518267 290.244478 
L 380.627469 289.398962 
L 381.736692 275.307134 
L 382.845905 272.206939 
L 383.955118 276.716321 
L 385.064341 273.616114 
L 387.282767 286.580594 
L 388.39198 276.716321 
L 389.501192 280.380192 
L 390.610416 282.071206 
L 391.71964 283.198561 
L 392.828842 285.171413 
L 393.938065 278.971012 
L 395.047278 278.407334 
L 397.265714 269.106732 
L 398.374927 278.407334 
L 399.48414 284.325903 
L 400.593353 281.507547 
L 401.702565 276.99816 
L 402.811789 276.716321 
L 403.921002 273.897959 
L 405.030203 246.559812 
L 406.139449 224.576544 
L 407.248651 215.839613 
L 408.357853 214.430426 
L 409.467076 228.80408 
L 410.5763 247.968974 
L 411.685502 246.277967 
L 412.794704 221.194518 
L 413.903927 173.28229 
L 415.013173 139.743742 
L 416.122375 120.297016 
L 417.231576 108.741698 
L 418.340822 137.207213 
L 419.450024 154.399228 
L 420.559226 145.380466 
L 421.668449 143.407601 
L 422.777673 157.499423 
L 423.886875 160.317797 
L 424.996099 155.526584 
L 426.1053 149.88986 
L 427.214524 147.071485 
L 428.323748 161.163307 
L 429.432949 155.526584 
L 430.542195 143.407601 
L 431.651397 153.271899 
L 432.760621 156.653939 
L 433.869822 147.353305 
L 436.08827 182.301053 
L 437.197449 171.027606 
L 438.306673 157.781294 
L 439.415897 152.708209 
L 439.415897 152.708209 
" style="fill:none;stroke:#008000;stroke-linecap:square;"/>
   </g>
   <g id="line2d_26">
    <path clip-path="url(#p4d3c08ed23)" d="M 403.736124 341.759622 
L 403.736124 97.645606 
" style="fill:none;stroke:#1f77b4;stroke-linecap:square;"/>
   </g>
   <g id="patch_3">
    <path d="M 169.599118 341.759622 
L 169.599118 97.645606 
" style="fill:none;stroke:#000000;stroke-linecap:square;stroke-linejoin:miter;stroke-width:0.8;"/>
   </g>
   <g id="patch_4">
    <path d="M 452.264315 341.759622 
L 452.264315 97.645606 
" style="fill:none;stroke:#000000;stroke-linecap:square;stroke-linejoin:miter;stroke-width:0.8;"/>
   </g>
   <g id="patch_5">
    <path d="M 169.599118 341.759622 
L 452.264315 341.759622 
" style="fill:none;stroke:#000000;stroke-linecap:square;stroke-linejoin:miter;stroke-width:0.8;"/>
   </g>
   <g id="patch_6">
    <path d="M 169.599118 97.645606 
L 452.264315 97.645606 
" style="fill:none;stroke:#000000;stroke-linecap:square;stroke-linejoin:miter;stroke-width:0.8;"/>
   </g>
  </g>
 </g>
 <defs>
  <clipPath id="p4d3c08ed23">
   <rect height="244.114016" width="282.665197" x="169.599118" y="97.645606"/>
  </clipPath>
 </defs>
</svg>
