<?xml version="1.0" encoding="utf-8" standalone="no"?>
<!DOCTYPE svg PUBLIC "-//W3C//DTD SVG 1.1//EN"
  "http://www.w3.org/Graphics/SVG/1.1/DTD/svg11.dtd">
<svg height="488.228031pt" version="1.1" viewBox="0 0 565.330394 488.228031" width="565.330394pt" xmlns="http://www.w3.org/2000/svg" xmlns:xlink="http://www.w3.org/1999/xlink">
 <metadata>
  <rdf:RDF xmlns:cc="http://creativecommons.org/ns#" xmlns:dc="http://purl.org/dc/elements/1.1/" xmlns:rdf="http://www.w3.org/1999/02/22-rdf-syntax-ns#">
   <cc:Work>
    <dc:type rdf:resource="http://purl.org/dc/dcmitype/StillImage"/>
    <dc:date>2023-10-10T14:12:21.234709</dc:date>
    <dc:format>image/svg+xml</dc:format>
    <dc:creator>
     <cc:Agent>
      <dc:title>Matplotlib v3.4.2, https://matplotlib.org/</dc:title>
     </cc:Agent>
    </dc:creator>
   </cc:Work>
  </rdf:RDF>
 </metadata>
 <defs>
  <style type="text/css">*{stroke-linecap:butt;stroke-linejoin:round;}</style>
 </defs>
 <g id="figure_1">
  <g id="patch_1">
   <path d="M 0 488.228031 
L 565.330394 488.228031 
L 565.330394 0 
L 0 0 
z
" style="fill:#ffffff;"/>
  </g>
  <g id="axes_1">
   <g id="patch_2">
    <path d="M 169.599118 341.759622 
L 452.264315 341.759622 
L 452.264315 97.645606 
L 169.599118 97.645606 
z
" style="fill:#ffffff;"/>
   </g>
   <g id="matplotlib.axis_1">
    <g id="xtick_1">
     <g id="line2d_1">
      <defs>
       <path d="M 0 0 
L 0 3.5 
" id="mbd1c2585f1" style="stroke:#000000;stroke-width:0.8;"/>
      </defs>
      <g>
       <use style="stroke:#000000;stroke-width:0.8;" x="181.892928" xlink:href="#mbd1c2585f1" y="341.759622"/>
      </g>
     </g>
     <g id="text_1">
      <!-- −0.2 -->
      <g transform="translate(175.97074 353.05431)scale(0.06 -0.06)">
       <defs>
        <path d="M 266 1850 
L 266 2672 
L 3469 2672 
L 3469 1850 
L 266 1850 
z
" id="Arial-BoldMT-2212" transform="scale(0.015625)"/>
        <path d="M 1756 4600 
Q 2422 4600 2797 4125 
Q 3244 3563 3244 2259 
Q 3244 959 2794 391 
Q 2422 -78 1756 -78 
Q 1088 -78 678 436 
Q 269 950 269 2269 
Q 269 3563 719 4131 
Q 1091 4600 1756 4600 
z
M 1756 3872 
Q 1597 3872 1472 3770 
Q 1347 3669 1278 3406 
Q 1188 3066 1188 2259 
Q 1188 1453 1269 1151 
Q 1350 850 1473 750 
Q 1597 650 1756 650 
Q 1916 650 2041 751 
Q 2166 853 2234 1116 
Q 2325 1453 2325 2259 
Q 2325 3066 2244 3367 
Q 2163 3669 2039 3770 
Q 1916 3872 1756 3872 
z
" id="Arial-BoldMT-30" transform="scale(0.015625)"/>
        <path d="M 459 0 
L 459 878 
L 1338 878 
L 1338 0 
L 459 0 
z
" id="Arial-BoldMT-2e" transform="scale(0.015625)"/>
        <path d="M 3238 816 
L 3238 0 
L 159 0 
Q 209 463 459 877 
Q 709 1291 1447 1975 
Q 2041 2528 2175 2725 
Q 2356 2997 2356 3263 
Q 2356 3556 2198 3714 
Q 2041 3872 1763 3872 
Q 1488 3872 1325 3706 
Q 1163 3541 1138 3156 
L 263 3244 
Q 341 3969 753 4284 
Q 1166 4600 1784 4600 
Q 2463 4600 2850 4234 
Q 3238 3869 3238 3325 
Q 3238 3016 3127 2736 
Q 3016 2456 2775 2150 
Q 2616 1947 2200 1565 
Q 1784 1184 1673 1059 
Q 1563 934 1494 816 
L 3238 816 
z
" id="Arial-BoldMT-32" transform="scale(0.015625)"/>
       </defs>
       <use xlink:href="#Arial-BoldMT-2212"/>
       <use x="58.398438" xlink:href="#Arial-BoldMT-30"/>
       <use x="114.013672" xlink:href="#Arial-BoldMT-2e"/>
       <use x="141.796875" xlink:href="#Arial-BoldMT-32"/>
      </g>
     </g>
    </g>
    <g id="xtick_2">
     <g id="line2d_2">
      <g>
       <use style="stroke:#000000;stroke-width:0.8;" x="218.866794" xlink:href="#mbd1c2585f1" y="341.759622"/>
      </g>
     </g>
     <g id="text_2">
      <!-- 0.0 -->
      <g transform="translate(214.696794 353.05431)scale(0.06 -0.06)">
       <use xlink:href="#Arial-BoldMT-30"/>
       <use x="55.615234" xlink:href="#Arial-BoldMT-2e"/>
       <use x="83.398438" xlink:href="#Arial-BoldMT-30"/>
      </g>
     </g>
    </g>
    <g id="xtick_3">
     <g id="line2d_3">
      <g>
       <use style="stroke:#000000;stroke-width:0.8;" x="255.84066" xlink:href="#mbd1c2585f1" y="341.759622"/>
      </g>
     </g>
     <g id="text_3">
      <!-- 0.2 -->
      <g transform="translate(251.67066 353.05431)scale(0.06 -0.06)">
       <use xlink:href="#Arial-BoldMT-30"/>
       <use x="55.615234" xlink:href="#Arial-BoldMT-2e"/>
       <use x="83.398438" xlink:href="#Arial-BoldMT-32"/>
      </g>
     </g>
    </g>
    <g id="xtick_4">
     <g id="line2d_4">
      <g>
       <use style="stroke:#000000;stroke-width:0.8;" x="292.814526" xlink:href="#mbd1c2585f1" y="341.759622"/>
      </g>
     </g>
     <g id="text_4">
      <!-- 0.4 -->
      <g transform="translate(288.644526 353.05431)scale(0.06 -0.06)">
       <defs>
        <path d="M 1994 0 
L 1994 922 
L 119 922 
L 119 1691 
L 2106 4600 
L 2844 4600 
L 2844 1694 
L 3413 1694 
L 3413 922 
L 2844 922 
L 2844 0 
L 1994 0 
z
M 1994 1694 
L 1994 3259 
L 941 1694 
L 1994 1694 
z
" id="Arial-BoldMT-34" transform="scale(0.015625)"/>
       </defs>
       <use xlink:href="#Arial-BoldMT-30"/>
       <use x="55.615234" xlink:href="#Arial-BoldMT-2e"/>
       <use x="83.398438" xlink:href="#Arial-BoldMT-34"/>
      </g>
     </g>
    </g>
    <g id="xtick_5">
     <g id="line2d_5">
      <g>
       <use style="stroke:#000000;stroke-width:0.8;" x="329.788392" xlink:href="#mbd1c2585f1" y="341.759622"/>
      </g>
     </g>
     <g id="text_5">
      <!-- 0.6 -->
      <g transform="translate(325.618392 353.05431)scale(0.06 -0.06)">
       <defs>
        <path d="M 3247 3459 
L 2397 3366 
Q 2366 3628 2234 3753 
Q 2103 3878 1894 3878 
Q 1616 3878 1423 3628 
Q 1231 3378 1181 2588 
Q 1509 2975 1997 2975 
Q 2547 2975 2939 2556 
Q 3331 2138 3331 1475 
Q 3331 772 2918 347 
Q 2506 -78 1859 -78 
Q 1166 -78 719 461 
Q 272 1000 272 2228 
Q 272 3488 737 4044 
Q 1203 4600 1947 4600 
Q 2469 4600 2811 4308 
Q 3153 4016 3247 3459 
z
M 1256 1544 
Q 1256 1116 1453 883 
Q 1650 650 1903 650 
Q 2147 650 2309 840 
Q 2472 1031 2472 1466 
Q 2472 1913 2297 2120 
Q 2122 2328 1859 2328 
Q 1606 2328 1431 2129 
Q 1256 1931 1256 1544 
z
" id="Arial-BoldMT-36" transform="scale(0.015625)"/>
       </defs>
       <use xlink:href="#Arial-BoldMT-30"/>
       <use x="55.615234" xlink:href="#Arial-BoldMT-2e"/>
       <use x="83.398438" xlink:href="#Arial-BoldMT-36"/>
      </g>
     </g>
    </g>
    <g id="xtick_6">
     <g id="line2d_6">
      <g>
       <use style="stroke:#000000;stroke-width:0.8;" x="366.762258" xlink:href="#mbd1c2585f1" y="341.759622"/>
      </g>
     </g>
     <g id="text_6">
      <!-- 0.8 -->
      <g transform="translate(362.592258 353.05431)scale(0.06 -0.06)">
       <defs>
        <path d="M 1025 2472 
Q 684 2616 529 2867 
Q 375 3119 375 3419 
Q 375 3931 733 4265 
Q 1091 4600 1750 4600 
Q 2403 4600 2764 4265 
Q 3125 3931 3125 3419 
Q 3125 3100 2959 2851 
Q 2794 2603 2494 2472 
Q 2875 2319 3073 2025 
Q 3272 1731 3272 1347 
Q 3272 713 2867 316 
Q 2463 -81 1791 -81 
Q 1166 -81 750 247 
Q 259 634 259 1309 
Q 259 1681 443 1992 
Q 628 2303 1025 2472 
z
M 1206 3356 
Q 1206 3094 1354 2947 
Q 1503 2800 1750 2800 
Q 2000 2800 2150 2948 
Q 2300 3097 2300 3359 
Q 2300 3606 2151 3754 
Q 2003 3903 1759 3903 
Q 1506 3903 1356 3753 
Q 1206 3603 1206 3356 
z
M 1125 1394 
Q 1125 1031 1311 828 
Q 1497 625 1775 625 
Q 2047 625 2225 820 
Q 2403 1016 2403 1384 
Q 2403 1706 2222 1901 
Q 2041 2097 1763 2097 
Q 1441 2097 1283 1875 
Q 1125 1653 1125 1394 
z
" id="Arial-BoldMT-38" transform="scale(0.015625)"/>
       </defs>
       <use xlink:href="#Arial-BoldMT-30"/>
       <use x="55.615234" xlink:href="#Arial-BoldMT-2e"/>
       <use x="83.398438" xlink:href="#Arial-BoldMT-38"/>
      </g>
     </g>
    </g>
    <g id="xtick_7">
     <g id="line2d_7">
      <g>
       <use style="stroke:#000000;stroke-width:0.8;" x="403.736124" xlink:href="#mbd1c2585f1" y="341.759622"/>
      </g>
     </g>
     <g id="text_7">
      <!-- 1.0 -->
      <g transform="translate(399.566124 353.05431)scale(0.06 -0.06)">
       <defs>
        <path d="M 2519 0 
L 1641 0 
L 1641 3309 
Q 1159 2859 506 2644 
L 506 3441 
Q 850 3553 1253 3867 
Q 1656 4181 1806 4600 
L 2519 4600 
L 2519 0 
z
" id="Arial-BoldMT-31" transform="scale(0.015625)"/>
       </defs>
       <use xlink:href="#Arial-BoldMT-31"/>
       <use x="55.615234" xlink:href="#Arial-BoldMT-2e"/>
       <use x="83.398438" xlink:href="#Arial-BoldMT-30"/>
      </g>
     </g>
    </g>
    <g id="xtick_8">
     <g id="line2d_8">
      <g>
       <use style="stroke:#000000;stroke-width:0.8;" x="440.70999" xlink:href="#mbd1c2585f1" y="341.759622"/>
      </g>
     </g>
     <g id="text_8">
      <!-- 1.2 -->
      <g transform="translate(436.53999 353.05431)scale(0.06 -0.06)">
       <use xlink:href="#Arial-BoldMT-31"/>
       <use x="55.615234" xlink:href="#Arial-BoldMT-2e"/>
       <use x="83.398438" xlink:href="#Arial-BoldMT-32"/>
      </g>
     </g>
    </g>
   </g>
   <g id="matplotlib.axis_2">
    <g id="ytick_1">
     <g id="line2d_9">
      <defs>
       <path d="M 0 0 
L -3.5 0 
" id="m1f61164e24" style="stroke:#000000;stroke-width:0.8;"/>
      </defs>
      <g>
       <use style="stroke:#000000;stroke-width:0.8;" x="169.599118" xlink:href="#m1f61164e24" y="328.568281"/>
      </g>
     </g>
     <g id="text_9">
      <!-- 2 -->
      <g transform="translate(159.262556 330.715624)scale(0.06 -0.06)">
       <use xlink:href="#Arial-BoldMT-32"/>
      </g>
     </g>
    </g>
    <g id="ytick_2">
     <g id="line2d_10">
      <g>
       <use style="stroke:#000000;stroke-width:0.8;" x="169.599118" xlink:href="#m1f61164e24" y="299.893487"/>
      </g>
     </g>
     <g id="text_10">
      <!-- 4 -->
      <g transform="translate(159.262556 302.040831)scale(0.06 -0.06)">
       <use xlink:href="#Arial-BoldMT-34"/>
      </g>
     </g>
    </g>
    <g id="ytick_3">
     <g id="line2d_11">
      <g>
       <use style="stroke:#000000;stroke-width:0.8;" x="169.599118" xlink:href="#m1f61164e24" y="271.218694"/>
      </g>
     </g>
     <g id="text_11">
      <!-- 6 -->
      <g transform="translate(159.262556 273.366038)scale(0.06 -0.06)">
       <use xlink:href="#Arial-BoldMT-36"/>
      </g>
     </g>
    </g>
    <g id="ytick_4">
     <g id="line2d_12">
      <g>
       <use style="stroke:#000000;stroke-width:0.8;" x="169.599118" xlink:href="#m1f61164e24" y="242.5439"/>
      </g>
     </g>
     <g id="text_12">
      <!-- 8 -->
      <g transform="translate(159.262556 244.691244)scale(0.06 -0.06)">
       <use xlink:href="#Arial-BoldMT-38"/>
      </g>
     </g>
    </g>
    <g id="ytick_5">
     <g id="line2d_13">
      <g>
       <use style="stroke:#000000;stroke-width:0.8;" x="169.599118" xlink:href="#m1f61164e24" y="213.869107"/>
      </g>
     </g>
     <g id="text_13">
      <!-- 10 -->
      <g transform="translate(155.925993 216.016451)scale(0.06 -0.06)">
       <use xlink:href="#Arial-BoldMT-31"/>
       <use x="55.615234" xlink:href="#Arial-BoldMT-30"/>
      </g>
     </g>
    </g>
    <g id="ytick_6">
     <g id="line2d_14">
      <g>
       <use style="stroke:#000000;stroke-width:0.8;" x="169.599118" xlink:href="#m1f61164e24" y="185.194314"/>
      </g>
     </g>
     <g id="text_14">
      <!-- 12 -->
      <g transform="translate(155.925993 187.341657)scale(0.06 -0.06)">
       <use xlink:href="#Arial-BoldMT-31"/>
       <use x="55.615234" xlink:href="#Arial-BoldMT-32"/>
      </g>
     </g>
    </g>
    <g id="ytick_7">
     <g id="line2d_15">
      <g>
       <use style="stroke:#000000;stroke-width:0.8;" x="169.599118" xlink:href="#m1f61164e24" y="156.51952"/>
      </g>
     </g>
     <g id="text_15">
      <!-- 14 -->
      <g transform="translate(155.925993 158.666864)scale(0.06 -0.06)">
       <use xlink:href="#Arial-BoldMT-31"/>
       <use x="55.615234" xlink:href="#Arial-BoldMT-34"/>
      </g>
     </g>
    </g>
    <g id="ytick_8">
     <g id="line2d_16">
      <g>
       <use style="stroke:#000000;stroke-width:0.8;" x="169.599118" xlink:href="#m1f61164e24" y="127.844727"/>
      </g>
     </g>
     <g id="text_16">
      <!-- 16 -->
      <g transform="translate(155.925993 129.992071)scale(0.06 -0.06)">
       <use xlink:href="#Arial-BoldMT-31"/>
       <use x="55.615234" xlink:href="#Arial-BoldMT-36"/>
      </g>
     </g>
    </g>
    <g id="ytick_9">
     <g id="line2d_17">
      <g>
       <use style="stroke:#000000;stroke-width:0.8;" x="169.599118" xlink:href="#m1f61164e24" y="99.169933"/>
      </g>
     </g>
     <g id="text_17">
      <!-- 18 -->
      <g transform="translate(155.925993 101.317277)scale(0.06 -0.06)">
       <use xlink:href="#Arial-BoldMT-31"/>
       <use x="55.615234" xlink:href="#Arial-BoldMT-38"/>
      </g>
     </g>
    </g>
   </g>
   <g id="line2d_18">
    <path clip-path="url(#p982f1e23ac)" d="M 182.447536 310.429637 
L 183.187012 303.667699 
L 184.29623 303.667699 
L 185.405446 302.107244 
L 186.514659 302.107244 
L 187.623874 306.788592 
L 188.733095 302.107244 
L 189.842311 303.667692 
L 190.951523 303.667685 
L 192.060742 298.986352 
L 193.169954 302.627397 
L 194.279172 299.506501 
L 195.388391 280.260991 
L 196.497605 279.740828 
L 197.60682 290.66397 
L 198.716036 294.305008 
L 199.825254 302.627397 
L 200.934469 303.147546 
L 202.043685 295.865456 
L 203.1529 294.305001 
L 204.262116 300.026651 
L 205.371334 299.506494 
L 206.48055 301.587099 
L 207.589766 308.869192 
L 208.698981 303.147546 
L 209.808197 302.107244 
L 210.917414 304.187842 
L 212.026629 299.506501 
L 213.135845 296.385599 
L 214.245061 294.305008 
L 215.354277 295.865456 
L 216.463493 297.946047 
L 217.572709 299.506501 
L 218.681925 302.107251 
L 219.791141 276.099789 
L 220.900358 203.799036 
L 222.009574 164.787832 
L 223.11879 192.875894 
L 224.228005 213.681866 
L 225.337222 225.645293 
L 226.446438 245.931137 
L 227.555653 262.575908 
L 228.664869 281.301276 
L 229.774087 288.583366 
L 230.883301 291.704262 
L 231.992518 296.385605 
L 233.101735 297.425904 
L 234.210949 301.587105 
L 235.320166 301.587099 
L 236.429381 295.345314 
L 237.538598 294.305008 
L 238.647815 304.187842 
L 239.75703 305.748293 
L 240.866247 298.986352 
L 241.975463 303.14754 
L 243.084678 307.82889 
L 244.193894 306.788592 
L 245.303109 303.14754 
L 246.412325 300.546797 
L 247.521543 302.627394 
L 248.630758 304.187845 
L 249.739974 305.228147 
L 250.849192 303.147546 
L 251.958407 300.026644 
L 253.067623 300.546797 
L 254.176836 296.385605 
L 255.286054 291.184112 
L 256.395269 295.345307 
L 257.504485 301.066949 
L 258.613706 301.066949 
L 259.722918 302.627397 
L 260.832134 301.587099 
L 261.941352 301.587099 
L 263.050568 306.788595 
L 264.15978 310.429633 
L 265.268999 305.748293 
L 266.378211 304.708001 
L 267.48743 303.147546 
L 268.596648 304.707994 
L 269.705861 316.671428 
L 270.815079 313.550529 
L 271.924297 305.228147 
L 273.03351 305.228147 
L 274.142728 310.429633 
L 275.251946 309.909484 
L 276.361159 301.066949 
L 277.470377 296.385605 
L 278.579595 304.187842 
L 279.688808 309.909484 
L 280.798026 310.429637 
L 281.907245 312.510234 
L 283.016457 311.469935 
L 284.125681 300.026651 
L 285.234894 290.663963 
L 286.344106 295.345314 
L 287.453325 303.667692 
L 288.562532 313.550533 
L 289.671756 307.828887 
L 290.780968 299.506494 
L 291.890192 301.587099 
L 292.999399 309.909487 
L 294.108617 308.869192 
L 295.21783 301.066949 
L 296.327048 303.667699 
L 297.436267 313.550533 
L 298.545479 317.711727 
L 299.654703 319.272175 
L 300.763916 311.990085 
L 301.873129 300.546803 
L 302.982352 297.946053 
L 304.091565 307.308741 
L 305.200789 311.990085 
L 306.309996 304.707994 
L 307.419214 306.788595 
L 308.528421 306.788588 
L 309.637645 303.147546 
L 311.856071 290.663963 
L 312.965294 289.103522 
L 314.074507 296.385599 
L 315.183731 300.026651 
L 316.292932 294.825158 
L 317.402156 293.784859 
L 318.511369 297.946053 
L 319.620593 298.46621 
L 320.729794 302.627397 
L 321.839018 310.949783 
L 322.948231 309.909484 
L 324.057455 310.949786 
L 325.166667 307.308737 
L 326.27588 301.587099 
L 327.385104 302.107251 
L 328.494327 305.748293 
L 329.603529 310.429637 
L 330.712753 306.268442 
L 331.821966 306.268446 
L 332.931178 309.389338 
L 334.040391 308.869189 
L 335.149615 309.389335 
L 336.258828 306.788588 
L 337.36804 305.748293 
L 338.477264 309.909484 
L 339.586477 313.03038 
L 340.6957 309.909487 
L 341.804902 308.869192 
L 342.914115 311.990085 
L 344.023339 316.151279 
L 345.132551 326.034116 
L 346.241775 322.91322 
L 347.350977 311.990085 
L 348.4602 311.469932 
L 349.569413 308.349039 
L 350.678637 306.268442 
L 351.787861 308.869196 
L 352.897073 314.070685 
L 354.006297 316.151279 
L 355.115488 316.151279 
L 357.333935 302.107244 
L 358.443148 305.22814 
L 359.55235 291.704262 
L 360.661573 280.78112 
L 362.88001 304.707994 
L 363.989234 309.389338 
L 365.098457 307.82889 
L 366.20767 307.82889 
L 367.316872 311.469932 
L 368.426096 320.31247 
L 369.535308 322.393071 
L 370.644532 316.671428 
L 371.753745 317.711727 
L 372.862968 321.872921 
L 373.97217 316.151279 
L 375.081383 313.03038 
L 376.190596 319.272175 
L 377.299819 319.792324 
L 378.409043 318.752029 
L 379.518267 310.949786 
L 380.627469 301.587105 
L 381.736692 306.788595 
L 382.845905 313.550533 
L 383.955118 311.469932 
L 385.064341 308.349039 
L 386.173543 308.349036 
L 387.282767 312.510234 
L 388.39198 312.510234 
L 389.501192 310.429637 
L 390.610416 304.187842 
L 391.71964 304.187845 
L 392.828842 305.22814 
L 393.938065 301.066949 
L 395.047278 305.22814 
L 396.156502 306.268442 
L 397.265714 305.228147 
L 398.374927 309.909487 
L 399.48414 319.272175 
L 400.593353 323.433366 
L 401.702565 315.631126 
L 402.811789 311.990081 
L 403.921002 318.23188 
L 405.030203 311.469932 
L 406.139449 280.781133 
L 407.248651 254.253512 
L 408.357853 255.29381 
L 410.5763 283.902022 
L 411.685502 292.224411 
L 412.794704 294.305001 
L 413.903927 303.147553 
L 415.013173 309.389342 
L 416.122375 306.788588 
L 418.340822 287.543074 
L 419.450024 288.583366 
L 420.559226 292.744554 
L 421.668449 289.623665 
L 422.777673 285.462477 
L 423.886875 291.704262 
L 424.996099 293.26471 
L 426.1053 290.663963 
L 427.214524 292.744554 
L 428.323748 289.103515 
L 429.432949 287.543067 
L 430.542195 289.623665 
L 431.651397 290.143814 
L 432.760621 288.06321 
L 433.869822 286.502762 
L 434.979046 287.022911 
L 436.08827 292.744554 
L 437.197449 294.305001 
L 438.306673 291.704262 
L 439.415897 291.704255 
L 439.415897 291.704255 
" style="fill:none;stroke:#ff0000;stroke-linecap:square;stroke-opacity:0.3;"/>
   </g>
   <g id="line2d_19">
    <path clip-path="url(#p982f1e23ac)" d="M 218.866794 341.759622 
L 218.866794 97.645606 
" style="fill:none;stroke:#1f77b4;stroke-linecap:square;"/>
   </g>
   <g id="line2d_20">
    <path clip-path="url(#p982f1e23ac)" d="M 182.447536 314.696388 
L 183.187012 314.975691 
L 184.29623 312.493026 
L 185.405446 311.313753 
L 186.514659 311.996487 
L 187.623874 313.424021 
L 188.733095 318.016954 
L 190.951523 310.50689 
L 192.060742 312.493023 
L 193.169954 315.09982 
L 194.279172 315.720491 
L 195.388391 311.68616 
L 196.497605 311.189628 
L 197.60682 312.679224 
L 198.716036 314.913621 
L 199.825254 313.920553 
L 200.934469 313.299886 
L 202.043685 315.720491 
L 203.1529 313.299892 
L 204.262116 311.562021 
L 205.371334 313.610223 
L 206.48055 314.975687 
L 207.589766 314.913625 
L 208.698981 316.279089 
L 209.808197 315.782554 
L 210.917414 315.037757 
L 212.026629 315.720491 
L 213.135845 314.044689 
L 214.245061 308.582824 
L 215.354277 309.575892 
L 216.463493 314.292957 
L 217.572709 313.54815 
L 218.681925 313.734352 
L 219.791141 278.914966 
L 220.900358 184.387444 
L 222.009574 132.934223 
L 223.11879 170.608666 
L 224.228005 216.165577 
L 225.337222 243.536965 
L 227.555653 265.756836 
L 228.664869 285.121631 
L 229.774087 298.652165 
L 230.883301 310.444821 
L 231.992518 317.148022 
L 233.101735 318.885886 
L 234.210949 319.816881 
L 235.320166 317.64455 
L 236.429381 313.237823 
L 237.538598 312.803357 
L 238.647815 315.472216 
L 239.75703 320.685824 
L 240.866247 320.127219 
L 241.975463 313.796421 
L 243.084678 310.817221 
L 245.303109 313.175757 
L 246.412325 310.258622 
L 247.521543 309.327621 
L 248.630758 307.838024 
L 249.739974 306.844956 
L 250.849192 307.775961 
L 251.958407 308.27249 
L 253.067623 308.210424 
L 254.176836 308.70696 
L 255.286054 309.327621 
L 256.395269 309.079353 
L 257.504485 309.01729 
L 258.613706 309.327624 
L 259.722918 311.624087 
L 260.832134 311.065489 
L 261.941352 307.465627 
L 263.050568 306.596685 
L 264.15978 308.64489 
L 265.268999 308.64489 
L 266.378211 309.203488 
L 267.48743 310.444821 
L 268.596648 306.844959 
L 269.705861 305.417429 
L 270.815079 309.07936 
L 271.924297 311.748223 
L 273.03351 310.94136 
L 274.142728 308.831092 
L 275.251946 308.458692 
L 276.361159 310.196553 
L 277.470377 312.865423 
L 278.579595 312.058557 
L 279.688808 311.686153 
L 280.798026 314.106755 
L 283.016457 304.796754 
L 284.125681 308.148361 
L 285.234894 312.244755 
L 286.344106 312.555089 
L 287.453325 311.686157 
L 289.671756 314.292957 
L 290.780968 314.044686 
L 292.999399 310.13449 
L 294.108617 310.50689 
L 296.327048 310.196556 
L 298.545479 314.479152 
L 299.654703 313.486087 
L 300.763916 313.734352 
L 301.873129 313.299889 
L 302.982352 311.065492 
L 304.091565 313.175753 
L 305.200789 314.044689 
L 306.309996 315.658425 
L 307.419214 316.21702 
L 308.528421 310.010355 
L 309.637645 308.458692 
L 310.746863 311.313753 
L 311.856071 312.493026 
L 312.965294 311.25169 
L 314.074507 314.35502 
L 315.183731 315.658421 
L 316.292932 310.817221 
L 317.402156 313.610219 
L 318.511369 313.486094 
L 319.620593 311.313753 
L 320.729794 312.120623 
L 321.839018 312.306824 
L 322.948231 314.72742 
L 324.057455 314.541221 
L 325.166667 312.927485 
L 326.27588 312.244755 
L 327.385104 310.755158 
L 328.494327 312.679224 
L 329.603529 312.43096 
L 330.712753 311.437889 
L 331.821966 311.686157 
L 332.931178 311.375823 
L 334.040391 312.927489 
L 335.149615 313.920557 
L 336.258828 316.154954 
L 337.36804 314.789486 
L 338.477264 313.796428 
L 339.586477 315.534289 
L 340.6957 314.789493 
L 342.914115 312.120623 
L 344.023339 311.624087 
L 345.132551 312.927489 
L 346.241775 317.148022 
L 347.350977 314.230891 
L 348.4602 309.327624 
L 349.569413 311.499955 
L 350.678637 311.748223 
L 351.787861 311.003426 
L 352.897073 310.87929 
L 354.006297 312.368891 
L 355.115488 315.09982 
L 356.224712 313.920557 
L 357.333935 310.693085 
L 358.443148 312.927485 
L 359.55235 314.355023 
L 360.661573 314.106759 
L 361.770786 311.562021 
L 362.88001 310.010358 
L 365.098457 318.82382 
L 366.20767 319.382419 
L 367.316872 311.624087 
L 368.426096 309.38969 
L 369.535308 314.230891 
L 370.644532 311.748223 
L 371.753745 310.258622 
L 372.862968 312.617158 
L 373.97217 313.361952 
L 375.081383 313.858487 
L 376.190596 314.168821 
L 377.299819 313.982623 
L 378.409043 313.98262 
L 379.518267 312.555089 
L 380.627469 313.113694 
L 381.736692 316.030825 
L 382.845905 316.651489 
L 383.955118 312.679224 
L 385.064341 310.010355 
L 386.173543 312.244752 
L 387.282767 311.375819 
L 388.39198 310.693092 
L 389.501192 311.68616 
L 390.610416 310.072428 
L 391.71964 310.755155 
L 393.938065 318.45142 
L 395.047278 318.327284 
L 396.156502 313.98262 
L 397.265714 313.175757 
L 398.374927 313.858491 
L 399.48414 314.72742 
L 400.593353 314.975691 
L 401.702565 316.092891 
L 402.811789 316.154954 
L 403.921002 307.900087 
L 405.030203 298.465963 
L 406.139449 275.749564 
L 407.248651 244.281772 
L 408.357853 252.784907 
L 409.467076 282.266563 
L 410.5763 294.804026 
L 411.685502 297.597024 
L 412.794704 297.162565 
L 413.903927 296.231563 
L 415.013173 293.066161 
L 416.122375 294.804026 
L 417.231576 294.866095 
L 418.340822 290.831761 
L 419.450024 290.335225 
L 420.559226 287.480157 
L 421.668449 288.845625 
L 422.777673 293.873031 
L 423.886875 292.755827 
L 424.996099 289.40423 
L 426.1053 290.024898 
L 427.214524 292.507563 
L 428.323748 293.128224 
L 429.432949 294.431629 
L 430.542195 293.438558 
L 431.651397 294.741963 
L 432.760621 296.852224 
L 433.869822 293.500634 
L 434.979046 294.679887 
L 436.08827 299.024562 
L 437.197449 297.038426 
L 438.306673 296.728099 
L 439.415897 299.769362 
L 439.415897 299.769362 
" style="fill:none;stroke:#ff0000;stroke-linecap:square;"/>
   </g>
   <g id="line2d_21">
    <path clip-path="url(#p982f1e23ac)" d="M 182.447536 310.570225 
L 183.187012 307.206411 
L 184.29623 306.365464 
L 185.405446 310.570225 
L 186.514659 312.672607 
L 187.623874 314.144274 
L 188.733095 317.297839 
L 189.842311 316.456889 
L 192.060742 311.831657 
L 193.169954 313.513553 
L 194.279172 318.769507 
L 195.388391 315.826178 
L 196.497605 309.519035 
L 197.60682 308.047371 
L 198.716036 314.144268 
L 199.825254 316.246653 
L 200.934469 315.405696 
L 202.043685 320.451414 
L 203.1529 318.559271 
L 204.262116 315.195457 
L 205.371334 318.76951 
L 206.48055 319.61046 
L 207.589766 316.877367 
L 208.698981 316.03641 
L 209.808197 314.774982 
L 210.917414 317.297839 
L 212.026629 317.087603 
L 213.135845 313.723796 
L 214.245061 315.615932 
L 215.354277 316.667125 
L 217.572709 312.6726 
L 218.681925 313.303321 
L 219.791141 265.158804 
L 220.900358 158.568095 
L 222.009574 108.741698 
L 223.11879 153.732606 
L 224.228005 206.712605 
L 225.337222 232.361641 
L 226.446438 253.595708 
L 227.555653 269.5738 
L 229.774087 297.955939 
L 230.883301 305.52451 
L 231.992518 306.155225 
L 233.101735 308.2576 
L 234.210949 317.508082 
L 235.320166 320.45141 
L 236.429381 316.03641 
L 237.538598 315.826178 
L 238.647815 321.712839 
L 239.75703 314.35451 
L 240.866247 307.837121 
L 241.975463 311.831657 
L 243.084678 310.359989 
L 245.303109 304.263082 
L 246.412325 309.308799 
L 247.521543 303.632368 
L 248.630758 296.904757 
L 249.739974 301.529982 
L 251.958407 297.535461 
L 253.067623 296.90475 
L 254.176836 299.007128 
L 255.286054 299.007128 
L 256.395269 293.751175 
L 257.504485 296.484271 
L 258.613706 298.586657 
L 259.722918 299.4276 
L 260.832134 303.422132 
L 261.941352 296.904743 
L 263.050568 298.166178 
L 264.15978 299.007135 
L 265.268999 298.376418 
L 266.378211 301.529982 
L 267.48743 300.478796 
L 268.596648 298.586657 
L 269.705861 299.637846 
L 270.815079 299.848085 
L 271.924297 301.109514 
L 273.03351 306.365464 
L 274.142728 304.8938 
L 275.251946 303.211893 
L 276.361159 305.944982 
L 277.470377 305.104035 
L 278.579595 302.370942 
L 279.688808 303.632371 
L 280.798026 301.950464 
L 281.907245 303.632368 
L 283.016457 306.365464 
L 284.125681 300.689035 
L 285.234894 299.848085 
L 286.344106 309.09856 
L 287.453325 310.570225 
L 288.562532 308.467846 
L 289.671756 303.422125 
L 290.780968 303.842607 
L 291.890192 309.729268 
L 292.999399 309.308799 
L 294.108617 311.411171 
L 295.21783 311.411178 
L 296.327048 311.621407 
L 297.436267 306.996178 
L 298.545479 306.155225 
L 299.654703 310.14975 
L 300.763916 307.837125 
L 301.873129 307.416653 
L 302.982352 309.098553 
L 304.091565 311.831653 
L 305.200789 309.308796 
L 307.419214 310.570225 
L 308.528421 310.780457 
L 309.637645 315.405696 
L 310.746863 314.144274 
L 311.856071 315.405696 
L 312.965294 313.093085 
L 314.074507 306.996178 
L 315.183731 309.729268 
L 316.292932 316.24665 
L 317.402156 316.456892 
L 318.511369 313.934035 
L 319.620593 309.519035 
L 320.729794 313.723796 
L 321.839018 317.297842 
L 322.948231 310.990696 
L 324.057455 311.831653 
L 325.166667 314.564743 
L 327.385104 308.257607 
L 328.494327 309.93951 
L 329.603529 308.888321 
L 331.821966 309.308796 
L 332.931178 313.513553 
L 334.040391 320.241178 
L 335.149615 317.297839 
L 336.258828 311.411178 
L 337.36804 310.990703 
L 338.477264 310.149743 
L 339.586477 305.104035 
L 340.6957 306.996178 
L 341.804902 313.723796 
L 342.914115 314.774982 
L 344.023339 310.359982 
L 345.132551 311.200932 
L 346.241775 314.35451 
L 347.350977 310.780457 
L 348.4602 308.047368 
L 350.678637 318.138796 
L 351.787861 313.513553 
L 352.897073 309.729268 
L 354.006297 311.831653 
L 355.115488 314.354503 
L 356.224712 312.462361 
L 357.333935 312.882839 
L 358.443148 313.513553 
L 359.55235 313.723799 
L 360.661573 312.882839 
L 361.770786 308.467839 
L 363.989234 315.826178 
L 365.098457 310.149743 
L 366.20767 306.575703 
L 367.316872 311.411178 
L 368.426096 310.780457 
L 369.535308 307.837132 
L 370.644532 306.785939 
L 371.753745 303.211893 
L 372.862968 306.155225 
L 373.97217 307.206417 
L 375.081383 305.524514 
L 376.190596 308.467839 
L 377.299819 307.416657 
L 379.518267 311.831653 
L 380.627469 310.990703 
L 381.736692 310.780457 
L 382.845905 310.990696 
L 383.955118 310.14975 
L 385.064341 306.365457 
L 386.173543 304.263085 
L 387.282767 303.632361 
L 388.39198 306.365457 
L 389.501192 307.206411 
L 390.610416 308.678082 
L 391.71964 308.678082 
L 395.047278 304.263082 
L 396.156502 308.257607 
L 397.265714 310.14975 
L 398.374927 309.09856 
L 399.48414 308.888314 
L 400.593353 311.200939 
L 401.702565 311.411171 
L 402.811789 309.519035 
L 403.921002 307.206411 
L 405.030203 304.052839 
L 406.139449 280.506179 
L 407.248651 260.743794 
L 408.357853 268.522597 
L 409.467076 279.454983 
L 410.5763 288.074757 
L 411.685502 295.433089 
L 412.794704 299.427607 
L 413.903927 298.376411 
L 415.013173 296.694511 
L 417.231576 284.080225 
L 418.340822 288.495228 
L 419.450024 291.438557 
L 420.559226 280.506186 
L 421.668449 276.932125 
L 422.777673 281.347136 
L 423.886875 287.023567 
L 424.996099 287.2338 
L 426.1053 285.551893 
L 427.214524 289.125939 
L 428.323748 294.381893 
L 429.432949 297.535461 
L 430.542195 295.433082 
L 431.651397 297.955939 
L 432.760621 291.859036 
L 433.869822 287.654272 
L 434.979046 291.018079 
L 436.08827 294.802371 
L 437.197449 299.427607 
L 438.306673 301.31975 
L 439.415897 299.217375 
L 439.415897 299.217375 
" style="fill:none;stroke:#000000;stroke-linecap:square;stroke-opacity:0.3;"/>
   </g>
   <g id="line2d_22">
    <path clip-path="url(#p982f1e23ac)" d="M 218.866794 341.759622 
L 218.866794 97.645606 
" style="fill:none;stroke:#1f77b4;stroke-linecap:square;"/>
   </g>
   <g id="line2d_23">
    <path clip-path="url(#p982f1e23ac)" d="M 182.447536 317.727813 
L 183.187012 316.329044 
L 185.405446 315.318817 
L 186.514659 313.803483 
L 187.623874 315.513089 
L 188.733095 316.018208 
L 189.842311 315.629663 
L 190.951523 316.290195 
L 192.060742 315.241112 
L 193.169954 314.813708 
L 194.279172 313.33723 
L 195.388391 313.492647 
L 196.497605 316.83416 
L 197.60682 315.551948 
L 198.716036 313.803487 
L 199.825254 314.386311 
L 200.934469 314.735996 
L 202.043685 314.580576 
L 203.1529 314.192035 
L 204.262116 313.64807 
L 206.48055 316.523317 
L 207.589766 314.852567 
L 209.808197 313.725779 
L 210.917414 313.609215 
L 212.026629 313.958903 
L 213.135845 313.142958 
L 214.245061 312.715554 
L 215.354277 312.75441 
L 216.463493 314.697144 
L 217.572709 315.279968 
L 218.681925 313.570362 
L 219.791141 268.38231 
L 220.900358 160.91011 
L 222.009574 114.59528 
L 224.228005 207.108417 
L 225.337222 231.742286 
L 226.446438 249.615478 
L 227.555653 263.447759 
L 228.664869 275.453867 
L 230.883301 308.635811 
L 231.992518 313.570362 
L 233.101735 316.717593 
L 234.210949 317.339265 
L 235.320166 317.533541 
L 236.429381 320.486499 
L 237.538598 318.34949 
L 238.647815 316.756445 
L 239.75703 317.960945 
L 240.866247 316.173628 
L 241.975463 313.764634 
L 244.193894 309.87916 
L 246.412325 304.983458 
L 247.521543 300.087766 
L 248.630758 297.911898 
L 249.739974 298.922129 
L 250.849192 295.075507 
L 251.958407 294.220699 
L 253.067623 293.909866 
L 255.286054 294.453821 
L 256.395269 293.171622 
L 257.504485 293.327039 
L 258.613706 294.104135 
L 259.722918 297.290232 
L 260.832134 299.155257 
L 261.941352 299.427231 
L 263.050568 297.018244 
L 264.15978 294.142988 
L 265.268999 298.417013 
L 266.378211 303.856673 
L 267.48743 302.729888 
L 268.596648 300.437455 
L 269.705861 300.592879 
L 270.815079 299.155257 
L 271.924297 299.038686 
L 274.142728 301.603103 
L 275.251946 301.525391 
L 276.361159 301.6031 
L 277.470377 301.486532 
L 278.579595 300.437462 
L 279.688808 302.108215 
L 280.798026 302.924164 
L 281.907245 304.672622 
L 283.016457 306.809635 
L 284.125681 304.284074 
L 285.234894 301.447683 
L 286.344106 304.594914 
L 287.453325 305.216593 
L 288.562532 305.372017 
L 289.671756 306.071398 
L 290.780968 307.003907 
L 291.890192 307.547878 
L 292.999399 304.400641 
L 294.108617 304.361789 
L 295.21783 304.789189 
L 296.327048 308.208407 
L 297.436267 309.024356 
L 298.545479 308.480391 
L 299.654703 308.83008 
L 300.763916 305.21659 
L 301.873129 305.294305 
L 302.982352 308.441532 
L 304.091565 310.733961 
L 305.200789 308.9855 
L 306.309996 306.459942 
L 309.637645 308.752375 
L 310.746863 308.441532 
L 311.856071 308.985503 
L 312.965294 309.257491 
L 314.074507 306.382234 
L 315.183731 305.79941 
L 316.292932 310.811673 
L 317.402156 310.578545 
L 318.511369 308.441528 
L 319.620593 309.529465 
L 320.729794 307.742151 
L 321.839018 305.294301 
L 322.948231 306.848494 
L 324.057455 310.306561 
L 325.166667 308.791231 
L 326.27588 307.081615 
L 327.385104 309.684884 
L 328.494327 308.791231 
L 329.603529 305.138885 
L 330.712753 306.537651 
L 331.821966 308.402683 
L 332.931178 309.918016 
L 334.040391 310.151144 
L 335.149615 309.29634 
L 336.258828 308.130692 
L 337.36804 306.498798 
L 338.477264 307.664436 
L 339.586477 309.995724 
L 340.6957 308.36382 
L 341.804902 308.558099 
L 342.914115 308.36382 
L 344.023339 305.877122 
L 345.132551 307.975276 
L 346.241775 307.275894 
L 347.350977 306.965055 
L 348.4602 308.441532 
L 349.569413 307.897564 
L 350.678637 308.208407 
L 351.787861 309.956868 
L 352.897073 309.14092 
L 354.006297 307.275891 
L 355.115488 307.586731 
L 356.224712 306.459942 
L 357.333935 306.459942 
L 358.443148 308.868939 
L 359.55235 309.4129 
L 360.661573 306.343378 
L 361.770786 306.770782 
L 362.88001 308.130692 
L 363.989234 307.31475 
L 365.098457 306.343378 
L 366.20767 304.478346 
L 367.316872 303.429273 
L 368.426096 305.138885 
L 369.535308 307.897564 
L 370.644532 307.392455 
L 371.753745 304.050945 
L 372.862968 301.292267 
L 373.97217 303.429279 
L 375.081383 307.275891 
L 376.190596 308.208407 
L 377.299819 306.11025 
L 378.409043 305.100029 
L 380.627469 304.905757 
L 381.736692 303.740112 
L 382.845905 303.856677 
L 383.955118 305.333157 
L 385.064341 306.11025 
L 386.173543 307.275898 
L 387.282767 304.789189 
L 388.39198 301.680815 
L 389.501192 301.6031 
L 390.610416 302.224776 
L 391.71964 302.496763 
L 392.828842 303.973237 
L 393.938065 305.915974 
L 395.047278 304.050949 
L 396.156502 302.8076 
L 397.265714 302.341343 
L 398.374927 302.34134 
L 399.48414 302.691032 
L 400.593353 300.981423 
L 401.702565 300.67059 
L 402.811789 301.29226 
L 403.921002 299.038693 
L 405.030203 290.762636 
L 406.139449 274.171655 
L 407.248651 264.185996 
L 408.357853 268.343444 
L 409.467076 273.316854 
L 410.5763 282.758552 
L 411.685502 290.024399 
L 412.794704 290.102104 
L 413.903927 288.509052 
L 415.013173 283.768777 
L 416.122375 281.437502 
L 417.231576 281.437502 
L 418.340822 280.194142 
L 419.450024 278.445681 
L 420.559226 278.406829 
L 421.668449 280.932386 
L 422.777673 280.349559 
L 423.886875 283.535649 
L 424.996099 284.856706 
L 426.1053 281.670616 
L 427.214524 284.468161 
L 428.323748 288.120507 
L 429.432949 285.012129 
L 430.542195 285.050989 
L 431.651397 292.122553 
L 432.760621 292.744225 
L 433.869822 291.112328 
L 434.979046 290.607212 
L 436.08827 290.995764 
L 438.306673 286.333187 
L 439.415897 289.830116 
L 439.415897 289.830116 
" style="fill:none;stroke:#000000;stroke-linecap:square;"/>
   </g>
   <g id="line2d_24">
    <path clip-path="url(#p982f1e23ac)" d="M 182.447536 312.738265 
L 183.187012 309.124628 
L 184.29623 308.363858 
L 185.405446 310.265774 
L 186.514659 310.646159 
L 187.623874 311.216731 
L 188.733095 312.167686 
L 189.842311 310.646159 
L 190.951523 310.646159 
L 192.060742 311.597117 
L 193.169954 309.885399 
L 194.279172 318.063624 
L 195.388391 323.388989 
L 196.497605 319.394967 
L 197.60682 318.253818 
L 198.716036 316.161719 
L 199.825254 319.394967 
L 200.934469 320.345925 
L 202.043685 318.824391 
L 203.1529 315.210757 
L 204.262116 306.081564 
L 205.371334 309.314823 
L 206.48055 314.640181 
L 207.589766 313.879414 
L 208.698981 310.455968 
L 209.808197 311.787304 
L 210.917414 313.308845 
L 212.026629 309.885392 
L 213.135845 311.026541 
L 214.245061 311.977502 
L 215.354277 309.695204 
L 216.463493 311.026541 
L 217.572709 313.68922 
L 218.681925 315.400948 
L 219.791141 315.591139 
L 220.900358 311.406922 
L 222.009574 312.167696 
L 223.11879 318.824391 
L 224.228005 319.014582 
L 225.337222 316.542097 
L 226.446438 315.210757 
L 227.555653 311.787311 
L 228.664869 314.069602 
L 229.774087 318.444009 
L 230.883301 321.296883 
L 231.992518 322.247841 
L 233.101735 318.634204 
L 234.210949 312.548071 
L 235.320166 312.167686 
L 236.429381 314.069608 
L 237.538598 314.069608 
L 238.647815 315.78133 
L 239.75703 313.499032 
L 240.866247 310.075583 
L 241.975463 313.689227 
L 243.084678 315.210757 
L 244.193894 312.357884 
L 245.303109 316.351906 
L 246.412325 318.063624 
L 247.521543 313.879414 
L 248.630758 312.167696 
L 249.739974 314.830372 
L 250.849192 315.971521 
L 251.958407 314.069608 
L 253.067623 313.68922 
L 254.176836 311.787311 
L 255.286054 314.449983 
L 256.395269 318.253818 
L 257.504485 312.548078 
L 258.613706 312.167689 
L 259.722918 314.44999 
L 260.832134 313.499032 
L 261.941352 311.597117 
L 263.050568 306.081564 
L 264.15978 310.646159 
L 265.268999 315.781326 
L 266.378211 315.21075 
L 268.596648 309.50501 
L 269.705861 313.879414 
L 270.815079 316.161712 
L 271.924297 312.548071 
L 273.03351 307.412907 
L 274.142728 305.701189 
L 275.251946 307.793289 
L 277.470377 314.830372 
L 278.579595 313.118647 
L 279.688808 313.118647 
L 280.798026 317.302867 
L 281.907245 315.78133 
L 283.016457 314.069608 
L 284.125681 316.542093 
L 285.234894 320.155731 
L 286.344106 320.916501 
L 287.453325 314.259796 
L 288.562532 312.167696 
L 289.671756 315.020563 
L 290.780968 316.161712 
L 291.890192 318.444006 
L 292.999399 319.014585 
L 294.108617 318.253818 
L 295.21783 317.30286 
L 296.327048 320.345925 
L 297.436267 319.96554 
L 298.545479 315.78133 
L 299.654703 314.640181 
L 300.763916 310.455968 
L 301.873129 308.17367 
L 302.982352 312.357884 
L 304.091565 310.075583 
L 305.200789 308.17367 
L 306.309996 316.161712 
L 307.419214 316.161712 
L 308.528421 311.406922 
L 309.637645 313.499032 
L 310.746863 317.683242 
L 311.856071 319.775352 
L 312.965294 317.873437 
L 314.074507 314.830372 
L 315.183731 315.210757 
L 316.292932 316.922479 
L 317.402156 316.922479 
L 318.511369 317.30286 
L 319.620593 317.493051 
L 320.729794 321.106692 
L 321.839018 317.873437 
L 322.948231 312.167689 
L 324.057455 317.493051 
L 325.166667 319.965543 
L 326.27588 315.400948 
L 327.385104 313.308841 
L 328.494327 314.830372 
L 329.603529 313.308845 
L 330.712753 313.308841 
L 331.821966 314.44999 
L 334.040391 312.548071 
L 335.149615 314.830375 
L 336.258828 316.351903 
L 337.36804 315.210757 
L 338.477264 316.542093 
L 339.586477 319.014585 
L 340.6957 316.922475 
L 341.804902 317.30286 
L 342.914115 316.732291 
L 344.023339 314.830372 
L 345.132551 318.824391 
L 346.241775 321.487074 
L 348.4602 317.683242 
L 349.569413 318.824391 
L 350.678637 315.020563 
L 351.787861 310.075586 
L 352.897073 309.695201 
L 354.006297 315.210757 
L 355.115488 315.400948 
L 356.224712 313.689227 
L 357.333935 316.351906 
L 358.443148 315.210757 
L 359.55235 315.78133 
L 360.661573 315.971521 
L 361.770786 315.210757 
L 362.88001 312.167696 
L 363.989234 314.830365 
L 365.098457 318.634204 
L 366.20767 317.873437 
L 367.316872 321.296883 
L 368.426096 321.677265 
L 369.535308 317.873437 
L 370.644532 317.683242 
L 371.753745 315.78133 
L 372.862968 313.118651 
L 373.97217 313.499029 
L 375.081383 316.161712 
L 376.190596 319.775352 
L 377.299819 317.493055 
L 378.409043 314.44999 
L 379.518267 314.830372 
L 380.627469 315.020563 
L 381.736692 311.216735 
L 382.845905 310.836353 
L 383.955118 313.118651 
L 385.064341 316.161712 
L 386.173543 315.591139 
L 387.282767 317.873437 
L 388.39198 319.394967 
L 389.501192 318.253818 
L 390.610416 322.247841 
L 391.71964 322.438032 
L 393.938065 314.640178 
L 395.047278 309.124625 
L 396.156502 309.50501 
L 397.265714 314.069608 
L 398.374927 315.591139 
L 399.48414 316.542093 
L 400.593353 316.542093 
L 401.702565 318.444009 
L 402.811789 315.591139 
L 403.921002 314.640181 
L 405.030203 307.793289 
L 406.139449 278.12341 
L 407.248651 252.25736 
L 408.357853 252.067173 
L 409.467076 274.319579 
L 410.5763 292.197584 
L 411.685502 299.234671 
L 412.794704 304.940415 
L 413.903927 304.750227 
L 415.013173 301.326774 
L 416.122375 296.571992 
L 417.231576 295.811228 
L 418.340822 293.33873 
L 419.450024 292.958348 
L 420.559226 293.148535 
L 421.668449 287.062413 
L 422.777673 288.203565 
L 423.886875 292.197584 
L 424.996099 290.105474 
L 426.1053 290.866238 
L 427.214524 292.007397 
L 428.323748 292.958348 
L 429.432949 293.148535 
L 431.651397 284.589928 
L 432.760621 288.013371 
L 433.869822 286.682031 
L 434.979046 284.589921 
L 436.08827 294.860264 
L 437.197449 299.044484 
L 438.306673 297.903325 
L 439.415897 299.424865 
L 439.415897 299.424865 
" style="fill:none;stroke:#0000ff;stroke-linecap:square;stroke-opacity:0.3;"/>
   </g>
   <g id="line2d_25">
    <path clip-path="url(#p982f1e23ac)" d="M 218.866794 341.759622 
L 218.866794 97.645606 
" style="fill:none;stroke:#1f77b4;stroke-linecap:square;"/>
   </g>
   <g id="line2d_26">
    <path clip-path="url(#p982f1e23ac)" d="M 182.447536 318.02859 
L 183.187012 316.421321 
L 184.29623 314.942072 
L 185.405446 313.946413 
L 186.514659 313.235235 
L 187.623874 314.173997 
L 188.733095 312.723187 
L 189.842311 312.950764 
L 190.951523 314.799833 
L 192.060742 314.003314 
L 193.169954 314.088652 
L 194.279172 315.425673 
L 195.388391 315.198092 
L 196.497605 315.340328 
L 197.60682 313.064553 
L 198.716036 312.438716 
L 199.825254 314.458468 
L 200.934469 315.511014 
L 202.043685 315.084304 
L 203.1529 313.377471 
L 204.262116 314.003311 
L 205.371334 313.861078 
L 206.48055 313.462815 
L 207.589766 315.767035 
L 208.698981 314.79983 
L 209.808197 312.69474 
L 210.917414 313.832628 
L 212.026629 314.401573 
L 213.135845 314.031754 
L 214.245061 314.145546 
L 215.354277 315.169649 
L 216.463493 313.548157 
L 217.572709 314.515358 
L 218.681925 315.823932 
L 219.791141 314.515358 
L 222.009574 313.718839 
L 223.11879 314.458468 
L 224.228005 314.885174 
L 225.337222 315.511011 
L 226.446438 313.349027 
L 227.555653 312.012003 
L 228.664869 314.316232 
L 229.774087 314.316229 
L 230.883301 315.710144 
L 231.992518 315.198092 
L 233.101735 314.088652 
L 234.210949 315.823936 
L 235.320166 315.937721 
L 236.429381 314.856727 
L 237.538598 314.799833 
L 239.75703 315.909274 
L 240.866247 314.060212 
L 241.975463 313.605051 
L 243.084678 315.681697 
L 244.193894 315.567908 
L 245.303109 314.543809 
L 246.412325 311.670644 
L 247.521543 313.462815 
L 248.630758 314.942068 
L 249.739974 313.12145 
L 250.849192 313.51971 
L 251.958407 314.543809 
L 253.067623 314.885174 
L 254.176836 315.084307 
L 255.286054 316.07996 
L 256.395269 314.173993 
L 257.504485 312.609395 
L 260.832134 314.287782 
L 261.941352 314.942072 
L 263.050568 317.673004 
L 264.15978 315.567912 
L 265.268999 312.068897 
L 266.378211 314.742939 
L 267.48743 316.136854 
L 268.596648 314.344676 
L 270.815079 314.430017 
L 271.924297 314.828283 
L 273.03351 315.852379 
L 274.142728 315.141198 
L 275.251946 312.637849 
L 277.470377 314.173997 
L 278.579595 315.681697 
L 279.688808 318.298841 
L 280.798026 315.823936 
L 281.907245 312.580948 
L 283.016457 312.040457 
L 284.125681 315.596352 
L 285.234894 316.222195 
L 286.344106 313.747287 
L 287.453325 314.316232 
L 288.562532 315.22654 
L 289.671756 315.397226 
L 290.780968 315.909277 
L 291.890192 314.230891 
L 292.999399 315.112748 
L 294.108617 316.648902 
L 295.21783 314.742939 
L 296.327048 313.292133 
L 297.436267 313.861078 
L 298.545479 316.023062 
L 299.654703 316.335984 
L 300.763916 314.031761 
L 301.873129 313.064553 
L 302.982352 313.121447 
L 304.091565 314.856727 
L 306.309996 315.653246 
L 307.419214 318.270397 
L 308.528421 315.823932 
L 309.637645 312.69474 
L 310.746863 315.681697 
L 311.856071 315.482564 
L 312.965294 311.955112 
L 314.074507 313.491263 
L 315.183731 315.65325 
L 316.292932 314.657597 
L 317.402156 314.173997 
L 318.511369 314.202444 
L 319.620593 315.624802 
L 320.729794 316.734243 
L 321.839018 314.799836 
L 322.948231 313.747287 
L 324.057455 313.377471 
L 325.166667 313.861078 
L 327.385104 316.108407 
L 328.494327 315.710144 
L 329.603529 314.316232 
L 330.712753 315.681697 
L 331.821966 315.65325 
L 332.931178 314.913621 
L 334.040391 315.084307 
L 335.149615 315.767038 
L 336.258828 315.681697 
L 337.36804 314.942072 
L 338.477264 313.633502 
L 339.586477 312.780081 
L 340.6957 313.804184 
L 341.804902 313.804181 
L 342.914115 315.311884 
L 344.023339 316.250642 
L 345.132551 316.193748 
L 346.241775 315.340331 
L 347.350977 313.235239 
L 348.4602 311.443061 
L 349.569413 314.714495 
L 350.678637 316.648902 
L 351.787861 314.230887 
L 352.897073 314.79983 
L 354.006297 315.795482 
L 355.115488 315.482567 
L 356.224712 316.335984 
L 357.333935 316.250642 
L 358.443148 315.966171 
L 359.55235 317.303189 
L 360.661573 314.060205 
L 361.770786 313.889522 
L 362.88001 316.478219 
L 363.989234 316.364434 
L 365.098457 315.653246 
L 366.20767 314.003311 
L 367.316872 314.230887 
L 369.535308 315.084307 
L 370.644532 314.088652 
L 371.753745 313.946416 
L 372.862968 315.88083 
L 373.97217 314.6007 
L 375.081383 314.458464 
L 376.190596 315.852379 
L 377.299819 314.259334 
L 378.409043 313.5766 
L 379.518267 314.486911 
L 380.627469 314.20244 
L 381.736692 313.690392 
L 382.845905 314.771386 
L 383.955118 317.360083 
L 386.173543 315.909274 
L 387.282767 315.795489 
L 388.39198 313.434368 
L 389.501192 313.718833 
L 390.610416 315.22654 
L 391.71964 315.084307 
L 392.828842 315.198096 
L 393.938065 314.885178 
L 395.047278 313.605051 
L 396.156502 312.580952 
L 397.265714 312.381819 
L 398.374927 313.889522 
L 399.48414 314.913621 
L 400.593353 314.799836 
L 401.702565 313.832628 
L 402.811789 315.311881 
L 403.921002 314.373123 
L 405.030203 300.06418 
L 407.248651 247.266154 
L 408.357853 244.392976 
L 409.467076 267.378328 
L 410.5763 285.499196 
L 411.685502 291.92827 
L 412.794704 294.744547 
L 413.903927 295.114366 
L 415.013173 294.061817 
L 416.122375 290.335225 
L 417.231576 286.210381 
L 418.340822 287.20603 
L 419.450024 286.324169 
L 420.559226 283.820817 
L 421.668449 286.38107 
L 422.777673 287.661183 
L 423.886875 285.612992 
L 424.996099 285.214725 
L 426.1053 287.803426 
L 427.214524 288.713733 
L 428.323748 290.961068 
L 429.432949 290.87572 
L 430.542195 289.766283 
L 431.651397 292.070505 
L 432.760621 292.098959 
L 434.979046 293.521328 
L 436.08827 292.582553 
L 437.197449 294.94367 
L 438.306673 294.175605 
L 439.415897 292.667902 
L 439.415897 292.667902 
" style="fill:none;stroke:#0000ff;stroke-linecap:square;"/>
   </g>
   <g id="line2d_27">
    <path clip-path="url(#p982f1e23ac)" d="M 182.447536 314.456488 
L 183.187012 314.456488 
L 184.29623 320.939308 
L 185.405446 315.104773 
L 186.514659 312.511642 
L 187.623874 325.477278 
L 188.733095 330.015249 
L 190.951523 322.235866 
L 192.060742 319.642746 
L 193.169954 319.642743 
L 194.279172 317.6979 
L 195.388391 318.346181 
L 196.497605 315.104769 
L 197.60682 318.994462 
L 198.716036 325.477274 
L 199.825254 321.587585 
L 200.934469 323.532428 
L 202.043685 324.180716 
L 203.1529 321.587585 
L 204.262116 315.75305 
L 205.371334 317.697897 
L 206.48055 320.939305 
L 208.698981 324.828994 
L 209.808197 326.125559 
L 212.026629 314.456488 
L 213.135845 322.23587 
L 214.245061 317.049612 
L 215.354277 308.62195 
L 216.463493 307.973669 
L 217.572709 312.511646 
L 218.681925 324.828997 
L 219.791141 325.477278 
L 220.900358 315.75305 
L 222.009574 315.75305 
L 223.11879 315.104769 
L 224.228005 313.808211 
L 225.337222 311.863361 
L 226.446438 309.270234 
L 227.555653 314.456488 
L 228.664869 309.270234 
L 229.774087 306.67711 
L 230.883301 317.049619 
L 231.992518 318.994462 
L 233.101735 315.75305 
L 234.210949 310.566803 
L 235.320166 304.083983 
L 236.429381 308.621957 
L 237.538598 317.049619 
L 238.647815 317.697897 
L 239.75703 321.587585 
L 240.866247 319.642743 
L 241.975463 315.75305 
L 243.084678 317.049612 
L 244.193894 315.75305 
L 245.303109 318.346184 
L 246.412325 318.346181 
L 247.521543 315.104769 
L 248.630758 309.918519 
L 249.739974 316.401331 
L 250.849192 320.29102 
L 251.958407 315.104773 
L 253.067623 320.291024 
L 254.176836 315.104773 
L 255.286054 315.104769 
L 256.395269 313.808211 
L 257.504485 309.270238 
L 258.613706 312.511646 
L 259.722918 308.621957 
L 260.832134 307.973672 
L 261.941352 310.566803 
L 263.050568 312.511649 
L 264.15978 315.75305 
L 265.268999 320.291024 
L 266.378211 324.180709 
L 267.48743 318.346181 
L 268.596648 316.401338 
L 269.705861 318.994462 
L 270.815079 320.939308 
L 271.924297 330.663529 
L 273.03351 330.663527 
L 274.142728 328.070402 
L 275.251946 326.77384 
L 276.361159 324.828994 
L 277.470377 323.532432 
L 278.579595 322.884147 
L 279.688808 328.070402 
L 280.798026 326.125559 
L 281.907245 321.587589 
L 283.016457 317.6979 
L 284.125681 310.566799 
L 285.234894 314.456488 
L 286.344106 324.828994 
L 287.453325 322.884151 
L 289.671756 317.697897 
L 290.780968 313.808208 
L 291.890192 319.642739 
L 292.999399 320.939308 
L 294.108617 311.863361 
L 295.21783 320.291024 
L 296.327048 327.422121 
L 297.436267 320.939305 
L 298.545479 327.422121 
L 299.654703 330.66353 
L 300.763916 316.401331 
L 301.873129 315.753057 
L 302.982352 318.346181 
L 304.091565 313.159923 
L 305.200789 315.75305 
L 306.309996 317.697897 
L 307.419214 317.049619 
L 308.528421 313.159927 
L 309.637645 318.346181 
L 310.746863 324.180709 
L 311.856071 320.939308 
L 312.965294 318.994458 
L 314.074507 323.532435 
L 315.183731 318.346181 
L 316.292932 314.456488 
L 317.402156 316.401335 
L 318.511369 313.808208 
L 319.620593 318.994462 
L 320.729794 321.587585 
L 321.839018 322.884151 
L 322.948231 317.697897 
L 324.057455 311.863365 
L 325.166667 309.918519 
L 326.27588 311.863361 
L 327.385104 324.828997 
L 328.494327 323.532432 
L 329.603529 316.401338 
L 330.712753 325.477278 
L 331.821966 323.532432 
L 332.931178 316.401338 
L 334.040391 315.75305 
L 335.149615 307.973672 
L 336.258828 311.215084 
L 337.36804 320.939305 
L 338.477264 328.718686 
L 339.586477 330.015248 
L 340.6957 329.366967 
L 341.804902 323.532435 
L 342.914115 312.511646 
L 345.132551 309.918519 
L 347.350977 315.104773 
L 348.4602 315.104773 
L 349.569413 307.973672 
L 350.678637 306.028826 
L 351.787861 318.994458 
L 352.897073 312.511646 
L 354.006297 309.270238 
L 355.115488 321.587585 
L 356.224712 322.235866 
L 358.443148 319.642743 
L 359.55235 320.939308 
L 360.661573 317.049612 
L 361.770786 300.842575 
L 362.88001 306.677114 
L 363.989234 320.291024 
L 365.098457 321.587589 
L 366.20767 318.346181 
L 367.316872 314.456488 
L 368.426096 321.587585 
L 369.535308 324.828994 
L 370.644532 316.401335 
L 371.753745 315.75305 
L 372.862968 319.642743 
L 373.97217 307.325391 
L 375.081383 300.842575 
L 376.190596 306.67711 
L 377.299819 307.973672 
L 378.409043 313.159927 
L 379.518267 314.456485 
L 380.627469 309.918519 
L 381.736692 310.566799 
L 382.845905 314.456492 
L 383.955118 315.753057 
L 385.064341 307.325391 
L 386.173543 304.083987 
L 387.282767 307.325398 
L 388.39198 304.732264 
L 389.501192 307.973676 
L 390.610416 315.104773 
L 391.71964 312.511642 
L 392.828842 314.456488 
L 393.938065 315.104773 
L 395.047278 313.808208 
L 396.156502 316.401331 
L 397.265714 317.049612 
L 398.374927 315.104769 
L 399.48414 307.325388 
L 400.593353 307.973672 
L 401.702565 307.973672 
L 402.811789 303.435699 
L 403.921002 305.380545 
L 405.030203 306.028826 
L 407.248651 242.497234 
L 408.357853 244.442083 
L 409.467076 263.890525 
L 410.5763 280.745849 
L 411.685502 283.987254 
L 412.794704 281.39413 
L 413.903927 276.856164 
L 415.013173 275.559588 
L 416.122375 277.504438 
L 417.231576 277.504438 
L 418.340822 274.911314 
L 419.450024 274.263027 
L 420.559226 263.890525 
L 421.668449 257.407709 
L 422.777673 276.85615 
L 423.886875 281.394124 
L 424.996099 271.669903 
L 427.214524 284.635535 
L 428.323748 282.690699 
L 429.432949 284.635535 
L 430.542195 283.33898 
L 431.651397 281.394124 
L 432.760621 288.525221 
L 433.869822 293.063194 
L 434.979046 287.876947 
L 436.08827 289.821789 
L 437.197449 289.173508 
L 438.306673 287.876947 
L 439.415897 293.711482 
L 439.415897 293.711482 
" style="fill:none;stroke:#008000;stroke-linecap:square;stroke-opacity:0.3;"/>
   </g>
   <g id="line2d_28">
    <path clip-path="url(#p982f1e23ac)" d="M 218.866794 341.759622 
L 218.866794 97.645606 
" style="fill:none;stroke:#1f77b4;stroke-linecap:square;"/>
   </g>
   <g id="line2d_29">
    <path clip-path="url(#p982f1e23ac)" d="M 182.447536 312.214691 
L 183.187012 313.036105 
L 184.29623 315.276324 
L 185.405446 314.977632 
L 186.514659 315.276324 
L 187.623874 311.542625 
L 188.733095 309.601102 
L 189.842311 316.172411 
L 190.951523 320.055455 
L 192.060742 315.425673 
L 193.169954 317.068502 
L 194.279172 316.471106 
L 195.388391 310.795887 
L 196.497605 311.39328 
L 197.60682 313.932193 
L 198.716036 315.575022 
L 199.825254 319.010022 
L 200.934469 320.802196 
L 202.043685 317.964586 
L 203.1529 317.217844 
L 204.262116 318.263284 
L 205.371334 315.873716 
L 206.48055 311.094585 
L 207.589766 309.601109 
L 208.698981 313.484149 
L 209.808197 318.711327 
L 210.917414 315.724367 
L 212.026629 316.321757 
L 213.135845 310.198498 
L 214.245061 311.542629 
L 215.354277 320.354149 
L 216.463493 316.471106 
L 217.572709 316.32176 
L 218.681925 313.484149 
L 219.791141 312.588062 
L 220.900358 316.321763 
L 222.009574 316.471106 
L 223.11879 316.023065 
L 224.228005 314.977626 
L 225.337222 317.964586 
L 226.446438 316.620455 
L 227.555653 311.691975 
L 228.664869 310.497189 
L 229.774087 313.3348 
L 230.883301 314.529582 
L 231.992518 314.230887 
L 233.101735 316.7698 
L 234.210949 315.575022 
L 235.320166 315.276324 
L 236.429381 315.724367 
L 237.538598 316.471109 
L 238.647815 315.873716 
L 239.75703 312.438713 
L 240.866247 310.198495 
L 241.975463 312.438713 
L 243.084678 313.036109 
L 244.193894 316.620455 
L 245.303109 316.919153 
L 246.412325 313.3348 
L 247.521543 312.438713 
L 248.630758 312.88676 
L 249.739974 317.217847 
L 250.849192 313.036105 
L 251.958407 312.737414 
L 253.067623 317.665888 
L 254.176836 316.172411 
L 255.286054 316.919149 
L 256.395269 313.484153 
L 257.504485 312.737411 
L 258.613706 319.308717 
L 259.722918 317.367193 
L 260.832134 314.529589 
L 261.941352 317.964586 
L 263.050568 318.561978 
L 264.15978 311.990673 
L 265.268999 313.3348 
L 266.378211 314.977632 
L 267.48743 309.8998 
L 268.596648 313.633502 
L 269.705861 312.588062 
L 270.815079 310.945233 
L 271.924297 312.140015 
L 273.03351 314.380236 
L 274.142728 315.873713 
L 275.251946 308.705018 
L 276.361159 310.347844 
L 277.470377 313.185451 
L 278.579595 312.588062 
L 279.688808 315.575022 
L 280.798026 314.380236 
L 281.907245 313.633498 
L 283.016457 310.198498 
L 284.125681 308.107632 
L 285.234894 312.438716 
L 286.344106 312.886756 
L 287.453325 311.84132 
L 289.671756 315.724371 
L 290.780968 312.737407 
L 291.890192 313.036105 
L 292.999399 319.010018 
L 294.108617 318.561978 
L 295.21783 316.172411 
L 296.327048 316.919149 
L 297.436267 317.068502 
L 298.545479 313.484149 
L 299.654703 309.153058 
L 300.763916 309.153058 
L 301.873129 312.588062 
L 302.982352 317.068495 
L 304.091565 316.471106 
L 305.200789 315.276324 
L 306.309996 315.873713 
L 307.419214 312.737407 
L 308.528421 315.724367 
L 309.637645 316.620455 
L 311.856071 314.678934 
L 312.965294 310.497196 
L 314.074507 309.451756 
L 315.183731 311.094582 
L 316.292932 316.471109 
L 317.402156 317.964586 
L 318.511369 317.367193 
L 320.729794 311.393276 
L 322.948231 317.964586 
L 324.057455 318.263284 
L 325.166667 314.678931 
L 326.27588 312.289364 
L 327.385104 315.126975 
L 328.494327 317.068502 
L 330.712753 314.230891 
L 331.821966 316.620458 
L 334.040391 318.860673 
L 335.149615 321.250237 
L 337.36804 308.40632 
L 338.477264 315.276324 
L 339.586477 315.126975 
L 340.6957 307.659582 
L 341.804902 310.945236 
L 342.914115 316.7698 
L 344.023339 319.906106 
L 345.132551 319.75676 
L 346.241775 317.217851 
L 347.350977 316.7698 
L 348.4602 318.113931 
L 349.569413 316.7698 
L 350.678637 313.633498 
L 351.787861 313.036105 
L 352.897073 313.932193 
L 354.006297 310.198498 
L 355.115488 306.912843 
L 356.224712 313.782844 
L 357.333935 315.575018 
L 358.443148 309.601102 
L 359.55235 309.153058 
L 360.661573 315.575022 
L 361.770786 317.068498 
L 362.88001 315.425669 
L 363.989234 316.023062 
L 365.098457 315.276324 
L 366.20767 315.276324 
L 367.316872 318.113931 
L 368.426096 320.2048 
L 369.535308 314.82828 
L 370.644532 311.542629 
L 371.753745 312.140018 
L 372.862968 313.185454 
L 373.97217 313.484156 
L 375.081383 314.230891 
L 376.190596 314.529585 
L 377.299819 311.990673 
L 378.409043 315.724371 
L 379.518267 319.906109 
L 381.736692 312.140018 
L 382.845905 312.588062 
L 383.955118 315.425673 
L 385.064341 316.172411 
L 386.173543 313.782847 
L 387.282767 313.185451 
L 388.39198 316.769804 
L 389.501192 319.607415 
L 390.610416 316.023062 
L 391.71964 311.39328 
L 392.828842 315.425676 
L 393.938065 316.172414 
L 395.047278 311.094578 
L 396.156502 313.185451 
L 397.265714 313.185454 
L 398.374927 309.750454 
L 399.48414 309.003713 
L 400.593353 314.529582 
L 401.702565 317.367193 
L 403.921002 314.82828 
L 405.030203 300.192192 
L 407.248651 230.745427 
L 408.357853 230.596074 
L 409.467076 253.894351 
L 410.5763 279.582178 
L 411.685502 294.068927 
L 412.794704 293.919574 
L 413.903927 285.406752 
L 415.013173 278.088701 
L 416.122375 272.264134 
L 417.231576 275.251094 
L 418.340822 276.296526 
L 419.450024 270.471952 
L 420.559226 272.712177 
L 421.668449 271.517399 
L 422.777673 272.712177 
L 423.886875 272.712184 
L 424.996099 275.101741 
L 426.1053 286.153487 
L 427.214524 284.809356 
L 428.323748 282.569137 
L 429.432949 280.926315 
L 430.542195 279.582178 
L 431.651397 279.283479 
L 432.760621 282.270433 
L 433.869822 283.465232 
L 434.979046 281.225007 
L 436.08827 289.140453 
L 437.197449 290.783269 
L 438.306673 287.796309 
L 439.415897 281.225 
L 439.415897 281.225 
" style="fill:none;stroke:#008000;stroke-linecap:square;"/>
   </g>
   <g id="line2d_30">
    <path clip-path="url(#p982f1e23ac)" d="M 403.736124 341.759622 
L 403.736124 97.645606 
" style="fill:none;stroke:#1f77b4;stroke-linecap:square;"/>
   </g>
   <g id="patch_3">
    <path d="M 169.599118 341.759622 
L 169.599118 97.645606 
" style="fill:none;stroke:#000000;stroke-linecap:square;stroke-linejoin:miter;stroke-width:0.8;"/>
   </g>
   <g id="patch_4">
    <path d="M 452.264315 341.759622 
L 452.264315 97.645606 
" style="fill:none;stroke:#000000;stroke-linecap:square;stroke-linejoin:miter;stroke-width:0.8;"/>
   </g>
   <g id="patch_5">
    <path d="M 169.599118 341.759622 
L 452.264315 341.759622 
" style="fill:none;stroke:#000000;stroke-linecap:square;stroke-linejoin:miter;stroke-width:0.8;"/>
   </g>
   <g id="patch_6">
    <path d="M 169.599118 97.645606 
L 452.264315 97.645606 
" style="fill:none;stroke:#000000;stroke-linecap:square;stroke-linejoin:miter;stroke-width:0.8;"/>
   </g>
  </g>
 </g>
 <defs>
  <clipPath id="p982f1e23ac">
   <rect height="244.114016" width="282.665197" x="169.599118" y="97.645606"/>
  </clipPath>
 </defs>
</svg>
