<?xml version="1.0" encoding="utf-8" standalone="no"?>
<!DOCTYPE svg PUBLIC "-//W3C//DTD SVG 1.1//EN"
  "http://www.w3.org/Graphics/SVG/1.1/DTD/svg11.dtd">
<svg height="488.228031pt" version="1.1" viewBox="0 0 565.330394 488.228031" width="565.330394pt" xmlns="http://www.w3.org/2000/svg" xmlns:xlink="http://www.w3.org/1999/xlink">
 <metadata>
  <rdf:RDF xmlns:cc="http://creativecommons.org/ns#" xmlns:dc="http://purl.org/dc/elements/1.1/" xmlns:rdf="http://www.w3.org/1999/02/22-rdf-syntax-ns#">
   <cc:Work>
    <dc:type rdf:resource="http://purl.org/dc/dcmitype/StillImage"/>
    <dc:date>2023-10-10T14:12:21.687115</dc:date>
    <dc:format>image/svg+xml</dc:format>
    <dc:creator>
     <cc:Agent>
      <dc:title>Matplotlib v3.4.2, https://matplotlib.org/</dc:title>
     </cc:Agent>
    </dc:creator>
   </cc:Work>
  </rdf:RDF>
 </metadata>
 <defs>
  <style type="text/css">*{stroke-linecap:butt;stroke-linejoin:round;}</style>
 </defs>
 <g id="figure_1">
  <g id="patch_1">
   <path d="M 0 488.228031 
L 565.330394 488.228031 
L 565.330394 0 
L 0 0 
z
" style="fill:#ffffff;"/>
  </g>
  <g id="axes_1">
   <g id="patch_2">
    <path d="M 169.599118 341.759622 
L 452.264315 341.759622 
L 452.264315 97.645606 
L 169.599118 97.645606 
z
" style="fill:#ffffff;"/>
   </g>
   <g id="matplotlib.axis_1">
    <g id="xtick_1">
     <g id="line2d_1">
      <defs>
       <path d="M 0 0 
L 0 3.5 
" id="mf8545d60c7" style="stroke:#000000;stroke-width:0.8;"/>
      </defs>
      <g>
       <use style="stroke:#000000;stroke-width:0.8;" x="181.892928" xlink:href="#mf8545d60c7" y="341.759622"/>
      </g>
     </g>
     <g id="text_1">
      <!-- −0.2 -->
      <g transform="translate(175.97074 353.05431)scale(0.06 -0.06)">
       <defs>
        <path d="M 266 1850 
L 266 2672 
L 3469 2672 
L 3469 1850 
L 266 1850 
z
" id="Arial-BoldMT-2212" transform="scale(0.015625)"/>
        <path d="M 1756 4600 
Q 2422 4600 2797 4125 
Q 3244 3563 3244 2259 
Q 3244 959 2794 391 
Q 2422 -78 1756 -78 
Q 1088 -78 678 436 
Q 269 950 269 2269 
Q 269 3563 719 4131 
Q 1091 4600 1756 4600 
z
M 1756 3872 
Q 1597 3872 1472 3770 
Q 1347 3669 1278 3406 
Q 1188 3066 1188 2259 
Q 1188 1453 1269 1151 
Q 1350 850 1473 750 
Q 1597 650 1756 650 
Q 1916 650 2041 751 
Q 2166 853 2234 1116 
Q 2325 1453 2325 2259 
Q 2325 3066 2244 3367 
Q 2163 3669 2039 3770 
Q 1916 3872 1756 3872 
z
" id="Arial-BoldMT-30" transform="scale(0.015625)"/>
        <path d="M 459 0 
L 459 878 
L 1338 878 
L 1338 0 
L 459 0 
z
" id="Arial-BoldMT-2e" transform="scale(0.015625)"/>
        <path d="M 3238 816 
L 3238 0 
L 159 0 
Q 209 463 459 877 
Q 709 1291 1447 1975 
Q 2041 2528 2175 2725 
Q 2356 2997 2356 3263 
Q 2356 3556 2198 3714 
Q 2041 3872 1763 3872 
Q 1488 3872 1325 3706 
Q 1163 3541 1138 3156 
L 263 3244 
Q 341 3969 753 4284 
Q 1166 4600 1784 4600 
Q 2463 4600 2850 4234 
Q 3238 3869 3238 3325 
Q 3238 3016 3127 2736 
Q 3016 2456 2775 2150 
Q 2616 1947 2200 1565 
Q 1784 1184 1673 1059 
Q 1563 934 1494 816 
L 3238 816 
z
" id="Arial-BoldMT-32" transform="scale(0.015625)"/>
       </defs>
       <use xlink:href="#Arial-BoldMT-2212"/>
       <use x="58.398438" xlink:href="#Arial-BoldMT-30"/>
       <use x="114.013672" xlink:href="#Arial-BoldMT-2e"/>
       <use x="141.796875" xlink:href="#Arial-BoldMT-32"/>
      </g>
     </g>
    </g>
    <g id="xtick_2">
     <g id="line2d_2">
      <g>
       <use style="stroke:#000000;stroke-width:0.8;" x="218.866794" xlink:href="#mf8545d60c7" y="341.759622"/>
      </g>
     </g>
     <g id="text_2">
      <!-- 0.0 -->
      <g transform="translate(214.696794 353.05431)scale(0.06 -0.06)">
       <use xlink:href="#Arial-BoldMT-30"/>
       <use x="55.615234" xlink:href="#Arial-BoldMT-2e"/>
       <use x="83.398438" xlink:href="#Arial-BoldMT-30"/>
      </g>
     </g>
    </g>
    <g id="xtick_3">
     <g id="line2d_3">
      <g>
       <use style="stroke:#000000;stroke-width:0.8;" x="255.84066" xlink:href="#mf8545d60c7" y="341.759622"/>
      </g>
     </g>
     <g id="text_3">
      <!-- 0.2 -->
      <g transform="translate(251.67066 353.05431)scale(0.06 -0.06)">
       <use xlink:href="#Arial-BoldMT-30"/>
       <use x="55.615234" xlink:href="#Arial-BoldMT-2e"/>
       <use x="83.398438" xlink:href="#Arial-BoldMT-32"/>
      </g>
     </g>
    </g>
    <g id="xtick_4">
     <g id="line2d_4">
      <g>
       <use style="stroke:#000000;stroke-width:0.8;" x="292.814526" xlink:href="#mf8545d60c7" y="341.759622"/>
      </g>
     </g>
     <g id="text_4">
      <!-- 0.4 -->
      <g transform="translate(288.644526 353.05431)scale(0.06 -0.06)">
       <defs>
        <path d="M 1994 0 
L 1994 922 
L 119 922 
L 119 1691 
L 2106 4600 
L 2844 4600 
L 2844 1694 
L 3413 1694 
L 3413 922 
L 2844 922 
L 2844 0 
L 1994 0 
z
M 1994 1694 
L 1994 3259 
L 941 1694 
L 1994 1694 
z
" id="Arial-BoldMT-34" transform="scale(0.015625)"/>
       </defs>
       <use xlink:href="#Arial-BoldMT-30"/>
       <use x="55.615234" xlink:href="#Arial-BoldMT-2e"/>
       <use x="83.398438" xlink:href="#Arial-BoldMT-34"/>
      </g>
     </g>
    </g>
    <g id="xtick_5">
     <g id="line2d_5">
      <g>
       <use style="stroke:#000000;stroke-width:0.8;" x="329.788392" xlink:href="#mf8545d60c7" y="341.759622"/>
      </g>
     </g>
     <g id="text_5">
      <!-- 0.6 -->
      <g transform="translate(325.618392 353.05431)scale(0.06 -0.06)">
       <defs>
        <path d="M 3247 3459 
L 2397 3366 
Q 2366 3628 2234 3753 
Q 2103 3878 1894 3878 
Q 1616 3878 1423 3628 
Q 1231 3378 1181 2588 
Q 1509 2975 1997 2975 
Q 2547 2975 2939 2556 
Q 3331 2138 3331 1475 
Q 3331 772 2918 347 
Q 2506 -78 1859 -78 
Q 1166 -78 719 461 
Q 272 1000 272 2228 
Q 272 3488 737 4044 
Q 1203 4600 1947 4600 
Q 2469 4600 2811 4308 
Q 3153 4016 3247 3459 
z
M 1256 1544 
Q 1256 1116 1453 883 
Q 1650 650 1903 650 
Q 2147 650 2309 840 
Q 2472 1031 2472 1466 
Q 2472 1913 2297 2120 
Q 2122 2328 1859 2328 
Q 1606 2328 1431 2129 
Q 1256 1931 1256 1544 
z
" id="Arial-BoldMT-36" transform="scale(0.015625)"/>
       </defs>
       <use xlink:href="#Arial-BoldMT-30"/>
       <use x="55.615234" xlink:href="#Arial-BoldMT-2e"/>
       <use x="83.398438" xlink:href="#Arial-BoldMT-36"/>
      </g>
     </g>
    </g>
    <g id="xtick_6">
     <g id="line2d_6">
      <g>
       <use style="stroke:#000000;stroke-width:0.8;" x="366.762258" xlink:href="#mf8545d60c7" y="341.759622"/>
      </g>
     </g>
     <g id="text_6">
      <!-- 0.8 -->
      <g transform="translate(362.592258 353.05431)scale(0.06 -0.06)">
       <defs>
        <path d="M 1025 2472 
Q 684 2616 529 2867 
Q 375 3119 375 3419 
Q 375 3931 733 4265 
Q 1091 4600 1750 4600 
Q 2403 4600 2764 4265 
Q 3125 3931 3125 3419 
Q 3125 3100 2959 2851 
Q 2794 2603 2494 2472 
Q 2875 2319 3073 2025 
Q 3272 1731 3272 1347 
Q 3272 713 2867 316 
Q 2463 -81 1791 -81 
Q 1166 -81 750 247 
Q 259 634 259 1309 
Q 259 1681 443 1992 
Q 628 2303 1025 2472 
z
M 1206 3356 
Q 1206 3094 1354 2947 
Q 1503 2800 1750 2800 
Q 2000 2800 2150 2948 
Q 2300 3097 2300 3359 
Q 2300 3606 2151 3754 
Q 2003 3903 1759 3903 
Q 1506 3903 1356 3753 
Q 1206 3603 1206 3356 
z
M 1125 1394 
Q 1125 1031 1311 828 
Q 1497 625 1775 625 
Q 2047 625 2225 820 
Q 2403 1016 2403 1384 
Q 2403 1706 2222 1901 
Q 2041 2097 1763 2097 
Q 1441 2097 1283 1875 
Q 1125 1653 1125 1394 
z
" id="Arial-BoldMT-38" transform="scale(0.015625)"/>
       </defs>
       <use xlink:href="#Arial-BoldMT-30"/>
       <use x="55.615234" xlink:href="#Arial-BoldMT-2e"/>
       <use x="83.398438" xlink:href="#Arial-BoldMT-38"/>
      </g>
     </g>
    </g>
    <g id="xtick_7">
     <g id="line2d_7">
      <g>
       <use style="stroke:#000000;stroke-width:0.8;" x="403.736124" xlink:href="#mf8545d60c7" y="341.759622"/>
      </g>
     </g>
     <g id="text_7">
      <!-- 1.0 -->
      <g transform="translate(399.566124 353.05431)scale(0.06 -0.06)">
       <defs>
        <path d="M 2519 0 
L 1641 0 
L 1641 3309 
Q 1159 2859 506 2644 
L 506 3441 
Q 850 3553 1253 3867 
Q 1656 4181 1806 4600 
L 2519 4600 
L 2519 0 
z
" id="Arial-BoldMT-31" transform="scale(0.015625)"/>
       </defs>
       <use xlink:href="#Arial-BoldMT-31"/>
       <use x="55.615234" xlink:href="#Arial-BoldMT-2e"/>
       <use x="83.398438" xlink:href="#Arial-BoldMT-30"/>
      </g>
     </g>
    </g>
    <g id="xtick_8">
     <g id="line2d_8">
      <g>
       <use style="stroke:#000000;stroke-width:0.8;" x="440.70999" xlink:href="#mf8545d60c7" y="341.759622"/>
      </g>
     </g>
     <g id="text_8">
      <!-- 1.2 -->
      <g transform="translate(436.53999 353.05431)scale(0.06 -0.06)">
       <use xlink:href="#Arial-BoldMT-31"/>
       <use x="55.615234" xlink:href="#Arial-BoldMT-2e"/>
       <use x="83.398438" xlink:href="#Arial-BoldMT-32"/>
      </g>
     </g>
    </g>
   </g>
   <g id="matplotlib.axis_2">
    <g id="ytick_1">
     <g id="line2d_9">
      <defs>
       <path d="M 0 0 
L -3.5 0 
" id="m5043896cc7" style="stroke:#000000;stroke-width:0.8;"/>
      </defs>
      <g>
       <use style="stroke:#000000;stroke-width:0.8;" x="169.599118" xlink:href="#m5043896cc7" y="325.777851"/>
      </g>
     </g>
     <g id="text_9">
      <!-- 2 -->
      <g transform="translate(159.262556 327.925194)scale(0.06 -0.06)">
       <use xlink:href="#Arial-BoldMT-32"/>
      </g>
     </g>
    </g>
    <g id="ytick_2">
     <g id="line2d_10">
      <g>
       <use style="stroke:#000000;stroke-width:0.8;" x="169.599118" xlink:href="#m5043896cc7" y="292.309652"/>
      </g>
     </g>
     <g id="text_10">
      <!-- 3 -->
      <g transform="translate(159.262556 294.456995)scale(0.06 -0.06)">
       <defs>
        <path d="M 241 1216 
L 1091 1319 
Q 1131 994 1309 822 
Q 1488 650 1741 650 
Q 2013 650 2198 856 
Q 2384 1063 2384 1413 
Q 2384 1744 2206 1937 
Q 2028 2131 1772 2131 
Q 1603 2131 1369 2066 
L 1466 2781 
Q 1822 2772 2009 2936 
Q 2197 3100 2197 3372 
Q 2197 3603 2059 3740 
Q 1922 3878 1694 3878 
Q 1469 3878 1309 3722 
Q 1150 3566 1116 3266 
L 306 3403 
Q 391 3819 561 4067 
Q 731 4316 1036 4458 
Q 1341 4600 1719 4600 
Q 2366 4600 2756 4188 
Q 3078 3850 3078 3425 
Q 3078 2822 2419 2463 
Q 2813 2378 3048 2084 
Q 3284 1791 3284 1375 
Q 3284 772 2843 347 
Q 2403 -78 1747 -78 
Q 1125 -78 715 280 
Q 306 638 241 1216 
z
" id="Arial-BoldMT-33" transform="scale(0.015625)"/>
       </defs>
       <use xlink:href="#Arial-BoldMT-33"/>
      </g>
     </g>
    </g>
    <g id="ytick_3">
     <g id="line2d_11">
      <g>
       <use style="stroke:#000000;stroke-width:0.8;" x="169.599118" xlink:href="#m5043896cc7" y="258.841453"/>
      </g>
     </g>
     <g id="text_11">
      <!-- 4 -->
      <g transform="translate(159.262556 260.988796)scale(0.06 -0.06)">
       <use xlink:href="#Arial-BoldMT-34"/>
      </g>
     </g>
    </g>
    <g id="ytick_4">
     <g id="line2d_12">
      <g>
       <use style="stroke:#000000;stroke-width:0.8;" x="169.599118" xlink:href="#m5043896cc7" y="225.373253"/>
      </g>
     </g>
     <g id="text_12">
      <!-- 5 -->
      <g transform="translate(159.262556 227.520597)scale(0.06 -0.06)">
       <defs>
        <path d="M 284 1178 
L 1159 1269 
Q 1197 972 1381 798 
Q 1566 625 1806 625 
Q 2081 625 2272 848 
Q 2463 1072 2463 1522 
Q 2463 1944 2273 2155 
Q 2084 2366 1781 2366 
Q 1403 2366 1103 2031 
L 391 2134 
L 841 4519 
L 3163 4519 
L 3163 3697 
L 1506 3697 
L 1369 2919 
Q 1663 3066 1969 3066 
Q 2553 3066 2959 2641 
Q 3366 2216 3366 1538 
Q 3366 972 3038 528 
Q 2591 -78 1797 -78 
Q 1163 -78 763 262 
Q 363 603 284 1178 
z
" id="Arial-BoldMT-35" transform="scale(0.015625)"/>
       </defs>
       <use xlink:href="#Arial-BoldMT-35"/>
      </g>
     </g>
    </g>
    <g id="ytick_5">
     <g id="line2d_13">
      <g>
       <use style="stroke:#000000;stroke-width:0.8;" x="169.599118" xlink:href="#m5043896cc7" y="191.905054"/>
      </g>
     </g>
     <g id="text_13">
      <!-- 6 -->
      <g transform="translate(159.262556 194.052398)scale(0.06 -0.06)">
       <use xlink:href="#Arial-BoldMT-36"/>
      </g>
     </g>
    </g>
    <g id="ytick_6">
     <g id="line2d_14">
      <g>
       <use style="stroke:#000000;stroke-width:0.8;" x="169.599118" xlink:href="#m5043896cc7" y="158.436855"/>
      </g>
     </g>
     <g id="text_14">
      <!-- 7 -->
      <g transform="translate(159.262556 160.584199)scale(0.06 -0.06)">
       <defs>
        <path d="M 272 3703 
L 272 4519 
L 3275 4519 
L 3275 3881 
Q 2903 3516 2518 2831 
Q 2134 2147 1932 1376 
Q 1731 606 1734 0 
L 888 0 
Q 909 950 1279 1937 
Q 1650 2925 2269 3703 
L 272 3703 
z
" id="Arial-BoldMT-37" transform="scale(0.015625)"/>
       </defs>
       <use xlink:href="#Arial-BoldMT-37"/>
      </g>
     </g>
    </g>
    <g id="ytick_7">
     <g id="line2d_15">
      <g>
       <use style="stroke:#000000;stroke-width:0.8;" x="169.599118" xlink:href="#m5043896cc7" y="124.968656"/>
      </g>
     </g>
     <g id="text_15">
      <!-- 8 -->
      <g transform="translate(159.262556 127.116)scale(0.06 -0.06)">
       <use xlink:href="#Arial-BoldMT-38"/>
      </g>
     </g>
    </g>
   </g>
   <g id="line2d_16">
    <path clip-path="url(#p541dc7952e)" d="M 182.447536 283.309042 
L 183.187012 268.61282 
L 184.29623 267.524201 
L 185.405446 271.878645 
L 186.514659 271.878637 
L 187.623874 282.764733 
L 188.733095 271.878637 
L 189.842311 267.524217 
L 190.951523 275.144479 
L 192.060742 264.258391 
L 193.169954 251.195074 
L 194.279172 250.106455 
L 195.388391 252.283677 
L 196.497605 252.283677 
L 198.716036 254.460899 
L 200.934469 290.385003 
L 203.1529 264.258391 
L 204.262116 264.258391 
L 205.371334 278.410304 
L 206.48055 290.385003 
L 207.589766 284.941955 
L 208.698981 269.701423 
L 209.808197 265.346995 
L 210.917414 291.473614 
L 212.026629 287.119169 
L 213.135845 279.498907 
L 214.245061 294.739439 
L 215.354277 295.82805 
L 216.463493 290.385003 
L 217.572709 294.739439 
L 218.681925 293.65082 
L 219.791141 270.790042 
L 220.900358 234.865947 
L 222.009574 210.91655 
L 223.11879 205.473502 
L 224.228005 225.068455 
L 225.337222 262.081169 
L 226.446438 272.967256 
L 227.555653 289.296391 
L 228.664869 300.182479 
L 229.774087 289.296391 
L 231.992518 276.233082 
L 233.101735 282.764733 
L 234.210949 298.005264 
L 235.320166 302.359709 
L 237.538598 256.638122 
L 238.647815 268.61282 
L 239.75703 276.233082 
L 240.866247 269.701423 
L 241.975463 267.524217 
L 244.193894 299.093876 
L 245.303109 299.093876 
L 246.412325 268.612812 
L 247.521543 252.283677 
L 248.630758 265.346995 
L 249.739974 250.106471 
L 250.849192 244.663423 
L 251.958407 250.106471 
L 253.067623 243.57482 
L 254.176836 265.346995 
L 255.286054 296.916653 
L 256.395269 300.182479 
L 257.504485 282.764733 
L 258.613706 274.05586 
L 259.722918 282.764733 
L 260.832134 300.182479 
L 261.941352 292.562209 
L 263.050568 276.233082 
L 264.15978 280.58751 
L 265.268999 262.081169 
L 266.378211 260.992574 
L 267.48743 269.701423 
L 268.596648 276.233082 
L 269.705861 272.967264 
L 270.815079 272.967256 
L 271.924297 299.093868 
L 273.03351 298.005264 
L 274.142728 288.207788 
L 275.251946 294.739439 
L 276.361159 284.941947 
L 277.470377 288.20778 
L 278.579595 296.916653 
L 279.688808 294.739439 
L 280.798026 306.714138 
L 281.907245 321.954661 
L 283.016457 323.043272 
L 284.125681 305.625526 
L 285.234894 300.182487 
L 286.344106 303.448312 
L 287.453325 301.27109 
L 288.562532 301.27109 
L 289.671756 308.891352 
L 290.780968 307.802749 
L 291.890192 299.093868 
L 292.999399 302.359693 
L 294.108617 301.271098 
L 295.21783 293.65082 
L 296.327048 302.359701 
L 297.436267 303.448304 
L 298.545479 286.030566 
L 299.654703 282.764733 
L 300.763916 291.473598 
L 301.873129 284.941955 
L 302.982352 271.878637 
L 304.091565 276.233082 
L 305.200789 279.498891 
L 306.309996 272.967256 
L 307.419214 278.410288 
L 308.528421 281.67613 
L 310.746863 290.385003 
L 311.856071 296.916653 
L 312.965294 307.802749 
L 314.074507 306.71413 
L 316.292932 291.473606 
L 317.402156 290.384995 
L 318.511369 307.802741 
L 319.620593 304.536915 
L 320.729794 305.625534 
L 321.839018 314.334391 
L 322.948231 307.802741 
L 324.057455 308.891352 
L 325.166667 315.423011 
L 326.27588 315.423011 
L 327.385104 308.891352 
L 328.494327 313.245796 
L 329.603529 309.979963 
L 330.712753 308.891352 
L 331.821966 301.271098 
L 332.931178 298.005264 
L 334.040391 305.625526 
L 335.149615 305.625526 
L 336.258828 302.359701 
L 337.36804 300.182479 
L 338.477264 295.828042 
L 339.586477 289.296391 
L 340.6957 307.802741 
L 341.804902 306.71413 
L 342.914115 293.650836 
L 344.023339 299.093876 
L 345.132551 291.473614 
L 346.241775 312.157185 
L 347.350977 330.66353 
L 348.4602 329.574923 
L 349.569413 313.245796 
L 350.678637 293.650836 
L 351.787861 301.271098 
L 352.897073 317.600217 
L 354.006297 316.511614 
L 355.115488 314.334391 
L 356.224712 318.688836 
L 357.333935 312.157177 
L 358.443148 299.093876 
L 359.55235 302.359701 
L 360.661573 320.86605 
L 361.770786 303.448304 
L 362.88001 290.384995 
L 365.098457 303.44832 
L 366.20767 317.600217 
L 367.316872 318.688836 
L 368.426096 302.359701 
L 369.535308 301.271082 
L 370.644532 319.777439 
L 371.753745 328.486312 
L 372.862968 304.536923 
L 373.97217 288.20778 
L 375.081383 299.093868 
L 376.190596 318.688836 
L 377.299819 323.043272 
L 378.409043 313.245796 
L 379.518267 308.891352 
L 380.627469 303.448312 
L 381.736692 311.068566 
L 382.845905 309.979963 
L 383.955118 302.359693 
L 385.064341 304.536907 
L 386.173543 318.688836 
L 387.282767 328.486312 
L 389.501192 307.802741 
L 390.610416 309.979963 
L 391.71964 306.714138 
L 392.828842 292.562217 
L 393.938065 296.916653 
L 395.047278 311.068574 
L 396.156502 305.625526 
L 397.265714 283.853344 
L 398.374927 290.385011 
L 399.48414 314.334407 
L 400.593353 324.131884 
L 402.811789 287.119169 
L 403.921002 303.448304 
L 405.030203 298.005264 
L 406.139449 242.486201 
L 407.248651 206.562106 
L 408.357853 249.017852 
L 409.467076 296.916653 
L 410.5763 308.891352 
L 411.685502 292.562209 
L 412.794704 270.790042 
L 413.903927 271.878661 
L 415.013173 284.941955 
L 416.122375 284.941955 
L 417.231576 271.878645 
L 418.340822 271.878645 
L 419.450024 275.144479 
L 420.559226 275.144479 
L 421.668449 272.967241 
L 422.777673 272.967256 
L 423.886875 289.296383 
L 424.996099 291.473614 
L 426.1053 274.055868 
L 427.214524 275.144463 
L 428.323748 281.67613 
L 429.432949 292.562209 
L 430.542195 292.562217 
L 431.651397 280.58751 
L 432.760621 275.144479 
L 433.869822 288.207788 
L 434.979046 289.296391 
L 436.08827 276.233082 
L 437.197449 293.650828 
L 438.306673 300.182487 
L 439.415897 295.828042 
L 439.415897 295.828042 
" style="fill:none;stroke:#ff0000;stroke-linecap:square;stroke-opacity:0.3;"/>
   </g>
   <g id="line2d_17">
    <path clip-path="url(#p541dc7952e)" d="M 218.866794 341.759622 
L 218.866794 97.645606 
" style="fill:none;stroke:#1f77b4;stroke-linecap:square;"/>
   </g>
   <g id="line2d_18">
    <path clip-path="url(#p541dc7952e)" d="M 182.447536 299.264093 
L 183.187012 293.758511 
L 184.29623 293.903401 
L 185.405446 297.670367 
L 186.514659 297.81525 
L 187.623874 298.684562 
L 188.733095 293.323846 
L 189.842311 286.224538 
L 192.060742 295.931759 
L 193.169954 299.988515 
L 194.279172 300.133397 
L 195.388391 294.772689 
L 196.497605 293.034081 
L 197.60682 297.090837 
L 198.716036 289.556864 
L 199.825254 285.355234 
L 200.934469 296.801071 
L 202.043685 297.670359 
L 203.1529 290.426169 
L 204.262116 293.468729 
L 205.371334 295.64201 
L 206.48055 289.991528 
L 207.589766 297.525485 
L 208.698981 297.38061 
L 209.808197 292.019894 
L 210.917414 296.656188 
L 212.026629 291.440363 
L 213.135845 294.627807 
L 214.245061 303.031075 
L 215.354277 298.249906 
L 216.463493 294.193159 
L 217.572709 292.599425 
L 218.681925 292.889206 
L 219.791141 273.184991 
L 220.900358 230.733985 
L 222.009574 215.376275 
L 223.11879 239.571886 
L 224.228005 259.710773 
L 225.337222 272.750327 
L 226.446438 281.588244 
L 227.555653 279.270097 
L 228.664869 282.457564 
L 229.774087 291.15059 
L 230.883301 296.076642 
L 231.992518 290.281286 
L 233.101735 287.673373 
L 234.210949 290.281294 
L 235.320166 295.497119 
L 236.429381 291.440355 
L 237.538598 282.312665 
L 238.647815 287.238741 
L 239.75703 293.034089 
L 240.866247 292.599425 
L 241.975463 286.948952 
L 243.084678 286.369429 
L 244.193894 286.514304 
L 245.303109 281.298479 
L 246.412325 284.341047 
L 247.521543 286.804077 
L 248.630758 281.733135 
L 249.739974 282.312673 
L 250.849192 285.644999 
L 254.176836 274.9236 
L 255.286054 278.690566 
L 256.395269 281.443369 
L 257.504485 278.835457 
L 258.613706 280.71894 
L 259.722918 276.51731 
L 260.832134 274.778701 
L 261.941352 283.326852 
L 263.050568 279.994526 
L 264.15978 275.937763 
L 265.268999 284.920578 
L 266.378211 286.224538 
L 267.48743 281.153596 
L 268.596648 287.093842 
L 269.705861 287.673373 
L 270.815079 287.963139 
L 271.924297 292.889198 
L 274.142728 271.15661 
L 275.251946 283.18197 
L 276.361159 289.99152 
L 277.470377 282.312665 
L 278.579595 277.386622 
L 279.688808 280.429182 
L 280.798026 289.701755 
L 281.907245 296.366407 
L 283.016457 294.627799 
L 284.125681 285.065469 
L 285.234894 280.574065 
L 286.344106 281.733135 
L 287.453325 286.369429 
L 288.562532 292.454542 
L 289.671756 289.701755 
L 290.780968 282.747322 
L 291.890192 285.065469 
L 292.999399 290.715934 
L 294.108617 292.744316 
L 295.21783 287.093842 
L 296.327048 285.789882 
L 297.436267 291.875011 
L 298.545479 286.94896 
L 299.654703 286.22453 
L 300.763916 292.88919 
L 302.982352 281.008713 
L 304.091565 283.181978 
L 305.200789 288.108037 
L 306.309996 291.875019 
L 307.419214 290.860825 
L 308.528421 288.542677 
L 309.637645 286.948952 
L 310.746863 291.730121 
L 311.856071 289.846638 
L 312.965294 289.267099 
L 314.074507 292.019894 
L 315.183731 284.341039 
L 316.292932 287.238725 
L 317.402156 297.235711 
L 319.620593 286.369421 
L 320.729794 292.744308 
L 321.839018 291.150598 
L 322.948231 295.497119 
L 324.057455 299.119218 
L 325.166667 294.048276 
L 326.27588 287.238725 
L 327.385104 285.355226 
L 329.603529 298.97432 
L 331.821966 288.397795 
L 332.931178 289.267091 
L 334.040391 289.556864 
L 335.149615 287.238725 
L 336.258828 293.17898 
L 337.36804 297.960141 
L 338.477264 289.122216 
L 339.586477 290.426176 
L 340.6957 295.207338 
L 341.804902 293.034089 
L 342.914115 293.468737 
L 344.023339 290.860825 
L 345.132551 290.136403 
L 346.241775 300.133397 
L 347.350977 295.931767 
L 348.4602 284.48593 
L 350.678637 289.701755 
L 351.787861 291.585246 
L 352.897073 295.062455 
L 354.006297 299.553866 
L 355.115488 298.105015 
L 356.224712 289.411982 
L 357.333935 279.55987 
L 358.443148 284.630813 
L 359.55235 297.960141 
L 360.661573 298.97432 
L 361.770786 292.164777 
L 362.88001 284.051282 
L 363.989234 290.281278 
L 365.098457 298.684554 
L 366.20767 294.338033 
L 367.316872 288.397803 
L 368.426096 289.846638 
L 369.535308 289.846638 
L 370.644532 291.585246 
L 371.753745 292.599425 
L 372.862968 291.295473 
L 373.97217 291.005699 
L 375.081383 293.323846 
L 376.190596 297.525485 
L 377.299819 295.497111 
L 378.409043 293.758495 
L 379.518267 294.482924 
L 380.627469 294.482924 
L 381.736692 295.062455 
L 382.845905 298.249914 
L 383.955118 299.988515 
L 385.064341 299.553858 
L 386.173543 294.482932 
L 387.282767 293.323854 
L 388.39198 291.15059 
L 389.501192 291.585246 
L 390.610416 298.105031 
L 391.71964 297.090829 
L 392.828842 292.164777 
L 393.938065 289.411974 
L 395.047278 297.090829 
L 396.156502 292.889206 
L 397.265714 287.093842 
L 398.374927 300.423163 
L 399.48414 305.349206 
L 401.702565 295.062455 
L 402.811789 292.019894 
L 403.921002 288.397803 
L 405.030203 270.287306 
L 406.139449 217.984196 
L 407.248651 192.919257 
L 409.467076 288.977334 
L 410.5763 297.090837 
L 411.685502 283.616618 
L 413.903927 269.273111 
L 415.013173 270.142415 
L 416.122375 273.329866 
L 417.231576 275.35824 
L 418.340822 274.054272 
L 419.450024 267.969158 
L 420.559226 275.068475 
L 421.668449 276.951958 
L 422.777673 267.534494 
L 423.886875 276.372435 
L 424.996099 274.054272 
L 426.1053 267.824268 
L 427.214524 281.588252 
L 428.323748 284.051282 
L 429.432949 278.111027 
L 430.542195 275.35824 
L 431.651397 278.111027 
L 432.760621 277.241739 
L 433.869822 279.55987 
L 434.979046 280.574065 
L 436.08827 284.196165 
L 437.197449 288.977334 
L 438.306673 288.108029 
L 439.415897 281.153588 
L 439.415897 281.153588 
" style="fill:none;stroke:#ff0000;stroke-linecap:square;"/>
   </g>
   <g id="line2d_19">
    <path clip-path="url(#p541dc7952e)" d="M 182.447536 284.37472 
L 183.187012 283.544531 
L 184.29623 284.789835 
L 185.405446 293.506799 
L 186.514659 298.487925 
L 187.623874 293.506799 
L 188.733095 282.29926 
L 189.842311 275.657748 
L 190.951523 292.261512 
L 192.060742 299.733204 
L 193.169954 295.167169 
L 194.279172 293.92189 
L 195.388391 279.808693 
L 196.497605 281.053973 
L 197.60682 293.506799 
L 198.716036 295.167177 
L 199.825254 292.676602 
L 200.934469 290.601134 
L 202.043685 286.450189 
L 203.1529 294.336988 
L 204.262116 297.242645 
L 205.371334 287.695484 
L 206.48055 282.714366 
L 207.589766 289.355854 
L 208.698981 300.148295 
L 209.808197 297.657728 
L 210.917414 288.525665 
L 212.026629 286.03509 
L 213.135845 294.33698 
L 214.245061 299.318106 
L 215.354277 293.506799 
L 216.463493 293.091701 
L 217.572709 283.95963 
L 218.681925 277.318126 
L 219.791141 274.412461 
L 220.900358 220.450258 
L 222.009574 178.525783 
L 223.11879 195.544605 
L 225.337222 266.525678 
L 226.446438 278.148315 
L 227.555653 282.299244 
L 228.664869 279.808693 
L 229.774087 275.242666 
L 230.883301 283.95963 
L 231.992518 282.29926 
L 233.101735 268.186048 
L 234.210949 270.67663 
L 235.320166 276.487945 
L 236.429381 276.072847 
L 237.538598 287.280386 
L 239.75703 269.016245 
L 240.866247 276.903044 
L 241.975463 282.299244 
L 243.084678 285.204909 
L 244.193894 273.997378 
L 245.303109 264.865308 
L 246.412325 269.431343 
L 247.521543 264.8653 
L 248.630758 265.695497 
L 249.739974 266.940776 
L 250.849192 256.97854 
L 251.958407 261.129461 
L 253.067623 266.110595 
L 254.176836 271.921894 
L 255.286054 263.620028 
L 256.395269 251.16721 
L 257.504485 254.072875 
L 258.613706 255.318162 
L 259.722918 266.110603 
L 260.832134 264.865308 
L 261.941352 252.827604 
L 263.050568 258.223812 
L 264.15978 269.01626 
L 265.268999 272.752099 
L 266.378211 266.525702 
L 267.48743 264.450225 
L 268.596648 271.921902 
L 269.705861 266.940776 
L 270.815079 266.110595 
L 271.924297 276.90302 
L 273.03351 262.789831 
L 274.142728 266.525678 
L 275.251946 274.827567 
L 276.361159 263.204938 
L 277.470377 258.638902 
L 278.579595 256.563434 
L 279.688808 266.110603 
L 280.798026 273.167173 
L 281.907245 265.280398 
L 283.016457 260.299288 
L 284.125681 269.016252 
L 285.234894 276.487937 
L 286.344106 272.752099 
L 287.453325 267.355875 
L 288.562532 265.280406 
L 289.671756 269.431351 
L 290.780968 278.978512 
L 291.890192 291.431331 
L 292.999399 295.997358 
L 294.108617 277.318142 
L 295.21783 271.921918 
L 296.327048 282.714343 
L 297.436267 283.959646 
L 298.545479 289.770953 
L 299.654703 288.940764 
L 300.763916 277.733217 
L 301.873129 281.884162 
L 302.982352 290.601134 
L 304.091565 287.695476 
L 305.200789 278.978496 
L 306.309996 282.29926 
L 307.419214 271.921918 
L 308.528421 269.016252 
L 309.637645 287.280386 
L 310.746863 285.620016 
L 311.856071 276.903036 
L 312.965294 266.110595 
L 315.183731 281.053973 
L 316.292932 283.959638 
L 317.402156 281.884162 
L 318.511369 286.865287 
L 319.620593 288.525665 
L 320.729794 285.620016 
L 321.839018 293.921882 
L 322.948231 285.204909 
L 324.057455 285.204909 
L 325.166667 287.280386 
L 326.27588 284.374736 
L 327.385104 281.053965 
L 328.494327 283.95963 
L 329.603529 291.016232 
L 330.712753 291.431331 
L 331.821966 294.752071 
L 332.931178 291.431323 
L 334.040391 286.450189 
L 335.149615 287.695484 
L 336.258828 282.29926 
L 337.36804 286.865295 
L 338.477264 292.676602 
L 339.586477 293.091701 
L 340.6957 291.846413 
L 341.804902 281.053965 
L 342.914115 283.959638 
L 344.023339 291.846413 
L 345.132551 291.431331 
L 346.241775 289.770937 
L 347.350977 286.865287 
L 348.4602 286.865287 
L 349.569413 293.506799 
L 350.678637 295.58226 
L 351.787861 284.374736 
L 352.897073 279.808693 
L 354.006297 284.789819 
L 355.115488 295.58226 
L 356.224712 299.733196 
L 357.333935 291.846429 
L 358.443148 287.695484 
L 359.55235 288.525665 
L 360.661573 296.412448 
L 361.770786 292.261512 
L 362.88001 286.035106 
L 363.989234 288.110567 
L 365.098457 292.67661 
L 366.20767 288.525681 
L 367.316872 283.129441 
L 368.426096 289.355862 
L 369.535308 286.865295 
L 370.644532 289.355862 
L 371.753745 293.506799 
L 372.862968 294.752079 
L 373.97217 296.827555 
L 375.081383 290.186043 
L 376.190596 290.186035 
L 377.299819 292.261512 
L 378.409043 288.110567 
L 379.518267 291.016232 
L 380.627469 297.242645 
L 381.736692 304.29924 
L 382.845905 307.619988 
L 383.955118 302.223771 
L 385.064341 298.072818 
L 386.173543 298.903007 
L 387.282767 300.978484 
L 388.39198 307.204897 
L 389.501192 301.393574 
L 390.610416 296.412448 
L 391.71964 303.884149 
L 392.828842 295.167177 
L 393.938065 290.601126 
L 395.047278 298.072826 
L 396.156502 299.733204 
L 397.265714 292.676602 
L 398.374927 291.016224 
L 399.48414 295.997358 
L 400.593353 301.808673 
L 401.702565 300.563393 
L 402.811789 292.676602 
L 403.921002 293.091701 
L 405.030203 296.827547 
L 406.139449 281.884162 
L 407.248651 256.978524 
L 408.357853 264.8653 
L 409.467076 284.37472 
L 410.5763 287.280386 
L 411.685502 283.95963 
L 412.794704 292.261512 
L 413.903927 285.204917 
L 415.013173 273.58228 
L 416.122375 272.752099 
L 417.231576 276.487945 
L 418.340822 273.99737 
L 419.450024 267.770973 
L 420.559226 285.620008 
L 421.668449 287.695476 
L 422.777673 286.035106 
L 423.886875 290.186043 
L 424.996099 279.808685 
L 426.1053 283.129433 
L 427.214524 294.336988 
L 428.323748 293.92189 
L 429.432949 291.846429 
L 430.542195 293.921882 
L 431.651397 299.318106 
L 432.760621 296.412448 
L 433.869822 296.412448 
L 434.979046 299.318106 
L 436.08827 300.148303 
L 437.197449 293.091701 
L 438.306673 295.997358 
L 439.415897 304.714322 
L 439.415897 304.714322 
" style="fill:none;stroke:#000000;stroke-linecap:square;stroke-opacity:0.3;"/>
   </g>
   <g id="line2d_20">
    <path clip-path="url(#p541dc7952e)" d="M 218.866794 341.759622 
L 218.866794 97.645606 
" style="fill:none;stroke:#1f77b4;stroke-linecap:square;"/>
   </g>
   <g id="line2d_21">
    <path clip-path="url(#p541dc7952e)" d="M 182.447536 296.66325 
L 183.187012 297.388845 
L 184.29623 295.937656 
L 185.405446 296.11906 
L 186.514659 293.760856 
L 187.623874 289.951472 
L 188.733095 295.756243 
L 189.842311 295.756259 
L 190.951523 292.218965 
L 193.169954 294.939946 
L 194.279172 298.205141 
L 195.388391 299.837735 
L 196.497605 294.395749 
L 197.60682 290.949165 
L 198.716036 295.484152 
L 199.825254 295.665541 
L 200.934469 293.125964 
L 202.043685 294.939946 
L 203.1529 299.112149 
L 204.262116 296.753953 
L 205.371334 293.670154 
L 206.48055 297.66096 
L 207.589766 294.577161 
L 208.698981 291.13057 
L 209.808197 294.214352 
L 210.917414 294.849252 
L 212.026629 297.479555 
L 213.135845 295.39345 
L 214.245061 297.842348 
L 215.354277 302.830823 
L 216.463493 302.377328 
L 217.572709 298.567943 
L 218.681925 289.135183 
L 219.791141 276.34651 
L 220.900358 231.45014 
L 222.009574 198.707543 
L 224.228005 252.855292 
L 225.337222 260.292665 
L 226.446438 269.544029 
L 227.555653 271.176646 
L 229.774087 281.607091 
L 230.883301 281.607099 
L 231.992518 280.881505 
L 233.101735 274.895321 
L 234.210949 277.979103 
L 235.320166 286.232773 
L 236.429381 283.42109 
L 237.538598 268.999831 
L 238.647815 270.995234 
L 239.75703 281.062894 
L 240.866247 278.886094 
L 241.975463 275.258122 
L 245.303109 261.653152 
L 246.412325 259.294956 
L 247.521543 250.497096 
L 248.630758 246.234208 
L 249.739974 248.955197 
L 250.849192 240.701519 
L 251.958407 237.164233 
L 253.067623 235.078136 
L 254.176836 232.538536 
L 255.286054 226.189566 
L 256.395269 233.717642 
L 257.504485 239.794528 
L 258.613706 225.373269 
L 259.722918 231.812949 
L 260.832134 238.978231 
L 261.941352 238.524728 
L 263.050568 238.796827 
L 264.15978 235.16883 
L 265.268999 242.062014 
L 266.378211 246.143498 
L 267.48743 241.789915 
L 268.596648 243.785318 
L 269.705861 242.152708 
L 270.815079 238.161935 
L 271.924297 243.331798 
L 273.03351 250.85989 
L 274.142728 252.12969 
L 275.251946 249.952898 
L 276.361159 248.683098 
L 277.470377 246.143498 
L 279.688808 248.592388 
L 281.907245 260.38336 
L 283.016457 256.846066 
L 284.125681 252.855292 
L 285.234894 257.118165 
L 286.344106 255.939059 
L 287.453325 253.30878 
L 288.562532 257.299569 
L 289.671756 259.657757 
L 290.780968 260.474054 
L 291.890192 257.390264 
L 292.999399 258.025172 
L 294.108617 260.383368 
L 295.21783 261.653152 
L 296.327048 268.999839 
L 297.436267 266.369536 
L 298.545479 262.832258 
L 299.654703 262.560167 
L 300.763916 260.836847 
L 301.873129 266.188147 
L 302.982352 274.441817 
L 304.091565 273.534826 
L 305.200789 259.657749 
L 306.309996 261.834549 
L 307.419214 271.448737 
L 308.528421 271.539423 
L 310.746863 265.281156 
L 311.856071 268.183534 
L 312.965294 274.895329 
L 314.074507 275.348824 
L 315.183731 270.904515 
L 316.292932 267.548642 
L 317.402156 271.267332 
L 318.511369 276.34651 
L 319.620593 275.983716 
L 320.729794 272.899926 
L 321.839018 270.269623 
L 322.948231 271.811522 
L 324.057455 277.979095 
L 325.166667 279.430308 
L 326.27588 278.069805 
L 327.385104 274.895305 
L 328.494327 265.643949 
L 329.603529 266.369544 
L 330.712753 277.5256 
L 331.821966 280.337299 
L 332.931178 274.351123 
L 334.040391 277.344211 
L 335.149615 279.702415 
L 336.258828 276.437212 
L 337.36804 275.348824 
L 338.477264 274.895321 
L 339.586477 276.799997 
L 340.6957 279.520986 
L 341.804902 279.430308 
L 344.023339 276.34651 
L 345.132551 276.527914 
L 346.241775 279.067507 
L 347.350977 275.530221 
L 348.4602 275.076709 
L 349.569413 278.160508 
L 350.678637 277.072112 
L 351.787861 279.248903 
L 352.897073 281.062902 
L 354.006297 274.532512 
L 355.115488 276.255815 
L 356.224712 281.06291 
L 357.333935 274.623214 
L 358.443148 280.428001 
L 359.55235 287.139772 
L 360.661573 287.049078 
L 361.770786 285.053683 
L 362.88001 276.43722 
L 363.989234 275.620907 
L 365.098457 278.795416 
L 366.20767 277.525608 
L 367.316872 276.98141 
L 368.426096 281.153596 
L 369.535308 282.8769 
L 370.644532 277.5256 
L 371.753745 276.890715 
L 373.97217 283.148991 
L 375.081383 281.334992 
L 376.190596 277.616302 
L 377.299819 281.244298 
L 378.409043 287.049078 
L 379.518267 286.867681 
L 380.627469 278.432607 
L 381.736692 277.344211 
L 382.845905 281.244298 
L 383.955118 280.790803 
L 385.064341 279.248887 
L 386.173543 279.611705 
L 387.282767 280.790811 
L 388.39198 279.611681 
L 389.501192 285.053683 
L 390.610416 281.697794 
L 391.71964 280.155902 
L 392.828842 285.960682 
L 393.938065 283.330387 
L 395.047278 282.604793 
L 396.156502 283.239685 
L 397.265714 277.162806 
L 398.374927 275.439519 
L 399.48414 278.613995 
L 400.593353 278.523301 
L 401.702565 282.242 
L 403.921002 278.7954 
L 405.030203 269.181227 
L 406.139449 248.955181 
L 407.248651 248.773792 
L 408.357853 267.730046 
L 409.467076 284.509485 
L 410.5763 283.511784 
L 411.685502 274.80461 
L 412.794704 279.248903 
L 413.903927 273.988322 
L 415.013173 270.541738 
L 416.122375 278.88611 
L 417.231576 280.518704 
L 418.340822 278.614003 
L 419.450024 276.074411 
L 420.559226 273.172017 
L 422.777673 281.697802 
L 423.886875 283.874593 
L 424.996099 284.60018 
L 426.1053 284.600195 
L 427.214524 288.046787 
L 428.323748 288.590977 
L 429.432949 288.863076 
L 430.542195 291.130562 
L 431.651397 292.400362 
L 432.760621 290.495669 
L 433.869822 288.863076 
L 436.08827 286.323475 
L 437.197449 288.95377 
L 438.306673 290.223578 
L 439.415897 290.767776 
L 439.415897 290.767776 
" style="fill:none;stroke:#000000;stroke-linecap:square;"/>
   </g>
   <g id="line2d_22">
    <path clip-path="url(#p541dc7952e)" d="M 182.447536 294.450551 
L 183.187012 298.283532 
L 184.29623 299.328894 
L 185.405446 298.283547 
L 186.514659 299.677348 
L 187.623874 303.858791 
L 188.733095 300.025802 
L 189.842311 290.966034 
L 190.951523 299.677348 
L 192.060742 306.6464 
L 193.169954 299.328902 
L 194.279172 296.889723 
L 195.388391 293.753651 
L 196.497605 292.708304 
L 197.60682 299.677348 
L 198.716036 308.040217 
L 202.043685 295.495906 
L 203.1529 295.844368 
L 204.262116 306.297954 
L 205.371334 312.570097 
L 206.48055 312.918551 
L 207.589766 302.11652 
L 208.698981 294.799014 
L 209.808197 297.935085 
L 210.917414 297.586631 
L 212.026629 299.328902 
L 214.245061 291.314488 
L 216.463493 298.631986 
L 217.572709 304.904145 
L 218.681925 305.601045 
L 219.791141 296.889739 
L 220.900358 296.192822 
L 222.009574 297.935085 
L 223.11879 298.283532 
L 224.228005 301.419611 
L 225.337222 298.631994 
L 226.446438 300.722703 
L 227.555653 298.631978 
L 228.664869 293.753651 
L 229.774087 297.238185 
L 230.883301 296.889723 
L 231.992518 290.269117 
L 233.101735 291.314488 
L 234.210949 292.708304 
L 235.320166 295.844368 
L 236.429381 297.238185 
L 237.538598 305.601053 
L 238.647815 307.691763 
L 239.75703 292.01138 
L 240.866247 290.617587 
L 241.975463 295.495914 
L 243.084678 297.238185 
L 244.193894 292.708296 
L 245.303109 293.753651 
L 246.412325 298.631986 
L 247.521543 301.768065 
L 248.630758 301.768073 
L 249.739974 294.450559 
L 250.849192 297.586639 
L 251.958407 307.343308 
L 253.067623 306.297954 
L 254.176836 304.555699 
L 255.286054 297.238185 
L 256.395269 287.481492 
L 257.504485 287.133045 
L 259.722918 292.708296 
L 260.832134 302.11652 
L 261.941352 308.040217 
L 263.050568 300.025794 
L 264.15978 286.087675 
L 265.268999 286.784599 
L 266.378211 296.541277 
L 267.48743 300.374257 
L 268.596648 299.677348 
L 269.705861 294.450551 
L 270.815079 290.617579 
L 271.924297 288.52687 
L 273.03351 296.192822 
L 274.142728 293.753651 
L 275.251946 292.359834 
L 276.361159 295.495914 
L 277.470377 294.799014 
L 278.579595 293.405205 
L 279.688808 291.314488 
L 280.798026 292.01138 
L 281.907245 289.920663 
L 283.016457 289.920663 
L 284.125681 288.178408 
L 285.234894 287.133045 
L 286.344106 285.739245 
L 287.453325 294.102097 
L 288.562532 297.586631 
L 289.671756 295.14746 
L 290.780968 293.056743 
L 291.890192 293.405197 
L 292.999399 298.283532 
L 294.108617 291.314496 
L 295.21783 290.966026 
L 296.327048 295.84436 
L 297.436267 301.768073 
L 298.545479 298.631986 
L 299.654703 292.708296 
L 300.763916 293.753651 
L 301.873129 293.753651 
L 302.982352 297.586639 
L 304.091565 294.102097 
L 305.200789 284.693874 
L 306.309996 286.436145 
L 307.419214 285.042336 
L 308.528421 280.512448 
L 309.637645 279.467085 
L 310.746863 281.55781 
L 311.856071 290.617579 
L 312.965294 294.102105 
L 314.074507 292.011388 
L 315.183731 294.799014 
L 316.292932 302.813428 
L 317.402156 293.405197 
L 318.511369 295.844368 
L 319.620593 299.328894 
L 320.729794 290.269125 
L 321.839018 290.966041 
L 322.948231 289.572217 
L 325.166667 303.161874 
L 326.27588 298.283539 
L 327.385104 289.920671 
L 328.494327 295.147468 
L 329.603529 299.328902 
L 330.712753 297.935085 
L 331.821966 303.510336 
L 332.931178 298.283532 
L 334.040391 297.586631 
L 335.149615 309.085571 
L 336.258828 311.873205 
L 337.36804 303.858791 
L 338.477264 294.450559 
L 339.586477 294.102113 
L 340.6957 293.056751 
L 341.804902 297.238177 
L 342.914115 306.646408 
L 344.023339 303.510328 
L 345.132551 297.586631 
L 346.241775 295.84436 
L 347.350977 292.01138 
L 348.4602 292.359834 
L 349.569413 302.11652 
L 350.678637 305.9495 
L 351.787861 308.040217 
L 352.897073 303.161874 
L 354.006297 296.541277 
L 355.115488 297.586639 
L 356.224712 289.920663 
L 357.333935 291.662934 
L 358.443148 292.708296 
L 359.55235 290.966041 
L 360.661573 294.799014 
L 361.770786 295.495922 
L 362.88001 288.526862 
L 363.989234 297.586639 
L 365.098457 308.388671 
L 366.20767 296.889723 
L 367.316872 290.617579 
L 368.426096 290.966041 
L 369.535308 286.784591 
L 370.644532 294.799014 
L 371.753745 297.238193 
L 372.862968 288.526862 
L 373.97217 289.920663 
L 376.190596 301.071149 
L 377.299819 292.01138 
L 378.409043 288.1784 
L 379.518267 292.708296 
L 381.736692 289.920663 
L 382.845905 300.025802 
L 383.955118 304.555683 
L 385.064341 295.147468 
L 386.173543 291.662934 
L 387.282767 292.359826 
L 388.39198 292.359842 
L 389.501192 300.374257 
L 390.610416 301.071157 
L 391.71964 295.495922 
L 392.828842 292.708304 
L 395.047278 292.011388 
L 396.156502 294.102097 
L 397.265714 287.829962 
L 398.374927 287.133053 
L 399.48414 295.844368 
L 400.593353 295.14746 
L 401.702565 295.844368 
L 402.811789 288.526862 
L 403.921002 291.662934 
L 405.030203 274.937197 
L 406.139449 197.929117 
L 407.248651 162.386934 
L 408.357853 219.533197 
L 409.467076 265.87742 
L 410.5763 277.724822 
L 411.685502 271.104217 
L 412.794704 255.772288 
L 413.903927 263.089794 
L 415.013173 272.846472 
L 417.231576 255.423826 
L 418.340822 256.817643 
L 419.450024 253.333117 
L 420.559226 258.559906 
L 421.668449 270.05887 
L 422.777673 269.361954 
L 423.886875 277.027914 
L 424.996099 271.801125 
L 426.1053 270.755763 
L 427.214524 277.376368 
L 428.323748 272.498033 
L 429.432949 272.846472 
L 430.542195 273.891842 
L 431.651397 279.118639 
L 432.760621 275.634105 
L 433.869822 277.027914 
L 434.979046 285.739237 
L 436.08827 286.087691 
L 437.197449 283.300073 
L 438.306673 278.770193 
L 439.415897 283.300065 
L 439.415897 283.300065 
" style="fill:none;stroke:#0000ff;stroke-linecap:square;stroke-opacity:0.3;"/>
   </g>
   <g id="line2d_23">
    <path clip-path="url(#p541dc7952e)" d="M 218.866794 341.759622 
L 218.866794 97.645606 
" style="fill:none;stroke:#1f77b4;stroke-linecap:square;"/>
   </g>
   <g id="line2d_24">
    <path clip-path="url(#p541dc7952e)" d="M 182.447536 289.819468 
L 183.187012 288.723787 
L 184.29623 291.977635 
L 185.405446 299.680636 
L 186.514659 299.282206 
L 188.733095 294.1026 
L 189.842311 296.29397 
L 190.951523 297.821291 
L 192.060742 295.364301 
L 193.169954 294.766649 
L 194.279172 290.051877 
L 195.388391 289.122216 
L 197.60682 296.758804 
L 198.716036 296.426772 
L 200.934469 299.879843 
L 202.043685 296.625994 
L 203.1529 295.297896 
L 204.262116 296.29397 
L 205.371334 294.567434 
L 206.48055 293.172923 
L 207.589766 297.954108 
L 208.698981 298.551744 
L 209.808197 292.508866 
L 210.917414 293.704163 
L 212.026629 297.489266 
L 213.135845 295.829143 
L 214.245061 296.493192 
L 215.354277 295.098681 
L 216.463493 290.649537 
L 217.572709 291.379991 
L 218.681925 296.360391 
L 219.791141 300.01266 
L 220.900358 298.352538 
L 222.009574 297.290059 
L 223.11879 292.973717 
L 224.228005 290.583124 
L 225.337222 294.633839 
L 226.446438 294.567442 
L 227.555653 293.83698 
L 228.664869 295.297888 
L 229.774087 295.89554 
L 230.883301 294.036195 
L 231.992518 293.040121 
L 233.101735 296.825209 
L 234.210949 296.028358 
L 235.320166 294.899467 
L 236.429381 296.493192 
L 237.538598 294.23541 
L 238.647815 293.903385 
L 239.75703 298.286125 
L 240.866247 293.770583 
L 241.975463 288.458159 
L 243.084678 299.481421 
L 244.193894 303.000897 
L 245.303109 296.692407 
L 246.412325 294.567434 
L 247.521543 296.493192 
L 248.630758 296.758804 
L 249.739974 295.231491 
L 250.849192 296.360375 
L 251.958407 296.426772 
L 253.067623 290.915157 
L 254.176836 290.715942 
L 255.286054 297.290051 
L 256.395269 295.762731 
L 257.504485 290.583124 
L 258.613706 293.969798 
L 259.722918 293.438559 
L 260.832134 292.708097 
L 261.941352 294.766649 
L 263.050568 295.762731 
L 264.15978 299.215801 
L 265.268999 296.559589 
L 266.378211 292.17685 
L 267.48743 294.368228 
L 268.596648 294.036187 
L 269.705861 291.446396 
L 270.815079 298.618149 
L 271.924297 300.610304 
L 273.03351 295.165078 
L 274.142728 296.16116 
L 275.251946 296.559589 
L 276.361159 295.364301 
L 277.470377 294.965872 
L 278.579595 293.372146 
L 279.688808 298.95019 
L 280.798026 297.754886 
L 281.907245 296.094755 
L 283.016457 294.899467 
L 284.125681 291.844825 
L 285.234894 296.958027 
L 286.344106 297.9541 
L 287.453325 294.633839 
L 288.562532 294.633839 
L 289.671756 299.481421 
L 290.780968 296.692407 
L 291.890192 292.376064 
L 292.999399 295.098674 
L 294.108617 297.489266 
L 295.21783 291.844825 
L 296.327048 287.79411 
L 297.436267 295.297896 
L 298.545479 292.907312 
L 299.654703 294.833054 
L 300.763916 299.879843 
L 301.873129 295.364301 
L 302.982352 296.094755 
L 304.091565 297.555671 
L 305.200789 297.090837 
L 306.309996 297.157233 
L 307.419214 298.551752 
L 308.528421 298.35253 
L 309.637645 300.477495 
L 310.746863 303.133699 
L 311.856071 299.614223 
L 312.965294 294.169005 
L 314.074507 290.782339 
L 315.183731 294.766649 
L 316.292932 295.032277 
L 317.402156 292.376072 
L 319.620593 299.149389 
L 320.729794 301.672791 
L 321.839018 298.817372 
L 322.948231 294.23541 
L 324.057455 297.090829 
L 325.166667 296.626002 
L 326.27588 292.708097 
L 327.385104 296.891614 
L 328.494327 298.883777 
L 329.603529 295.165078 
L 330.712753 294.700252 
L 331.821966 299.481421 
L 332.931178 296.559589 
L 334.040391 298.153315 
L 335.149615 301.407171 
L 336.258828 295.297888 
L 337.36804 295.297896 
L 338.477264 296.692407 
L 339.586477 297.024432 
L 340.6957 298.551744 
L 341.804902 295.696326 
L 342.914115 289.919075 
L 344.023339 293.903385 
L 345.132551 300.875924 
L 346.241775 297.290051 
L 347.350977 294.899467 
L 348.4602 294.36822 
L 349.569413 296.559589 
L 350.678637 296.758804 
L 351.787861 293.504956 
L 352.897073 298.286125 
L 354.006297 299.680628 
L 355.115488 295.961945 
L 356.224712 293.239336 
L 357.333935 295.364309 
L 358.443148 295.563516 
L 359.55235 292.442477 
L 360.661573 296.559589 
L 361.770786 297.887687 
L 362.88001 297.754886 
L 363.989234 300.145462 
L 365.098457 296.161168 
L 366.20767 298.219712 
L 367.316872 297.622068 
L 368.426096 292.774486 
L 369.535308 300.01266 
L 370.644532 300.875924 
L 371.753745 296.825217 
L 372.862968 295.165078 
L 373.97217 293.172923 
L 375.081383 295.032277 
L 377.299819 297.622084 
L 378.409043 298.418927 
L 379.518267 294.434624 
L 380.627469 291.977635 
L 381.736692 298.21972 
L 382.845905 299.282206 
L 383.955118 293.372146 
L 385.064341 293.83698 
L 386.173543 296.028358 
L 387.282767 297.422861 
L 388.39198 297.754886 
L 389.501192 297.024432 
L 390.610416 293.770575 
L 392.828842 298.08691 
L 393.938065 292.04404 
L 395.047278 290.317512 
L 396.156502 296.42678 
L 397.265714 296.891622 
L 398.374927 294.766657 
L 399.48414 297.555671 
L 400.593353 298.684562 
L 401.702565 298.35253 
L 402.811789 295.829143 
L 403.921002 288.524564 
L 405.030203 265.946817 
L 406.139449 222.517843 
L 407.248651 195.026133 
L 408.357853 232.677825 
L 409.467076 279.227846 
L 410.5763 284.606659 
L 411.685502 276.438824 
L 412.794704 270.661581 
L 413.903927 269.333483 
L 415.013173 269.798317 
L 416.122375 268.603021 
L 417.231576 273.98185 
L 418.340822 272.720149 
L 419.450024 256.185272 
L 420.559226 259.571922 
L 421.668449 269.53269 
L 422.777673 265.415578 
L 423.886875 259.903947 
L 424.996099 266.743668 
L 426.1053 271.524853 
L 427.214524 267.673361 
L 429.432949 279.958308 
L 430.542195 275.575568 
L 431.651397 276.638046 
L 432.760621 283.676998 
L 433.869822 283.212156 
L 434.979046 280.423134 
L 436.08827 287.860523 
L 437.197449 291.114363 
L 438.306673 279.626275 
L 439.415897 279.692688 
L 439.415897 279.692688 
" style="fill:none;stroke:#0000ff;stroke-linecap:square;"/>
   </g>
   <g id="line2d_25">
    <path clip-path="url(#p541dc7952e)" d="M 182.447536 293.83094 
L 183.187012 286.224546 
L 184.29623 291.295473 
L 185.405446 309.888918 
L 187.623874 289.605156 
L 188.733095 298.056716 
L 190.951523 267.631085 
L 192.060742 259.179533 
L 193.169954 257.489209 
L 194.279172 267.631085 
L 195.388391 257.489209 
L 196.497605 249.037641 
L 197.60682 260.869834 
L 198.716036 282.843913 
L 199.825254 274.392337 
L 200.934469 243.966706 
L 202.043685 262.560143 
L 203.1529 277.772962 
L 204.262116 257.489209 
L 205.371334 269.321402 
L 206.48055 271.011727 
L 207.589766 259.179509 
L 208.698981 264.250468 
L 209.808197 260.869826 
L 210.917414 272.70202 
L 212.026629 286.224538 
L 213.135845 282.843905 
L 214.245061 272.70202 
L 216.463493 289.605148 
L 217.572709 279.463287 
L 219.791141 279.463287 
L 220.900358 296.366415 
L 222.009574 299.747033 
L 223.11879 279.463279 
L 224.228005 264.25046 
L 225.337222 255.798892 
L 226.446438 264.25046 
L 227.555653 271.011703 
L 228.664869 279.463279 
L 229.774087 254.108591 
L 230.883301 225.373269 
L 231.992518 240.586089 
L 233.101735 260.869834 
L 234.210949 260.86985 
L 235.320166 257.489209 
L 236.429381 257.489209 
L 237.538598 252.418274 
L 238.647815 265.940777 
L 239.75703 294.676098 
L 240.866247 314.959852 
L 241.975463 314.95986 
L 243.084678 299.747033 
L 246.412325 264.25046 
L 247.521543 265.940777 
L 248.630758 250.727957 
L 249.739974 255.798908 
L 250.849192 279.463279 
L 251.958407 265.940785 
L 253.067623 264.250484 
L 254.176836 264.25046 
L 255.286054 255.798892 
L 256.395269 257.489209 
L 257.504485 271.011727 
L 258.613706 287.914839 
L 260.832134 281.153604 
L 261.941352 265.940777 
L 263.050568 271.011719 
L 264.15978 294.676098 
L 265.268999 303.127666 
L 266.378211 296.366415 
L 267.48743 292.985789 
L 268.596648 311.579234 
L 269.705861 306.508284 
L 270.815079 289.605156 
L 271.924297 279.463287 
L 273.03351 271.011703 
L 274.142728 277.77297 
L 275.251946 289.605156 
L 276.361159 289.605156 
L 277.470377 276.082653 
L 278.579595 257.489209 
L 279.688808 257.489209 
L 280.798026 271.011719 
L 281.907245 267.631093 
L 283.016457 260.869834 
L 284.125681 257.489209 
L 285.234894 264.25046 
L 286.344106 242.276405 
L 287.453325 235.515138 
L 288.562532 267.631085 
L 289.671756 276.082669 
L 290.780968 277.77297 
L 291.890192 277.772962 
L 292.999399 257.489209 
L 294.108617 242.276405 
L 295.21783 271.011719 
L 296.327048 286.224538 
L 297.436267 274.392337 
L 298.545479 254.108591 
L 299.654703 252.418258 
L 300.763916 271.011719 
L 301.873129 272.702044 
L 302.982352 269.321402 
L 304.091565 272.702036 
L 305.200789 292.985789 
L 306.309996 291.295473 
L 307.419214 277.77297 
L 308.528421 272.702036 
L 309.637645 274.392353 
L 310.746863 287.914847 
L 311.856071 267.631085 
L 312.965294 260.86985 
L 314.074507 274.392337 
L 315.183731 281.153604 
L 316.292932 286.224522 
L 317.402156 279.463287 
L 318.511369 291.295465 
L 319.620593 299.747033 
L 320.729794 260.869834 
L 321.839018 259.179533 
L 322.948231 282.843913 
L 324.057455 265.940785 
L 325.166667 279.463279 
L 326.27588 287.914839 
L 327.385104 269.321402 
L 329.603529 282.843905 
L 330.712753 271.011727 
L 331.821966 284.534221 
L 332.931178 291.295465 
L 334.040391 282.843905 
L 335.149615 289.605156 
L 336.258828 267.631085 
L 337.36804 271.011719 
L 338.477264 299.747033 
L 339.586477 308.198601 
L 340.6957 292.985782 
L 341.804902 272.702044 
L 342.914115 286.224522 
L 344.023339 274.392337 
L 345.132551 260.869834 
L 346.241775 259.179525 
L 347.350977 255.798908 
L 348.4602 281.153596 
L 349.569413 291.295473 
L 351.787861 274.392337 
L 352.897073 260.869826 
L 354.006297 260.86985 
L 355.115488 289.605156 
L 356.224712 291.295481 
L 357.333935 274.392337 
L 358.443148 245.657023 
L 359.55235 235.515138 
L 360.661573 265.940785 
L 361.770786 286.224522 
L 362.88001 292.985782 
L 365.098457 269.321418 
L 366.20767 274.392353 
L 367.316872 269.321418 
L 368.426096 272.70202 
L 369.535308 277.77297 
L 370.644532 272.70202 
L 371.753745 271.011719 
L 373.97217 277.77297 
L 375.081383 264.25046 
L 376.190596 271.011703 
L 377.299819 287.914839 
L 378.409043 272.702036 
L 379.518267 276.082645 
L 380.627469 287.914839 
L 381.736692 271.011727 
L 382.845905 271.011719 
L 383.955118 281.153588 
L 385.064341 274.392353 
L 386.173543 271.011703 
L 387.282767 279.463287 
L 388.39198 265.940777 
L 389.501192 254.108591 
L 390.610416 247.34734 
L 391.71964 243.966706 
L 392.828842 245.657023 
L 393.938065 240.586089 
L 395.047278 237.205455 
L 396.156502 235.515154 
L 397.265714 257.489209 
L 398.374927 252.418258 
L 399.48414 240.586089 
L 400.593353 250.727973 
L 401.702565 240.586089 
L 402.811789 249.037641 
L 403.921002 262.560151 
L 405.030203 249.037641 
L 406.139449 164.522024 
L 407.248651 108.741698 
L 409.467076 264.250484 
L 410.5763 259.179525 
L 412.794704 208.470133 
L 413.903927 194.947631 
L 415.013173 205.089516 
L 416.122375 208.470133 
L 417.231576 189.876697 
L 418.340822 186.496079 
L 419.450024 215.231369 
L 420.559226 232.134521 
L 421.668449 216.921717 
L 423.886875 193.25733 
L 424.996099 196.637948 
L 426.1053 225.373269 
L 427.214524 223.682969 
L 428.323748 208.470149 
L 429.432949 227.063586 
L 430.542195 237.205455 
L 431.651397 228.753871 
L 432.760621 228.753887 
L 433.869822 235.515154 
L 434.979046 240.586089 
L 436.08827 247.34734 
L 437.197449 274.392337 
L 438.306673 276.082653 
L 439.415897 287.914839 
L 439.415897 287.914839 
" style="fill:none;stroke:#008000;stroke-linecap:square;stroke-opacity:0.3;"/>
   </g>
   <g id="line2d_26">
    <path clip-path="url(#p541dc7952e)" d="M 218.866794 341.759622 
L 218.866794 97.645606 
" style="fill:none;stroke:#1f77b4;stroke-linecap:square;"/>
   </g>
   <g id="line2d_27">
    <path clip-path="url(#p541dc7952e)" d="M 182.447536 290.740838 
L 183.187012 300.676709 
L 184.29623 304.162983 
L 185.405446 295.098681 
L 186.514659 294.052808 
L 187.623874 303.465723 
L 189.842311 295.447303 
L 190.951523 295.098674 
L 192.060742 286.731624 
L 193.169954 286.383002 
L 194.279172 295.795933 
L 195.388391 299.282206 
L 196.497605 310.08964 
L 197.60682 304.860234 
L 198.716036 293.355541 
L 199.825254 296.144555 
L 200.934469 296.841806 
L 202.043685 300.676709 
L 203.1529 292.658289 
L 204.262116 293.006911 
L 205.371334 303.117102 
L 206.48055 297.539074 
L 207.589766 295.795933 
L 208.698981 303.465723 
L 209.808197 309.392389 
L 210.917414 296.144563 
L 212.026629 286.731632 
L 213.135845 295.447311 
L 214.245061 301.722599 
L 215.354277 297.190436 
L 216.463493 299.630828 
L 217.572709 299.979458 
L 218.681925 293.355541 
L 219.791141 301.373969 
L 220.900358 293.006927 
L 222.009574 291.26377 
L 223.11879 298.236317 
L 224.228005 298.236317 
L 225.337222 293.006919 
L 226.446438 289.869275 
L 228.664869 310.089648 
L 229.774087 307.649256 
L 230.883301 289.520646 
L 233.101735 297.539074 
L 234.210949 293.355549 
L 235.320166 302.41985 
L 236.429381 299.979458 
L 237.538598 296.493192 
L 238.647815 298.236325 
L 239.75703 301.025339 
L 240.866247 298.236325 
L 241.975463 289.520646 
L 243.084678 287.777513 
L 244.193894 297.887695 
L 245.303109 304.511604 
L 247.521543 290.915165 
L 248.630758 296.144555 
L 249.739974 299.979458 
L 250.849192 297.190444 
L 251.958407 290.566527 
L 253.067623 290.566527 
L 254.176836 303.117102 
L 255.286054 299.282198 
L 256.395269 291.612416 
L 257.504485 290.217905 
L 258.613706 286.731632 
L 259.722918 293.704171 
L 261.941352 286.383002 
L 263.050568 302.07122 
L 264.15978 299.979458 
L 265.268999 290.566527 
L 266.378211 286.731624 
L 267.48743 288.823394 
L 268.596648 294.750052 
L 269.705861 297.190436 
L 270.815079 301.722591 
L 271.924297 295.795933 
L 273.03351 298.584947 
L 274.142728 300.676709 
L 275.251946 288.126135 
L 276.361159 289.172024 
L 277.470377 290.566535 
L 278.579595 290.915157 
L 279.688808 297.190444 
L 280.798026 288.474764 
L 281.907245 285.337121 
L 283.016457 295.447311 
L 284.125681 295.795933 
L 285.234894 295.447303 
L 286.344106 291.96103 
L 287.453325 282.548099 
L 288.562532 289.520638 
L 289.671756 303.465723 
L 290.780968 289.520646 
L 291.890192 279.410471 
L 292.999399 293.355549 
L 294.108617 304.860234 
L 295.21783 309.741011 
L 296.327048 296.841814 
L 297.436267 290.915149 
L 298.545479 286.731632 
L 299.654703 288.823394 
L 300.763916 295.098674 
L 304.091565 283.593988 
L 306.309996 300.328088 
L 307.419214 301.025331 
L 308.528421 277.66733 
L 309.637645 271.740665 
L 310.746863 288.823386 
L 311.856071 294.052792 
L 312.965294 301.722599 
L 314.074507 302.07122 
L 315.183731 290.915149 
L 316.292932 291.961046 
L 317.402156 301.373961 
L 318.511369 304.511612 
L 319.620593 293.704171 
L 320.729794 298.236333 
L 321.839018 305.906115 
L 322.948231 291.96103 
L 324.057455 290.217905 
L 325.166667 297.887695 
L 326.27588 298.933577 
L 327.385104 287.428883 
L 328.494327 284.639869 
L 329.603529 295.098674 
L 330.712753 295.447311 
L 331.821966 305.557494 
L 332.931178 308.695129 
L 334.040391 301.722591 
L 335.149615 295.795933 
L 336.258828 289.172016 
L 337.36804 296.493192 
L 338.477264 298.236325 
L 339.586477 294.750052 
L 340.6957 298.236325 
L 341.804902 292.658289 
L 342.914115 296.144555 
L 344.023339 305.208856 
L 345.132551 303.117094 
L 346.241775 303.117102 
L 347.350977 295.795933 
L 348.4602 292.309668 
L 349.569413 294.40143 
L 350.678637 295.795933 
L 351.787861 291.612408 
L 352.897073 295.098681 
L 354.006297 307.997878 
L 355.115488 295.447311 
L 356.224712 287.428883 
L 357.333935 290.915165 
L 358.443148 290.217897 
L 359.55235 297.887695 
L 360.661573 302.07122 
L 361.770786 297.539066 
L 362.88001 295.098681 
L 363.989234 292.309668 
L 365.098457 295.098681 
L 366.20767 307.300626 
L 367.316872 311.135514 
L 369.535308 276.272819 
L 370.644532 284.29124 
L 371.753745 303.814353 
L 372.862968 303.814345 
L 373.97217 286.034372 
L 375.081383 296.841814 
L 376.190596 309.392381 
L 377.299819 296.493184 
L 379.518267 293.704171 
L 380.627469 298.236317 
L 381.736692 293.006911 
L 382.845905 282.548107 
L 383.955118 290.915149 
L 385.064341 295.447303 
L 386.173543 297.539074 
L 387.282767 294.0528 
L 388.39198 282.896737 
L 389.501192 281.153596 
L 390.610416 294.052792 
L 391.71964 295.795933 
L 392.828842 298.236325 
L 393.938065 295.098681 
L 395.047278 290.915165 
L 396.156502 301.025339 
L 397.265714 297.887695 
L 398.374927 295.447303 
L 399.48414 297.887695 
L 400.593353 286.034372 
L 401.702565 289.520646 
L 402.811789 289.869275 
L 403.921002 286.383002 
L 405.030203 258.144225 
L 406.139449 204.106991 
L 407.248651 187.024302 
L 408.357853 214.565819 
L 409.467076 269.300281 
L 410.5763 278.713212 
L 411.685502 267.208518 
L 412.794704 271.740665 
L 413.903927 261.630482 
L 415.013173 249.777159 
L 416.122375 241.410125 
L 417.231576 243.501872 
L 418.340822 256.401084 
L 419.450024 257.098328 
L 420.559226 243.501872 
L 421.668449 246.988137 
L 422.777673 255.703825 
L 423.886875 249.777159 
L 424.996099 242.455991 
L 427.214524 271.740673 
L 428.323748 275.575568 
L 429.432949 265.116756 
L 430.542195 257.795603 
L 431.651397 271.740665 
L 432.760621 266.859889 
L 433.869822 262.676372 
L 434.979046 270.694784 
L 436.08827 269.997532 
L 437.197449 263.722253 
L 438.306673 276.621441 
L 439.415897 279.410463 
L 439.415897 279.410463 
" style="fill:none;stroke:#008000;stroke-linecap:square;"/>
   </g>
   <g id="line2d_28">
    <path clip-path="url(#p541dc7952e)" d="M 403.736124 341.759622 
L 403.736124 97.645606 
" style="fill:none;stroke:#1f77b4;stroke-linecap:square;"/>
   </g>
   <g id="patch_3">
    <path d="M 169.599118 341.759622 
L 169.599118 97.645606 
" style="fill:none;stroke:#000000;stroke-linecap:square;stroke-linejoin:miter;stroke-width:0.8;"/>
   </g>
   <g id="patch_4">
    <path d="M 452.264315 341.759622 
L 452.264315 97.645606 
" style="fill:none;stroke:#000000;stroke-linecap:square;stroke-linejoin:miter;stroke-width:0.8;"/>
   </g>
   <g id="patch_5">
    <path d="M 169.599118 341.759622 
L 452.264315 341.759622 
" style="fill:none;stroke:#000000;stroke-linecap:square;stroke-linejoin:miter;stroke-width:0.8;"/>
   </g>
   <g id="patch_6">
    <path d="M 169.599118 97.645606 
L 452.264315 97.645606 
" style="fill:none;stroke:#000000;stroke-linecap:square;stroke-linejoin:miter;stroke-width:0.8;"/>
   </g>
  </g>
 </g>
 <defs>
  <clipPath id="p541dc7952e">
   <rect height="244.114016" width="282.665197" x="169.599118" y="97.645606"/>
  </clipPath>
 </defs>
</svg>
