<?xml version="1.0" encoding="utf-8" standalone="no"?>
<!DOCTYPE svg PUBLIC "-//W3C//DTD SVG 1.1//EN"
  "http://www.w3.org/Graphics/SVG/1.1/DTD/svg11.dtd">
<svg height="488.228031pt" version="1.1" viewBox="0 0 565.330394 488.228031" width="565.330394pt" xmlns="http://www.w3.org/2000/svg" xmlns:xlink="http://www.w3.org/1999/xlink">
 <metadata>
  <rdf:RDF xmlns:cc="http://creativecommons.org/ns#" xmlns:dc="http://purl.org/dc/elements/1.1/" xmlns:rdf="http://www.w3.org/1999/02/22-rdf-syntax-ns#">
   <cc:Work>
    <dc:type rdf:resource="http://purl.org/dc/dcmitype/StillImage"/>
    <dc:date>2023-10-10T14:14:39.001587</dc:date>
    <dc:format>image/svg+xml</dc:format>
    <dc:creator>
     <cc:Agent>
      <dc:title>Matplotlib v3.4.2, https://matplotlib.org/</dc:title>
     </cc:Agent>
    </dc:creator>
   </cc:Work>
  </rdf:RDF>
 </metadata>
 <defs>
  <style type="text/css">*{stroke-linecap:butt;stroke-linejoin:round;}</style>
 </defs>
 <g id="figure_1">
  <g id="patch_1">
   <path d="M 0 488.228031 
L 565.330394 488.228031 
L 565.330394 0 
L 0 0 
z
" style="fill:#ffffff;"/>
  </g>
  <g id="axes_1">
   <g id="patch_2">
    <path d="M 169.599118 341.759622 
L 452.264315 341.759622 
L 452.264315 97.645606 
L 169.599118 97.645606 
z
" style="fill:#ffffff;"/>
   </g>
   <g id="matplotlib.axis_1">
    <g id="xtick_1">
     <g id="line2d_1">
      <defs>
       <path d="M 0 0 
L 0 3.5 
" id="m659003710c" style="stroke:#000000;stroke-width:0.8;"/>
      </defs>
      <g>
       <use style="stroke:#000000;stroke-width:0.8;" x="181.892928" xlink:href="#m659003710c" y="341.759622"/>
      </g>
     </g>
     <g id="text_1">
      <!-- −0.2 -->
      <g transform="translate(175.97074 353.05431)scale(0.06 -0.06)">
       <defs>
        <path d="M 266 1850 
L 266 2672 
L 3469 2672 
L 3469 1850 
L 266 1850 
z
" id="Arial-BoldMT-2212" transform="scale(0.015625)"/>
        <path d="M 1756 4600 
Q 2422 4600 2797 4125 
Q 3244 3563 3244 2259 
Q 3244 959 2794 391 
Q 2422 -78 1756 -78 
Q 1088 -78 678 436 
Q 269 950 269 2269 
Q 269 3563 719 4131 
Q 1091 4600 1756 4600 
z
M 1756 3872 
Q 1597 3872 1472 3770 
Q 1347 3669 1278 3406 
Q 1188 3066 1188 2259 
Q 1188 1453 1269 1151 
Q 1350 850 1473 750 
Q 1597 650 1756 650 
Q 1916 650 2041 751 
Q 2166 853 2234 1116 
Q 2325 1453 2325 2259 
Q 2325 3066 2244 3367 
Q 2163 3669 2039 3770 
Q 1916 3872 1756 3872 
z
" id="Arial-BoldMT-30" transform="scale(0.015625)"/>
        <path d="M 459 0 
L 459 878 
L 1338 878 
L 1338 0 
L 459 0 
z
" id="Arial-BoldMT-2e" transform="scale(0.015625)"/>
        <path d="M 3238 816 
L 3238 0 
L 159 0 
Q 209 463 459 877 
Q 709 1291 1447 1975 
Q 2041 2528 2175 2725 
Q 2356 2997 2356 3263 
Q 2356 3556 2198 3714 
Q 2041 3872 1763 3872 
Q 1488 3872 1325 3706 
Q 1163 3541 1138 3156 
L 263 3244 
Q 341 3969 753 4284 
Q 1166 4600 1784 4600 
Q 2463 4600 2850 4234 
Q 3238 3869 3238 3325 
Q 3238 3016 3127 2736 
Q 3016 2456 2775 2150 
Q 2616 1947 2200 1565 
Q 1784 1184 1673 1059 
Q 1563 934 1494 816 
L 3238 816 
z
" id="Arial-BoldMT-32" transform="scale(0.015625)"/>
       </defs>
       <use xlink:href="#Arial-BoldMT-2212"/>
       <use x="58.398438" xlink:href="#Arial-BoldMT-30"/>
       <use x="114.013672" xlink:href="#Arial-BoldMT-2e"/>
       <use x="141.796875" xlink:href="#Arial-BoldMT-32"/>
      </g>
     </g>
    </g>
    <g id="xtick_2">
     <g id="line2d_2">
      <g>
       <use style="stroke:#000000;stroke-width:0.8;" x="218.866794" xlink:href="#m659003710c" y="341.759622"/>
      </g>
     </g>
     <g id="text_2">
      <!-- 0.0 -->
      <g transform="translate(214.696794 353.05431)scale(0.06 -0.06)">
       <use xlink:href="#Arial-BoldMT-30"/>
       <use x="55.615234" xlink:href="#Arial-BoldMT-2e"/>
       <use x="83.398438" xlink:href="#Arial-BoldMT-30"/>
      </g>
     </g>
    </g>
    <g id="xtick_3">
     <g id="line2d_3">
      <g>
       <use style="stroke:#000000;stroke-width:0.8;" x="255.84066" xlink:href="#m659003710c" y="341.759622"/>
      </g>
     </g>
     <g id="text_3">
      <!-- 0.2 -->
      <g transform="translate(251.67066 353.05431)scale(0.06 -0.06)">
       <use xlink:href="#Arial-BoldMT-30"/>
       <use x="55.615234" xlink:href="#Arial-BoldMT-2e"/>
       <use x="83.398438" xlink:href="#Arial-BoldMT-32"/>
      </g>
     </g>
    </g>
    <g id="xtick_4">
     <g id="line2d_4">
      <g>
       <use style="stroke:#000000;stroke-width:0.8;" x="292.814526" xlink:href="#m659003710c" y="341.759622"/>
      </g>
     </g>
     <g id="text_4">
      <!-- 0.4 -->
      <g transform="translate(288.644526 353.05431)scale(0.06 -0.06)">
       <defs>
        <path d="M 1994 0 
L 1994 922 
L 119 922 
L 119 1691 
L 2106 4600 
L 2844 4600 
L 2844 1694 
L 3413 1694 
L 3413 922 
L 2844 922 
L 2844 0 
L 1994 0 
z
M 1994 1694 
L 1994 3259 
L 941 1694 
L 1994 1694 
z
" id="Arial-BoldMT-34" transform="scale(0.015625)"/>
       </defs>
       <use xlink:href="#Arial-BoldMT-30"/>
       <use x="55.615234" xlink:href="#Arial-BoldMT-2e"/>
       <use x="83.398438" xlink:href="#Arial-BoldMT-34"/>
      </g>
     </g>
    </g>
    <g id="xtick_5">
     <g id="line2d_5">
      <g>
       <use style="stroke:#000000;stroke-width:0.8;" x="329.788392" xlink:href="#m659003710c" y="341.759622"/>
      </g>
     </g>
     <g id="text_5">
      <!-- 0.6 -->
      <g transform="translate(325.618392 353.05431)scale(0.06 -0.06)">
       <defs>
        <path d="M 3247 3459 
L 2397 3366 
Q 2366 3628 2234 3753 
Q 2103 3878 1894 3878 
Q 1616 3878 1423 3628 
Q 1231 3378 1181 2588 
Q 1509 2975 1997 2975 
Q 2547 2975 2939 2556 
Q 3331 2138 3331 1475 
Q 3331 772 2918 347 
Q 2506 -78 1859 -78 
Q 1166 -78 719 461 
Q 272 1000 272 2228 
Q 272 3488 737 4044 
Q 1203 4600 1947 4600 
Q 2469 4600 2811 4308 
Q 3153 4016 3247 3459 
z
M 1256 1544 
Q 1256 1116 1453 883 
Q 1650 650 1903 650 
Q 2147 650 2309 840 
Q 2472 1031 2472 1466 
Q 2472 1913 2297 2120 
Q 2122 2328 1859 2328 
Q 1606 2328 1431 2129 
Q 1256 1931 1256 1544 
z
" id="Arial-BoldMT-36" transform="scale(0.015625)"/>
       </defs>
       <use xlink:href="#Arial-BoldMT-30"/>
       <use x="55.615234" xlink:href="#Arial-BoldMT-2e"/>
       <use x="83.398438" xlink:href="#Arial-BoldMT-36"/>
      </g>
     </g>
    </g>
    <g id="xtick_6">
     <g id="line2d_6">
      <g>
       <use style="stroke:#000000;stroke-width:0.8;" x="366.762258" xlink:href="#m659003710c" y="341.759622"/>
      </g>
     </g>
     <g id="text_6">
      <!-- 0.8 -->
      <g transform="translate(362.592258 353.05431)scale(0.06 -0.06)">
       <defs>
        <path d="M 1025 2472 
Q 684 2616 529 2867 
Q 375 3119 375 3419 
Q 375 3931 733 4265 
Q 1091 4600 1750 4600 
Q 2403 4600 2764 4265 
Q 3125 3931 3125 3419 
Q 3125 3100 2959 2851 
Q 2794 2603 2494 2472 
Q 2875 2319 3073 2025 
Q 3272 1731 3272 1347 
Q 3272 713 2867 316 
Q 2463 -81 1791 -81 
Q 1166 -81 750 247 
Q 259 634 259 1309 
Q 259 1681 443 1992 
Q 628 2303 1025 2472 
z
M 1206 3356 
Q 1206 3094 1354 2947 
Q 1503 2800 1750 2800 
Q 2000 2800 2150 2948 
Q 2300 3097 2300 3359 
Q 2300 3606 2151 3754 
Q 2003 3903 1759 3903 
Q 1506 3903 1356 3753 
Q 1206 3603 1206 3356 
z
M 1125 1394 
Q 1125 1031 1311 828 
Q 1497 625 1775 625 
Q 2047 625 2225 820 
Q 2403 1016 2403 1384 
Q 2403 1706 2222 1901 
Q 2041 2097 1763 2097 
Q 1441 2097 1283 1875 
Q 1125 1653 1125 1394 
z
" id="Arial-BoldMT-38" transform="scale(0.015625)"/>
       </defs>
       <use xlink:href="#Arial-BoldMT-30"/>
       <use x="55.615234" xlink:href="#Arial-BoldMT-2e"/>
       <use x="83.398438" xlink:href="#Arial-BoldMT-38"/>
      </g>
     </g>
    </g>
    <g id="xtick_7">
     <g id="line2d_7">
      <g>
       <use style="stroke:#000000;stroke-width:0.8;" x="403.736124" xlink:href="#m659003710c" y="341.759622"/>
      </g>
     </g>
     <g id="text_7">
      <!-- 1.0 -->
      <g transform="translate(399.566124 353.05431)scale(0.06 -0.06)">
       <defs>
        <path d="M 2519 0 
L 1641 0 
L 1641 3309 
Q 1159 2859 506 2644 
L 506 3441 
Q 850 3553 1253 3867 
Q 1656 4181 1806 4600 
L 2519 4600 
L 2519 0 
z
" id="Arial-BoldMT-31" transform="scale(0.015625)"/>
       </defs>
       <use xlink:href="#Arial-BoldMT-31"/>
       <use x="55.615234" xlink:href="#Arial-BoldMT-2e"/>
       <use x="83.398438" xlink:href="#Arial-BoldMT-30"/>
      </g>
     </g>
    </g>
    <g id="xtick_8">
     <g id="line2d_8">
      <g>
       <use style="stroke:#000000;stroke-width:0.8;" x="440.70999" xlink:href="#m659003710c" y="341.759622"/>
      </g>
     </g>
     <g id="text_8">
      <!-- 1.2 -->
      <g transform="translate(436.53999 353.05431)scale(0.06 -0.06)">
       <use xlink:href="#Arial-BoldMT-31"/>
       <use x="55.615234" xlink:href="#Arial-BoldMT-2e"/>
       <use x="83.398438" xlink:href="#Arial-BoldMT-32"/>
      </g>
     </g>
    </g>
   </g>
   <g id="matplotlib.axis_2">
    <g id="ytick_1">
     <g id="line2d_9">
      <defs>
       <path d="M 0 0 
L -3.5 0 
" id="m1b1e3d276f" style="stroke:#000000;stroke-width:0.8;"/>
      </defs>
      <g>
       <use style="stroke:#000000;stroke-width:0.8;" x="169.599118" xlink:href="#m1b1e3d276f" y="314.013456"/>
      </g>
     </g>
     <g id="text_9">
      <!-- 3 -->
      <g transform="translate(159.262556 316.1608)scale(0.06 -0.06)">
       <defs>
        <path d="M 241 1216 
L 1091 1319 
Q 1131 994 1309 822 
Q 1488 650 1741 650 
Q 2013 650 2198 856 
Q 2384 1063 2384 1413 
Q 2384 1744 2206 1937 
Q 2028 2131 1772 2131 
Q 1603 2131 1369 2066 
L 1466 2781 
Q 1822 2772 2009 2936 
Q 2197 3100 2197 3372 
Q 2197 3603 2059 3740 
Q 1922 3878 1694 3878 
Q 1469 3878 1309 3722 
Q 1150 3566 1116 3266 
L 306 3403 
Q 391 3819 561 4067 
Q 731 4316 1036 4458 
Q 1341 4600 1719 4600 
Q 2366 4600 2756 4188 
Q 3078 3850 3078 3425 
Q 3078 2822 2419 2463 
Q 2813 2378 3048 2084 
Q 3284 1791 3284 1375 
Q 3284 772 2843 347 
Q 2403 -78 1747 -78 
Q 1125 -78 715 280 
Q 306 638 241 1216 
z
" id="Arial-BoldMT-33" transform="scale(0.015625)"/>
       </defs>
       <use xlink:href="#Arial-BoldMT-33"/>
      </g>
     </g>
    </g>
    <g id="ytick_2">
     <g id="line2d_10">
      <g>
       <use style="stroke:#000000;stroke-width:0.8;" x="169.599118" xlink:href="#m1b1e3d276f" y="285.74073"/>
      </g>
     </g>
     <g id="text_10">
      <!-- 4 -->
      <g transform="translate(159.262556 287.888073)scale(0.06 -0.06)">
       <use xlink:href="#Arial-BoldMT-34"/>
      </g>
     </g>
    </g>
    <g id="ytick_3">
     <g id="line2d_11">
      <g>
       <use style="stroke:#000000;stroke-width:0.8;" x="169.599118" xlink:href="#m1b1e3d276f" y="257.468003"/>
      </g>
     </g>
     <g id="text_11">
      <!-- 5 -->
      <g transform="translate(159.262556 259.615347)scale(0.06 -0.06)">
       <defs>
        <path d="M 284 1178 
L 1159 1269 
Q 1197 972 1381 798 
Q 1566 625 1806 625 
Q 2081 625 2272 848 
Q 2463 1072 2463 1522 
Q 2463 1944 2273 2155 
Q 2084 2366 1781 2366 
Q 1403 2366 1103 2031 
L 391 2134 
L 841 4519 
L 3163 4519 
L 3163 3697 
L 1506 3697 
L 1369 2919 
Q 1663 3066 1969 3066 
Q 2553 3066 2959 2641 
Q 3366 2216 3366 1538 
Q 3366 972 3038 528 
Q 2591 -78 1797 -78 
Q 1163 -78 763 262 
Q 363 603 284 1178 
z
" id="Arial-BoldMT-35" transform="scale(0.015625)"/>
       </defs>
       <use xlink:href="#Arial-BoldMT-35"/>
      </g>
     </g>
    </g>
    <g id="ytick_4">
     <g id="line2d_12">
      <g>
       <use style="stroke:#000000;stroke-width:0.8;" x="169.599118" xlink:href="#m1b1e3d276f" y="229.195276"/>
      </g>
     </g>
     <g id="text_12">
      <!-- 6 -->
      <g transform="translate(159.262556 231.34262)scale(0.06 -0.06)">
       <use xlink:href="#Arial-BoldMT-36"/>
      </g>
     </g>
    </g>
    <g id="ytick_5">
     <g id="line2d_13">
      <g>
       <use style="stroke:#000000;stroke-width:0.8;" x="169.599118" xlink:href="#m1b1e3d276f" y="200.922549"/>
      </g>
     </g>
     <g id="text_13">
      <!-- 7 -->
      <g transform="translate(159.262556 203.069893)scale(0.06 -0.06)">
       <defs>
        <path d="M 272 3703 
L 272 4519 
L 3275 4519 
L 3275 3881 
Q 2903 3516 2518 2831 
Q 2134 2147 1932 1376 
Q 1731 606 1734 0 
L 888 0 
Q 909 950 1279 1937 
Q 1650 2925 2269 3703 
L 272 3703 
z
" id="Arial-BoldMT-37" transform="scale(0.015625)"/>
       </defs>
       <use xlink:href="#Arial-BoldMT-37"/>
      </g>
     </g>
    </g>
    <g id="ytick_6">
     <g id="line2d_14">
      <g>
       <use style="stroke:#000000;stroke-width:0.8;" x="169.599118" xlink:href="#m1b1e3d276f" y="172.649823"/>
      </g>
     </g>
     <g id="text_14">
      <!-- 8 -->
      <g transform="translate(159.262556 174.797166)scale(0.06 -0.06)">
       <use xlink:href="#Arial-BoldMT-38"/>
      </g>
     </g>
    </g>
    <g id="ytick_7">
     <g id="line2d_15">
      <g>
       <use style="stroke:#000000;stroke-width:0.8;" x="169.599118" xlink:href="#m1b1e3d276f" y="144.377096"/>
      </g>
     </g>
     <g id="text_15">
      <!-- 9 -->
      <g transform="translate(159.262556 146.52444)scale(0.06 -0.06)">
       <defs>
        <path d="M 291 1059 
L 1141 1153 
Q 1172 894 1303 769 
Q 1434 644 1650 644 
Q 1922 644 2112 894 
Q 2303 1144 2356 1931 
Q 2025 1547 1528 1547 
Q 988 1547 595 1964 
Q 203 2381 203 3050 
Q 203 3747 617 4173 
Q 1031 4600 1672 4600 
Q 2369 4600 2816 4061 
Q 3263 3522 3263 2288 
Q 3263 1031 2797 475 
Q 2331 -81 1584 -81 
Q 1047 -81 715 205 
Q 384 491 291 1059 
z
M 2278 2978 
Q 2278 3403 2083 3637 
Q 1888 3872 1631 3872 
Q 1388 3872 1227 3680 
Q 1066 3488 1066 3050 
Q 1066 2606 1241 2398 
Q 1416 2191 1678 2191 
Q 1931 2191 2104 2391 
Q 2278 2591 2278 2978 
z
" id="Arial-BoldMT-39" transform="scale(0.015625)"/>
       </defs>
       <use xlink:href="#Arial-BoldMT-39"/>
      </g>
     </g>
    </g>
    <g id="ytick_8">
     <g id="line2d_16">
      <g>
       <use style="stroke:#000000;stroke-width:0.8;" x="169.599118" xlink:href="#m1b1e3d276f" y="116.104369"/>
      </g>
     </g>
     <g id="text_16">
      <!-- 10 -->
      <g transform="translate(155.925993 118.251713)scale(0.06 -0.06)">
       <use xlink:href="#Arial-BoldMT-31"/>
       <use x="55.615234" xlink:href="#Arial-BoldMT-30"/>
      </g>
     </g>
    </g>
   </g>
   <g id="line2d_17">
    <path clip-path="url(#p24719fd712)" d="M 182.447536 308.825652 
L 183.187012 301.234793 
L 184.29623 291.113634 
L 185.405446 295.451262 
L 186.514659 303.4036 
L 187.623874 294.005393 
L 188.733095 288.221876 
L 189.842311 293.282448 
L 190.951523 299.788897 
L 192.060742 299.065966 
L 193.169954 294.728331 
L 194.279172 299.065952 
L 195.388391 288.221869 
L 196.497605 286.053048 
L 197.60682 300.511848 
L 198.716036 304.849483 
L 199.825254 305.572428 
L 200.934469 310.632994 
L 202.043685 305.572421 
L 203.1529 291.113634 
L 204.262116 283.16129 
L 205.371334 278.823675 
L 206.48055 280.269538 
L 207.589766 283.16129 
L 208.698981 275.931883 
L 209.808197 276.654828 
L 210.917414 285.33011 
L 212.026629 291.113621 
L 213.135845 292.559504 
L 214.245061 286.053048 
L 215.354277 285.33011 
L 216.463493 280.269524 
L 217.572709 273.040144 
L 218.681925 281.715414 
L 219.791141 285.33011 
L 220.900358 268.70249 
L 222.009574 262.196041 
L 224.228005 279.546593 
L 225.337222 271.594255 
L 226.446438 259.304276 
L 227.555653 273.040144 
L 228.664869 267.979572 
L 229.774087 270.148379 
L 230.883301 281.715414 
L 231.992518 284.607179 
L 234.210949 247.01431 
L 235.320166 257.858413 
L 236.429381 265.087793 
L 237.538598 267.256627 
L 238.647815 263.641931 
L 239.75703 258.581331 
L 240.866247 265.087806 
L 241.975463 278.823648 
L 243.084678 280.269538 
L 244.193894 278.823648 
L 245.303109 280.992469 
L 246.412325 277.377786 
L 247.521543 275.931883 
L 248.630758 280.992469 
L 250.849192 280.992483 
L 251.958407 277.377786 
L 253.067623 254.966648 
L 254.176836 260.02722 
L 255.286054 272.3172 
L 256.395269 259.304276 
L 257.504485 262.918986 
L 258.613706 261.473123 
L 259.722918 261.473096 
L 260.832134 283.16129 
L 261.941352 285.33011 
L 263.050568 279.546593 
L 264.15978 282.438358 
L 265.268999 289.667752 
L 266.378211 290.390683 
L 267.48743 278.100704 
L 268.596648 262.196041 
L 269.705861 268.70249 
L 270.815079 288.944814 
L 271.924297 278.100717 
L 273.03351 273.763089 
L 274.142728 293.282442 
L 275.251946 294.00538 
L 276.361159 286.053048 
L 277.470377 291.836559 
L 278.579595 286.775993 
L 279.688808 282.438345 
L 280.798026 287.498931 
L 281.907245 294.728331 
L 283.016457 303.403594 
L 284.125681 296.897152 
L 285.234894 291.113634 
L 286.344106 295.451276 
L 287.453325 292.559504 
L 288.562532 290.390676 
L 289.671756 294.005386 
L 290.780968 301.234793 
L 292.999399 280.992469 
L 294.108617 280.992469 
L 295.21783 288.944821 
L 296.327048 294.005386 
L 297.436267 293.282435 
L 298.545479 308.46418 
L 299.654703 304.126538 
L 300.763916 288.221869 
L 301.873129 290.390683 
L 302.982352 280.269538 
L 304.091565 288.221869 
L 305.200789 291.836559 
L 306.309996 279.546593 
L 307.419214 286.775986 
L 308.528421 281.715414 
L 309.637645 291.113634 
L 310.746863 305.572421 
L 311.856071 299.788897 
L 312.965294 301.23478 
L 314.074507 304.849483 
L 315.183731 282.438345 
L 316.292932 277.377772 
L 317.402156 288.944807 
L 318.511369 283.884234 
L 319.620593 288.221856 
L 320.729794 293.282442 
L 321.839018 293.282442 
L 322.948231 291.836566 
L 324.057455 289.667752 
L 325.166667 286.053055 
L 326.27588 280.992469 
L 327.385104 288.221869 
L 328.494327 301.957724 
L 329.603529 296.897138 
L 330.712753 291.113621 
L 331.821966 293.282442 
L 334.040391 296.1742 
L 335.149615 306.295366 
L 336.258828 311.355938 
L 337.36804 299.788897 
L 338.477264 296.174207 
L 339.586477 298.343028 
L 340.6957 295.451256 
L 341.804902 294.00538 
L 344.023339 307.018304 
L 345.132551 296.174207 
L 346.241775 288.944807 
L 347.350977 304.126538 
L 348.4602 304.126538 
L 349.569413 291.113641 
L 350.678637 290.390696 
L 351.787861 283.161303 
L 352.897073 285.33011 
L 354.006297 301.234773 
L 355.115488 303.4036 
L 356.224712 297.62009 
L 357.333935 282.438345 
L 358.443148 285.330124 
L 359.55235 301.957718 
L 360.661573 298.343028 
L 361.770786 294.005393 
L 362.88001 293.282442 
L 363.989234 287.498931 
L 365.098457 291.113621 
L 366.20767 291.113634 
L 367.316872 276.654828 
L 368.426096 280.269524 
L 369.535308 302.680656 
L 370.644532 306.295366 
L 371.753745 306.295359 
L 372.862968 316.416511 
L 373.97217 304.849483 
L 375.081383 291.836566 
L 376.190596 298.343014 
L 377.299819 295.451262 
L 378.409043 293.282448 
L 379.518267 286.775993 
L 380.627469 274.48602 
L 381.736692 278.100704 
L 382.845905 290.390676 
L 383.955118 307.741228 
L 385.064341 301.957724 
L 386.173543 289.667759 
L 387.282767 295.451269 
L 388.39198 296.174207 
L 389.501192 286.775993 
L 390.610416 291.836566 
L 391.71964 292.559504 
L 392.828842 286.053048 
L 393.938065 291.113641 
L 395.047278 300.511855 
L 396.156502 301.234773 
L 397.265714 298.343035 
L 398.374927 287.498924 
L 399.48414 278.823648 
L 400.593353 291.113634 
L 401.702565 296.1742 
L 402.811789 296.897145 
L 403.921002 292.559504 
L 405.030203 297.620083 
L 406.139449 289.667752 
L 407.248651 259.304276 
L 408.357853 253.520772 
L 409.467076 279.546593 
L 410.5763 292.559504 
L 411.685502 289.667752 
L 412.794704 285.33011 
L 415.013173 213.759082 
L 416.122375 219.542613 
L 417.231576 226.049048 
L 418.340822 231.832565 
L 419.450024 239.784903 
L 420.559226 228.940827 
L 421.668449 232.555523 
L 422.777673 231.832578 
L 423.886875 222.434378 
L 424.996099 228.940813 
L 426.1053 234.72433 
L 427.214524 230.386689 
L 429.432949 250.629006 
L 430.542195 241.230779 
L 431.651397 244.845489 
L 432.760621 260.02722 
L 433.869822 260.750165 
L 434.979046 254.243703 
L 436.08827 249.18313 
L 437.197449 235.447275 
L 438.306673 239.784903 
L 439.415897 248.460186 
L 439.415897 248.460186 
" style="fill:none;stroke:#ff0000;stroke-linecap:square;stroke-opacity:0.3;"/>
   </g>
   <g id="line2d_18">
    <path clip-path="url(#p24719fd712)" d="M 218.866794 341.759622 
L 218.866794 97.645606 
" style="fill:none;stroke:#1f77b4;stroke-linecap:square;"/>
   </g>
   <g id="line2d_19">
    <path clip-path="url(#p24719fd712)" d="M 182.447536 294.553018 
L 183.187012 299.203942 
L 184.29623 299.938299 
L 185.405446 299.326334 
L 186.514659 298.959159 
L 187.623874 293.206689 
L 188.733095 295.042585 
L 189.842311 298.591984 
L 190.951523 296.756088 
L 192.060742 297.12327 
L 193.169954 302.263761 
L 194.279172 305.935545 
L 195.388391 303.610083 
L 197.60682 294.797801 
L 198.716036 296.511298 
L 199.825254 298.83676 
L 200.934469 298.959159 
L 202.043685 299.693515 
L 203.1529 296.63369 
L 204.262116 292.961913 
L 205.371334 301.651803 
L 206.48055 304.956405 
L 207.589766 301.407019 
L 208.698981 302.508558 
L 209.808197 294.797815 
L 210.917414 292.839528 
L 212.026629 307.281867 
L 213.135845 307.649042 
L 214.245061 298.3472 
L 215.354277 297.000872 
L 216.463493 294.675416 
L 217.572709 298.59199 
L 218.681925 300.795047 
L 219.791141 296.021731 
L 220.900358 280.96742 
L 222.009574 275.337363 
L 223.11879 292.227556 
L 224.228005 298.959159 
L 225.337222 286.352701 
L 226.446438 279.376308 
L 228.664869 269.58488 
L 229.774087 272.644706 
L 230.883301 271.29839 
L 231.992518 267.137033 
L 233.101735 270.56404 
L 234.210949 278.397175 
L 235.320166 283.904834 
L 236.429381 280.96742 
L 237.538598 267.014648 
L 238.647815 272.522321 
L 239.75703 282.313749 
L 240.866247 276.683678 
L 241.975463 278.030007 
L 243.084678 280.477854 
L 244.193894 283.415281 
L 245.303109 282.680917 
L 246.412325 278.886755 
L 247.521543 279.253923 
L 248.630758 285.251163 
L 249.739974 286.719876 
L 250.849192 284.883995 
L 251.958407 283.537666 
L 253.067623 280.845022 
L 254.176836 285.373561 
L 255.286054 292.717129 
L 256.395269 287.576645 
L 257.504485 285.128778 
L 258.613706 293.329101 
L 259.722918 286.719876 
L 260.832134 282.803302 
L 261.941352 288.188604 
L 263.050568 292.594731 
L 264.15978 292.227556 
L 265.268999 284.883995 
L 266.378211 290.146877 
L 267.48743 296.388913 
L 268.596648 287.576632 
L 269.705861 286.842261 
L 270.815079 294.675416 
L 271.924297 289.902087 
L 273.03351 284.394414 
L 274.142728 290.636444 
L 275.251946 292.961913 
L 276.361159 293.084298 
L 277.470377 295.654556 
L 278.579595 293.206703 
L 279.688808 286.597485 
L 280.798026 282.436121 
L 281.907245 284.516813 
L 283.016457 290.514059 
L 284.125681 295.287375 
L 285.234894 292.472346 
L 286.344106 288.800562 
L 287.453325 288.18859 
L 288.562532 289.534919 
L 289.671756 286.71989 
L 290.780968 290.14687 
L 291.890192 295.654556 
L 292.999399 289.16775 
L 294.108617 286.842275 
L 295.21783 290.14687 
L 296.327048 289.9021 
L 297.436267 294.185843 
L 298.545479 296.756088 
L 299.654703 295.532158 
L 301.873129 285.618345 
L 302.982352 289.290129 
L 304.091565 290.024485 
L 305.200789 295.899333 
L 306.309996 294.063444 
L 307.419214 289.167744 
L 308.528421 292.961913 
L 309.637645 293.451493 
L 310.746863 291.493199 
L 311.856071 291.126017 
L 312.965294 291.982772 
L 314.074507 290.636457 
L 315.183731 295.776941 
L 316.292932 291.493199 
L 317.402156 291.126017 
L 318.511369 301.651803 
L 319.620593 293.084304 
L 320.729794 283.170484 
L 321.839018 290.636444 
L 322.948231 293.573884 
L 324.057455 288.555772 
L 325.166667 294.553018 
L 326.27588 294.308235 
L 327.385104 291.126017 
L 328.494327 293.329088 
L 329.603529 293.818675 
L 330.712753 292.594731 
L 331.821966 291.615591 
L 332.931178 297.123257 
L 334.040391 296.021718 
L 335.149615 298.59199 
L 336.258828 296.266515 
L 337.36804 289.167744 
L 338.477264 289.657304 
L 339.586477 287.454247 
L 340.6957 292.472346 
L 341.804902 299.081544 
L 342.914115 300.550271 
L 345.132551 285.251176 
L 346.241775 291.493199 
L 347.350977 293.206689 
L 348.4602 288.066198 
L 349.569413 291.982772 
L 350.678637 292.472332 
L 351.787861 289.534912 
L 352.897073 292.105171 
L 354.006297 298.3472 
L 355.115488 300.060691 
L 356.224712 287.209457 
L 357.333935 284.639211 
L 358.443148 295.899333 
L 359.55235 295.287375 
L 360.661573 291.615584 
L 361.770786 292.227556 
L 362.88001 286.842275 
L 363.989234 291.860374 
L 365.098457 299.938306 
L 366.20767 294.185829 
L 367.316872 294.308235 
L 368.426096 292.105171 
L 369.535308 289.534919 
L 370.644532 292.227556 
L 371.753745 291.248416 
L 372.862968 292.472346 
L 373.97217 294.308228 
L 375.081383 284.883995 
L 376.190596 286.352701 
L 377.299819 299.448732 
L 378.409043 291.737976 
L 379.518267 289.167744 
L 380.627469 294.308228 
L 381.736692 291.982786 
L 382.845905 293.818661 
L 383.955118 297.735228 
L 385.064341 299.081557 
L 386.173543 301.896586 
L 387.282767 299.203949 
L 388.39198 288.922947 
L 389.501192 283.904834 
L 390.610416 288.311002 
L 391.71964 299.326334 
L 392.828842 300.183089 
L 393.938065 295.409773 
L 395.047278 299.571117 
L 396.156502 293.696269 
L 397.265714 290.636444 
L 398.374927 299.326327 
L 399.48414 298.714375 
L 400.593353 299.8159 
L 401.702565 303.120509 
L 402.811789 297.857627 
L 403.921002 295.776941 
L 405.030203 293.206703 
L 407.248651 271.298404 
L 409.467076 280.967434 
L 410.5763 272.032754 
L 411.685502 272.399922 
L 412.794704 260.283045 
L 413.903927 242.780867 
L 415.013173 241.434565 
L 416.122375 236.171689 
L 417.231576 227.236996 
L 418.340822 219.28149 
L 419.450024 214.018587 
L 420.559226 220.382994 
L 421.668449 222.341302 
L 422.777673 222.953267 
L 423.886875 221.239756 
L 424.996099 215.609699 
L 426.1053 226.257862 
L 427.214524 229.195303 
L 428.323748 224.66675 
L 429.432949 220.872588 
L 430.542195 228.583311 
L 431.651397 239.965838 
L 432.760621 245.840706 
L 433.869822 247.799 
L 434.979046 239.10909 
L 436.08827 238.129956 
L 437.197449 249.2677 
L 438.306673 251.837945 
L 439.415897 248.04377 
L 439.415897 248.04377 
" style="fill:none;stroke:#ff0000;stroke-linecap:square;"/>
   </g>
   <g id="line2d_20">
    <path clip-path="url(#p24719fd712)" d="M 182.447536 311.245747 
L 183.187012 317.084809 
L 184.29623 315.138459 
L 185.405446 302.000582 
L 186.514659 304.920106 
L 187.623874 310.759174 
L 188.733095 313.192103 
L 189.842311 312.705516 
L 190.951523 308.812811 
L 192.060742 310.272573 
L 193.169954 301.513988 
L 194.279172 303.946931 
L 195.388391 314.651872 
L 196.497605 306.379874 
L 198.716036 295.188326 
L 199.825254 304.433512 
L 200.934469 315.138459 
L 202.043685 307.353042 
L 203.1529 311.245761 
L 204.262116 311.245754 
L 205.371334 314.165278 
L 206.48055 313.678691 
L 207.589766 300.540807 
L 208.698981 304.920113 
L 209.808197 310.75916 
L 210.917414 306.379868 
L 212.026629 303.946931 
L 213.135845 304.433519 
L 214.245061 298.10787 
L 215.354277 300.540807 
L 216.463493 300.540807 
L 217.572709 298.594451 
L 218.681925 305.893274 
L 219.791141 302.000582 
L 220.900358 292.755403 
L 222.009574 286.429748 
L 224.228005 296.648102 
L 225.337222 301.027401 
L 226.446438 304.433512 
L 227.555653 299.081045 
L 228.664869 295.674934 
L 229.774087 298.10787 
L 230.883301 288.376104 
L 231.992518 270.372334 
L 233.101735 264.046699 
L 234.210949 259.667413 
L 235.320166 257.72105 
L 236.429381 265.019873 
L 237.538598 270.37232 
L 238.647815 265.993048 
L 239.75703 250.908815 
L 240.866247 242.636804 
L 241.975463 252.368563 
L 243.084678 256.261288 
L 244.193894 259.667413 
L 245.303109 266.966209 
L 246.412325 261.613749 
L 247.521543 254.801527 
L 248.630758 259.667413 
L 249.739974 257.72105 
L 250.849192 255.2881 
L 251.958407 269.885746 
L 253.067623 272.318696 
L 255.286054 253.828325 
L 256.395269 257.234463 
L 257.504485 265.506447 
L 259.722918 275.23822 
L 260.832134 267.452796 
L 261.941352 258.694211 
L 263.050568 258.694211 
L 264.15978 256.261288 
L 265.268999 251.881989 
L 266.378211 247.016103 
L 267.48743 243.609992 
L 268.596648 253.828325 
L 269.705861 254.801513 
L 270.815079 259.180812 
L 271.924297 265.993048 
L 273.03351 260.153987 
L 274.142728 255.2881 
L 275.251946 265.019873 
L 276.361159 271.832095 
L 277.470377 250.908801 
L 278.579595 250.908828 
L 279.688808 260.153987 
L 280.798026 262.100323 
L 281.907245 273.291871 
L 283.016457 267.939397 
L 284.125681 269.885746 
L 285.234894 271.345508 
L 286.344106 263.560098 
L 287.453325 267.452823 
L 288.562532 267.939397 
L 289.671756 256.261275 
L 290.780968 251.881989 
L 291.890192 261.613749 
L 292.999399 264.533286 
L 294.108617 264.533272 
L 295.21783 266.479622 
L 296.327048 270.37232 
L 297.436267 266.479635 
L 298.545479 263.073524 
L 299.654703 269.399159 
L 300.763916 268.912572 
L 301.873129 273.778458 
L 304.091565 252.855164 
L 305.200789 274.265032 
L 306.309996 281.077281 
L 307.419214 277.671143 
L 308.528421 275.238207 
L 309.637645 277.671156 
L 310.746863 273.778458 
L 311.856071 264.046685 
L 312.965294 269.399145 
L 314.074507 267.939397 
L 315.183731 271.345508 
L 316.292932 268.425984 
L 317.402156 267.939397 
L 318.511369 265.993048 
L 319.620593 266.479635 
L 320.729794 272.318683 
L 321.839018 267.939397 
L 322.948231 264.046699 
L 324.057455 256.747862 
L 325.166667 265.019873 
L 326.27588 277.184583 
L 327.385104 280.59068 
L 329.603529 269.399159 
L 330.712753 271.345508 
L 331.821966 265.019887 
L 332.931178 263.073497 
L 334.040391 273.778458 
L 335.149615 273.778445 
L 336.258828 266.966222 
L 337.36804 262.586937 
L 338.477264 264.533286 
L 339.586477 266.966222 
L 340.6957 264.533272 
L 341.804902 258.207638 
L 342.914115 257.23445 
L 344.023339 262.100336 
L 345.132551 261.613762 
L 346.241775 260.640561 
L 347.350977 265.019873 
L 348.4602 266.966222 
L 349.569413 255.288114 
L 350.678637 251.881989 
L 351.787861 265.993048 
L 352.897073 265.506447 
L 354.006297 256.747876 
L 355.115488 263.560098 
L 356.224712 267.452823 
L 357.333935 266.966209 
L 358.443148 271.832109 
L 359.55235 272.318696 
L 360.661573 263.560098 
L 361.770786 265.506447 
L 362.88001 264.533272 
L 363.989234 256.261275 
L 365.098457 259.180812 
L 366.20767 253.828338 
L 367.316872 250.422214 
L 368.426096 262.586923 
L 369.535308 266.479635 
L 370.644532 270.858934 
L 371.753745 271.832095 
L 372.862968 265.506461 
L 373.97217 257.234463 
L 375.081383 246.529515 
L 376.190596 255.2881 
L 377.299819 261.613749 
L 378.409043 259.180812 
L 379.518267 250.422214 
L 380.627469 248.475878 
L 381.736692 261.127161 
L 382.845905 262.100336 
L 383.955118 254.801513 
L 385.064341 253.828325 
L 386.173543 253.341778 
L 387.282767 254.314926 
L 388.39198 267.452823 
L 389.501192 264.533272 
L 390.610416 254.801513 
L 391.71964 251.395388 
L 392.828842 255.774701 
L 393.938065 257.72105 
L 395.047278 252.85515 
L 396.156502 252.368577 
L 397.265714 250.422214 
L 398.374927 257.23445 
L 399.48414 249.449053 
L 400.593353 255.774701 
L 401.702565 266.479635 
L 402.811789 249.449053 
L 403.921002 242.636804 
L 405.030203 249.449053 
L 406.139449 242.150216 
L 407.248651 244.096566 
L 408.357853 255.774688 
L 409.467076 240.203854 
L 410.5763 219.767174 
L 411.685502 205.169501 
L 412.794704 193.491392 
L 413.903927 186.192542 
L 415.013173 182.786458 
L 416.122375 190.085281 
L 417.231576 187.165744 
L 418.340822 163.8095 
L 419.450024 161.37655 
L 420.559226 175.974209 
L 421.668449 176.460796 
L 423.886875 167.215624 
L 424.996099 173.054685 
L 426.1053 172.568125 
L 427.214524 171.108322 
L 428.323748 177.920572 
L 429.432949 182.299871 
L 430.542195 183.759619 
L 431.651397 177.920572 
L 432.760621 171.108322 
L 433.869822 173.541286 
L 434.979046 194.951154 
L 436.08827 205.169487 
L 437.197449 189.59868 
L 438.306673 183.273059 
L 439.415897 190.571855 
L 439.415897 190.571855 
" style="fill:none;stroke:#000000;stroke-linecap:square;stroke-opacity:0.3;"/>
   </g>
   <g id="line2d_21">
    <path clip-path="url(#p24719fd712)" d="M 218.866794 341.759622 
L 218.866794 97.645606 
" style="fill:none;stroke:#1f77b4;stroke-linecap:square;"/>
   </g>
   <g id="line2d_22">
    <path clip-path="url(#p24719fd712)" d="M 182.447536 299.532311 
L 183.187012 299.302458 
L 184.29623 299.992029 
L 185.405446 295.70131 
L 186.514659 297.846673 
L 187.623874 302.903592 
L 188.733095 300.911473 
L 189.842311 301.217955 
L 190.951523 297.386954 
L 192.060742 295.241598 
L 193.169954 301.141333 
L 194.279172 299.225836 
L 195.388391 296.850614 
L 196.497605 298.689495 
L 197.60682 304.282742 
L 198.716036 300.221895 
L 199.825254 294.322161 
L 200.934469 296.850627 
L 202.043685 300.758236 
L 203.1529 302.82697 
L 204.262116 301.371192 
L 205.371334 298.919355 
L 206.48055 298.383021 
L 207.589766 299.915414 
L 208.698981 296.237658 
L 209.808197 296.697383 
L 210.917414 299.149214 
L 212.026629 295.011739 
L 213.135845 292.483286 
L 214.245061 297.003865 
L 215.354277 303.823023 
L 216.463493 303.976267 
L 217.572709 300.375139 
L 218.681925 299.302458 
L 219.791141 295.70133 
L 220.900358 283.059046 
L 222.009574 277.08269 
L 223.11879 285.051165 
L 224.228005 288.422433 
L 225.337222 285.970596 
L 228.664869 264.440425 
L 229.774087 254.403229 
L 230.883301 249.116451 
L 231.992518 248.809963 
L 233.101735 246.6646 
L 235.320166 260.379573 
L 236.429381 258.00435 
L 237.538598 251.185185 
L 238.647815 247.047703 
L 239.75703 250.035875 
L 240.866247 248.503488 
L 241.975463 246.511369 
L 243.084678 248.197014 
L 244.193894 249.576183 
L 245.303109 249.729387 
L 246.412325 253.943497 
L 247.521543 256.242104 
L 248.630758 250.955326 
L 249.739974 250.802082 
L 251.958407 257.008284 
L 253.067623 263.827449 
L 254.176836 262.754768 
L 255.286054 255.322653 
L 256.395269 254.479845 
L 257.504485 259.230262 
L 258.613706 262.141819 
L 259.722918 263.904091 
L 260.832134 261.911946 
L 261.941352 259.306878 
L 263.050568 259.996469 
L 264.15978 260.073084 
L 265.268999 259.689981 
L 266.378211 259.000416 
L 267.48743 259.689981 
L 268.596648 261.605485 
L 269.705861 259.843225 
L 270.815079 266.049441 
L 271.924297 267.505226 
L 273.03351 260.073098 
L 274.142728 256.931682 
L 275.251946 260.609432 
L 276.361159 267.888316 
L 277.470377 263.444359 
L 278.579595 256.548579 
L 279.688808 254.633075 
L 280.798026 256.778438 
L 281.907245 266.049441 
L 283.016457 269.497331 
L 284.125681 264.21058 
L 285.234894 262.065203 
L 286.344106 263.904065 
L 288.562532 259.306891 
L 289.671756 263.367758 
L 290.780968 265.819582 
L 291.890192 264.823529 
L 292.999399 265.130004 
L 294.108617 265.053388 
L 295.21783 261.222395 
L 296.327048 261.758729 
L 297.436267 264.287181 
L 298.545479 265.666338 
L 299.654703 271.259577 
L 300.763916 264.133964 
L 301.873129 263.980707 
L 302.982352 265.513107 
L 304.091565 262.295049 
L 305.200789 264.670285 
L 306.309996 262.984641 
L 307.419214 266.202698 
L 308.528421 263.2145 
L 309.637645 264.593656 
L 310.746863 267.045494 
L 311.856071 258.617313 
L 312.965294 258.540698 
L 314.074507 264.670285 
L 315.183731 261.145766 
L 316.292932 262.678166 
L 317.402156 270.263538 
L 318.511369 269.344087 
L 319.620593 264.057336 
L 320.729794 256.625194 
L 321.839018 254.096728 
L 322.948231 262.371678 
L 324.057455 267.122109 
L 325.166667 262.524908 
L 326.27588 261.758715 
L 327.385104 262.06519 
L 328.494327 258.617313 
L 329.603529 256.471964 
L 330.712753 256.31872 
L 331.821966 265.206619 
L 332.931178 268.19479 
L 334.040391 266.2793 
L 335.149615 261.298996 
L 336.258828 259.996456 
L 337.36804 263.904091 
L 338.477264 258.00435 
L 339.586477 257.927721 
L 340.6957 259.613366 
L 341.804902 255.705757 
L 342.914115 255.092808 
L 344.023339 259.53675 
L 345.132551 262.754768 
L 346.241775 259.383506 
L 347.350977 253.790267 
L 348.4602 253.024073 
L 349.569413 258.310825 
L 350.678637 265.74298 
L 351.787861 263.904091 
L 352.897073 260.226328 
L 354.006297 255.246038 
L 355.115488 253.253906 
L 356.224712 255.475897 
L 357.333935 256.012245 
L 358.443148 256.242118 
L 359.55235 250.878724 
L 360.661573 249.039822 
L 361.770786 248.350244 
L 363.989234 253.790253 
L 366.20767 250.418992 
L 367.316872 256.08886 
L 368.426096 255.092808 
L 369.535308 249.193093 
L 370.644532 245.055598 
L 371.753745 249.422926 
L 372.862968 258.770557 
L 373.97217 245.515317 
L 375.081383 244.978969 
L 376.190596 253.100689 
L 377.299819 250.572236 
L 378.409043 244.136161 
L 379.518267 244.212789 
L 380.627469 249.039822 
L 381.736692 240.151936 
L 382.845905 243.599827 
L 383.955118 251.951392 
L 385.064341 253.866882 
L 386.173543 251.951392 
L 387.282767 244.74911 
L 388.39198 239.768833 
L 389.501192 245.362073 
L 390.610416 247.507436 
L 391.71964 240.228552 
L 392.828842 243.523198 
L 393.938065 248.886578 
L 395.047278 249.422926 
L 396.156502 245.285444 
L 397.265714 244.672495 
L 398.374927 242.144055 
L 399.48414 233.792477 
L 400.593353 240.764872 
L 401.702565 242.833606 
L 402.811789 237.010534 
L 403.921002 238.083189 
L 406.139449 207.128792 
L 407.248651 209.810476 
L 408.357853 206.515802 
L 409.467076 204.140607 
L 410.5763 201.229051 
L 413.903927 172.726451 
L 415.013173 161.999664 
L 416.122375 146.522459 
L 417.231576 149.893747 
L 418.340822 157.785621 
L 419.450024 151.196275 
L 420.559226 154.184419 
L 421.668449 158.168711 
L 422.777673 154.644192 
L 423.886875 162.076293 
L 424.996099 165.447554 
L 426.1053 166.137132 
L 427.214524 162.382781 
L 428.323748 159.394609 
L 429.432949 168.282522 
L 430.542195 168.818816 
L 431.651397 170.734319 
L 432.760621 177.859972 
L 434.979046 167.516315 
L 436.08827 176.327599 
L 437.197449 187.743965 
L 438.306673 177.6301 
L 439.415897 171.730412 
L 439.415897 171.730412 
" style="fill:none;stroke:#000000;stroke-linecap:square;"/>
   </g>
   <g id="line2d_23">
    <path clip-path="url(#p24719fd712)" d="M 182.447536 313.882773 
L 183.187012 310.615508 
L 184.29623 309.52642 
L 185.405446 312.430656 
L 186.514659 312.430662 
L 187.623874 305.170073 
L 188.733095 299.361595 
L 189.842311 306.259168 
L 190.951523 304.807043 
L 192.060742 302.628867 
L 193.169954 312.793692 
L 194.279172 309.163404 
L 195.388391 314.608832 
L 196.497605 313.88278 
L 197.60682 299.361608 
L 198.716036 300.813719 
L 199.825254 297.909483 
L 200.934469 306.259155 
L 202.043685 302.265837 
L 203.1529 292.101005 
L 204.262116 291.737996 
L 205.371334 286.29254 
L 206.48055 300.450696 
L 207.589766 309.163397 
L 208.698981 312.067619 
L 209.808197 311.341574 
L 210.917414 300.087653 
L 212.026629 300.450683 
L 213.135845 297.909483 
L 214.245061 298.998572 
L 215.354277 305.170073 
L 216.463493 297.546447 
L 217.572709 296.457372 
L 218.681925 293.916166 
L 219.791141 294.279182 
L 220.900358 298.635549 
L 222.009574 302.265844 
L 223.11879 300.813726 
L 224.228005 290.285871 
L 225.337222 295.368277 
L 226.446438 303.354925 
L 227.555653 301.176749 
L 228.664869 300.813719 
L 229.774087 305.17008 
L 230.883301 302.62886 
L 231.992518 296.094343 
L 233.101735 294.642218 
L 234.210949 286.292547 
L 235.320166 288.83376 
L 236.429381 299.361608 
L 237.538598 295.005254 
L 238.647815 292.101012 
L 239.75703 298.635542 
L 240.866247 296.457365 
L 241.975463 300.08766 
L 243.084678 298.998572 
L 244.193894 292.464041 
L 245.303109 296.09435 
L 247.521543 305.533102 
L 248.630758 291.011923 
L 249.739974 289.196783 
L 250.849192 302.628867 
L 251.958407 303.354925 
L 253.067623 288.107701 
L 254.176836 279.758023 
L 255.286054 289.922835 
L 256.395269 293.916173 
L 257.504485 290.285871 
L 258.613706 291.01193 
L 259.722918 284.840422 
L 260.832134 283.388304 
L 261.941352 300.450696 
L 263.050568 299.361595 
L 264.15978 289.922855 
L 265.268999 296.094343 
L 266.378211 297.183431 
L 267.48743 286.29254 
L 269.705861 299.724637 
L 270.815079 298.272506 
L 271.924297 300.813719 
L 273.03351 294.642218 
L 274.142728 300.08766 
L 276.361159 287.381642 
L 277.470377 290.285858 
L 278.579595 291.01193 
L 279.688808 292.827071 
L 280.798026 284.840422 
L 281.907245 292.464041 
L 283.016457 296.094343 
L 284.125681 289.559806 
L 285.234894 296.457365 
L 286.344106 300.813726 
L 287.453325 291.737982 
L 288.562532 289.922842 
L 289.671756 292.101019 
L 290.780968 297.183438 
L 291.890192 305.896132 
L 294.108617 292.101019 
L 295.21783 293.916159 
L 296.327048 293.190107 
L 297.436267 296.457372 
L 298.545479 304.807043 
L 299.654703 302.265837 
L 300.763916 294.279195 
L 301.873129 288.833747 
L 302.982352 297.546454 
L 304.091565 310.615522 
L 305.200789 304.807043 
L 306.309996 295.368284 
L 307.419214 298.998565 
L 308.528421 303.717955 
L 309.637645 306.259148 
L 310.746863 307.711279 
L 311.856071 305.17008 
L 312.965294 300.08766 
L 314.074507 301.176749 
L 315.183731 295.368277 
L 316.292932 291.011917 
L 317.402156 296.820408 
L 318.511369 299.361608 
L 319.620593 301.176749 
L 320.729794 296.094329 
L 322.948231 305.896125 
L 324.057455 298.998572 
L 325.166667 298.998565 
L 326.27588 305.170073 
L 327.385104 298.635549 
L 328.494327 296.457379 
L 329.603529 303.354932 
L 330.712753 305.170073 
L 331.821966 310.615508 
L 332.931178 306.985213 
L 334.040391 297.546454 
L 335.149615 297.546461 
L 337.36804 305.896125 
L 338.477264 308.437331 
L 339.586477 304.444014 
L 340.6957 302.265837 
L 341.804902 299.724631 
L 342.914115 290.648894 
L 344.023339 295.731307 
L 345.132551 301.539785 
L 346.241775 300.813719 
L 348.4602 288.107694 
L 349.569413 302.265837 
L 350.678637 312.067633 
L 352.897073 303.717955 
L 354.006297 301.176749 
L 355.115488 300.450696 
L 356.224712 293.1901 
L 357.333935 301.539785 
L 358.443148 317.513068 
L 359.55235 315.334885 
L 360.661573 305.170073 
L 361.770786 299.724637 
L 362.88001 303.354925 
L 363.989234 303.717955 
L 365.098457 300.813726 
L 366.20767 297.546461 
L 368.426096 312.430656 
L 369.535308 304.080984 
L 370.644532 297.546454 
L 371.753745 307.711279 
L 372.862968 311.704597 
L 373.97217 305.170073 
L 375.081383 297.183431 
L 376.190596 298.635549 
L 377.299819 302.991903 
L 378.409043 300.08766 
L 380.627469 309.16339 
L 381.736692 298.998579 
L 382.845905 283.388304 
L 383.955118 295.731307 
L 385.064341 294.642218 
L 386.173543 288.470717 
L 387.282767 289.196783 
L 388.39198 279.031964 
L 389.501192 278.668935 
L 390.610416 276.853787 
L 391.71964 287.018606 
L 392.828842 298.998572 
L 393.938065 300.087653 
L 395.047278 300.813719 
L 396.156502 303.717955 
L 397.265714 304.807037 
L 398.374927 309.16339 
L 399.48414 316.06095 
L 400.593353 300.450703 
L 401.702565 287.381629 
L 402.811789 291.737989 
L 403.921002 287.018606 
L 405.030203 285.929524 
L 406.139449 279.394994 
L 407.248651 262.332609 
L 408.357853 278.305892 
L 409.467076 299.361608 
L 410.5763 306.985213 
L 411.685502 300.08766 
L 413.903927 252.167783 
L 415.013173 241.276926 
L 416.122375 232.564205 
L 417.231576 213.686659 
L 418.340822 205.700038 
L 419.450024 203.521861 
L 420.559226 204.973979 
L 421.668449 210.419421 
L 422.777673 214.412732 
L 423.886875 217.679997 
L 424.996099 223.125452 
L 426.1053 214.412732 
L 427.214524 216.227879 
L 428.323748 231.112087 
L 429.432949 227.118763 
L 430.542195 230.386042 
L 431.651397 245.996282 
L 432.760621 253.619901 
L 433.869822 245.633253 
L 434.979046 249.989606 
L 436.08827 253.256872 
L 437.197449 245.633253 
L 438.306673 259.791402 
L 439.415897 262.332609 
L 439.415897 262.332609 
" style="fill:none;stroke:#0000ff;stroke-linecap:square;stroke-opacity:0.3;"/>
   </g>
   <g id="line2d_24">
    <path clip-path="url(#p24719fd712)" d="M 218.866794 341.759622 
L 218.866794 97.645606 
" style="fill:none;stroke:#1f77b4;stroke-linecap:square;"/>
   </g>
   <g id="line2d_25">
    <path clip-path="url(#p24719fd712)" d="M 182.447536 298.27835 
L 183.187012 293.818661 
L 184.29623 297.464952 
L 185.405446 299.372225 
L 186.514659 300.101485 
L 187.623874 303.523383 
L 188.733095 297.128359 
L 189.842311 297.521035 
L 190.951523 300.101485 
L 192.060742 300.662464 
L 193.169954 305.262387 
L 194.279172 300.942939 
L 195.388391 294.379632 
L 196.497605 297.352745 
L 197.60682 296.511291 
L 198.716036 296.847884 
L 199.825254 302.120965 
L 200.934469 299.035653 
L 202.043685 298.586888 
L 203.1529 300.550264 
L 204.262116 298.194206 
L 205.371334 297.745427 
L 206.48055 301.784386 
L 207.589766 301.279518 
L 208.698981 295.613748 
L 209.808197 296.286919 
L 210.917414 298.979563 
L 212.026629 298.025916 
L 213.135845 297.96982 
L 214.245061 298.586874 
L 215.354277 297.577138 
L 216.463493 297.689344 
L 217.572709 300.045396 
L 218.681925 305.767256 
L 219.791141 308.011121 
L 220.900358 297.352745 
L 222.009574 294.604012 
L 223.11879 300.999029 
L 224.228005 297.408848 
L 225.337222 294.26744 
L 226.446438 297.521041 
L 227.555653 297.80153 
L 228.664869 303.63559 
L 229.774087 306.159931 
L 230.883301 297.857634 
L 231.992518 297.184449 
L 233.101735 302.233165 
L 234.210949 302.345351 
L 235.320166 297.296662 
L 236.429381 298.138109 
L 237.538598 302.681943 
L 238.647815 303.186811 
L 239.75703 299.82101 
L 240.866247 297.80153 
L 241.975463 301.111229 
L 243.084678 303.130708 
L 244.193894 300.942939 
L 245.303109 296.062526 
L 246.412325 293.201593 
L 247.521543 297.296662 
L 248.630758 300.045396 
L 249.739974 301.559994 
L 250.849192 299.877106 
L 251.958407 295.445472 
L 253.067623 300.550264 
L 254.176836 304.533133 
L 255.286054 300.77465 
L 256.395269 299.933196 
L 257.504485 298.474688 
L 258.613706 299.316142 
L 259.722918 300.325871 
L 260.832134 297.85762 
L 261.941352 299.091749 
L 263.050568 299.260038 
L 264.15978 294.716205 
L 265.268999 299.035653 
L 266.378211 302.906316 
L 267.48743 300.77465 
L 268.596648 301.055132 
L 270.815079 301.055132 
L 273.03351 295.557658 
L 274.142728 298.530771 
L 275.251946 300.101485 
L 276.361159 298.025916 
L 278.579595 302.794129 
L 279.688808 301.111229 
L 280.798026 296.735684 
L 281.907245 297.969806 
L 283.016457 301.7844 
L 284.125681 301.335608 
L 285.234894 301.111229 
L 286.344106 302.681943 
L 287.453325 296.00643 
L 288.562532 292.865014 
L 289.671756 297.521041 
L 290.780968 300.325878 
L 291.890192 303.972155 
L 292.999399 302.906322 
L 294.108617 299.877106 
L 295.21783 302.738033 
L 296.327048 302.62584 
L 297.436267 297.521055 
L 298.545479 295.782051 
L 299.654703 297.464938 
L 300.763916 298.418585 
L 301.873129 298.755164 
L 302.982352 298.92346 
L 304.091565 298.138109 
L 305.200789 299.035646 
L 306.309996 299.540521 
L 307.419214 299.428335 
L 308.528421 296.174719 
L 309.637645 298.81126 
L 310.746863 303.130708 
L 311.856071 303.467287 
L 312.965294 301.447807 
L 314.074507 292.079671 
L 315.183731 293.033304 
L 316.292932 300.77465 
L 318.511369 301.223422 
L 319.620593 302.681943 
L 320.729794 301.167318 
L 321.839018 301.279518 
L 322.948231 302.177068 
L 324.057455 300.886836 
L 325.166667 302.457557 
L 326.27588 302.289254 
L 327.385104 300.494167 
L 328.494327 295.557658 
L 329.603529 297.240559 
L 330.712753 299.428328 
L 331.821966 297.464938 
L 332.931178 299.989299 
L 334.040391 298.699074 
L 335.149615 301.7844 
L 336.258828 308.011128 
L 337.36804 305.935545 
L 338.477264 299.260038 
L 339.586477 296.84787 
L 340.6957 297.577138 
L 341.804902 297.913723 
L 342.914115 300.213685 
L 344.023339 304.925802 
L 345.132551 304.140445 
L 346.241775 301.784386 
L 347.350977 302.62584 
L 348.4602 302.794129 
L 349.569413 300.494167 
L 350.678637 300.157589 
L 351.787861 298.755164 
L 352.897073 296.679594 
L 355.115488 295.052783 
L 356.224712 295.894237 
L 357.333935 297.745427 
L 358.443148 302.906322 
L 359.55235 301.728296 
L 360.661573 302.233165 
L 361.770786 302.345351 
L 362.88001 297.01616 
L 363.989234 294.884494 
L 365.098457 296.174713 
L 366.20767 299.989293 
L 367.316872 298.867363 
L 368.426096 295.445472 
L 369.535308 297.521055 
L 370.644532 299.035666 
L 371.753745 299.035653 
L 372.862968 301.279505 
L 373.97217 302.738033 
L 375.081383 302.289254 
L 376.190596 297.913717 
L 377.299819 300.550264 
L 378.409043 303.803866 
L 379.518267 300.438064 
L 380.627469 298.250295 
L 381.736692 297.85762 
L 382.845905 298.306399 
L 383.955118 297.521035 
L 385.064341 296.455208 
L 386.173543 298.81126 
L 387.282767 300.213685 
L 388.39198 296.623498 
L 389.501192 301.279518 
L 390.610416 304.757512 
L 391.71964 300.999029 
L 392.828842 301.223422 
L 395.047278 296.735684 
L 396.156502 300.269775 
L 397.265714 298.306399 
L 398.374927 294.323523 
L 399.48414 296.679594 
L 400.593353 299.596624 
L 401.702565 303.130708 
L 402.811789 304.140445 
L 403.921002 301.167332 
L 405.030203 292.30405 
L 406.139449 278.840864 
L 407.248651 270.314147 
L 408.357853 274.801878 
L 409.467076 283.66516 
L 410.5763 280.804227 
L 411.685502 265.041053 
L 413.903927 240.639009 
L 415.013173 230.709908 
L 416.122375 224.931958 
L 417.231576 215.002803 
L 418.340822 209.505363 
L 419.450024 209.729735 
L 420.559226 205.859065 
L 421.668449 204.512764 
L 422.777673 208.495626 
L 423.886875 205.242004 
L 424.996099 208.719999 
L 426.1053 209.393156 
L 427.214524 209.39317 
L 428.323748 219.097872 
L 429.432949 215.956483 
L 430.542195 221.285647 
L 431.651397 228.858711 
L 432.760621 228.353856 
L 433.869822 235.758603 
L 434.979046 241.929241 
L 436.08827 244.677968 
L 437.197449 241.592662 
L 438.306673 230.205026 
L 439.415897 236.487871 
L 439.415897 236.487871 
" style="fill:none;stroke:#0000ff;stroke-linecap:square;"/>
   </g>
   <g id="line2d_26">
    <path clip-path="url(#p24719fd712)" d="M 182.447536 305.100481 
L 183.187012 296.579474 
L 184.29623 300.839974 
L 185.405446 309.360988 
L 186.514659 313.621496 
L 187.623874 295.159294 
L 188.733095 271.016439 
L 189.842311 295.159294 
L 190.951523 305.100481 
L 192.060742 295.159307 
L 193.169954 310.781162 
L 194.279172 320.72235 
L 195.388391 322.14251 
L 196.497605 322.14251 
L 197.60682 297.999634 
L 198.716036 279.537453 
L 199.825254 295.159294 
L 200.934469 300.839974 
L 202.043685 300.839981 
L 203.1529 312.201329 
L 204.262116 312.201329 
L 205.371334 303.680315 
L 206.48055 299.419814 
L 207.589766 305.100495 
L 208.698981 303.680301 
L 209.808197 299.419801 
L 210.917414 306.520648 
L 212.026629 307.940808 
L 213.135845 315.041662 
L 214.245061 309.360988 
L 215.354277 299.419801 
L 216.463493 313.621489 
L 218.681925 299.419801 
L 219.791141 305.100495 
L 220.900358 309.361002 
L 222.009574 303.680315 
L 223.11879 295.159294 
L 224.228005 306.520655 
L 225.337222 305.100475 
L 226.446438 297.999641 
L 227.555653 309.360988 
L 228.664869 305.100481 
L 229.774087 283.797939 
L 230.883301 280.957606 
L 231.992518 299.419801 
L 233.101735 313.621496 
L 234.210949 307.940822 
L 235.320166 309.360988 
L 236.429381 306.520655 
L 237.538598 296.579467 
L 238.647815 297.999634 
L 239.75703 309.360982 
L 240.866247 299.419801 
L 241.975463 292.31896 
L 243.084678 310.781162 
L 244.193894 307.940822 
L 245.303109 300.839968 
L 246.412325 302.260141 
L 247.521543 313.621489 
L 248.630758 302.260148 
L 249.739974 275.276925 
L 250.849192 282.377773 
L 251.958407 299.419801 
L 253.067623 305.100481 
L 254.176836 296.579467 
L 255.286054 280.957606 
L 256.395269 268.176105 
L 257.504485 278.117272 
L 259.722918 307.940822 
L 260.832134 303.680315 
L 261.941352 288.05846 
L 263.050568 286.63828 
L 265.268999 269.596258 
L 266.378211 276.697106 
L 267.48743 286.63828 
L 268.596648 293.739134 
L 269.705861 292.318967 
L 270.815079 272.436592 
L 271.924297 261.075244 
L 273.03351 256.81473 
L 274.142728 249.713897 
L 275.251946 252.554217 
L 276.361159 268.176092 
L 277.470377 272.436592 
L 278.579595 275.276925 
L 279.688808 290.898787 
L 280.798026 295.159294 
L 281.907245 289.478627 
L 283.016457 288.05846 
L 284.125681 282.377773 
L 285.234894 261.075258 
L 286.344106 271.016425 
L 287.453325 282.377773 
L 288.562532 262.495424 
L 289.671756 262.495424 
L 290.780968 278.117272 
L 291.890192 278.117272 
L 292.999399 266.755911 
L 294.108617 292.31896 
L 295.21783 309.360982 
L 296.327048 272.436592 
L 297.436267 263.915578 
L 298.545479 278.117272 
L 299.654703 278.117272 
L 300.763916 290.898787 
L 301.873129 289.47862 
L 302.982352 280.957606 
L 304.091565 293.739147 
L 305.200789 280.957606 
L 306.309996 289.47862 
L 307.419214 313.621496 
L 308.528421 305.100481 
L 310.746863 296.579467 
L 311.856071 285.21812 
L 312.965294 289.478627 
L 314.074507 306.520655 
L 315.183731 285.21812 
L 316.292932 280.957606 
L 317.402156 307.940822 
L 318.511369 299.419801 
L 319.620593 283.797953 
L 320.729794 285.218106 
L 321.839018 283.797939 
L 322.948231 290.898787 
L 324.057455 289.478627 
L 325.166667 283.797953 
L 326.27588 286.63828 
L 327.385104 288.058453 
L 328.494327 307.940828 
L 329.603529 317.882016 
L 330.712753 310.781162 
L 331.821966 302.260148 
L 332.931178 288.05846 
L 334.040391 283.797953 
L 335.149615 282.377773 
L 336.258828 279.537453 
L 337.36804 288.058453 
L 338.477264 310.781162 
L 340.6957 296.579467 
L 341.804902 302.260148 
L 342.914115 276.697092 
L 344.023339 290.898787 
L 345.132551 324.982857 
L 346.241775 305.100495 
L 347.350977 296.579461 
L 348.4602 292.318954 
L 349.569413 282.377786 
L 350.678637 305.100475 
L 351.787861 316.461836 
L 352.897073 302.260141 
L 354.006297 292.318967 
L 355.115488 292.31896 
L 356.224712 273.856772 
L 357.333935 280.957606 
L 358.443148 307.940808 
L 359.55235 330.66353 
L 360.661573 330.66353 
L 361.770786 310.781162 
L 362.88001 299.419801 
L 363.989234 280.957606 
L 365.098457 290.8988 
L 366.20767 283.797953 
L 367.316872 299.419801 
L 368.426096 323.562676 
L 369.535308 293.739134 
L 370.644532 290.898787 
L 371.753745 317.882016 
L 372.862968 322.14251 
L 373.97217 300.839974 
L 375.081383 288.058453 
L 376.190596 295.159294 
L 377.299819 303.680315 
L 378.409043 296.579474 
L 379.518267 297.999641 
L 380.627469 306.520662 
L 381.736692 303.680301 
L 382.845905 290.898787 
L 383.955118 285.218133 
L 385.064341 303.680321 
L 386.173543 310.781162 
L 387.282767 295.159307 
L 388.39198 288.058453 
L 389.501192 293.739134 
L 390.610416 288.058453 
L 391.71964 295.159294 
L 393.938065 280.957606 
L 395.047278 293.739134 
L 396.156502 272.436605 
L 397.265714 279.537453 
L 398.374927 307.940822 
L 399.48414 302.260148 
L 400.593353 295.159294 
L 401.702565 293.739134 
L 402.811789 296.579474 
L 403.921002 309.360988 
L 405.030203 306.520655 
L 407.248651 248.29373 
L 408.357853 255.394564 
L 409.467076 261.075258 
L 410.5763 252.554244 
L 411.685502 218.47016 
L 412.794704 180.125617 
L 413.903927 167.344103 
L 415.013173 141.781047 
L 416.122375 147.461714 
L 417.231576 157.402908 
L 418.340822 144.62138 
L 419.450024 154.562575 
L 420.559226 141.781074 
L 421.668449 121.898685 
L 422.777673 131.83988 
L 423.886875 113.377658 
L 424.996099 131.839853 
L 426.1053 167.344103 
L 427.214524 134.680213 
L 428.323748 144.62138 
L 429.432949 157.402908 
L 430.542195 134.680213 
L 431.651397 150.302074 
L 432.760621 191.486951 
L 433.869822 205.688659 
L 434.979046 175.865103 
L 436.08827 167.344076 
L 437.197449 202.848312 
L 438.306673 204.268479 
L 439.415897 171.60463 
L 439.415897 171.60463 
" style="fill:none;stroke:#008000;stroke-linecap:square;stroke-opacity:0.3;"/>
   </g>
   <g id="line2d_27">
    <path clip-path="url(#p24719fd712)" d="M 218.866794 341.759622 
L 218.866794 97.645606 
" style="fill:none;stroke:#1f77b4;stroke-linecap:square;"/>
   </g>
   <g id="line2d_28">
    <path clip-path="url(#p24719fd712)" d="M 182.447536 276.463755 
L 183.187012 290.747363 
L 184.29623 303.411197 
L 185.405446 302.527674 
L 186.514659 304.000203 
L 187.623874 297.815544 
L 188.733095 295.754009 
L 189.842311 298.99357 
L 190.951523 290.747369 
L 192.060742 301.938655 
L 193.169954 298.699067 
L 194.279172 298.404564 
L 195.388391 309.595849 
L 196.497605 293.103428 
L 197.60682 286.918769 
L 198.716036 292.219905 
L 199.825254 296.637525 
L 200.934469 303.116687 
L 202.043685 300.466113 
L 203.1529 299.582597 
L 204.262116 289.863853 
L 205.371334 295.164983 
L 206.48055 302.527661 
L 207.589766 292.808918 
L 208.698981 293.692447 
L 209.808197 290.452873 
L 210.917414 292.219919 
L 212.026629 297.226545 
L 213.135845 300.760616 
L 215.354277 305.472746 
L 216.463493 301.055125 
L 217.572709 299.58259 
L 218.681925 306.061765 
L 220.900358 289.863853 
L 222.009574 292.514415 
L 223.11879 298.699074 
L 224.228005 294.57597 
L 225.337222 292.219912 
L 226.446438 296.343016 
L 227.555653 293.397938 
L 228.664869 303.411197 
L 229.774087 305.178243 
L 230.883301 297.226538 
L 231.992518 305.767256 
L 233.101735 309.301346 
L 235.320166 301.938655 
L 236.429381 299.8771 
L 237.538598 297.226538 
L 238.647815 292.514415 
L 239.75703 296.343016 
L 240.866247 296.048512 
L 241.975463 294.281454 
L 243.084678 297.815551 
L 244.193894 295.164983 
L 245.303109 295.459486 
L 246.412325 291.925395 
L 247.521543 297.815558 
L 248.630758 300.466119 
L 249.739974 296.343016 
L 250.849192 298.993584 
L 251.958407 291.630892 
L 253.067623 301.644152 
L 254.176836 305.178243 
L 255.286054 293.98695 
L 256.395269 303.411197 
L 257.504485 307.828804 
L 258.613706 306.945288 
L 259.722918 301.349642 
L 260.832134 297.815544 
L 261.941352 297.815558 
L 263.050568 287.802292 
L 264.15978 295.164983 
L 265.268999 306.061765 
L 266.378211 300.760629 
L 267.48743 301.644145 
L 268.596648 300.466119 
L 269.705861 295.459486 
L 270.815079 297.815558 
L 271.924297 305.472746 
L 273.03351 305.767262 
L 274.142728 290.15835 
L 275.251946 294.870473 
L 276.361159 306.356268 
L 277.470377 295.754009 
L 278.579595 287.213272 
L 279.688808 292.808931 
L 280.798026 294.575963 
L 281.907245 287.213279 
L 283.016457 298.699067 
L 284.125681 306.061752 
L 285.234894 297.226538 
L 286.344106 306.061779 
L 287.453325 304.589223 
L 288.562532 289.274834 
L 289.671756 295.753996 
L 290.780968 309.890359 
L 291.890192 299.582597 
L 292.999399 290.45286 
L 294.108617 297.815551 
L 295.21783 307.534294 
L 296.327048 313.71896 
L 298.545479 296.932022 
L 299.654703 292.808911 
L 300.763916 290.747376 
L 302.982352 299.877106 
L 304.091565 298.110047 
L 305.200789 298.993584 
L 306.309996 294.281467 
L 307.419214 297.815558 
L 308.528421 309.006843 
L 309.637645 298.993584 
L 310.746863 283.973698 
L 311.856071 291.925395 
L 312.965294 303.411197 
L 314.074507 295.753989 
L 315.183731 292.514408 
L 316.292932 294.281467 
L 317.402156 288.391304 
L 318.511369 298.993577 
L 319.620593 312.246418 
L 320.729794 311.068385 
L 321.839018 311.068399 
L 324.057455 292.514415 
L 325.166667 303.411197 
L 326.27588 308.417824 
L 327.385104 299.582597 
L 328.494327 301.938655 
L 329.603529 291.041879 
L 330.712753 286.624266 
L 331.821966 304.29472 
L 332.931178 309.890359 
L 334.040391 304.589223 
L 335.149615 294.87048 
L 336.258828 290.45286 
L 337.36804 288.685821 
L 338.477264 289.569337 
L 339.586477 298.110061 
L 340.6957 303.7057 
L 341.804902 297.521041 
L 342.914115 285.151737 
L 344.023339 286.329756 
L 345.132551 295.459493 
L 346.241775 302.822178 
L 347.350977 299.8771 
L 348.4602 303.116681 
L 349.569413 309.006837 
L 350.678637 298.993584 
L 351.787861 299.58259 
L 352.897073 303.41119 
L 354.006297 298.404571 
L 355.115488 287.507788 
L 356.224712 283.384691 
L 357.333935 292.219905 
L 358.443148 293.103428 
L 359.55235 292.808925 
L 360.661573 302.822178 
L 361.770786 311.068392 
L 362.88001 303.7057 
L 363.989234 294.870487 
L 365.098457 290.45286 
L 366.20767 296.932035 
L 367.316872 300.760622 
L 368.426096 289.863853 
L 369.535308 292.219905 
L 370.644532 300.171609 
L 371.753745 298.699074 
L 372.862968 299.8771 
L 373.97217 308.123321 
L 376.190596 291.041873 
L 377.299819 296.343016 
L 378.409043 297.521048 
L 379.518267 294.575963 
L 380.627469 289.863847 
L 382.845905 303.7057 
L 383.955118 301.349635 
L 385.064341 305.767262 
L 386.173543 302.527668 
L 387.282767 289.863853 
L 388.39198 286.624266 
L 389.501192 293.103428 
L 390.610416 296.048512 
L 391.71964 299.877106 
L 392.828842 300.466119 
L 393.938065 301.349642 
L 395.047278 300.466119 
L 396.156502 290.158343 
L 397.265714 287.507782 
L 398.374927 301.938655 
L 399.48414 305.178243 
L 400.593353 298.993584 
L 401.702565 301.644159 
L 402.811789 291.925395 
L 403.921002 289.27482 
L 405.030203 287.507788 
L 406.139449 263.358159 
L 407.248651 249.810815 
L 408.357853 248.927292 
L 409.467076 249.221809 
L 410.5763 260.413087 
L 411.685502 250.988827 
L 413.903927 185.019141 
L 415.013173 142.61005 
L 416.122375 108.741698 
L 417.231576 127.001158 
L 418.340822 128.473687 
L 419.450024 112.864822 
L 420.559226 122.583545 
L 421.668449 136.425418 
L 422.777673 143.199084 
L 423.886875 144.377096 
L 424.996099 142.904567 
L 426.1053 144.082606 
L 427.214524 163.814623 
L 428.323748 165.287151 
L 429.432949 145.849652 
L 430.542195 152.623317 
L 431.651397 141.726555 
L 432.760621 159.691499 
L 433.869822 184.724638 
L 434.979046 180.307037 
L 436.08827 189.436768 
L 437.197449 174.416882 
L 438.306673 172.649836 
L 439.415897 174.416882 
L 439.415897 174.416882 
" style="fill:none;stroke:#008000;stroke-linecap:square;"/>
   </g>
   <g id="line2d_29">
    <path clip-path="url(#p24719fd712)" d="M 403.736124 341.759622 
L 403.736124 97.645606 
" style="fill:none;stroke:#1f77b4;stroke-linecap:square;"/>
   </g>
   <g id="patch_3">
    <path d="M 169.599118 341.759622 
L 169.599118 97.645606 
" style="fill:none;stroke:#000000;stroke-linecap:square;stroke-linejoin:miter;stroke-width:0.8;"/>
   </g>
   <g id="patch_4">
    <path d="M 452.264315 341.759622 
L 452.264315 97.645606 
" style="fill:none;stroke:#000000;stroke-linecap:square;stroke-linejoin:miter;stroke-width:0.8;"/>
   </g>
   <g id="patch_5">
    <path d="M 169.599118 341.759622 
L 452.264315 341.759622 
" style="fill:none;stroke:#000000;stroke-linecap:square;stroke-linejoin:miter;stroke-width:0.8;"/>
   </g>
   <g id="patch_6">
    <path d="M 169.599118 97.645606 
L 452.264315 97.645606 
" style="fill:none;stroke:#000000;stroke-linecap:square;stroke-linejoin:miter;stroke-width:0.8;"/>
   </g>
  </g>
 </g>
 <defs>
  <clipPath id="p24719fd712">
   <rect height="244.114016" width="282.665197" x="169.599118" y="97.645606"/>
  </clipPath>
 </defs>
</svg>
