<?xml version="1.0" encoding="utf-8" standalone="no"?>
<!DOCTYPE svg PUBLIC "-//W3C//DTD SVG 1.1//EN"
  "http://www.w3.org/Graphics/SVG/1.1/DTD/svg11.dtd">
<svg height="488.228031pt" version="1.1" viewBox="0 0 565.330394 488.228031" width="565.330394pt" xmlns="http://www.w3.org/2000/svg" xmlns:xlink="http://www.w3.org/1999/xlink">
 <metadata>
  <rdf:RDF xmlns:cc="http://creativecommons.org/ns#" xmlns:dc="http://purl.org/dc/elements/1.1/" xmlns:rdf="http://www.w3.org/1999/02/22-rdf-syntax-ns#">
   <cc:Work>
    <dc:type rdf:resource="http://purl.org/dc/dcmitype/StillImage"/>
    <dc:date>2023-10-10T14:14:38.344422</dc:date>
    <dc:format>image/svg+xml</dc:format>
    <dc:creator>
     <cc:Agent>
      <dc:title>Matplotlib v3.4.2, https://matplotlib.org/</dc:title>
     </cc:Agent>
    </dc:creator>
   </cc:Work>
  </rdf:RDF>
 </metadata>
 <defs>
  <style type="text/css">*{stroke-linecap:butt;stroke-linejoin:round;}</style>
 </defs>
 <g id="figure_1">
  <g id="patch_1">
   <path d="M 0 488.228031 
L 565.330394 488.228031 
L 565.330394 0 
L 0 0 
z
" style="fill:#ffffff;"/>
  </g>
  <g id="axes_1">
   <g id="patch_2">
    <path d="M 169.599118 341.759622 
L 452.264315 341.759622 
L 452.264315 97.645606 
L 169.599118 97.645606 
z
" style="fill:#ffffff;"/>
   </g>
   <g id="matplotlib.axis_1">
    <g id="xtick_1">
     <g id="line2d_1">
      <defs>
       <path d="M 0 0 
L 0 3.5 
" id="mc7b34faaba" style="stroke:#000000;stroke-width:0.8;"/>
      </defs>
      <g>
       <use style="stroke:#000000;stroke-width:0.8;" x="181.892928" xlink:href="#mc7b34faaba" y="341.759622"/>
      </g>
     </g>
     <g id="text_1">
      <!-- −0.2 -->
      <g transform="translate(175.97074 353.05431)scale(0.06 -0.06)">
       <defs>
        <path d="M 266 1850 
L 266 2672 
L 3469 2672 
L 3469 1850 
L 266 1850 
z
" id="Arial-BoldMT-2212" transform="scale(0.015625)"/>
        <path d="M 1756 4600 
Q 2422 4600 2797 4125 
Q 3244 3563 3244 2259 
Q 3244 959 2794 391 
Q 2422 -78 1756 -78 
Q 1088 -78 678 436 
Q 269 950 269 2269 
Q 269 3563 719 4131 
Q 1091 4600 1756 4600 
z
M 1756 3872 
Q 1597 3872 1472 3770 
Q 1347 3669 1278 3406 
Q 1188 3066 1188 2259 
Q 1188 1453 1269 1151 
Q 1350 850 1473 750 
Q 1597 650 1756 650 
Q 1916 650 2041 751 
Q 2166 853 2234 1116 
Q 2325 1453 2325 2259 
Q 2325 3066 2244 3367 
Q 2163 3669 2039 3770 
Q 1916 3872 1756 3872 
z
" id="Arial-BoldMT-30" transform="scale(0.015625)"/>
        <path d="M 459 0 
L 459 878 
L 1338 878 
L 1338 0 
L 459 0 
z
" id="Arial-BoldMT-2e" transform="scale(0.015625)"/>
        <path d="M 3238 816 
L 3238 0 
L 159 0 
Q 209 463 459 877 
Q 709 1291 1447 1975 
Q 2041 2528 2175 2725 
Q 2356 2997 2356 3263 
Q 2356 3556 2198 3714 
Q 2041 3872 1763 3872 
Q 1488 3872 1325 3706 
Q 1163 3541 1138 3156 
L 263 3244 
Q 341 3969 753 4284 
Q 1166 4600 1784 4600 
Q 2463 4600 2850 4234 
Q 3238 3869 3238 3325 
Q 3238 3016 3127 2736 
Q 3016 2456 2775 2150 
Q 2616 1947 2200 1565 
Q 1784 1184 1673 1059 
Q 1563 934 1494 816 
L 3238 816 
z
" id="Arial-BoldMT-32" transform="scale(0.015625)"/>
       </defs>
       <use xlink:href="#Arial-BoldMT-2212"/>
       <use x="58.398438" xlink:href="#Arial-BoldMT-30"/>
       <use x="114.013672" xlink:href="#Arial-BoldMT-2e"/>
       <use x="141.796875" xlink:href="#Arial-BoldMT-32"/>
      </g>
     </g>
    </g>
    <g id="xtick_2">
     <g id="line2d_2">
      <g>
       <use style="stroke:#000000;stroke-width:0.8;" x="218.866794" xlink:href="#mc7b34faaba" y="341.759622"/>
      </g>
     </g>
     <g id="text_2">
      <!-- 0.0 -->
      <g transform="translate(214.696794 353.05431)scale(0.06 -0.06)">
       <use xlink:href="#Arial-BoldMT-30"/>
       <use x="55.615234" xlink:href="#Arial-BoldMT-2e"/>
       <use x="83.398438" xlink:href="#Arial-BoldMT-30"/>
      </g>
     </g>
    </g>
    <g id="xtick_3">
     <g id="line2d_3">
      <g>
       <use style="stroke:#000000;stroke-width:0.8;" x="255.84066" xlink:href="#mc7b34faaba" y="341.759622"/>
      </g>
     </g>
     <g id="text_3">
      <!-- 0.2 -->
      <g transform="translate(251.67066 353.05431)scale(0.06 -0.06)">
       <use xlink:href="#Arial-BoldMT-30"/>
       <use x="55.615234" xlink:href="#Arial-BoldMT-2e"/>
       <use x="83.398438" xlink:href="#Arial-BoldMT-32"/>
      </g>
     </g>
    </g>
    <g id="xtick_4">
     <g id="line2d_4">
      <g>
       <use style="stroke:#000000;stroke-width:0.8;" x="292.814526" xlink:href="#mc7b34faaba" y="341.759622"/>
      </g>
     </g>
     <g id="text_4">
      <!-- 0.4 -->
      <g transform="translate(288.644526 353.05431)scale(0.06 -0.06)">
       <defs>
        <path d="M 1994 0 
L 1994 922 
L 119 922 
L 119 1691 
L 2106 4600 
L 2844 4600 
L 2844 1694 
L 3413 1694 
L 3413 922 
L 2844 922 
L 2844 0 
L 1994 0 
z
M 1994 1694 
L 1994 3259 
L 941 1694 
L 1994 1694 
z
" id="Arial-BoldMT-34" transform="scale(0.015625)"/>
       </defs>
       <use xlink:href="#Arial-BoldMT-30"/>
       <use x="55.615234" xlink:href="#Arial-BoldMT-2e"/>
       <use x="83.398438" xlink:href="#Arial-BoldMT-34"/>
      </g>
     </g>
    </g>
    <g id="xtick_5">
     <g id="line2d_5">
      <g>
       <use style="stroke:#000000;stroke-width:0.8;" x="329.788392" xlink:href="#mc7b34faaba" y="341.759622"/>
      </g>
     </g>
     <g id="text_5">
      <!-- 0.6 -->
      <g transform="translate(325.618392 353.05431)scale(0.06 -0.06)">
       <defs>
        <path d="M 3247 3459 
L 2397 3366 
Q 2366 3628 2234 3753 
Q 2103 3878 1894 3878 
Q 1616 3878 1423 3628 
Q 1231 3378 1181 2588 
Q 1509 2975 1997 2975 
Q 2547 2975 2939 2556 
Q 3331 2138 3331 1475 
Q 3331 772 2918 347 
Q 2506 -78 1859 -78 
Q 1166 -78 719 461 
Q 272 1000 272 2228 
Q 272 3488 737 4044 
Q 1203 4600 1947 4600 
Q 2469 4600 2811 4308 
Q 3153 4016 3247 3459 
z
M 1256 1544 
Q 1256 1116 1453 883 
Q 1650 650 1903 650 
Q 2147 650 2309 840 
Q 2472 1031 2472 1466 
Q 2472 1913 2297 2120 
Q 2122 2328 1859 2328 
Q 1606 2328 1431 2129 
Q 1256 1931 1256 1544 
z
" id="Arial-BoldMT-36" transform="scale(0.015625)"/>
       </defs>
       <use xlink:href="#Arial-BoldMT-30"/>
       <use x="55.615234" xlink:href="#Arial-BoldMT-2e"/>
       <use x="83.398438" xlink:href="#Arial-BoldMT-36"/>
      </g>
     </g>
    </g>
    <g id="xtick_6">
     <g id="line2d_6">
      <g>
       <use style="stroke:#000000;stroke-width:0.8;" x="366.762258" xlink:href="#mc7b34faaba" y="341.759622"/>
      </g>
     </g>
     <g id="text_6">
      <!-- 0.8 -->
      <g transform="translate(362.592258 353.05431)scale(0.06 -0.06)">
       <defs>
        <path d="M 1025 2472 
Q 684 2616 529 2867 
Q 375 3119 375 3419 
Q 375 3931 733 4265 
Q 1091 4600 1750 4600 
Q 2403 4600 2764 4265 
Q 3125 3931 3125 3419 
Q 3125 3100 2959 2851 
Q 2794 2603 2494 2472 
Q 2875 2319 3073 2025 
Q 3272 1731 3272 1347 
Q 3272 713 2867 316 
Q 2463 -81 1791 -81 
Q 1166 -81 750 247 
Q 259 634 259 1309 
Q 259 1681 443 1992 
Q 628 2303 1025 2472 
z
M 1206 3356 
Q 1206 3094 1354 2947 
Q 1503 2800 1750 2800 
Q 2000 2800 2150 2948 
Q 2300 3097 2300 3359 
Q 2300 3606 2151 3754 
Q 2003 3903 1759 3903 
Q 1506 3903 1356 3753 
Q 1206 3603 1206 3356 
z
M 1125 1394 
Q 1125 1031 1311 828 
Q 1497 625 1775 625 
Q 2047 625 2225 820 
Q 2403 1016 2403 1384 
Q 2403 1706 2222 1901 
Q 2041 2097 1763 2097 
Q 1441 2097 1283 1875 
Q 1125 1653 1125 1394 
z
" id="Arial-BoldMT-38" transform="scale(0.015625)"/>
       </defs>
       <use xlink:href="#Arial-BoldMT-30"/>
       <use x="55.615234" xlink:href="#Arial-BoldMT-2e"/>
       <use x="83.398438" xlink:href="#Arial-BoldMT-38"/>
      </g>
     </g>
    </g>
    <g id="xtick_7">
     <g id="line2d_7">
      <g>
       <use style="stroke:#000000;stroke-width:0.8;" x="403.736124" xlink:href="#mc7b34faaba" y="341.759622"/>
      </g>
     </g>
     <g id="text_7">
      <!-- 1.0 -->
      <g transform="translate(399.566124 353.05431)scale(0.06 -0.06)">
       <defs>
        <path d="M 2519 0 
L 1641 0 
L 1641 3309 
Q 1159 2859 506 2644 
L 506 3441 
Q 850 3553 1253 3867 
Q 1656 4181 1806 4600 
L 2519 4600 
L 2519 0 
z
" id="Arial-BoldMT-31" transform="scale(0.015625)"/>
       </defs>
       <use xlink:href="#Arial-BoldMT-31"/>
       <use x="55.615234" xlink:href="#Arial-BoldMT-2e"/>
       <use x="83.398438" xlink:href="#Arial-BoldMT-30"/>
      </g>
     </g>
    </g>
    <g id="xtick_8">
     <g id="line2d_8">
      <g>
       <use style="stroke:#000000;stroke-width:0.8;" x="440.70999" xlink:href="#mc7b34faaba" y="341.759622"/>
      </g>
     </g>
     <g id="text_8">
      <!-- 1.2 -->
      <g transform="translate(436.53999 353.05431)scale(0.06 -0.06)">
       <use xlink:href="#Arial-BoldMT-31"/>
       <use x="55.615234" xlink:href="#Arial-BoldMT-2e"/>
       <use x="83.398438" xlink:href="#Arial-BoldMT-32"/>
      </g>
     </g>
    </g>
   </g>
   <g id="matplotlib.axis_2">
    <g id="ytick_1">
     <g id="line2d_9">
      <defs>
       <path d="M 0 0 
L -3.5 0 
" id="m1c9e6a4fb4" style="stroke:#000000;stroke-width:0.8;"/>
      </defs>
      <g>
       <use style="stroke:#000000;stroke-width:0.8;" x="169.599118" xlink:href="#m1c9e6a4fb4" y="323.050084"/>
      </g>
     </g>
     <g id="text_9">
      <!-- 1 -->
      <g transform="translate(159.262556 325.197428)scale(0.06 -0.06)">
       <use xlink:href="#Arial-BoldMT-31"/>
      </g>
     </g>
    </g>
    <g id="ytick_2">
     <g id="line2d_10">
      <g>
       <use style="stroke:#000000;stroke-width:0.8;" x="169.599118" xlink:href="#m1c9e6a4fb4" y="294.672696"/>
      </g>
     </g>
     <g id="text_10">
      <!-- 2 -->
      <g transform="translate(159.262556 296.82004)scale(0.06 -0.06)">
       <use xlink:href="#Arial-BoldMT-32"/>
      </g>
     </g>
    </g>
    <g id="ytick_3">
     <g id="line2d_11">
      <g>
       <use style="stroke:#000000;stroke-width:0.8;" x="169.599118" xlink:href="#m1c9e6a4fb4" y="266.295309"/>
      </g>
     </g>
     <g id="text_11">
      <!-- 3 -->
      <g transform="translate(159.262556 268.442653)scale(0.06 -0.06)">
       <defs>
        <path d="M 241 1216 
L 1091 1319 
Q 1131 994 1309 822 
Q 1488 650 1741 650 
Q 2013 650 2198 856 
Q 2384 1063 2384 1413 
Q 2384 1744 2206 1937 
Q 2028 2131 1772 2131 
Q 1603 2131 1369 2066 
L 1466 2781 
Q 1822 2772 2009 2936 
Q 2197 3100 2197 3372 
Q 2197 3603 2059 3740 
Q 1922 3878 1694 3878 
Q 1469 3878 1309 3722 
Q 1150 3566 1116 3266 
L 306 3403 
Q 391 3819 561 4067 
Q 731 4316 1036 4458 
Q 1341 4600 1719 4600 
Q 2366 4600 2756 4188 
Q 3078 3850 3078 3425 
Q 3078 2822 2419 2463 
Q 2813 2378 3048 2084 
Q 3284 1791 3284 1375 
Q 3284 772 2843 347 
Q 2403 -78 1747 -78 
Q 1125 -78 715 280 
Q 306 638 241 1216 
z
" id="Arial-BoldMT-33" transform="scale(0.015625)"/>
       </defs>
       <use xlink:href="#Arial-BoldMT-33"/>
      </g>
     </g>
    </g>
    <g id="ytick_4">
     <g id="line2d_12">
      <g>
       <use style="stroke:#000000;stroke-width:0.8;" x="169.599118" xlink:href="#m1c9e6a4fb4" y="237.917921"/>
      </g>
     </g>
     <g id="text_12">
      <!-- 4 -->
      <g transform="translate(159.262556 240.065265)scale(0.06 -0.06)">
       <use xlink:href="#Arial-BoldMT-34"/>
      </g>
     </g>
    </g>
    <g id="ytick_5">
     <g id="line2d_13">
      <g>
       <use style="stroke:#000000;stroke-width:0.8;" x="169.599118" xlink:href="#m1c9e6a4fb4" y="209.540534"/>
      </g>
     </g>
     <g id="text_13">
      <!-- 5 -->
      <g transform="translate(159.262556 211.687878)scale(0.06 -0.06)">
       <defs>
        <path d="M 284 1178 
L 1159 1269 
Q 1197 972 1381 798 
Q 1566 625 1806 625 
Q 2081 625 2272 848 
Q 2463 1072 2463 1522 
Q 2463 1944 2273 2155 
Q 2084 2366 1781 2366 
Q 1403 2366 1103 2031 
L 391 2134 
L 841 4519 
L 3163 4519 
L 3163 3697 
L 1506 3697 
L 1369 2919 
Q 1663 3066 1969 3066 
Q 2553 3066 2959 2641 
Q 3366 2216 3366 1538 
Q 3366 972 3038 528 
Q 2591 -78 1797 -78 
Q 1163 -78 763 262 
Q 363 603 284 1178 
z
" id="Arial-BoldMT-35" transform="scale(0.015625)"/>
       </defs>
       <use xlink:href="#Arial-BoldMT-35"/>
      </g>
     </g>
    </g>
    <g id="ytick_6">
     <g id="line2d_14">
      <g>
       <use style="stroke:#000000;stroke-width:0.8;" x="169.599118" xlink:href="#m1c9e6a4fb4" y="181.163146"/>
      </g>
     </g>
     <g id="text_14">
      <!-- 6 -->
      <g transform="translate(159.262556 183.31049)scale(0.06 -0.06)">
       <use xlink:href="#Arial-BoldMT-36"/>
      </g>
     </g>
    </g>
    <g id="ytick_7">
     <g id="line2d_15">
      <g>
       <use style="stroke:#000000;stroke-width:0.8;" x="169.599118" xlink:href="#m1c9e6a4fb4" y="152.785759"/>
      </g>
     </g>
     <g id="text_15">
      <!-- 7 -->
      <g transform="translate(159.262556 154.933103)scale(0.06 -0.06)">
       <defs>
        <path d="M 272 3703 
L 272 4519 
L 3275 4519 
L 3275 3881 
Q 2903 3516 2518 2831 
Q 2134 2147 1932 1376 
Q 1731 606 1734 0 
L 888 0 
Q 909 950 1279 1937 
Q 1650 2925 2269 3703 
L 272 3703 
z
" id="Arial-BoldMT-37" transform="scale(0.015625)"/>
       </defs>
       <use xlink:href="#Arial-BoldMT-37"/>
      </g>
     </g>
    </g>
    <g id="ytick_8">
     <g id="line2d_16">
      <g>
       <use style="stroke:#000000;stroke-width:0.8;" x="169.599118" xlink:href="#m1c9e6a4fb4" y="124.408372"/>
      </g>
     </g>
     <g id="text_16">
      <!-- 8 -->
      <g transform="translate(159.262556 126.555715)scale(0.06 -0.06)">
       <use xlink:href="#Arial-BoldMT-38"/>
      </g>
     </g>
    </g>
   </g>
   <g id="line2d_17">
    <path clip-path="url(#pd08b455220)" d="M 182.447536 265.203143 
L 183.187012 267.598267 
L 184.29623 254.025908 
L 185.405446 255.622653 
L 186.514659 274.783626 
L 187.623874 284.364109 
L 188.733095 281.170606 
L 189.842311 270.791757 
L 190.951523 274.783619 
L 192.060742 277.977123 
L 193.169954 268.396633 
L 194.279172 263.606391 
L 195.388391 271.590123 
L 196.497605 266.001515 
L 197.60682 250.832432 
L 198.716036 257.219405 
L 199.825254 265.203143 
L 200.934469 265.203143 
L 202.043685 272.388502 
L 203.1529 264.404764 
L 204.262116 252.429163 
L 205.371334 257.219405 
L 206.48055 260.412894 
L 207.589766 253.227542 
L 208.698981 257.219405 
L 209.808197 262.009646 
L 210.917414 246.04219 
L 212.026629 246.042176 
L 213.135845 250.832418 
L 214.245061 239.65519 
L 215.354277 246.840549 
L 216.463493 245.243811 
L 217.572709 242.848687 
L 218.681925 249.23568 
L 219.791141 254.82428 
L 220.900358 252.42917 
L 222.009574 213.308864 
L 223.11879 201.333284 
L 224.228005 198.938146 
L 225.337222 200.534891 
L 226.446438 228.477962 
L 227.555653 238.856817 
L 228.664869 234.066589 
L 229.774087 245.243797 
L 230.883301 251.630797 
L 231.992518 248.437301 
L 233.101735 250.832418 
L 234.210949 260.412901 
L 235.320166 265.203143 
L 236.429381 251.63079 
L 237.538598 251.63079 
L 238.647815 254.82428 
L 239.75703 248.437301 
L 240.866247 258.81615 
L 241.975463 259.614529 
L 243.084678 263.606405 
L 244.193894 263.606391 
L 245.303109 260.412901 
L 246.412325 269.195005 
L 247.521543 269.195012 
L 248.630758 261.211274 
L 249.739974 262.009646 
L 250.849192 266.799895 
L 251.958407 253.227542 
L 253.067623 254.025908 
L 254.176836 264.404764 
L 255.286054 271.590136 
L 256.395269 262.009646 
L 257.504485 258.01777 
L 258.613706 258.017784 
L 259.722918 254.025921 
L 260.832134 271.590136 
L 261.941352 284.364102 
L 263.050568 266.001522 
L 264.15978 260.412901 
L 265.268999 274.783626 
L 266.378211 275.581985 
L 267.48743 269.195005 
L 268.596648 264.40477 
L 269.705861 266.799895 
L 270.815079 281.170613 
L 271.924297 279.573861 
L 273.03351 279.573861 
L 274.142728 283.565737 
L 275.251946 280.372233 
L 276.361159 286.75922 
L 278.579595 258.81615 
L 279.688808 260.412894 
L 280.798026 251.63079 
L 281.907245 255.62266 
L 283.016457 263.606391 
L 284.125681 266.001515 
L 285.234894 280.372227 
L 286.344106 264.404764 
L 287.453325 261.211274 
L 288.562532 266.001515 
L 289.671756 254.824294 
L 290.780968 269.993378 
L 291.890192 270.791757 
L 292.999399 258.017784 
L 294.108617 255.622673 
L 295.21783 267.598267 
L 296.327048 269.993378 
L 297.436267 262.808025 
L 298.545479 271.590123 
L 299.654703 273.186881 
L 300.763916 259.614529 
L 301.873129 256.421032 
L 304.091565 264.404764 
L 305.200789 273.186881 
L 306.309996 270.791757 
L 307.419214 272.388495 
L 308.528421 277.977116 
L 309.637645 267.598267 
L 310.746863 277.178743 
L 311.856071 282.767364 
L 312.965294 277.178743 
L 314.074507 288.355972 
L 315.183731 283.56573 
L 316.292932 272.388502 
L 317.402156 271.590123 
L 318.511369 266.799881 
L 319.620593 258.017784 
L 320.729794 258.017784 
L 321.839018 262.808025 
L 324.057455 266.001515 
L 325.166667 257.219411 
L 326.27588 253.227542 
L 327.385104 258.81615 
L 328.494327 267.598267 
L 329.603529 268.396633 
L 330.712753 266.001515 
L 331.821966 273.985247 
L 332.931178 276.380364 
L 334.040391 270.791757 
L 335.149615 266.001522 
L 336.258828 273.186874 
L 337.36804 267.598267 
L 338.477264 259.614529 
L 339.586477 271.590136 
L 340.6957 275.581998 
L 341.804902 264.404764 
L 342.914115 263.606391 
L 344.023339 276.380364 
L 345.132551 276.380364 
L 346.241775 275.581998 
L 347.350977 283.565737 
L 348.4602 281.968985 
L 351.787861 269.993378 
L 352.897073 270.791743 
L 354.006297 266.799895 
L 355.115488 268.396646 
L 356.224712 273.985254 
L 357.333935 285.960854 
L 358.443148 285.162475 
L 359.55235 273.985247 
L 360.661573 280.372233 
L 361.770786 285.960847 
L 362.88001 280.372233 
L 363.989234 276.380371 
L 365.098457 288.355972 
L 366.20767 281.170599 
L 367.316872 276.380371 
L 368.426096 285.162475 
L 369.535308 288.355972 
L 370.644532 289.952717 
L 371.753745 285.960854 
L 372.862968 273.985247 
L 373.97217 277.17875 
L 375.081383 282.767357 
L 376.190596 268.396633 
L 377.299819 258.81615 
L 378.409043 259.614522 
L 379.518267 266.001515 
L 380.627469 267.598267 
L 381.736692 264.40477 
L 382.845905 267.598267 
L 383.955118 262.808025 
L 385.064341 260.412901 
L 386.173543 269.195012 
L 387.282767 271.590123 
L 388.39198 279.573868 
L 390.610416 265.203136 
L 391.71964 276.380364 
L 392.828842 280.372233 
L 393.938065 285.960854 
L 395.047278 288.355972 
L 396.156502 285.162475 
L 397.265714 287.557599 
L 398.374927 285.960854 
L 400.593353 271.590136 
L 401.702565 284.364096 
L 402.811789 283.56573 
L 403.921002 273.985254 
L 405.030203 270.791757 
L 406.139449 198.139781 
L 407.248651 147.842254 
L 408.357853 195.744657 
L 409.467076 250.034052 
L 410.5763 276.380378 
L 411.685502 283.56573 
L 412.794704 269.195012 
L 413.903927 262.009653 
L 415.013173 273.985254 
L 416.122375 267.598267 
L 417.231576 260.412901 
L 418.340822 262.009653 
L 419.450024 253.227542 
L 420.559226 255.62266 
L 421.668449 259.614522 
L 422.777673 250.034039 
L 423.886875 251.63079 
L 424.996099 259.614522 
L 426.1053 242.8487 
L 427.214524 237.260066 
L 429.432949 245.243811 
L 430.542195 254.824294 
L 431.651397 244.445431 
L 432.760621 251.63079 
L 433.869822 266.001515 
L 434.979046 268.396633 
L 436.08827 273.186868 
L 437.197449 275.581998 
L 438.306673 271.590123 
L 439.415897 258.816163 
L 439.415897 258.816163 
" style="fill:none;stroke:#ff0000;stroke-linecap:square;stroke-opacity:0.3;"/>
   </g>
   <g id="line2d_18">
    <path clip-path="url(#pd08b455220)" d="M 218.866794 341.759622 
L 218.866794 97.645606 
" style="fill:none;stroke:#1f77b4;stroke-linecap:square;"/>
   </g>
   <g id="line2d_19">
    <path clip-path="url(#pd08b455220)" d="M 182.447536 286.564875 
L 183.187012 286.68772 
L 184.29623 290.1274 
L 185.405446 295.409772 
L 186.514659 289.513176 
L 188.733095 294.918396 
L 189.842311 285.827807 
L 190.951523 290.373096 
L 192.060742 298.358076 
L 193.169954 293.198553 
L 194.279172 290.373103 
L 195.388391 293.935628 
L 196.497605 291.478713 
L 197.60682 293.075708 
L 198.716036 292.338633 
L 199.825254 287.547647 
L 200.934469 292.707174 
L 202.043685 290.495941 
L 203.1529 290.987327 
L 204.262116 297.129615 
L 205.371334 296.883926 
L 206.48055 294.058473 
L 207.589766 294.058479 
L 208.698981 290.741637 
L 209.808197 286.810571 
L 210.917414 290.618793 
L 212.026629 291.601557 
L 213.135845 290.495941 
L 214.245061 293.812783 
L 215.354277 291.233023 
L 216.463493 291.601557 
L 217.572709 290.250252 
L 218.681925 290.004555 
L 219.791141 283.370885 
L 220.900358 251.062431 
L 222.009574 226.247569 
L 223.11879 219.368209 
L 225.337222 227.598881 
L 226.446438 228.458815 
L 227.555653 232.144184 
L 229.774087 256.34481 
L 230.883301 259.5388 
L 231.992518 260.64441 
L 233.101735 262.241405 
L 234.210949 262.97848 
L 235.320166 263.101325 
L 236.429381 261.995709 
L 238.647815 274.894529 
L 239.75703 276.245835 
L 240.866247 271.086301 
L 241.975463 268.997934 
L 243.084678 274.771685 
L 244.193894 271.209153 
L 245.303109 271.700532 
L 246.412325 276.491518 
L 247.521543 274.648833 
L 248.630758 276.000139 
L 249.739974 278.94844 
L 250.849192 280.913969 
L 251.958407 278.334203 
L 253.067623 273.666068 
L 254.176836 280.545435 
L 255.286054 283.493729 
L 256.395269 280.299746 
L 257.504485 273.051838 
L 258.613706 267.400932 
L 260.832134 284.722197 
L 261.941352 281.773889 
L 263.050568 279.562664 
L 264.15978 282.142424 
L 265.268999 283.862264 
L 266.378211 279.685515 
L 267.48743 278.334223 
L 268.596648 282.879506 
L 269.705861 280.66828 
L 270.815079 282.265268 
L 271.924297 284.72219 
L 273.03351 281.159666 
L 274.142728 276.860059 
L 275.251946 280.176901 
L 276.361159 287.179106 
L 277.470377 282.879499 
L 278.579595 281.28251 
L 280.798026 276.000132 
L 281.907245 283.24804 
L 283.016457 285.582117 
L 284.125681 283.002344 
L 285.234894 281.528193 
L 286.344106 282.633809 
L 287.453325 282.879499 
L 288.562532 283.002344 
L 289.671756 281.896734 
L 290.780968 287.056261 
L 291.890192 287.793336 
L 292.999399 282.633809 
L 294.108617 279.316974 
L 295.21783 278.457061 
L 296.327048 285.213576 
L 297.436267 288.161877 
L 298.545479 286.44203 
L 299.654703 277.105755 
L 300.763916 279.071291 
L 301.873129 283.739419 
L 302.982352 280.66828 
L 304.091565 283.862264 
L 305.200789 285.090731 
L 306.309996 292.092936 
L 307.419214 290.741631 
L 308.528421 283.985115 
L 310.746863 280.299739 
L 311.856071 285.336421 
L 312.965294 288.039026 
L 314.074507 287.056261 
L 315.183731 287.301957 
L 316.292932 288.898946 
L 317.402156 288.16187 
L 319.620593 282.756661 
L 320.729794 283.00235 
L 321.839018 287.301957 
L 322.948231 286.933423 
L 324.057455 287.424802 
L 325.166667 290.250258 
L 326.27588 284.230805 
L 327.385104 284.476494 
L 328.494327 288.284715 
L 329.603529 290.250252 
L 330.712753 290.618793 
L 331.821966 285.213576 
L 332.931178 286.564875 
L 334.040391 288.161877 
L 335.149615 286.810571 
L 336.258828 287.670498 
L 337.36804 286.564882 
L 338.477264 292.215781 
L 339.586477 291.724409 
L 340.6957 286.44203 
L 341.804902 287.301957 
L 342.914115 287.056261 
L 344.023339 284.353656 
L 345.132551 285.950658 
L 346.241775 288.530412 
L 347.350977 285.459272 
L 348.4602 283.86227 
L 349.569413 286.196341 
L 350.678637 286.319192 
L 351.787861 284.107967 
L 352.897073 289.267487 
L 354.006297 290.987327 
L 355.115488 286.810571 
L 356.224712 287.547647 
L 357.333935 286.564875 
L 358.443148 287.424795 
L 359.55235 287.793336 
L 360.661573 280.545435 
L 361.770786 286.44203 
L 362.88001 296.761084 
L 363.989234 288.284722 
L 365.098457 282.879499 
L 366.20767 287.670485 
L 367.316872 289.144642 
L 368.426096 289.267487 
L 369.535308 285.459259 
L 370.644532 283.985122 
L 371.753745 287.793336 
L 372.862968 287.056261 
L 373.97217 287.916181 
L 376.190596 293.444249 
L 377.299819 289.390332 
L 378.409043 284.72219 
L 379.518267 289.513183 
L 380.627469 289.144642 
L 381.736692 290.004555 
L 382.845905 289.513176 
L 383.955118 285.704955 
L 385.064341 287.056261 
L 386.173543 284.599346 
L 387.282767 284.353656 
L 388.39198 288.039033 
L 389.501192 290.250252 
L 390.610416 291.970098 
L 391.71964 286.073496 
L 392.828842 281.896748 
L 393.938065 287.424795 
L 395.047278 291.233023 
L 396.156502 294.181317 
L 397.265714 292.952856 
L 398.374927 289.267487 
L 399.48414 291.724402 
L 400.593353 293.444249 
L 401.702565 290.127407 
L 402.811789 285.213583 
L 403.921002 286.810571 
L 405.030203 268.752231 
L 406.139449 209.294858 
L 407.248651 182.391608 
L 409.467076 265.312551 
L 410.5763 275.140212 
L 411.685502 267.032391 
L 413.903927 257.941805 
L 415.013173 257.081885 
L 416.122375 258.310339 
L 418.340822 244.305923 
L 419.450024 240.374843 
L 421.668449 247.377055 
L 422.777673 247.745596 
L 423.886875 248.359833 
L 424.996099 245.165836 
L 426.1053 251.553817 
L 427.214524 260.521558 
L 428.323748 255.976269 
L 429.432949 252.905123 
L 430.542195 256.09912 
L 431.651397 260.275876 
L 432.760621 262.241398 
L 433.869822 265.066861 
L 434.979046 265.189706 
L 436.08827 267.523777 
L 437.197449 267.646615 
L 438.306673 262.364243 
L 439.415897 265.80393 
L 439.415897 265.80393 
" style="fill:none;stroke:#ff0000;stroke-linecap:square;"/>
   </g>
   <g id="line2d_20">
    <path clip-path="url(#pd08b455220)" d="M 182.447536 300.848644 
L 183.187012 301.735989 
L 184.29623 299.517622 
L 185.405446 299.961292 
L 186.514659 304.398033 
L 187.623874 299.961292 
L 188.733095 298.186599 
L 189.842311 297.299245 
L 190.951523 292.418833 
L 192.060742 295.080884 
L 193.169954 298.630267 
L 194.279172 303.510688 
L 195.388391 302.179666 
L 196.497605 294.637204 
L 197.60682 294.637204 
L 198.716036 291.531492 
L 199.825254 286.207403 
L 200.934469 291.531492 
L 202.043685 299.517622 
L 203.1529 296.4119 
L 204.262116 297.742929 
L 205.371334 306.616403 
L 206.48055 306.616403 
L 207.589766 309.722125 
L 208.698981 312.38417 
L 209.808197 298.63027 
L 210.917414 299.961292 
L 212.026629 303.954359 
L 213.135845 294.63721 
L 214.245061 294.193536 
L 215.354277 297.299251 
L 216.463493 304.841704 
L 217.572709 306.172729 
L 218.681925 307.060081 
L 219.791141 302.623337 
L 220.900358 281.770662 
L 223.11879 219.656306 
L 224.228005 216.106926 
L 226.446438 227.198772 
L 227.555653 238.290617 
L 228.664869 238.290617 
L 229.774087 243.614692 
L 230.883301 244.945728 
L 231.992518 243.171031 
L 234.210949 253.375535 
L 235.320166 256.481247 
L 236.429381 252.48818 
L 237.538598 252.931861 
L 238.647815 251.157158 
L 239.75703 255.593905 
L 240.866247 258.25595 
L 241.975463 260.474313 
L 243.084678 259.586972 
L 244.193894 250.269817 
L 245.303109 257.812283 
L 246.412325 259.143305 
L 247.521543 247.164091 
L 248.630758 245.389402 
L 249.739974 257.812269 
L 250.849192 256.924928 
L 251.958407 252.48818 
L 253.067623 260.474313 
L 254.176836 264.46738 
L 255.286054 259.586972 
L 256.395269 251.600825 
L 257.504485 253.819202 
L 258.613706 257.812269 
L 259.722918 256.48126 
L 260.832134 252.044506 
L 261.941352 251.600839 
L 263.050568 257.368602 
L 264.15978 258.255936 
L 265.268999 262.24901 
L 266.378211 266.68575 
L 267.48743 268.904114 
L 268.596648 269.347795 
L 269.705861 262.692677 
L 271.924297 273.340868 
L 273.03351 264.023713 
L 274.142728 258.699624 
L 275.251946 262.24901 
L 276.361159 263.580032 
L 277.470377 266.685744 
L 278.579595 272.897187 
L 279.688808 270.235143 
L 280.798026 269.347802 
L 281.907245 273.340862 
L 283.016457 275.559218 
L 284.125681 272.009839 
L 285.234894 272.897187 
L 286.344106 269.347802 
L 287.453325 264.911047 
L 288.562532 267.573099 
L 289.671756 268.460447 
L 290.780968 274.671884 
L 291.890192 270.235143 
L 294.108617 278.66495 
L 295.21783 279.995966 
L 296.327048 283.545358 
L 297.436267 274.671891 
L 298.545479 270.678817 
L 299.654703 272.897187 
L 300.763916 282.214336 
L 301.873129 282.65801 
L 302.982352 282.658017 
L 304.091565 283.545365 
L 305.200789 277.333921 
L 306.309996 278.221276 
L 307.419214 272.009833 
L 308.528421 268.016779 
L 309.637645 275.115551 
L 310.746863 284.432707 
L 311.856071 285.763736 
L 312.965294 283.545352 
L 314.074507 284.432707 
L 315.183731 276.890261 
L 316.292932 275.115551 
L 317.402156 272.009846 
L 318.511369 272.897187 
L 319.620593 275.559225 
L 320.729794 269.791469 
L 321.839018 265.798402 
L 324.057455 287.982099 
L 325.166667 274.22821 
L 326.27588 267.129425 
L 327.385104 272.009839 
L 328.494327 271.566165 
L 329.603529 268.016779 
L 330.712753 272.009839 
L 331.821966 277.333928 
L 332.931178 275.115551 
L 334.040391 276.002899 
L 335.149615 273.340855 
L 336.258828 268.46044 
L 337.36804 269.347788 
L 338.477264 267.129425 
L 339.586477 272.009833 
L 340.6957 273.784542 
L 341.804902 272.009839 
L 342.914115 285.320055 
L 344.023339 287.094751 
L 345.132551 270.67881 
L 346.241775 278.221276 
L 347.350977 281.326995 
L 348.4602 269.347795 
L 349.569413 265.354721 
L 350.678637 258.699624 
L 351.787861 264.023713 
L 352.897073 273.340855 
L 354.006297 272.009833 
L 355.115488 266.242076 
L 357.333935 279.995966 
L 358.443148 278.66495 
L 359.55235 270.67881 
L 360.661573 270.235143 
L 361.770786 270.678817 
L 362.88001 276.446573 
L 363.989234 270.678817 
L 365.098457 264.023713 
L 366.20767 270.235143 
L 367.316872 264.911054 
L 368.426096 276.002906 
L 369.535308 278.664944 
L 370.644532 269.791469 
L 371.753745 277.333921 
L 372.862968 276.446573 
L 373.97217 260.917988 
L 375.081383 266.242076 
L 376.190596 267.573105 
L 377.299819 260.474327 
L 378.409043 271.566165 
L 379.518267 270.235143 
L 380.627469 264.911054 
L 381.736692 271.566165 
L 382.845905 274.228203 
L 383.955118 268.016779 
L 385.064341 272.897187 
L 386.173543 276.890241 
L 388.39198 264.023713 
L 389.501192 264.911054 
L 390.610416 264.46738 
L 391.71964 263.580032 
L 392.828842 274.228203 
L 393.938065 269.791469 
L 395.047278 260.917988 
L 396.156502 262.24901 
L 397.265714 260.030646 
L 398.374927 258.25595 
L 399.48414 258.699617 
L 400.593353 265.354728 
L 401.702565 274.671884 
L 402.811789 264.911061 
L 405.030203 257.812269 
L 406.139449 210.339157 
L 407.248651 193.479556 
L 408.357853 224.980394 
L 409.467076 244.058386 
L 410.5763 252.48818 
L 411.685502 244.945728 
L 412.794704 243.614705 
L 413.903927 239.621639 
L 415.013173 228.086133 
L 416.122375 224.980408 
L 417.231576 212.55752 
L 418.340822 213.001215 
L 419.450024 221.874683 
L 420.559226 225.867743 
L 421.668449 224.536727 
L 422.777673 219.212638 
L 424.996099 227.642439 
L 426.1053 223.205698 
L 427.214524 224.980408 
L 428.323748 233.410209 
L 429.432949 230.748164 
L 430.542195 227.642439 
L 431.651397 230.304483 
L 433.869822 227.642452 
L 434.979046 229.860802 
L 436.08827 236.51592 
L 437.197449 241.396342 
L 438.306673 237.403268 
L 439.415897 238.734297 
L 439.415897 238.734297 
" style="fill:none;stroke:#000000;stroke-linecap:square;stroke-opacity:0.3;"/>
   </g>
   <g id="line2d_21">
    <path clip-path="url(#pd08b455220)" d="M 218.866794 341.759622 
L 218.866794 97.645606 
" style="fill:none;stroke:#1f77b4;stroke-linecap:square;"/>
   </g>
   <g id="line2d_22">
    <path clip-path="url(#pd08b455220)" d="M 182.447536 292.134884 
L 183.187012 295.672446 
L 184.29623 296.287675 
L 185.405446 293.288435 
L 186.514659 295.36483 
L 187.623874 289.827781 
L 188.733095 288.981839 
L 189.842311 291.981079 
L 190.951523 291.288948 
L 192.060742 292.4425 
L 193.169954 291.365854 
L 194.279172 292.980826 
L 195.388391 289.520165 
L 196.497605 289.212549 
L 197.60682 297.133617 
L 198.716036 297.595034 
L 199.825254 294.826508 
L 200.934469 293.826761 
L 202.043685 291.750369 
L 203.1529 291.827274 
L 204.262116 294.288188 
L 205.371334 297.287422 
L 206.48055 295.211026 
L 207.589766 287.597591 
L 208.698981 291.596564 
L 209.808197 294.134377 
L 210.917414 291.67347 
L 213.135845 300.209749 
L 215.354277 292.596311 
L 216.463493 294.057471 
L 217.572709 288.366614 
L 218.681925 288.059005 
L 219.791141 282.291242 
L 220.900358 247.992294 
L 222.009574 219.230391 
L 223.11879 209.848157 
L 224.228005 207.464142 
L 225.337222 212.693579 
L 226.446438 224.690538 
L 227.555653 231.381149 
L 228.664869 226.382396 
L 229.774087 227.228351 
L 231.992518 231.458034 
L 233.101735 237.841036 
L 234.210949 242.532147 
L 235.320166 246.300403 
L 236.429381 239.840516 
L 237.538598 241.07098 
L 238.647815 247.915381 
L 239.75703 243.608799 
L 240.866247 243.916408 
L 241.975463 246.30041 
L 243.084678 249.53036 
L 244.193894 248.915135 
L 245.303109 248.069199 
L 246.412325 250.76081 
L 247.521543 241.301683 
L 248.630758 241.763117 
L 249.739974 253.683144 
L 250.849192 251.760563 
L 251.958407 248.376822 
L 253.067623 249.914875 
L 254.176836 254.605999 
L 255.286054 251.376042 
L 256.395269 246.608019 
L 257.504485 253.144825 
L 258.613706 257.143805 
L 259.722918 256.605479 
L 261.941352 250.76081 
L 263.050568 253.990767 
L 264.15978 252.99102 
L 265.268999 251.145331 
L 266.378211 251.068433 
L 267.48743 248.838243 
L 269.705861 258.528066 
L 270.815079 256.682384 
L 271.924297 251.452947 
L 273.03351 249.607272 
L 275.251946 256.528573 
L 276.361159 260.835169 
L 277.470377 259.220197 
L 278.579595 252.452701 
L 279.688808 253.452434 
L 280.798026 257.989747 
L 281.907245 258.758776 
L 283.016457 260.98898 
L 284.125681 259.143291 
L 285.234894 259.758516 
L 286.344106 262.603958 
L 287.453325 259.681611 
L 288.562532 253.683151 
L 289.671756 255.144325 
L 290.780968 262.296329 
L 291.890192 262.603958 
L 292.999399 259.450907 
L 294.108617 254.298369 
L 295.21783 257.605232 
L 296.327048 266.910547 
L 297.436267 265.603178 
L 298.545479 262.988467 
L 299.654703 262.834669 
L 300.763916 264.372735 
L 301.873129 266.218417 
L 302.982352 261.834909 
L 304.091565 259.220197 
L 306.309996 264.75725 
L 307.419214 266.295316 
L 308.528421 265.987706 
L 309.637645 261.681111 
L 310.746863 264.372742 
L 311.856071 263.834409 
L 312.965294 259.835429 
L 314.074507 264.680351 
L 315.183731 263.065379 
L 316.292932 263.526793 
L 317.402156 265.9877 
L 318.511369 263.449887 
L 319.620593 264.526539 
L 320.729794 264.526546 
L 322.948231 268.910034 
L 324.057455 263.911308 
L 325.166667 263.449887 
L 326.27588 270.4481 
L 327.385104 265.44938 
L 328.494327 257.682124 
L 330.712753 269.909781 
L 331.821966 270.755716 
L 332.931178 266.526033 
L 334.040391 262.757763 
L 335.149615 269.755983 
L 336.258828 270.525013 
L 337.36804 265.756996 
L 338.477264 267.295062 
L 339.586477 270.525013 
L 340.6957 271.601665 
L 341.804902 270.601911 
L 342.914115 267.218163 
L 344.023339 264.75725 
L 345.132551 268.679324 
L 346.241775 266.295322 
L 347.350977 262.373248 
L 348.4602 264.911061 
L 349.569413 261.681111 
L 350.678637 263.449894 
L 351.787861 269.525266 
L 352.897073 269.679077 
L 354.006297 270.448107 
L 355.115488 268.448614 
L 356.224712 262.834669 
L 357.333935 267.141251 
L 358.443148 268.140998 
L 359.55235 258.374255 
L 360.661573 261.065892 
L 361.770786 268.217903 
L 362.88001 266.833635 
L 363.989234 260.681364 
L 365.098457 260.98898 
L 366.20767 265.910801 
L 367.316872 257.451427 
L 368.426096 261.142785 
L 369.535308 267.833382 
L 370.644532 263.296089 
L 371.753745 264.834148 
L 372.862968 261.296589 
L 373.97217 258.297356 
L 375.081383 263.526793 
L 376.190596 265.372481 
L 377.299819 266.064605 
L 378.409043 267.448867 
L 379.518267 261.219683 
L 380.627469 261.450394 
L 381.736692 263.911308 
L 382.845905 264.911054 
L 383.955118 268.910034 
L 385.064341 264.680351 
L 386.173543 261.681111 
L 387.282767 262.527046 
L 388.39198 261.373495 
L 389.501192 262.065619 
L 390.610416 260.527553 
L 391.71964 258.374255 
L 392.828842 263.296089 
L 393.938065 263.603698 
L 395.047278 262.296349 
L 396.156502 263.911321 
L 397.265714 262.834662 
L 398.374927 260.988973 
L 399.48414 259.989227 
L 401.702565 264.065126 
L 402.811789 260.219937 
L 403.921002 257.989754 
L 405.030203 243.454988 
L 406.139449 204.311097 
L 407.248651 198.543327 
L 408.357853 223.536974 
L 409.467076 242.916655 
L 410.5763 249.76107 
L 412.794704 232.84231 
L 413.903927 230.381396 
L 415.013173 225.151945 
L 416.122375 215.462101 
L 417.231576 215.692812 
L 418.340822 222.691045 
L 420.559226 217.692319 
L 421.668449 219.384203 
L 422.777673 220.383929 
L 423.886875 225.305757 
L 424.996099 226.074786 
L 426.1053 225.382656 
L 427.214524 223.767697 
L 428.323748 223.075553 
L 429.432949 226.151699 
L 430.542195 232.150165 
L 431.651397 232.534687 
L 432.760621 231.227338 
L 433.869822 240.917175 
L 434.979046 241.30169 
L 436.08827 240.455741 
L 437.197449 240.686451 
L 438.306673 234.53418 
L 439.415897 237.687225 
L 439.415897 237.687225 
" style="fill:none;stroke:#000000;stroke-linecap:square;"/>
   </g>
   <g id="line2d_23">
    <path clip-path="url(#pd08b455220)" d="M 182.447536 284.180319 
L 183.187012 293.482076 
L 184.29623 294.092024 
L 185.405446 286.772609 
L 186.514659 291.042271 
L 187.623874 298.056712 
L 188.733095 295.311933 
L 189.842311 289.517398 
L 190.951523 285.5527 
L 192.060742 291.042271 
L 193.169954 298.361692 
L 194.279172 293.177099 
L 195.388391 289.517391 
L 196.497605 293.482076 
L 197.60682 292.567151 
L 198.716036 290.432316 
L 199.825254 288.907437 
L 200.934469 282.197977 
L 202.043685 289.212414 
L 203.1529 299.886569 
L 204.262116 293.482076 
L 205.371334 290.432316 
L 206.48055 291.042271 
L 207.589766 287.687541 
L 208.698981 286.162655 
L 209.808197 285.857684 
L 210.917414 288.297489 
L 212.026629 285.247736 
L 213.135845 277.31836 
L 214.245061 280.67309 
L 215.354277 281.588022 
L 216.463493 281.283052 
L 217.572709 277.31836 
L 218.681925 277.928315 
L 219.791141 286.162655 
L 220.900358 287.687541 
L 222.009574 292.567151 
L 223.11879 293.177099 
L 224.228005 292.262173 
L 225.337222 288.602459 
L 226.446438 282.502947 
L 227.555653 283.72285 
L 228.664869 283.722843 
L 229.774087 281.588029 
L 230.883301 284.637782 
L 231.992518 279.758172 
L 233.101735 279.148217 
L 234.210949 284.332811 
L 235.320166 284.332804 
L 236.429381 280.978068 
L 237.538598 285.552707 
L 238.647815 289.212414 
L 240.866247 289.822369 
L 241.975463 284.637782 
L 244.193894 272.438744 
L 245.303109 277.623331 
L 246.412325 283.417872 
L 247.521543 288.602466 
L 248.630758 288.907437 
L 249.739974 280.978068 
L 250.849192 279.758179 
L 251.958407 284.637782 
L 253.067623 282.807918 
L 254.176836 284.637788 
L 255.286054 287.382564 
L 256.395269 287.687534 
L 257.504485 283.72285 
L 258.613706 278.843247 
L 259.722918 288.602459 
L 260.832134 288.602459 
L 261.941352 280.063149 
L 263.050568 286.162655 
L 264.15978 294.397001 
L 265.268999 295.61691 
L 266.378211 295.61691 
L 267.48743 291.652219 
L 269.705861 287.382564 
L 270.815079 287.992518 
L 271.924297 289.517391 
L 273.03351 289.517391 
L 274.142728 294.701982 
L 276.361159 286.162661 
L 277.470377 287.992518 
L 278.579595 290.127346 
L 279.688808 295.921887 
L 280.798026 299.581588 
L 281.907245 302.32637 
L 284.125681 287.077593 
L 285.234894 287.992512 
L 286.344106 292.567151 
L 287.453325 295.61691 
L 288.562532 292.567151 
L 289.671756 292.872128 
L 290.780968 292.262173 
L 291.890192 287.382564 
L 292.999399 287.077586 
L 294.108617 290.737294 
L 295.21783 284.332804 
L 296.327048 284.027827 
L 297.436267 293.482076 
L 298.545479 292.567158 
L 299.654703 293.177099 
L 300.763916 295.61691 
L 301.873129 287.992512 
L 302.982352 284.942759 
L 304.091565 290.737294 
L 305.200789 294.092024 
L 306.309996 292.26218 
L 307.419214 294.701982 
L 308.528421 295.311929 
L 309.637645 292.567151 
L 310.746863 291.347242 
L 311.856071 292.26218 
L 312.965294 291.042278 
L 314.074507 291.652226 
L 315.183731 291.347248 
L 316.292932 281.588022 
L 317.402156 282.502954 
L 318.511369 290.127346 
L 319.620593 291.347248 
L 320.729794 286.772609 
L 321.839018 287.687541 
L 324.057455 293.482076 
L 325.166667 294.397008 
L 326.27588 296.226858 
L 328.494327 293.177099 
L 329.603529 296.836806 
L 330.712753 297.751741 
L 331.821966 298.361682 
L 332.931178 294.701982 
L 334.040391 291.957203 
L 335.149615 296.226861 
L 336.258828 287.077586 
L 337.36804 288.907443 
L 338.477264 305.071156 
L 339.586477 304.156227 
L 340.6957 302.936328 
L 341.804902 298.666666 
L 342.914115 297.751738 
L 344.023339 294.397008 
L 345.132551 291.957196 
L 346.241775 295.61691 
L 347.350977 293.787053 
L 348.4602 300.801494 
L 349.569413 295.921884 
L 350.678637 288.907443 
L 351.787861 283.112902 
L 352.897073 279.453195 
L 354.006297 281.283045 
L 355.115488 278.233292 
L 356.224712 287.992512 
L 357.333935 293.482076 
L 358.443148 286.467632 
L 359.55235 282.19797 
L 360.661573 289.517391 
L 361.770786 294.397001 
L 363.989234 296.836806 
L 365.098457 297.141787 
L 366.20767 295.006956 
L 367.316872 293.177105 
L 368.426096 295.311929 
L 370.644532 286.772609 
L 371.753745 287.382564 
L 372.862968 287.382564 
L 373.97217 288.602459 
L 375.081383 286.772616 
L 376.190596 281.893006 
L 377.299819 288.602466 
L 378.409043 290.432323 
L 379.518267 285.247729 
L 380.627469 289.212414 
L 381.736692 290.127346 
L 382.845905 288.602466 
L 383.955118 291.652219 
L 385.064341 289.212414 
L 386.173543 281.283052 
L 387.282767 285.247729 
L 388.39198 291.347248 
L 389.501192 290.432323 
L 390.610416 282.197977 
L 391.71964 277.01339 
L 392.828842 290.127346 
L 393.938065 296.531835 
L 395.047278 292.26218 
L 396.156502 292.567151 
L 397.265714 290.432323 
L 398.374927 290.127346 
L 399.48414 292.567158 
L 400.593353 285.247729 
L 401.702565 280.978074 
L 402.811789 288.907437 
L 403.921002 291.347248 
L 405.030203 270.6089 
L 406.139449 183.995781 
L 407.248651 134.589689 
L 409.467076 261.459629 
L 410.5763 282.197977 
L 412.794704 262.984509 
L 413.903927 251.395425 
L 416.122375 240.721274 
L 417.231576 230.657071 
L 418.340822 231.571982 
L 419.450024 231.267025 
L 420.559226 232.791892 
L 421.668449 234.011814 
L 422.777673 240.721274 
L 423.886875 246.515809 
L 424.996099 248.65065 
L 426.1053 252.920298 
L 427.214524 251.395425 
L 428.323748 252.615321 
L 429.432949 255.36011 
L 430.542195 252.310344 
L 431.651397 250.480487 
L 432.760621 255.055126 
L 433.869822 265.424313 
L 434.979046 269.388991 
L 436.08827 266.949186 
L 437.197449 263.899434 
L 438.306673 263.594456 
L 439.415897 266.034268 
L 439.415897 266.034268 
" style="fill:none;stroke:#0000ff;stroke-linecap:square;stroke-opacity:0.3;"/>
   </g>
   <g id="line2d_24">
    <path clip-path="url(#pd08b455220)" d="M 218.866794 341.759622 
L 218.866794 97.645606 
" style="fill:none;stroke:#1f77b4;stroke-linecap:square;"/>
   </g>
   <g id="line2d_25">
    <path clip-path="url(#pd08b455220)" d="M 182.447536 293.574766 
L 183.187012 293.77183 
L 184.29623 292.758349 
L 185.405446 291.238145 
L 186.514659 295.010535 
L 187.623874 295.179447 
L 188.733095 291.40705 
L 189.842311 292.364234 
L 190.951523 294.841619 
L 192.060742 295.17944 
L 193.169954 294.22227 
L 194.279172 294.44748 
L 195.388391 293.546614 
L 196.497605 291.069226 
L 197.60682 291.632267 
L 198.716036 291.40705 
L 199.825254 293.940743 
L 200.934469 297.938356 
L 202.043685 292.702052 
L 203.1529 289.042277 
L 204.262116 290.900313 
L 205.371334 291.801186 
L 206.48055 291.069226 
L 207.589766 294.616392 
L 208.698981 294.109655 
L 209.808197 292.81466 
L 210.917414 293.152492 
L 212.026629 295.798786 
L 213.135845 295.123139 
L 214.245061 292.81466 
L 215.354277 293.828134 
L 216.463493 292.026396 
L 217.572709 292.927268 
L 218.681925 295.911397 
L 219.791141 296.530749 
L 220.900358 291.688571 
L 222.009574 292.702059 
L 223.11879 294.841615 
L 224.228005 290.280968 
L 226.446438 292.364227 
L 227.555653 289.042264 
L 228.664869 289.49271 
L 229.774087 292.589437 
L 230.883301 295.292048 
L 231.992518 294.616399 
L 233.101735 291.857483 
L 234.210949 292.870964 
L 235.320166 294.89792 
L 236.429381 295.010535 
L 237.538598 295.292052 
L 238.647815 293.265093 
L 239.75703 292.870958 
L 240.866247 295.911397 
L 241.975463 293.997047 
L 243.084678 291.857483 
L 244.193894 292.082707 
L 245.303109 289.042264 
L 246.412325 289.717927 
L 247.521543 294.89792 
L 248.630758 296.080313 
L 249.739974 292.420531 
L 250.849192 294.22227 
L 251.958407 294.165959 
L 253.067623 287.409444 
L 254.176836 291.913794 
L 255.286054 295.686184 
L 256.395269 294.729014 
L 257.504485 296.418138 
L 258.613706 294.672706 
L 259.722918 291.012921 
L 260.832134 290.787705 
L 261.941352 293.265093 
L 263.050568 291.181827 
L 265.268999 292.0827 
L 266.378211 292.307916 
L 267.48743 294.729007 
L 268.596648 293.715533 
L 269.705861 292.420531 
L 270.815079 293.940749 
L 271.924297 293.039877 
L 273.03351 290.393583 
L 274.142728 293.208782 
L 275.251946 292.420538 
L 276.361159 290.562482 
L 277.470377 295.010528 
L 278.579595 295.62988 
L 279.688808 293.096181 
L 280.798026 291.519659 
L 281.907245 292.307923 
L 283.016457 293.602918 
L 284.125681 294.22227 
L 285.234894 292.026402 
L 286.344106 290.280968 
L 287.453325 292.195315 
L 288.562532 293.771837 
L 289.671756 293.49031 
L 290.780968 293.377701 
L 291.890192 296.981179 
L 292.999399 295.742485 
L 294.108617 296.36183 
L 295.21783 293.828141 
L 296.327048 288.873351 
L 297.436267 290.787705 
L 298.545479 292.307916 
L 299.654703 295.179447 
L 300.763916 297.150091 
L 301.873129 290.844009 
L 302.982352 288.479229 
L 304.091565 292.082707 
L 305.200789 292.420525 
L 306.309996 294.672703 
L 307.419214 295.967705 
L 308.528421 291.744875 
L 309.637645 294.22227 
L 310.746863 295.17944 
L 311.856071 291.40705 
L 312.965294 289.605318 
L 314.074507 288.422925 
L 315.183731 291.857483 
L 316.292932 294.89792 
L 317.402156 295.235748 
L 318.511369 295.40466 
L 319.620593 296.981182 
L 320.729794 296.192918 
L 321.839018 293.771837 
L 322.948231 293.49031 
L 324.057455 291.294449 
L 325.166667 291.012921 
L 326.27588 295.855097 
L 327.385104 294.44748 
L 328.494327 290.956617 
L 329.603529 291.688571 
L 330.712753 291.575969 
L 331.821966 292.814667 
L 332.931178 294.278574 
L 334.040391 294.89792 
L 335.149615 294.278574 
L 336.258828 292.927268 
L 337.36804 292.53314 
L 338.477264 291.012921 
L 339.586477 294.334878 
L 340.6957 293.602918 
L 341.804902 291.181834 
L 342.914115 293.2651 
L 344.023339 291.913801 
L 345.132551 293.602918 
L 346.241775 296.36183 
L 347.350977 295.123139 
L 348.4602 292.251619 
L 349.569413 291.125536 
L 350.678637 295.292048 
L 351.787861 296.812263 
L 352.897073 294.053358 
L 354.006297 293.152492 
L 355.115488 294.165966 
L 356.224712 292.139004 
L 357.333935 292.0827 
L 358.443148 293.659229 
L 359.55235 293.771837 
L 360.661573 293.490316 
L 361.770786 293.77183 
L 362.88001 294.785308 
L 363.989234 296.530749 
L 365.098457 296.643351 
L 366.20767 294.503791 
L 367.316872 293.096181 
L 368.426096 292.026396 
L 369.535308 291.575969 
L 370.644532 290.112055 
L 371.753745 290.506184 
L 372.862968 292.026402 
L 373.97217 296.136614 
L 375.081383 294.447493 
L 376.190596 289.605318 
L 377.299819 292.420525 
L 379.518267 294.22227 
L 380.627469 296.587057 
L 381.736692 297.03749 
L 382.845905 295.742492 
L 383.955118 294.954227 
L 385.064341 292.307923 
L 386.173543 290.956617 
L 387.282767 293.828141 
L 388.39198 295.517272 
L 389.501192 293.208789 
L 390.610416 293.77183 
L 391.71964 295.066835 
L 392.828842 292.251619 
L 395.047278 291.350746 
L 396.156502 292.364227 
L 397.265714 293.546614 
L 398.374927 291.463348 
L 400.593353 289.830528 
L 401.702565 291.519659 
L 402.811789 297.206396 
L 403.921002 296.024006 
L 405.030203 274.797272 
L 406.139449 208.639668 
L 407.248651 166.129904 
L 408.357853 204.529467 
L 409.467076 255.879012 
L 410.5763 274.909881 
L 411.685502 270.292929 
L 412.794704 266.633147 
L 415.013173 254.640321 
L 416.122375 251.036844 
L 417.231576 242.422285 
L 418.340822 240.958358 
L 419.450024 242.98532 
L 420.559226 239.212923 
L 421.668449 237.354894 
L 422.777673 238.706186 
L 423.886875 241.296189 
L 424.996099 241.802933 
L 426.1053 241.465108 
L 427.214524 248.390529 
L 428.323748 249.009888 
L 429.432949 245.462715 
L 430.542195 252.388149 
L 431.651397 263.705326 
L 432.760621 260.327051 
L 433.869822 257.962278 
L 434.979046 263.761623 
L 436.08827 266.858357 
L 437.197449 262.748149 
L 438.306673 261.227917 
L 439.415897 266.464235 
L 439.415897 266.464235 
" style="fill:none;stroke:#0000ff;stroke-linecap:square;"/>
   </g>
   <g id="line2d_26">
    <path clip-path="url(#pd08b455220)" d="M 182.447536 323.742216 
L 183.187012 309.89959 
L 184.29623 291.442753 
L 185.405446 284.521439 
L 186.514659 282.214343 
L 187.623874 293.749855 
L 188.733095 298.364064 
L 190.951523 321.435115 
L 192.060742 321.435112 
L 193.169954 314.513798 
L 194.279172 309.89959 
L 195.388391 296.056965 
L 196.497605 277.600125 
L 197.60682 286.828541 
L 198.716036 298.364067 
L 199.825254 298.364067 
L 200.934469 305.285381 
L 202.043685 307.592484 
L 203.1529 298.364067 
L 204.262116 307.592484 
L 205.371334 309.89959 
L 206.48055 302.978279 
L 207.589766 307.592484 
L 208.698981 309.899593 
L 209.808197 309.89959 
L 210.917414 312.206695 
L 212.026629 300.67117 
L 213.135845 291.442753 
L 215.354277 309.89959 
L 216.463493 309.89959 
L 217.572709 300.671173 
L 218.681925 296.056961 
L 219.791141 305.285385 
L 222.009574 286.828548 
L 223.11879 293.749855 
L 224.228005 298.36407 
L 225.337222 316.8209 
L 226.446438 312.206692 
L 227.555653 291.442753 
L 228.664869 279.907234 
L 229.774087 277.600131 
L 230.883301 279.907234 
L 231.992518 277.600125 
L 233.101735 277.600125 
L 234.210949 284.521439 
L 235.320166 286.828548 
L 236.429381 291.442753 
L 237.538598 300.67117 
L 238.647815 307.592484 
L 239.75703 307.592484 
L 240.866247 300.671173 
L 243.084678 291.442753 
L 244.193894 302.978275 
L 245.303109 321.435112 
L 246.412325 312.206695 
L 247.521543 296.056961 
L 248.630758 298.364067 
L 249.739974 296.056965 
L 250.849192 275.293022 
L 251.958407 266.064605 
L 253.067623 282.214336 
L 254.176836 277.600125 
L 256.395269 272.985913 
L 257.504485 272.985913 
L 258.613706 266.064605 
L 259.722918 270.67881 
L 260.832134 296.056958 
L 263.050568 300.671166 
L 264.15978 307.592487 
L 265.268999 309.899586 
L 266.378211 300.67117 
L 267.48743 296.056961 
L 268.596648 282.214329 
L 269.705861 284.521439 
L 270.815079 291.442753 
L 271.924297 286.828541 
L 273.03351 296.056961 
L 274.142728 300.671173 
L 275.251946 300.671173 
L 276.361159 296.056961 
L 278.579595 309.89959 
L 279.688808 307.592484 
L 280.798026 309.89959 
L 281.907245 305.285381 
L 283.016457 307.592484 
L 284.125681 314.513801 
L 285.234894 307.59248 
L 286.344106 298.364067 
L 287.453325 298.364064 
L 288.562532 293.749855 
L 289.671756 298.364067 
L 290.780968 305.285381 
L 291.890192 307.592484 
L 292.999399 305.285378 
L 294.108617 286.828548 
L 295.21783 291.442753 
L 296.327048 302.978275 
L 297.436267 305.285381 
L 299.654703 291.442753 
L 300.763916 286.828541 
L 301.873129 268.371708 
L 302.982352 272.985913 
L 304.091565 291.44276 
L 305.200789 277.600125 
L 306.309996 284.521432 
L 307.419214 312.206692 
L 308.528421 302.978279 
L 309.637645 298.364067 
L 310.746863 302.978275 
L 311.856071 305.285378 
L 312.965294 314.513795 
L 315.183731 314.513798 
L 316.292932 312.206695 
L 317.402156 307.592484 
L 318.511369 307.592487 
L 319.620593 314.513798 
L 320.729794 314.513798 
L 321.839018 305.285378 
L 322.948231 314.513798 
L 324.057455 316.820904 
L 325.166667 321.435112 
L 326.27588 316.820904 
L 327.385104 314.513798 
L 328.494327 319.12801 
L 329.603529 316.820907 
L 330.712753 309.89959 
L 331.821966 305.285381 
L 332.931178 305.285378 
L 334.040391 298.364067 
L 335.149615 302.978275 
L 337.36804 307.592484 
L 338.477264 314.513798 
L 339.586477 293.749862 
L 340.6957 289.13565 
L 341.804902 321.435115 
L 342.914115 321.435112 
L 344.023339 312.206692 
L 345.132551 312.206692 
L 346.241775 314.513798 
L 347.350977 330.66353 
L 348.4602 326.04932 
L 349.569413 305.285385 
L 351.787861 300.67117 
L 354.006297 328.356426 
L 355.115488 309.899586 
L 356.224712 298.364064 
L 357.333935 300.67117 
L 358.443148 312.206692 
L 359.55235 316.8209 
L 360.661573 312.206695 
L 361.770786 312.206695 
L 363.989234 298.364067 
L 365.098457 312.206692 
L 366.20767 312.206695 
L 367.316872 286.828548 
L 368.426096 296.056961 
L 369.535308 316.8209 
L 370.644532 312.206692 
L 371.753745 302.978272 
L 373.97217 302.978275 
L 375.081383 316.8209 
L 376.190596 328.356425 
L 377.299819 326.04932 
L 378.409043 312.206692 
L 379.518267 305.285381 
L 380.627469 302.978275 
L 381.736692 309.899586 
L 382.845905 328.356428 
L 383.955118 321.435112 
L 385.064341 319.12801 
L 386.173543 321.435112 
L 387.282767 314.513798 
L 388.39198 302.978275 
L 389.501192 296.056961 
L 390.610416 300.67117 
L 391.71964 300.67117 
L 392.828842 296.056965 
L 393.938065 296.056965 
L 395.047278 298.364067 
L 396.156502 291.442753 
L 397.265714 302.978272 
L 398.374927 326.04932 
L 399.48414 323.742218 
L 400.593353 319.128006 
L 401.702565 307.592484 
L 402.811789 309.899586 
L 403.921002 298.364067 
L 405.030203 289.13565 
L 406.139449 203.772778 
L 407.248651 139.173854 
L 408.357853 219.922522 
L 409.467076 277.600125 
L 410.5763 277.600125 
L 411.685502 268.371715 
L 412.794704 256.836175 
L 413.903927 236.072253 
L 415.013173 236.072253 
L 416.122375 219.922536 
L 417.231576 226.843816 
L 418.340822 240.686458 
L 419.450024 213.001201 
L 420.559226 199.158586 
L 421.668449 240.686458 
L 422.777673 256.836182 
L 423.886875 249.914881 
L 424.996099 272.985913 
L 426.1053 256.836182 
L 427.214524 242.99356 
L 428.323748 256.836182 
L 429.432949 256.836196 
L 430.542195 259.143291 
L 431.651397 259.143291 
L 432.760621 263.75751 
L 433.869822 270.678817 
L 434.979046 282.214336 
L 436.08827 279.907234 
L 437.197449 275.293022 
L 438.306673 279.907227 
L 439.415897 263.757496 
L 439.415897 263.757496 
" style="fill:none;stroke:#008000;stroke-linecap:square;stroke-opacity:0.3;"/>
   </g>
   <g id="line2d_27">
    <path clip-path="url(#pd08b455220)" d="M 218.866794 341.759622 
L 218.866794 97.645606 
" style="fill:none;stroke:#1f77b4;stroke-linecap:square;"/>
   </g>
   <g id="line2d_28">
    <path clip-path="url(#pd08b455220)" d="M 182.447536 295.116096 
L 183.187012 299.402267 
L 184.29623 298.81107 
L 185.405446 296.446293 
L 186.514659 287.578356 
L 187.623874 290.82993 
L 188.733095 297.333083 
L 189.842311 294.968296 
L 190.951523 291.12553 
L 192.060742 290.534336 
L 193.169954 292.603516 
L 194.279172 295.855097 
L 195.388391 295.855097 
L 196.497605 285.509176 
L 197.60682 284.917983 
L 198.716036 291.12553 
L 199.825254 294.968296 
L 200.934469 297.037483 
L 202.043685 296.15069 
L 203.1529 293.78591 
L 204.262116 294.37711 
L 205.371334 293.194716 
L 206.48055 289.647543 
L 207.589766 292.603516 
L 208.698981 292.603523 
L 209.808197 302.062647 
L 210.917414 303.245037 
L 212.026629 292.012323 
L 213.135845 287.873956 
L 214.245061 292.01233 
L 215.354277 302.35825 
L 216.463493 301.175857 
L 217.572709 292.603516 
L 218.681925 293.49031 
L 219.791141 285.213576 
L 220.900358 285.509169 
L 222.009574 297.628683 
L 223.11879 295.855093 
L 224.228005 297.62868 
L 225.337222 297.037483 
L 226.446438 291.716723 
L 227.555653 293.78591 
L 228.664869 299.10667 
L 229.774087 294.672703 
L 230.883301 285.509169 
L 231.992518 285.509176 
L 233.101735 294.968303 
L 234.210949 298.219877 
L 235.320166 292.307923 
L 236.429381 282.848789 
L 237.538598 282.257596 
L 238.647815 291.71673 
L 239.75703 289.943136 
L 240.866247 287.282756 
L 241.975463 292.012323 
L 243.084678 297.62868 
L 244.193894 294.968303 
L 245.303109 284.03119 
L 246.412325 292.307916 
L 247.521543 304.13183 
L 248.630758 300.880253 
L 249.739974 291.71673 
L 250.849192 285.80477 
L 251.958407 295.263896 
L 253.067623 296.150693 
L 254.176836 295.263896 
L 255.286054 297.62868 
L 256.395269 296.446293 
L 257.504485 296.15069 
L 258.613706 297.924277 
L 259.722918 300.584657 
L 260.832134 290.82993 
L 261.941352 286.10037 
L 263.050568 299.10667 
L 264.15978 298.515477 
L 265.268999 293.19471 
L 266.378211 295.263896 
L 267.48743 294.672696 
L 268.596648 298.219877 
L 269.705861 291.42113 
L 270.815079 283.144389 
L 271.924297 289.647543 
L 273.03351 295.263896 
L 274.142728 298.81107 
L 275.251946 292.012323 
L 276.361159 282.257603 
L 277.470377 289.351943 
L 278.579595 292.012323 
L 279.688808 290.82993 
L 280.798026 290.82993 
L 281.907245 292.012323 
L 283.016457 293.49031 
L 284.125681 280.779609 
L 285.234894 282.553196 
L 286.344106 294.08151 
L 287.453325 287.578356 
L 288.562532 286.987163 
L 289.671756 296.74189 
L 290.780968 300.88025 
L 291.890192 295.559496 
L 292.999399 294.377103 
L 294.108617 297.037483 
L 295.21783 287.282756 
L 296.327048 282.257596 
L 297.436267 294.968303 
L 298.545479 299.40227 
L 299.654703 297.62868 
L 301.873129 289.05635 
L 302.982352 293.78591 
L 304.091565 293.194716 
L 305.200789 286.10037 
L 306.309996 286.987163 
L 307.419214 291.12553 
L 308.528421 291.12553 
L 309.637645 288.16955 
L 310.746863 289.056343 
L 311.856071 292.899116 
L 312.965294 292.012323 
L 314.074507 288.16955 
L 315.183731 291.716723 
L 316.292932 300.58466 
L 317.402156 293.194716 
L 318.511369 287.873956 
L 319.620593 284.326783 
L 320.729794 291.12553 
L 321.839018 306.201017 
L 322.948231 292.899116 
L 324.057455 285.80477 
L 325.166667 291.421123 
L 326.27588 288.169556 
L 327.385104 290.82993 
L 328.494327 295.85509 
L 329.603529 290.82993 
L 330.712753 293.49031 
L 331.821966 300.289057 
L 332.931178 291.12553 
L 334.040391 289.943136 
L 335.149615 295.2639 
L 336.258828 294.08151 
L 337.36804 287.873956 
L 338.477264 290.238736 
L 339.586477 297.037487 
L 340.6957 293.490316 
L 341.804902 293.490316 
L 342.914115 291.12553 
L 344.023339 287.578356 
L 345.132551 295.855097 
L 346.241775 295.855097 
L 347.350977 290.238736 
L 348.4602 292.307916 
L 349.569413 291.42113 
L 350.678637 293.78591 
L 351.787861 288.76075 
L 352.897073 285.213569 
L 354.006297 297.037483 
L 355.115488 297.924277 
L 356.224712 293.78591 
L 357.333935 296.446286 
L 358.443148 290.23873 
L 359.55235 291.42113 
L 360.661573 298.811073 
L 361.770786 298.219873 
L 362.88001 300.880253 
L 363.989234 298.81107 
L 365.098457 292.012323 
L 366.20767 292.012323 
L 367.316872 289.943136 
L 368.426096 289.943143 
L 369.535308 297.037487 
L 370.644532 297.037483 
L 371.753745 292.307923 
L 372.862968 289.647543 
L 373.97217 294.37711 
L 375.081383 294.08151 
L 376.190596 293.49031 
L 377.299819 287.578356 
L 378.409043 285.509169 
L 379.518267 297.333083 
L 380.627469 297.33308 
L 381.736692 292.012323 
L 382.845905 284.917976 
L 383.955118 292.012316 
L 385.064341 301.76705 
L 386.173543 295.855093 
L 387.282767 291.125523 
L 388.39198 297.924283 
L 389.501192 300.289057 
L 390.610416 294.672706 
L 391.71964 292.603516 
L 392.828842 289.351943 
L 393.938065 293.194716 
L 395.047278 295.559493 
L 396.156502 291.716723 
L 397.265714 288.76075 
L 398.374927 288.16955 
L 399.48414 289.647536 
L 400.593353 293.49031 
L 401.702565 292.899123 
L 402.811789 289.943136 
L 403.921002 295.263896 
L 405.030203 273.685263 
L 406.139449 181.754347 
L 407.248651 108.741698 
L 408.357853 168.45246 
L 409.467076 240.873908 
L 410.5763 249.741842 
L 411.685502 245.012282 
L 413.903927 220.477661 
L 415.013173 215.452508 
L 416.122375 199.490227 
L 417.231576 190.917873 
L 418.340822 197.716627 
L 419.450024 199.194634 
L 420.559226 206.288967 
L 421.668449 205.697767 
L 422.777673 209.836141 
L 423.886875 221.068861 
L 424.996099 207.175761 
L 426.1053 203.628587 
L 427.214524 219.886475 
L 428.323748 211.314134 
L 429.432949 215.748087 
L 430.542195 222.251248 
L 431.651397 215.156901 
L 433.869822 251.515435 
L 434.979046 250.333028 
L 436.08827 239.987122 
L 437.197449 233.188375 
L 438.306673 230.232388 
L 439.415897 224.911628 
L 439.415897 224.911628 
" style="fill:none;stroke:#008000;stroke-linecap:square;"/>
   </g>
   <g id="line2d_29">
    <path clip-path="url(#pd08b455220)" d="M 403.736124 341.759622 
L 403.736124 97.645606 
" style="fill:none;stroke:#1f77b4;stroke-linecap:square;"/>
   </g>
   <g id="patch_3">
    <path d="M 169.599118 341.759622 
L 169.599118 97.645606 
" style="fill:none;stroke:#000000;stroke-linecap:square;stroke-linejoin:miter;stroke-width:0.8;"/>
   </g>
   <g id="patch_4">
    <path d="M 452.264315 341.759622 
L 452.264315 97.645606 
" style="fill:none;stroke:#000000;stroke-linecap:square;stroke-linejoin:miter;stroke-width:0.8;"/>
   </g>
   <g id="patch_5">
    <path d="M 169.599118 341.759622 
L 452.264315 341.759622 
" style="fill:none;stroke:#000000;stroke-linecap:square;stroke-linejoin:miter;stroke-width:0.8;"/>
   </g>
   <g id="patch_6">
    <path d="M 169.599118 97.645606 
L 452.264315 97.645606 
" style="fill:none;stroke:#000000;stroke-linecap:square;stroke-linejoin:miter;stroke-width:0.8;"/>
   </g>
  </g>
 </g>
 <defs>
  <clipPath id="pd08b455220">
   <rect height="244.114016" width="282.665197" x="169.599118" y="97.645606"/>
  </clipPath>
 </defs>
</svg>
