<?xml version="1.0" encoding="utf-8" standalone="no"?>
<!DOCTYPE svg PUBLIC "-//W3C//DTD SVG 1.1//EN"
  "http://www.w3.org/Graphics/SVG/1.1/DTD/svg11.dtd">
<svg xmlns:xlink="http://www.w3.org/1999/xlink" width="140.133543pt" height="125.960315pt" viewBox="0 0 140.133543 125.960315" xmlns="http://www.w3.org/2000/svg" version="1.1">
 <metadata>
  <rdf:RDF xmlns:dc="http://purl.org/dc/elements/1.1/" xmlns:cc="http://creativecommons.org/ns#" xmlns:rdf="http://www.w3.org/1999/02/22-rdf-syntax-ns#">
   <cc:Work>
    <dc:type rdf:resource="http://purl.org/dc/dcmitype/StillImage"/>
    <dc:date>2023-10-23T10:42:12.670393</dc:date>
    <dc:format>image/svg+xml</dc:format>
    <dc:creator>
     <cc:Agent>
      <dc:title>Matplotlib v3.8.0, https://matplotlib.org/</dc:title>
     </cc:Agent>
    </dc:creator>
   </cc:Work>
  </rdf:RDF>
 </metadata>
 <defs>
  <style type="text/css">*{stroke-linejoin: round; stroke-linecap: butt}</style>
 </defs>
 <g id="figure_1">
  <g id="patch_1">
   <path d="M 0 125.960315 
L 140.133543 125.960315 
L 140.133543 0 
L 0 0 
z
" style="fill: #ffffff"/>
  </g>
  <g id="axes_1">
   <g id="patch_2">
    <path d="M 42.040063 88.17222 
L 112.106835 88.17222 
L 112.106835 25.192063 
L 42.040063 25.192063 
z
" style="fill: #ffffff"/>
   </g>
   <g id="matplotlib.axis_1">
    <g id="xtick_1">
     <g id="line2d_1">
      <defs>
       <path id="m42cae5bff9" d="M 0 0 
L 0 3.5 
" style="stroke: #000000; stroke-width: 0.8"/>
      </defs>
      <g>
       <use xlink:href="#m42cae5bff9" x="60.986691" y="88.17222" style="stroke: #000000; stroke-width: 0.8"/>
      </g>
     </g>
     <g id="text_1">
      <text style="font: 6px 'arial'; text-anchor: middle" x="60.986691" y="99.466908" transform="rotate(-0 60.986691 99.466908)">0.0</text>
     </g>
    </g>
    <g id="xtick_2">
     <g id="line2d_2">
      <g>
       <use xlink:href="#m42cae5bff9" x="93.485191" y="88.17222" style="stroke: #000000; stroke-width: 0.8"/>
      </g>
     </g>
     <g id="text_2">
      <text style="font: 6px 'arial'; text-anchor: middle" x="93.485191" y="99.466908" transform="rotate(-0 93.485191 99.466908)">0.2</text>
     </g>
    </g>
   </g>
   <g id="matplotlib.axis_2">
    <g id="ytick_1">
     <g id="line2d_3">
      <defs>
       <path id="m1a27685dd0" d="M 0 0 
L -3.5 0 
" style="stroke: #000000; stroke-width: 0.8"/>
      </defs>
      <g>
       <use xlink:href="#m1a27685dd0" x="42.040063" y="84.767888" style="stroke: #000000; stroke-width: 0.8"/>
      </g>
     </g>
     <g id="text_3">
      <text style="font: 6px 'arial'; text-anchor: end" x="35.040063" y="86.915231" transform="rotate(-0 35.040063 86.915231)">10</text>
     </g>
    </g>
    <g id="ytick_2">
     <g id="line2d_4">
      <g>
       <use xlink:href="#m1a27685dd0" x="42.040063" y="67.746223" style="stroke: #000000; stroke-width: 0.8"/>
      </g>
     </g>
     <g id="text_4">
      <text style="font: 6px 'arial'; text-anchor: end" x="35.040063" y="69.893567" transform="rotate(-0 35.040063 69.893567)">20</text>
     </g>
    </g>
    <g id="ytick_3">
     <g id="line2d_5">
      <g>
       <use xlink:href="#m1a27685dd0" x="42.040063" y="50.724559" style="stroke: #000000; stroke-width: 0.8"/>
      </g>
     </g>
     <g id="text_5">
      <text style="font: 6px 'arial'; text-anchor: end" x="35.040063" y="52.871903" transform="rotate(-0 35.040063 52.871903)">30</text>
     </g>
    </g>
    <g id="ytick_4">
     <g id="line2d_6">
      <g>
       <use xlink:href="#m1a27685dd0" x="42.040063" y="33.702895" style="stroke: #000000; stroke-width: 0.8"/>
      </g>
     </g>
     <g id="text_6">
      <text style="font: 6px 'arial'; text-anchor: end" x="35.040063" y="35.850239" transform="rotate(-0 35.040063 35.850239)">40</text>
     </g>
    </g>
   </g>
   <g id="line2d_7">
    <path d="M 45.224916 82.782028 
L 45.874888 81.741814 
L 46.849842 81.11623 
L 47.824795 81.901848 
L 48.799754 82.992984 
L 49.774708 81.989139 
L 50.749663 81.11623 
L 51.724618 82.032786 
L 52.699573 81.290814 
L 53.674528 79.996005 
L 54.649483 80.694328 
L 55.624438 82.120074 
L 56.599394 82.381945 
L 57.574348 81.261716 
L 58.549304 80.374261 
L 59.524259 81.392651 
L 60.499214 82.716558 
L 61.474168 61.388566 
L 62.449124 30.284011 
L 63.424079 24.450092 
L 64.399034 34.415763 
L 65.373989 42.984801 
L 66.348944 51.510174 
L 67.323899 60.675688 
L 68.298854 65.316641 
L 69.27381 68.139036 
L 70.248764 71.65975 
L 71.22372 75.311406 
L 72.198673 77.144509 
L 73.17363 77.377286 
L 74.148586 77.784643 
L 75.123539 79.501356 
L 76.098494 80.636137 
L 77.073449 79.734132 
L 78.048405 79.923258 
L 79.02336 81.363558 
L 79.998316 81.014393 
L 80.973271 79.545003 
L 81.948222 79.879614 
L 82.923179 81.785459 
L 83.898136 82.22191 
L 84.873088 81.203522 
L 85.848045 81.509039 
L 86.823002 82.294656 
L 87.797954 81.654522 
L 88.772911 81.072586 
L 89.747868 81.712716 
L 90.722821 82.396496 
L 91.697778 81.436297 
L 92.67273 80.272423 
L 93.647687 80.345165 
L 94.622644 81.669075 
L 95.597601 82.26556 
L 96.572553 81.276266 
L 97.547507 81.174426 
L 98.522462 81.66907 
L 99.497412 81.625426 
L 100.472371 80.170583 
L 101.447323 80.11239 
L 102.422283 82.221914 
L 103.397235 82.411041 
L 104.372187 81.58178 
L 105.347149 81.159878 
L 106.322101 82.411043 
L 107.297053 82.949335 
L 108.27201 80.737972 
L 108.921981 79.530454 
" clip-path="url(#p24ca52557c)" style="fill: none; stroke: #000000; stroke-width: 1.5; stroke-linecap: square"/>
   </g>
   <g id="line2d_8">
    <path d="M 45.224916 80.976702 
L 45.874888 80.538263 
L 46.849842 81.62146 
L 47.824795 82.807819 
L 48.799754 81.724625 
L 49.774708 80.641426 
L 50.749663 81.054072 
L 51.724618 81.41514 
L 52.699573 81.776202 
L 53.674528 81.62146 
L 54.649483 82.085687 
L 55.624438 81.311974 
L 56.599394 80.383521 
L 57.574348 82.756238 
L 58.549304 83.168884 
L 59.524259 82.29201 
L 60.499214 81.930946 
L 61.474168 62.794471 
L 62.449124 37.365133 
L 63.424079 31.123861 
L 64.399034 36.694595 
L 65.373989 42.935861 
L 66.348944 50.10559 
L 67.323899 58.874328 
L 68.298854 64.548217 
L 69.27381 68.67468 
L 70.248764 72.285336 
L 71.22372 75.173861 
L 72.198673 77.804481 
L 73.17363 78.784519 
L 74.148586 78.732936 
L 75.123539 80.847747 
L 76.098494 81.208814 
L 77.073449 80.486682 
L 78.048405 80.280357 
L 79.02336 82.8594 
L 79.998316 84.097339 
L 80.973271 79.816134 
L 81.948222 80.538263 
L 82.923179 82.343592 
L 83.898136 81.311974 
L 84.873088 81.208814 
L 85.848045 81.982527 
L 86.823002 81.776204 
L 87.797954 80.693008 
L 88.772911 80.538266 
L 89.747868 79.764553 
L 90.722821 81.157235 
L 91.697778 81.930946 
L 92.67273 80.89933 
L 93.647687 80.89933 
L 94.622644 82.034109 
L 95.597601 82.498336 
L 96.572553 81.724622 
L 97.547507 81.157235 
L 98.522462 82.653075 
L 99.497412 83.065723 
L 100.472371 80.538266 
L 101.447323 80.022455 
L 102.422283 81.415137 
L 103.397235 81.72462 
L 104.372187 80.538268 
L 105.347149 80.589845 
L 106.322101 80.641426 
L 107.297053 80.125615 
L 108.27201 80.899328 
L 108.921981 82.446752 
" clip-path="url(#p24ca52557c)" style="fill: none; stroke: #ff0000; stroke-width: 1.5; stroke-linecap: square"/>
   </g>
   <g id="patch_3">
    <path d="M 42.040063 88.17222 
L 42.040063 25.192063 
" style="fill: none; stroke: #000000; stroke-width: 0.8; stroke-linejoin: miter; stroke-linecap: square"/>
   </g>
   <g id="patch_4">
    <path d="M 112.106835 88.17222 
L 112.106835 25.192063 
" style="fill: none; stroke: #000000; stroke-width: 0.8; stroke-linejoin: miter; stroke-linecap: square"/>
   </g>
   <g id="patch_5">
    <path d="M 42.040063 88.17222 
L 112.106835 88.17222 
" style="fill: none; stroke: #000000; stroke-width: 0.8; stroke-linejoin: miter; stroke-linecap: square"/>
   </g>
   <g id="patch_6">
    <path d="M 42.040063 25.192063 
L 112.106835 25.192063 
" style="fill: none; stroke: #000000; stroke-width: 0.8; stroke-linejoin: miter; stroke-linecap: square"/>
   </g>
  </g>
 </g>
 <defs>
  <clipPath id="p24ca52557c">
   <rect x="42.040063" y="25.192063" width="70.066772" height="62.980157"/>
  </clipPath>
 </defs>
</svg>
