<?xml version="1.0" encoding="utf-8" standalone="no"?>
<!DOCTYPE svg PUBLIC "-//W3C//DTD SVG 1.1//EN"
  "http://www.w3.org/Graphics/SVG/1.1/DTD/svg11.dtd">
<svg xmlns:xlink="http://www.w3.org/1999/xlink" width="264.857953pt" height="125.960315pt" viewBox="0 0 264.857953 125.960315" xmlns="http://www.w3.org/2000/svg" version="1.1">
 <metadata>
  <rdf:RDF xmlns:dc="http://purl.org/dc/elements/1.1/" xmlns:cc="http://creativecommons.org/ns#" xmlns:rdf="http://www.w3.org/1999/02/22-rdf-syntax-ns#">
   <cc:Work>
    <dc:type rdf:resource="http://purl.org/dc/dcmitype/StillImage"/>
    <dc:date>2023-10-23T10:42:12.605238</dc:date>
    <dc:format>image/svg+xml</dc:format>
    <dc:creator>
     <cc:Agent>
      <dc:title>Matplotlib v3.8.0, https://matplotlib.org/</dc:title>
     </cc:Agent>
    </dc:creator>
   </cc:Work>
  </rdf:RDF>
 </metadata>
 <defs>
  <style type="text/css">*{stroke-linejoin: round; stroke-linecap: butt}</style>
 </defs>
 <g id="figure_1">
  <g id="patch_1">
   <path d="M 0 125.960315 
L 264.857953 125.960315 
L 264.857953 0 
L 0 0 
z
" style="fill: #ffffff"/>
  </g>
  <g id="axes_1">
   <g id="patch_2">
    <path d="M 79.457386 88.17222 
L 211.886362 88.17222 
L 211.886362 25.192063 
L 79.457386 25.192063 
z
" style="fill: #ffffff"/>
   </g>
   <g id="PolyCollection_1">
    <path d="M 98.732571 90.23713 
L 96.299194 90.23713 
L 96.249425 89.669077 
L 96.203645 89.101024 
L 96.161983 88.532971 
L 96.124447 87.964919 
L 96.090929 87.396866 
L 96.061208 86.828813 
L 96.034963 86.26076 
L 96.011778 85.692707 
L 95.991159 85.124654 
L 95.972547 84.556602 
L 95.955328 83.988549 
L 95.93885 83.420496 
L 95.922432 82.852443 
L 95.905373 82.28439 
L 95.886963 81.716337 
L 95.866491 81.148285 
L 95.843248 80.580232 
L 95.816536 80.012179 
L 95.785672 79.444126 
L 95.749992 78.876073 
L 95.708859 78.30802 
L 95.661665 77.739968 
L 95.607843 77.171915 
L 95.546868 76.603862 
L 95.478276 76.035809 
L 95.401665 75.467756 
L 95.316714 74.899703 
L 95.223192 74.331651 
L 95.120973 73.763598 
L 95.010052 73.195545 
L 94.890552 72.627492 
L 94.762743 72.059439 
L 94.627043 71.491386 
L 94.484029 70.923334 
L 94.334436 70.355281 
L 94.179146 69.787228 
L 94.019181 69.219175 
L 93.855677 68.651122 
L 93.689854 68.083069 
L 93.522981 67.515017 
L 93.356328 66.946964 
L 93.191114 66.378911 
L 93.02845 65.810858 
L 92.869279 65.242805 
L 92.714322 64.674752 
L 92.56402 64.1067 
L 92.418489 63.538647 
L 92.277485 62.970594 
L 92.140382 62.402541 
L 92.006167 61.834488 
L 91.873454 61.266435 
L 91.740513 60.698383 
L 91.605325 60.13033 
L 91.465652 59.562277 
L 91.319118 58.994224 
L 91.163313 58.426171 
L 90.9959 57.858118 
L 90.814725 57.290066 
L 90.617932 56.722013 
L 90.404073 56.15396 
L 90.172201 55.585907 
L 89.921962 55.017854 
L 89.653656 54.449801 
L 89.368283 53.881749 
L 89.067566 53.313696 
L 88.753948 52.745643 
L 88.430565 52.17759 
L 88.101191 51.609537 
L 87.770164 51.041484 
L 87.442291 50.473432 
L 87.122731 49.905379 
L 86.816875 49.337326 
L 86.530203 48.769273 
L 86.268148 48.20122 
L 86.035952 47.633167 
L 85.838534 47.065115 
L 85.680359 46.497062 
L 85.565326 45.929009 
L 85.496671 45.360956 
L 85.476885 44.792903 
L 85.50766 44.22485 
L 85.589854 43.656798 
L 85.723473 43.088745 
L 85.907689 42.520692 
L 86.140864 41.952639 
L 86.420603 41.384586 
L 86.74382 40.816533 
L 87.106823 40.248481 
L 87.505399 39.680428 
L 87.93492 39.112375 
L 88.390447 38.544322 
L 88.866837 37.976269 
L 89.358849 37.408216 
L 89.861245 36.840164 
L 90.368893 36.272111 
L 90.876849 35.704058 
L 91.38044 35.136005 
L 91.875335 34.567952 
L 92.3576 33.999899 
L 102.674166 33.999899 
L 102.674166 33.999899 
L 103.156431 34.567952 
L 103.651325 35.136005 
L 104.154916 35.704058 
L 104.662872 36.272111 
L 105.17052 36.840164 
L 105.672917 37.408216 
L 106.164928 37.976269 
L 106.641318 38.544322 
L 107.096845 39.112375 
L 107.526366 39.680428 
L 107.924942 40.248481 
L 108.287945 40.816533 
L 108.611163 41.384586 
L 108.890902 41.952639 
L 109.124076 42.520692 
L 109.308292 43.088745 
L 109.441912 43.656798 
L 109.524105 44.22485 
L 109.55488 44.792903 
L 109.535095 45.360956 
L 109.466439 45.929009 
L 109.351407 46.497062 
L 109.193232 47.065115 
L 108.995813 47.633167 
L 108.763618 48.20122 
L 108.501562 48.769273 
L 108.21489 49.337326 
L 107.909034 49.905379 
L 107.589475 50.473432 
L 107.261601 51.041484 
L 106.930574 51.609537 
L 106.6012 52.17759 
L 106.277817 52.745643 
L 105.9642 53.313696 
L 105.663483 53.881749 
L 105.378109 54.449801 
L 105.109803 55.017854 
L 104.859564 55.585907 
L 104.627693 56.15396 
L 104.413833 56.722013 
L 104.21704 57.290066 
L 104.035865 57.858118 
L 103.868452 58.426171 
L 103.712647 58.994224 
L 103.566114 59.562277 
L 103.42644 60.13033 
L 103.291253 60.698383 
L 103.158311 61.266435 
L 103.025598 61.834488 
L 102.891383 62.402541 
L 102.754281 62.970594 
L 102.613277 63.538647 
L 102.467745 64.1067 
L 102.317443 64.674752 
L 102.162486 65.242805 
L 102.003315 65.810858 
L 101.840651 66.378911 
L 101.675437 66.946964 
L 101.508784 67.515017 
L 101.341912 68.083069 
L 101.176089 68.651122 
L 101.012584 69.219175 
L 100.852619 69.787228 
L 100.697329 70.355281 
L 100.547736 70.923334 
L 100.404722 71.491386 
L 100.269022 72.059439 
L 100.141213 72.627492 
L 100.021713 73.195545 
L 99.910792 73.763598 
L 99.808573 74.331651 
L 99.715051 74.899703 
L 99.6301 75.467756 
L 99.553489 76.035809 
L 99.484897 76.603862 
L 99.423923 77.171915 
L 99.3701 77.739968 
L 99.322906 78.30802 
L 99.281773 78.876073 
L 99.246094 79.444126 
L 99.21523 80.012179 
L 99.188518 80.580232 
L 99.165274 81.148285 
L 99.144802 81.716337 
L 99.126392 82.28439 
L 99.109333 82.852443 
L 99.092915 83.420496 
L 99.076437 83.988549 
L 99.059219 84.556602 
L 99.040606 85.124654 
L 99.019987 85.692707 
L 98.996802 86.26076 
L 98.970557 86.828813 
L 98.940837 87.396866 
L 98.907319 87.964919 
L 98.869783 88.532971 
L 98.82812 89.101024 
L 98.78234 89.669077 
L 98.732571 90.23713 
z
" clip-path="url(#p377fbefa17)" style="fill-opacity: 0.3"/>
   </g>
   <g id="PolyCollection_2">
    <path d="M 146.038471 83.940978 
L 145.305277 83.940978 
L 145.309117 83.421692 
L 145.320397 82.902406 
L 145.338422 82.38312 
L 145.362115 81.863833 
L 145.390121 81.344547 
L 145.420935 80.825261 
L 145.453037 80.305975 
L 145.485009 79.786689 
L 145.515634 79.267402 
L 145.543963 78.748116 
L 145.569337 78.22883 
L 145.591391 77.709544 
L 145.610018 77.190257 
L 145.625324 76.670971 
L 145.637573 76.151685 
L 145.647125 75.632399 
L 145.65439 75.113113 
L 145.659779 74.593826 
L 145.663682 74.07454 
L 145.666441 73.555254 
L 145.668345 73.035968 
L 145.669629 72.516681 
L 145.670475 71.997395 
L 145.671019 71.478109 
L 145.671358 70.958823 
L 145.671562 70.439536 
L 145.671676 69.92025 
L 145.671727 69.400964 
L 145.671727 68.881678 
L 145.671678 68.362392 
L 145.671565 67.843105 
L 145.671363 67.323819 
L 145.671026 66.804533 
L 145.670487 66.285247 
L 145.669647 65.76596 
L 145.668371 65.246674 
L 145.666477 64.727388 
L 145.66373 64.208102 
L 145.659841 63.688816 
L 145.654462 63.169529 
L 145.647198 62.650243 
L 145.637624 62.130957 
L 145.625307 61.611671 
L 145.60985 61.092384 
L 145.590928 60.573098 
L 145.568341 60.053812 
L 145.54205 59.534526 
L 145.512206 59.01524 
L 145.479158 58.495953 
L 145.443418 57.976667 
L 145.405601 57.457381 
L 145.366314 56.938095 
L 145.32602 56.418808 
L 145.284874 55.899522 
L 145.242561 55.380236 
L 145.198154 54.86095 
L 145.150011 54.341663 
L 145.095742 53.822377 
L 145.032262 53.303091 
L 144.95592 52.783805 
L 144.862715 52.264519 
L 144.748577 51.745232 
L 144.609674 51.225946 
L 144.442723 50.70666 
L 144.245261 50.187374 
L 144.015834 49.668087 
L 143.754089 49.148801 
L 143.460745 48.629515 
L 143.137434 48.110229 
L 142.786443 47.590943 
L 142.410373 47.071656 
L 142.01177 46.55237 
L 141.592773 46.033084 
L 141.154842 45.513798 
L 140.69863 44.994511 
L 140.224023 44.475225 
L 139.73039 43.955939 
L 139.217033 43.436653 
L 138.683801 42.917366 
L 138.131815 42.39808 
L 137.564199 41.878794 
L 136.986721 41.359508 
L 136.408244 40.840222 
L 135.840879 40.320935 
L 135.299789 39.801649 
L 134.802626 39.282363 
L 134.368613 38.763077 
L 134.01735 38.24379 
L 133.76745 37.724504 
L 133.635127 37.205218 
L 133.632876 36.685932 
L 133.768373 36.166646 
L 134.043701 35.647359 
L 134.454971 35.128073 
L 134.992384 34.608787 
L 135.640719 34.089501 
L 136.380218 33.570214 
L 137.187778 33.050928 
L 138.03836 32.531642 
L 153.305388 32.531642 
L 153.305388 32.531642 
L 154.15597 33.050928 
L 154.96353 33.570214 
L 155.703029 34.089501 
L 156.351364 34.608787 
L 156.888777 35.128073 
L 157.300047 35.647359 
L 157.575375 36.166646 
L 157.710872 36.685932 
L 157.708621 37.205218 
L 157.576298 37.724504 
L 157.326398 38.24379 
L 156.975136 38.763077 
L 156.541122 39.282363 
L 156.043959 39.801649 
L 155.502869 40.320935 
L 154.935504 40.840222 
L 154.357027 41.359508 
L 153.779549 41.878794 
L 153.211933 42.39808 
L 152.659947 42.917366 
L 152.126715 43.436653 
L 151.613358 43.955939 
L 151.119725 44.475225 
L 150.645118 44.994511 
L 150.188906 45.513798 
L 149.750976 46.033084 
L 149.331978 46.55237 
L 148.933375 47.071656 
L 148.557305 47.590943 
L 148.206314 48.110229 
L 147.883003 48.629515 
L 147.589659 49.148801 
L 147.327915 49.668087 
L 147.098487 50.187374 
L 146.901025 50.70666 
L 146.734074 51.225946 
L 146.595171 51.745232 
L 146.481033 52.264519 
L 146.387828 52.783805 
L 146.311486 53.303091 
L 146.248006 53.822377 
L 146.193737 54.341663 
L 146.145594 54.86095 
L 146.101187 55.380236 
L 146.058874 55.899522 
L 146.017728 56.418808 
L 145.977434 56.938095 
L 145.938147 57.457381 
L 145.90033 57.976667 
L 145.86459 58.495953 
L 145.831542 59.01524 
L 145.801698 59.534526 
L 145.775407 60.053812 
L 145.75282 60.573098 
L 145.733898 61.092384 
L 145.718441 61.611671 
L 145.706125 62.130957 
L 145.69655 62.650243 
L 145.689286 63.169529 
L 145.683907 63.688816 
L 145.680018 64.208102 
L 145.677271 64.727388 
L 145.675377 65.246674 
L 145.674101 65.76596 
L 145.673261 66.285247 
L 145.672722 66.804533 
L 145.672385 67.323819 
L 145.672183 67.843105 
L 145.67207 68.362392 
L 145.672021 68.881678 
L 145.672021 69.400964 
L 145.672072 69.92025 
L 145.672186 70.439536 
L 145.67239 70.958823 
L 145.672729 71.478109 
L 145.673273 71.997395 
L 145.674119 72.516681 
L 145.675403 73.035968 
L 145.677308 73.555254 
L 145.680066 74.07454 
L 145.683969 74.593826 
L 145.689358 75.113113 
L 145.696623 75.632399 
L 145.706175 76.151685 
L 145.718424 76.670971 
L 145.73373 77.190257 
L 145.752357 77.709544 
L 145.774411 78.22883 
L 145.799785 78.748116 
L 145.828114 79.267402 
L 145.858739 79.786689 
L 145.890711 80.305975 
L 145.922813 80.825261 
L 145.953627 81.344547 
L 145.981633 81.863833 
L 146.005326 82.38312 
L 146.023351 82.902406 
L 146.034631 83.421692 
L 146.038471 83.940978 
z
" clip-path="url(#p377fbefa17)" style="fill-opacity: 0.3"/>
   </g>
   <g id="PolyCollection_3">
    <path d="M 196.256768 51.547889 
L 191.398963 51.547889 
L 191.281124 51.372567 
L 191.168192 51.197246 
L 191.061168 51.021924 
L 190.96101 50.846603 
L 190.868617 50.671281 
L 190.784817 50.495959 
L 190.710351 50.320638 
L 190.645861 50.145316 
L 190.591882 49.969995 
L 190.54883 49.794673 
L 190.516995 49.619351 
L 190.496537 49.44403 
L 190.48748 49.268708 
L 190.48971 49.093386 
L 190.50298 48.918065 
L 190.526905 48.742743 
L 190.56097 48.567422 
L 190.604537 48.3921 
L 190.656848 48.216778 
L 190.717041 48.041457 
L 190.784155 47.866135 
L 190.857145 47.690813 
L 190.934891 47.515492 
L 191.016217 47.34017 
L 191.099899 47.164849 
L 191.184682 46.989527 
L 191.269292 46.814205 
L 191.352446 46.638884 
L 191.432868 46.463562 
L 191.509294 46.28824 
L 191.580484 46.112919 
L 191.64523 45.937597 
L 191.702357 45.762276 
L 191.750734 45.586954 
L 191.789272 45.411632 
L 191.816926 45.236311 
L 191.8327 45.060989 
L 191.835643 44.885667 
L 191.824851 44.710346 
L 191.799465 44.535024 
L 191.758674 44.359703 
L 191.701715 44.184381 
L 191.627876 44.009059 
L 191.536496 43.833738 
L 191.426974 43.658416 
L 191.298775 43.483094 
L 191.151438 43.307773 
L 190.984587 43.132451 
L 190.797942 42.95713 
L 190.591338 42.781808 
L 190.364734 42.606486 
L 190.118236 42.431165 
L 189.852109 42.255843 
L 189.566801 42.080521 
L 189.262955 41.9052 
L 188.941424 41.729878 
L 188.603294 41.554557 
L 188.249886 41.379235 
L 187.882772 41.203913 
L 187.503777 41.028592 
L 187.114978 40.85327 
L 186.718704 40.677948 
L 186.317524 40.502627 
L 185.914228 40.327305 
L 185.511812 40.151984 
L 185.113443 39.976662 
L 184.722432 39.80134 
L 184.34219 39.626019 
L 183.976188 39.450697 
L 183.627907 39.275376 
L 183.300787 39.100054 
L 182.998175 38.924732 
L 182.72327 38.749411 
L 182.479071 38.574089 
L 182.268321 38.398767 
L 182.093463 38.223446 
L 181.956592 38.048124 
L 181.859417 37.872803 
L 181.803227 37.697481 
L 181.788868 37.522159 
L 181.816724 37.346838 
L 181.886712 37.171516 
L 181.998278 36.996194 
L 182.15041 36.820873 
L 182.341654 36.645551 
L 182.570143 36.47023 
L 182.833629 36.294908 
L 183.129525 36.119586 
L 183.454949 35.944265 
L 183.806773 35.768943 
L 184.181682 35.593621 
L 184.576221 35.4183 
L 184.986856 35.242978 
L 185.410025 35.067657 
L 185.842191 34.892335 
L 186.279893 34.717013 
L 186.719786 34.541692 
L 187.158689 34.36637 
L 187.593612 34.191048 
L 200.062119 34.191048 
L 200.062119 34.191048 
L 200.497042 34.36637 
L 200.935945 34.541692 
L 201.375838 34.717013 
L 201.81354 34.892335 
L 202.245706 35.067657 
L 202.668875 35.242978 
L 203.07951 35.4183 
L 203.474049 35.593621 
L 203.848957 35.768943 
L 204.200782 35.944265 
L 204.526206 36.119586 
L 204.822102 36.294908 
L 205.085588 36.47023 
L 205.314077 36.645551 
L 205.505321 36.820873 
L 205.657453 36.996194 
L 205.769019 37.171516 
L 205.839006 37.346838 
L 205.866863 37.522159 
L 205.852504 37.697481 
L 205.796314 37.872803 
L 205.699139 38.048124 
L 205.562268 38.223446 
L 205.38741 38.398767 
L 205.17666 38.574089 
L 204.93246 38.749411 
L 204.657556 38.924732 
L 204.354944 39.100054 
L 204.027824 39.275376 
L 203.679542 39.450697 
L 203.31354 39.626019 
L 202.933299 39.80134 
L 202.542288 39.976662 
L 202.143919 40.151984 
L 201.741502 40.327305 
L 201.338207 40.502627 
L 200.937026 40.677948 
L 200.540753 40.85327 
L 200.151954 41.028592 
L 199.772959 41.203913 
L 199.405845 41.379235 
L 199.052437 41.554557 
L 198.714307 41.729878 
L 198.392776 41.9052 
L 198.088929 42.080521 
L 197.803621 42.255843 
L 197.537495 42.431165 
L 197.290997 42.606486 
L 197.064393 42.781808 
L 196.857789 42.95713 
L 196.671144 43.132451 
L 196.504293 43.307773 
L 196.356956 43.483094 
L 196.228757 43.658416 
L 196.119235 43.833738 
L 196.027855 44.009059 
L 195.954016 44.184381 
L 195.897057 44.359703 
L 195.856266 44.535024 
L 195.83088 44.710346 
L 195.820088 44.885667 
L 195.82303 45.060989 
L 195.838804 45.236311 
L 195.866459 45.411632 
L 195.904996 45.586954 
L 195.953373 45.762276 
L 196.010501 45.937597 
L 196.075246 46.112919 
L 196.146437 46.28824 
L 196.222863 46.463562 
L 196.303284 46.638884 
L 196.386439 46.814205 
L 196.471049 46.989527 
L 196.555832 47.164849 
L 196.639514 47.34017 
L 196.72084 47.515492 
L 196.798586 47.690813 
L 196.871575 47.866135 
L 196.93869 48.041457 
L 196.998883 48.216778 
L 197.051194 48.3921 
L 197.094761 48.567422 
L 197.128826 48.742743 
L 197.152751 48.918065 
L 197.16602 49.093386 
L 197.168251 49.268708 
L 197.159194 49.44403 
L 197.138736 49.619351 
L 197.106901 49.794673 
L 197.063849 49.969995 
L 197.00987 50.145316 
L 196.94538 50.320638 
L 196.870914 50.495959 
L 196.787114 50.671281 
L 196.694721 50.846603 
L 196.594563 51.021924 
L 196.487539 51.197246 
L 196.374607 51.372567 
L 196.256768 51.547889 
z
" clip-path="url(#p377fbefa17)" style="fill-opacity: 0.3"/>
   </g>
   <g id="PathCollection_1">
    <defs>
     <path id="mcd414fa7f7" d="M 0 3 
C 0.795609 3 1.55874 2.683901 2.12132 2.12132 
C 2.683901 1.55874 3 0.795609 3 0 
C 3 -0.795609 2.683901 -1.55874 2.12132 -2.12132 
C 1.55874 -2.683901 0.795609 -3 0 -3 
C -0.795609 -3 -1.55874 -2.683901 -2.12132 -2.12132 
C -2.683901 -1.55874 -3 -0.795609 -3 0 
C -3 0.795609 -2.683901 1.55874 -2.12132 2.12132 
C -1.55874 2.683901 -0.795609 3 0 3 
z
" style="stroke: #1f77b4"/>
    </defs>
    <g clip-path="url(#p377fbefa17)">
     <use xlink:href="#mcd414fa7f7" x="97.515883" y="52.410603" style="fill: #1f77b4; stroke: #1f77b4"/>
     <use xlink:href="#mcd414fa7f7" x="145.671874" y="39.452538" style="fill: #1f77b4; stroke: #1f77b4"/>
     <use xlink:href="#mcd414fa7f7" x="193.827865" y="40.123136" style="fill: #1f77b4; stroke: #1f77b4"/>
    </g>
   </g>
   <g id="matplotlib.axis_1">
    <g id="xtick_1">
     <g id="line2d_1">
      <defs>
       <path id="m1873c2d6ba" d="M 0 0 
L 0 3.5 
" style="stroke: #000000; stroke-width: 0.8"/>
      </defs>
      <g>
       <use xlink:href="#m1873c2d6ba" x="97.515883" y="88.17222" style="stroke: #000000; stroke-width: 0.8"/>
      </g>
     </g>
     <g id="text_1">
      <text style="font: 6px 'DejaVu Sans', 'Bitstream Vera Sans', 'Computer Modern Sans Serif', 'Lucida Grande', 'Verdana', 'Geneva', 'Lucid', 'Arial', 'Helvetica', 'Avant Garde', sans-serif; text-anchor: middle" x="97.515883" y="99.731283" transform="rotate(-0 97.515883 99.731283)">0</text>
     </g>
    </g>
    <g id="xtick_2">
     <g id="line2d_2">
      <g>
       <use xlink:href="#m1873c2d6ba" x="145.671874" y="88.17222" style="stroke: #000000; stroke-width: 0.8"/>
      </g>
     </g>
     <g id="text_2">
      <text style="font: 6px 'DejaVu Sans', 'Bitstream Vera Sans', 'Computer Modern Sans Serif', 'Lucida Grande', 'Verdana', 'Geneva', 'Lucid', 'Arial', 'Helvetica', 'Avant Garde', sans-serif; text-anchor: middle" x="145.671874" y="99.731283" transform="rotate(-0 145.671874 99.731283)">1</text>
     </g>
    </g>
    <g id="xtick_3">
     <g id="line2d_3">
      <g>
       <use xlink:href="#m1873c2d6ba" x="193.827865" y="88.17222" style="stroke: #000000; stroke-width: 0.8"/>
      </g>
     </g>
     <g id="text_3">
      <text style="font: 6px 'DejaVu Sans', 'Bitstream Vera Sans', 'Computer Modern Sans Serif', 'Lucida Grande', 'Verdana', 'Geneva', 'Lucid', 'Arial', 'Helvetica', 'Avant Garde', sans-serif; text-anchor: middle" x="193.827865" y="99.731283" transform="rotate(-0 193.827865 99.731283)">2</text>
     </g>
    </g>
   </g>
   <g id="matplotlib.axis_2">
    <g id="ytick_1">
     <g id="line2d_4">
      <defs>
       <path id="m41b39a7927" d="M 0 0 
L -3.5 0 
" style="stroke: #000000; stroke-width: 0.8"/>
      </defs>
      <g>
       <use xlink:href="#m41b39a7927" x="79.457386" y="88.17222" style="stroke: #000000; stroke-width: 0.8"/>
      </g>
     </g>
     <g id="text_4">
      <text style="font: 6px 'DejaVu Sans', 'Bitstream Vera Sans', 'Computer Modern Sans Serif', 'Lucida Grande', 'Verdana', 'Geneva', 'Lucid', 'Arial', 'Helvetica', 'Avant Garde', sans-serif; text-anchor: end" x="72.457386" y="90.451752" transform="rotate(-0 72.457386 90.451752)">0.6</text>
     </g>
    </g>
    <g id="ytick_2">
     <g id="line2d_5">
      <g>
       <use xlink:href="#m41b39a7927" x="79.457386" y="72.427181" style="stroke: #000000; stroke-width: 0.8"/>
      </g>
     </g>
     <g id="text_5">
      <text style="font: 6px 'DejaVu Sans', 'Bitstream Vera Sans', 'Computer Modern Sans Serif', 'Lucida Grande', 'Verdana', 'Geneva', 'Lucid', 'Arial', 'Helvetica', 'Avant Garde', sans-serif; text-anchor: end" x="72.457386" y="74.706712" transform="rotate(-0 72.457386 74.706712)">0.7</text>
     </g>
    </g>
    <g id="ytick_3">
     <g id="line2d_6">
      <g>
       <use xlink:href="#m41b39a7927" x="79.457386" y="56.682142" style="stroke: #000000; stroke-width: 0.8"/>
      </g>
     </g>
     <g id="text_6">
      <text style="font: 6px 'DejaVu Sans', 'Bitstream Vera Sans', 'Computer Modern Sans Serif', 'Lucida Grande', 'Verdana', 'Geneva', 'Lucid', 'Arial', 'Helvetica', 'Avant Garde', sans-serif; text-anchor: end" x="72.457386" y="58.961673" transform="rotate(-0 72.457386 58.961673)">0.8</text>
     </g>
    </g>
    <g id="ytick_4">
     <g id="line2d_7">
      <g>
       <use xlink:href="#m41b39a7927" x="79.457386" y="40.937102" style="stroke: #000000; stroke-width: 0.8"/>
      </g>
     </g>
     <g id="text_7">
      <text style="font: 6px 'DejaVu Sans', 'Bitstream Vera Sans', 'Computer Modern Sans Serif', 'Lucida Grande', 'Verdana', 'Geneva', 'Lucid', 'Arial', 'Helvetica', 'Avant Garde', sans-serif; text-anchor: end" x="72.457386" y="43.216634" transform="rotate(-0 72.457386 43.216634)">0.9</text>
     </g>
    </g>
    <g id="ytick_5">
     <g id="line2d_8">
      <g>
       <use xlink:href="#m41b39a7927" x="79.457386" y="25.192063" style="stroke: #000000; stroke-width: 0.8"/>
      </g>
     </g>
     <g id="text_8">
      <text style="font: 6px 'DejaVu Sans', 'Bitstream Vera Sans', 'Computer Modern Sans Serif', 'Lucida Grande', 'Verdana', 'Geneva', 'Lucid', 'Arial', 'Helvetica', 'Avant Garde', sans-serif; text-anchor: end" x="72.457386" y="27.471594" transform="rotate(-0 72.457386 27.471594)">1.0</text>
     </g>
    </g>
   </g>
   <g id="patch_3">
    <path d="M 79.457386 88.17222 
L 79.457386 25.192063 
" style="fill: none; stroke: #000000; stroke-width: 0.8; stroke-linejoin: miter; stroke-linecap: square"/>
   </g>
   <g id="patch_4">
    <path d="M 79.457386 88.17222 
L 211.886362 88.17222 
" style="fill: none; stroke: #000000; stroke-width: 0.8; stroke-linejoin: miter; stroke-linecap: square"/>
   </g>
  </g>
 </g>
 <defs>
  <clipPath id="p377fbefa17">
   <rect x="79.457386" y="25.192063" width="132.428976" height="62.980157"/>
  </clipPath>
 </defs>
</svg>
