<?xml version="1.0" encoding="utf-8" standalone="no"?>
<!DOCTYPE svg PUBLIC "-//W3C//DTD SVG 1.1//EN"
  "http://www.w3.org/Graphics/SVG/1.1/DTD/svg11.dtd">
<svg xmlns:xlink="http://www.w3.org/1999/xlink" width="140.133543pt" height="125.960315pt" viewBox="0 0 140.133543 125.960315" xmlns="http://www.w3.org/2000/svg" version="1.1">
 <metadata>
  <rdf:RDF xmlns:dc="http://purl.org/dc/elements/1.1/" xmlns:cc="http://creativecommons.org/ns#" xmlns:rdf="http://www.w3.org/1999/02/22-rdf-syntax-ns#">
   <cc:Work>
    <dc:type rdf:resource="http://purl.org/dc/dcmitype/StillImage"/>
    <dc:date>2023-10-23T10:48:56.759569</dc:date>
    <dc:format>image/svg+xml</dc:format>
    <dc:creator>
     <cc:Agent>
      <dc:title>Matplotlib v3.8.0, https://matplotlib.org/</dc:title>
     </cc:Agent>
    </dc:creator>
   </cc:Work>
  </rdf:RDF>
 </metadata>
 <defs>
  <style type="text/css">*{stroke-linejoin: round; stroke-linecap: butt}</style>
 </defs>
 <g id="figure_1">
  <g id="patch_1">
   <path d="M 0 125.960315 
L 140.133543 125.960315 
L 140.133543 0 
L 0 0 
z
" style="fill: #ffffff"/>
  </g>
  <g id="axes_1">
   <g id="patch_2">
    <path d="M 42.040063 88.17222 
L 112.106835 88.17222 
L 112.106835 25.192063 
L 42.040063 25.192063 
z
" style="fill: #ffffff"/>
   </g>
   <g id="matplotlib.axis_1">
    <g id="xtick_1">
     <g id="line2d_1">
      <defs>
       <path id="m4610e65aa1" d="M 0 0 
L 0 3.5 
" style="stroke: #000000; stroke-width: 0.8"/>
      </defs>
      <g>
       <use xlink:href="#m4610e65aa1" x="60.986691" y="88.17222" style="stroke: #000000; stroke-width: 0.8"/>
      </g>
     </g>
     <g id="text_1">
      <text style="font: 6px 'arial'; text-anchor: middle" x="60.986691" y="99.466908" transform="rotate(-0 60.986691 99.466908)">0.0</text>
     </g>
    </g>
    <g id="xtick_2">
     <g id="line2d_2">
      <g>
       <use xlink:href="#m4610e65aa1" x="93.485191" y="88.17222" style="stroke: #000000; stroke-width: 0.8"/>
      </g>
     </g>
     <g id="text_2">
      <text style="font: 6px 'arial'; text-anchor: middle" x="93.485191" y="99.466908" transform="rotate(-0 93.485191 99.466908)">0.2</text>
     </g>
    </g>
   </g>
   <g id="matplotlib.axis_2">
    <g id="ytick_1">
     <g id="line2d_3">
      <defs>
       <path id="md0a91424fa" d="M 0 0 
L -3.5 0 
" style="stroke: #000000; stroke-width: 0.8"/>
      </defs>
      <g>
       <use xlink:href="#md0a91424fa" x="42.040063" y="84.767888" style="stroke: #000000; stroke-width: 0.8"/>
      </g>
     </g>
     <g id="text_3">
      <text style="font: 6px 'arial'; text-anchor: end" x="35.040063" y="86.915231" transform="rotate(-0 35.040063 86.915231)">10</text>
     </g>
    </g>
    <g id="ytick_2">
     <g id="line2d_4">
      <g>
       <use xlink:href="#md0a91424fa" x="42.040063" y="67.746223" style="stroke: #000000; stroke-width: 0.8"/>
      </g>
     </g>
     <g id="text_4">
      <text style="font: 6px 'arial'; text-anchor: end" x="35.040063" y="69.893567" transform="rotate(-0 35.040063 69.893567)">20</text>
     </g>
    </g>
    <g id="ytick_3">
     <g id="line2d_5">
      <g>
       <use xlink:href="#md0a91424fa" x="42.040063" y="50.724559" style="stroke: #000000; stroke-width: 0.8"/>
      </g>
     </g>
     <g id="text_5">
      <text style="font: 6px 'arial'; text-anchor: end" x="35.040063" y="52.871903" transform="rotate(-0 35.040063 52.871903)">30</text>
     </g>
    </g>
    <g id="ytick_4">
     <g id="line2d_6">
      <g>
       <use xlink:href="#md0a91424fa" x="42.040063" y="33.702895" style="stroke: #000000; stroke-width: 0.8"/>
      </g>
     </g>
     <g id="text_6">
      <text style="font: 6px 'arial'; text-anchor: end" x="35.040063" y="35.850239" transform="rotate(-0 35.040063 35.850239)">40</text>
     </g>
    </g>
   </g>
   <g id="line2d_7">
    <path d="M 45.224916 84.684857 
L 45.874888 83.231789 
L 46.849842 83.494724 
L 47.824795 84.767891 
L 48.799754 84.643341 
L 49.774708 83.148755 
L 50.749663 83.176431 
L 51.724618 84.989307 
L 52.699573 83.688466 
L 53.674528 81.515783 
L 54.649483 82.000138 
L 55.624438 83.231786 
L 56.599394 83.674627 
L 57.574348 83.134917 
L 58.549304 82.871981 
L 59.524259 84.186666 
L 60.499214 84.242019 
L 61.474168 82.221557 
L 62.449124 82.221558 
L 63.424079 82.013979 
L 64.399034 59.622883 
L 65.373989 31.516365 
L 66.348944 32.734187 
L 67.323899 46.877387 
L 68.298854 54.294957 
L 69.27381 58.875584 
L 70.248764 65.36596 
L 71.22372 71.455012 
L 72.198673 74.458013 
L 73.17363 75.039243 
L 74.148586 76.990507 
L 75.123539 80.090391 
L 76.098494 81.543458 
L 77.073449 81.377392 
L 78.048405 81.363555 
L 79.02336 83.384012 
L 79.998316 84.366564 
L 80.973271 82.816626 
L 81.948222 83.093395 
L 82.923179 84.726371 
L 83.898136 84.40808 
L 84.873088 82.622883 
L 85.848045 82.941171 
L 86.823002 83.937563 
L 87.797954 83.245626 
L 88.772911 82.221558 
L 89.747868 83.134917 
L 90.722821 84.795567 
L 91.697778 84.532631 
L 92.67273 84.034436 
L 93.647687 82.913495 
L 94.622644 83.75766 
L 95.597601 84.74021 
L 96.572553 82.733593 
L 97.547507 82.470655 
L 98.522462 83.633106 
L 99.497412 83.563914 
L 100.472371 82.27691 
L 101.447323 82.650559 
L 102.422283 83.563916 
L 103.397235 84.366564 
L 104.372187 84.283535 
L 105.347149 83.273302 
L 106.322101 84.186662 
L 107.297053 84.380405 
L 108.27201 83.660789 
L 108.921981 83.999838 
" clip-path="url(#pc02dc3b80f)" style="fill: none; stroke: #000000; stroke-width: 1.5; stroke-linecap: square"/>
   </g>
   <g id="line2d_8">
    <path d="M 45.224916 83.822242 
L 45.874888 84.38963 
L 46.849842 86.154839 
L 47.824795 85.713537 
L 48.799754 83.507025 
L 49.774708 83.00268 
L 50.749663 83.065724 
L 51.724618 83.696154 
L 52.699573 83.507025 
L 53.674528 83.19181 
L 54.649483 83.507025 
L 55.624438 83.759197 
L 56.599394 82.62442 
L 57.574348 82.435292 
L 58.549304 82.876592 
L 59.524259 82.246163 
L 60.499214 83.128766 
L 61.474168 84.515717 
L 62.449124 83.507025 
L 63.424079 82.813549 
L 64.399034 84.263544 
L 65.373989 84.01137 
L 66.348944 83.380936 
L 67.323899 83.885285 
L 68.298854 83.128766 
L 69.27381 81.552687 
L 70.248764 82.750508 
L 71.22372 84.641803 
L 72.198673 84.641802 
L 73.17363 82.939637 
L 74.148586 82.498335 
L 75.123539 84.200498 
L 76.098494 83.570068 
L 77.073449 83.317895 
L 78.048405 84.767891 
L 79.02336 85.335276 
L 79.998316 84.326587 
L 80.973271 84.38963 
L 81.948222 84.074415 
L 82.923179 82.498335 
L 83.898136 83.696156 
L 84.873088 83.507024 
L 85.848045 82.687462 
L 86.823002 83.380938 
L 87.797954 83.443981 
L 88.772911 84.578759 
L 89.747868 85.272235 
L 90.722821 83.696156 
L 91.697778 82.183118 
L 92.67273 83.002678 
L 93.647687 83.570067 
L 94.622644 84.137455 
L 95.597601 83.759197 
L 96.572553 83.065724 
L 97.547507 82.62442 
L 98.522462 82.120075 
L 99.497412 83.948328 
L 100.472371 85.524406 
L 101.447323 84.957018 
L 102.422283 84.326587 
L 103.397235 83.822242 
L 104.372187 83.759199 
L 105.347149 82.876592 
L 106.322101 83.065723 
L 107.297053 82.183117 
L 108.27201 81.04834 
L 108.921981 84.862454 
" clip-path="url(#pc02dc3b80f)" style="fill: none; stroke: #ff0000; stroke-width: 1.5; stroke-linecap: square"/>
   </g>
   <g id="patch_3">
    <path d="M 42.040063 88.17222 
L 42.040063 25.192063 
" style="fill: none; stroke: #000000; stroke-width: 0.8; stroke-linejoin: miter; stroke-linecap: square"/>
   </g>
   <g id="patch_4">
    <path d="M 112.106835 88.17222 
L 112.106835 25.192063 
" style="fill: none; stroke: #000000; stroke-width: 0.8; stroke-linejoin: miter; stroke-linecap: square"/>
   </g>
   <g id="patch_5">
    <path d="M 42.040063 88.17222 
L 112.106835 88.17222 
" style="fill: none; stroke: #000000; stroke-width: 0.8; stroke-linejoin: miter; stroke-linecap: square"/>
   </g>
   <g id="patch_6">
    <path d="M 42.040063 25.192063 
L 112.106835 25.192063 
" style="fill: none; stroke: #000000; stroke-width: 0.8; stroke-linejoin: miter; stroke-linecap: square"/>
   </g>
  </g>
 </g>
 <defs>
  <clipPath id="pc02dc3b80f">
   <rect x="42.040063" y="25.192063" width="70.066772" height="62.980157"/>
  </clipPath>
 </defs>
</svg>
