<?xml version="1.0" encoding="utf-8" standalone="no"?>
<!DOCTYPE svg PUBLIC "-//W3C//DTD SVG 1.1//EN"
  "http://www.w3.org/Graphics/SVG/1.1/DTD/svg11.dtd">
<svg xmlns:xlink="http://www.w3.org/1999/xlink" width="264.857953pt" height="125.960315pt" viewBox="0 0 264.857953 125.960315" xmlns="http://www.w3.org/2000/svg" version="1.1">
 <metadata>
  <rdf:RDF xmlns:dc="http://purl.org/dc/elements/1.1/" xmlns:cc="http://creativecommons.org/ns#" xmlns:rdf="http://www.w3.org/1999/02/22-rdf-syntax-ns#">
   <cc:Work>
    <dc:type rdf:resource="http://purl.org/dc/dcmitype/StillImage"/>
    <dc:date>2023-10-23T09:57:05.725717</dc:date>
    <dc:format>image/svg+xml</dc:format>
    <dc:creator>
     <cc:Agent>
      <dc:title>Matplotlib v3.8.0, https://matplotlib.org/</dc:title>
     </cc:Agent>
    </dc:creator>
   </cc:Work>
  </rdf:RDF>
 </metadata>
 <defs>
  <style type="text/css">*{stroke-linejoin: round; stroke-linecap: butt}</style>
 </defs>
 <g id="figure_1">
  <g id="patch_1">
   <path d="M 0 125.960315 
L 264.857953 125.960315 
L 264.857953 0 
L 0 0 
z
" style="fill: #ffffff"/>
  </g>
  <g id="axes_1">
   <g id="patch_2">
    <path d="M 79.457386 88.17222 
L 211.886362 88.17222 
L 211.886362 25.192063 
L 79.457386 25.192063 
z
" style="fill: #ffffff"/>
   </g>
   <g id="PolyCollection_1">
    <path d="M 98.620389 93.306374 
L 96.411376 93.306374 
L 96.342544 92.712345 
L 96.2752 92.118316 
L 96.21004 91.524287 
L 96.147765 90.930259 
L 96.089068 90.33623 
L 96.034622 89.742201 
L 95.985071 89.148172 
L 95.941011 88.554144 
L 95.902985 87.960115 
L 95.871466 87.366086 
L 95.846852 86.772057 
L 95.829454 86.178029 
L 95.819491 85.584 
L 95.817082 84.989971 
L 95.822247 84.395942 
L 95.834903 83.801914 
L 95.85486 83.207885 
L 95.881831 82.613856 
L 95.91543 82.019827 
L 95.955178 81.425799 
L 96.000508 80.83177 
L 96.050776 80.237741 
L 96.105268 79.643712 
L 96.163207 79.049684 
L 96.223766 78.455655 
L 96.286078 77.861626 
L 96.349249 77.267597 
L 96.412363 76.673569 
L 96.474501 76.07954 
L 96.534748 75.485511 
L 96.592205 74.891482 
L 96.646002 74.297454 
L 96.695301 73.703425 
L 96.739315 73.109396 
L 96.777309 72.515367 
L 96.808609 71.921338 
L 96.832607 71.32731 
L 96.848766 70.733281 
L 96.85662 70.139252 
L 96.855776 69.545223 
L 96.845909 68.951195 
L 96.82676 68.357166 
L 96.798127 67.763137 
L 96.759859 67.169108 
L 96.711842 66.57508 
L 96.65399 65.981051 
L 96.586227 65.387022 
L 96.508475 64.792993 
L 96.420638 64.198965 
L 96.322586 63.604936 
L 96.214141 63.010907 
L 96.095064 62.416878 
L 95.965045 61.82285 
L 95.823693 61.228821 
L 95.670538 60.634792 
L 95.505025 60.040763 
L 95.326526 59.446735 
L 95.134347 58.852706 
L 94.927751 58.258677 
L 94.705973 57.664648 
L 94.468258 57.07062 
L 94.213889 56.476591 
L 93.94223 55.882562 
L 93.652766 55.288533 
L 93.345152 54.694505 
L 93.019259 54.100476 
L 92.675221 53.506447 
L 92.313482 52.912418 
L 91.934842 52.31839 
L 91.54049 51.724361 
L 91.132041 51.130332 
L 90.711554 50.536303 
L 90.281553 49.942275 
L 89.845021 49.348246 
L 89.405396 48.754217 
L 88.966545 48.160188 
L 88.532724 47.56616 
L 88.10853 46.972131 
L 87.69883 46.378102 
L 87.308687 45.784073 
L 86.943262 45.190045 
L 86.607717 44.596016 
L 86.307102 44.001987 
L 86.046244 43.407958 
L 85.829623 42.81393 
L 85.661265 42.219901 
L 85.544624 41.625872 
L 85.482488 41.031843 
L 85.476885 40.437815 
L 85.529014 39.843786 
L 85.639196 39.249757 
L 85.806837 38.655728 
L 86.03043 38.0617 
L 86.307569 37.467671 
L 86.634993 36.873642 
L 87.008659 36.279613 
L 87.423825 35.685585 
L 87.875163 35.091556 
L 88.356882 34.497527 
L 106.674883 34.497527 
L 106.674883 34.497527 
L 107.156603 35.091556 
L 107.60794 35.685585 
L 108.023106 36.279613 
L 108.396772 36.873642 
L 108.724197 37.467671 
L 109.001335 38.0617 
L 109.224928 38.655728 
L 109.39257 39.249757 
L 109.502751 39.843786 
L 109.55488 40.437815 
L 109.549277 41.031843 
L 109.487141 41.625872 
L 109.3705 42.219901 
L 109.202142 42.81393 
L 108.985522 43.407958 
L 108.724663 44.001987 
L 108.424048 44.596016 
L 108.088503 45.190045 
L 107.723078 45.784073 
L 107.332935 46.378102 
L 106.923236 46.972131 
L 106.499041 47.56616 
L 106.065221 48.160188 
L 105.626369 48.754217 
L 105.186745 49.348246 
L 104.750213 49.942275 
L 104.320211 50.536303 
L 103.899725 51.130332 
L 103.491275 51.724361 
L 103.096923 52.31839 
L 102.718283 52.912418 
L 102.356545 53.506447 
L 102.012506 54.100476 
L 101.686613 54.694505 
L 101.378999 55.288533 
L 101.089535 55.882562 
L 100.817876 56.476591 
L 100.563507 57.07062 
L 100.325792 57.664648 
L 100.104015 58.258677 
L 99.897418 58.852706 
L 99.705239 59.446735 
L 99.52674 60.040763 
L 99.361227 60.634792 
L 99.208072 61.228821 
L 99.06672 61.82285 
L 98.936701 62.416878 
L 98.817624 63.010907 
L 98.709179 63.604936 
L 98.611127 64.198965 
L 98.52329 64.792993 
L 98.445538 65.387022 
L 98.377775 65.981051 
L 98.319923 66.57508 
L 98.271907 67.169108 
L 98.233638 67.763137 
L 98.205006 68.357166 
L 98.185856 68.951195 
L 98.175989 69.545223 
L 98.175145 70.139252 
L 98.182999 70.733281 
L 98.199158 71.32731 
L 98.223156 71.921338 
L 98.254456 72.515367 
L 98.29245 73.109396 
L 98.336464 73.703425 
L 98.385764 74.297454 
L 98.43956 74.891482 
L 98.497017 75.485511 
L 98.557264 76.07954 
L 98.619402 76.673569 
L 98.682517 77.267597 
L 98.745687 77.861626 
L 98.808 78.455655 
L 98.868559 79.049684 
L 98.926497 79.643712 
L 98.980989 80.237741 
L 99.031257 80.83177 
L 99.076587 81.425799 
L 99.116335 82.019827 
L 99.149934 82.613856 
L 99.176905 83.207885 
L 99.196863 83.801914 
L 99.209518 84.395942 
L 99.214683 84.989971 
L 99.212274 85.584 
L 99.202311 86.178029 
L 99.184913 86.772057 
L 99.160299 87.366086 
L 99.12878 87.960115 
L 99.090754 88.554144 
L 99.046694 89.148172 
L 98.997143 89.742201 
L 98.942697 90.33623 
L 98.884 90.930259 
L 98.821725 91.524287 
L 98.756565 92.118316 
L 98.689222 92.712345 
L 98.620389 93.306374 
z
" clip-path="url(#p7339a58bad)" style="fill-opacity: 0.3"/>
   </g>
   <g id="PolyCollection_2">
    <path d="M 146.46673 81.849478 
L 144.877018 81.849478 
L 144.844483 81.339717 
L 144.817961 80.829956 
L 144.798109 80.320195 
L 144.785428 79.810434 
L 144.780236 79.300673 
L 144.782655 78.790912 
L 144.792597 78.281151 
L 144.809771 77.77139 
L 144.833683 77.261629 
L 144.863658 76.751868 
L 144.898862 76.242106 
L 144.938332 75.732345 
L 144.981014 75.222584 
L 145.025793 74.712823 
L 145.071543 74.203062 
L 145.117156 73.693301 
L 145.161583 73.18354 
L 145.203865 72.673779 
L 145.243163 72.164018 
L 145.278773 71.654257 
L 145.310152 71.144496 
L 145.336919 70.634735 
L 145.358862 70.124974 
L 145.375936 69.615213 
L 145.388251 69.105452 
L 145.396065 68.595691 
L 145.399762 68.085929 
L 145.399833 67.576168 
L 145.396852 67.066407 
L 145.391449 66.556646 
L 145.384282 66.046885 
L 145.37601 65.537124 
L 145.367263 65.027363 
L 145.358613 64.517602 
L 145.350549 64.007841 
L 145.34345 63.49808 
L 145.337572 62.988319 
L 145.33302 62.478558 
L 145.329748 61.968797 
L 145.327544 61.459036 
L 145.326034 60.949275 
L 145.324687 60.439514 
L 145.322822 59.929753 
L 145.319627 59.419991 
L 145.314179 58.91023 
L 145.305464 58.400469 
L 145.292407 57.890708 
L 145.273898 57.380947 
L 145.24882 56.871186 
L 145.216074 56.361425 
L 145.174604 55.851664 
L 145.123415 55.341903 
L 145.061588 54.832142 
L 144.988286 54.322381 
L 144.902757 53.81262 
L 144.804324 53.302859 
L 144.692366 52.793098 
L 144.566299 52.283337 
L 144.425545 51.773576 
L 144.269492 51.263815 
L 144.097464 50.754053 
L 143.908681 50.244292 
L 143.702232 49.734531 
L 143.477055 49.22477 
L 143.231934 48.715009 
L 142.965515 48.205248 
L 142.676347 47.695487 
L 142.36295 47.185726 
L 142.023912 46.675965 
L 141.658007 46.166204 
L 141.26435 45.656443 
L 140.842557 45.146682 
L 140.392923 44.636921 
L 139.916602 44.12716 
L 139.415764 43.617399 
L 138.893737 43.107638 
L 138.3551 42.597877 
L 137.805734 42.088115 
L 137.252795 41.578354 
L 136.70463 41.068593 
L 136.170613 40.558832 
L 135.660905 40.049071 
L 135.18615 39.53931 
L 134.757122 39.029549 
L 134.38432 38.519788 
L 134.077558 38.010027 
L 133.845549 37.500266 
L 133.695519 36.990505 
L 133.632876 36.480744 
L 133.660942 35.970983 
L 133.780774 35.461222 
L 133.991089 34.951461 
L 134.288286 34.4417 
L 134.666576 33.931939 
L 135.118199 33.422177 
L 135.633736 32.912416 
L 136.202474 32.402655 
L 136.812816 31.892894 
L 137.452715 31.383133 
L 153.891033 31.383133 
L 153.891033 31.383133 
L 154.530932 31.892894 
L 155.141274 32.402655 
L 155.710012 32.912416 
L 156.225549 33.422177 
L 156.677172 33.931939 
L 157.055462 34.4417 
L 157.352659 34.951461 
L 157.562975 35.461222 
L 157.682807 35.970983 
L 157.710872 36.480744 
L 157.648229 36.990505 
L 157.498199 37.500266 
L 157.26619 38.010027 
L 156.959428 38.519788 
L 156.586626 39.029549 
L 156.157598 39.53931 
L 155.682843 40.049071 
L 155.173135 40.558832 
L 154.639118 41.068593 
L 154.090953 41.578354 
L 153.538014 42.088115 
L 152.988648 42.597877 
L 152.450011 43.107638 
L 151.927984 43.617399 
L 151.427146 44.12716 
L 150.950825 44.636921 
L 150.501191 45.146682 
L 150.079398 45.656443 
L 149.685741 46.166204 
L 149.319836 46.675965 
L 148.980798 47.185726 
L 148.667401 47.695487 
L 148.378233 48.205248 
L 148.111814 48.715009 
L 147.866693 49.22477 
L 147.641516 49.734531 
L 147.435067 50.244292 
L 147.246284 50.754053 
L 147.074256 51.263815 
L 146.918203 51.773576 
L 146.777449 52.283337 
L 146.651382 52.793098 
L 146.539424 53.302859 
L 146.440991 53.81262 
L 146.355462 54.322381 
L 146.28216 54.832142 
L 146.220333 55.341903 
L 146.169144 55.851664 
L 146.127674 56.361425 
L 146.094928 56.871186 
L 146.06985 57.380947 
L 146.051341 57.890708 
L 146.038284 58.400469 
L 146.029569 58.91023 
L 146.024121 59.419991 
L 146.020926 59.929753 
L 146.019061 60.439514 
L 146.017714 60.949275 
L 146.016204 61.459036 
L 146.014 61.968797 
L 146.010728 62.478558 
L 146.006176 62.988319 
L 146.000298 63.49808 
L 145.993199 64.007841 
L 145.985135 64.517602 
L 145.976485 65.027363 
L 145.967738 65.537124 
L 145.959466 66.046885 
L 145.952299 66.556646 
L 145.946896 67.066407 
L 145.943915 67.576168 
L 145.943986 68.085929 
L 145.947683 68.595691 
L 145.955497 69.105452 
L 145.967812 69.615213 
L 145.984886 70.124974 
L 146.006829 70.634735 
L 146.033596 71.144496 
L 146.064975 71.654257 
L 146.100585 72.164018 
L 146.139883 72.673779 
L 146.182165 73.18354 
L 146.226592 73.693301 
L 146.272205 74.203062 
L 146.317955 74.712823 
L 146.362734 75.222584 
L 146.405416 75.732345 
L 146.444886 76.242106 
L 146.48009 76.751868 
L 146.510065 77.261629 
L 146.533977 77.77139 
L 146.551151 78.281151 
L 146.561093 78.790912 
L 146.563512 79.300673 
L 146.55832 79.810434 
L 146.545639 80.320195 
L 146.525787 80.829956 
L 146.499265 81.339717 
L 146.46673 81.849478 
z
" clip-path="url(#p7339a58bad)" style="fill-opacity: 0.3"/>
   </g>
   <g id="PolyCollection_3">
    <path d="M 194.247137 77.941198 
L 193.408594 77.941198 
L 193.396605 77.506218 
L 193.387058 77.071239 
L 193.379719 76.636259 
L 193.374292 76.20128 
L 193.370448 75.7663 
L 193.36787 75.331321 
L 193.366283 74.896341 
L 193.365486 74.461361 
L 193.365367 74.026382 
L 193.365916 73.591402 
L 193.367212 73.156423 
L 193.369407 72.721443 
L 193.372694 72.286464 
L 193.377273 71.851484 
L 193.383302 71.416504 
L 193.390863 70.981525 
L 193.399921 70.546545 
L 193.410302 70.111566 
L 193.421677 69.676586 
L 193.433562 69.241607 
L 193.445333 68.806627 
L 193.456253 68.371647 
L 193.465516 67.936668 
L 193.472293 67.501688 
L 193.475789 67.066709 
L 193.475294 66.631729 
L 193.470239 66.19675 
L 193.460241 65.76177 
L 193.445135 65.32679 
L 193.424995 64.891811 
L 193.400142 64.456831 
L 193.371129 64.021852 
L 193.338719 63.586872 
L 193.303832 63.151893 
L 193.267499 62.716913 
L 193.230782 62.281933 
L 193.194707 61.846954 
L 193.160183 61.411974 
L 193.12793 60.976995 
L 193.09841 60.542015 
L 193.071778 60.107036 
L 193.047848 59.672056 
L 193.026083 59.237076 
L 193.005602 58.802097 
L 192.985223 58.367117 
L 192.963515 57.932138 
L 192.938879 57.497158 
L 192.909636 57.062179 
L 192.874118 56.627199 
L 192.83076 56.192219 
L 192.778179 55.75724 
L 192.715229 55.32226 
L 192.641035 54.887281 
L 192.554991 54.452301 
L 192.456731 54.017322 
L 192.346058 53.582342 
L 192.222863 53.147362 
L 192.087013 52.712383 
L 191.93824 52.277403 
L 191.776029 51.842424 
L 191.599529 51.407444 
L 191.407496 50.972465 
L 191.198264 50.537485 
L 190.969782 50.102505 
L 190.71968 49.667526 
L 190.445403 49.232546 
L 190.144376 48.797567 
L 189.814216 48.362587 
L 189.452954 47.927608 
L 189.059286 47.492628 
L 188.632798 47.057648 
L 188.174188 46.622669 
L 187.685445 46.187689 
L 187.169981 45.75271 
L 186.632704 45.31773 
L 186.080029 44.882751 
L 185.519809 44.447771 
L 184.961194 44.012791 
L 184.414426 43.577812 
L 183.890548 43.142832 
L 183.401075 42.707853 
L 182.957599 42.272873 
L 182.571381 41.837894 
L 182.252913 41.402914 
L 182.011505 40.967934 
L 181.854885 40.532955 
L 181.788868 40.097975 
L 181.817071 39.662996 
L 181.94074 39.228016 
L 182.158652 38.793037 
L 182.467132 38.358057 
L 182.860178 37.923077 
L 183.329675 37.488098 
L 183.865706 37.053118 
L 184.45693 36.618139 
L 185.091014 36.183159 
L 185.755096 35.74818 
L 186.436242 35.3132 
L 187.121899 34.87822 
L 200.533832 34.87822 
L 200.533832 34.87822 
L 201.219489 35.3132 
L 201.900635 35.74818 
L 202.564717 36.183159 
L 203.198801 36.618139 
L 203.790025 37.053118 
L 204.326055 37.488098 
L 204.795553 37.923077 
L 205.188599 38.358057 
L 205.497079 38.793037 
L 205.714991 39.228016 
L 205.838659 39.662996 
L 205.866863 40.097975 
L 205.800845 40.532955 
L 205.644226 40.967934 
L 205.402818 41.402914 
L 205.08435 41.837894 
L 204.698132 42.272873 
L 204.254656 42.707853 
L 203.765183 43.142832 
L 203.241305 43.577812 
L 202.694537 44.012791 
L 202.135922 44.447771 
L 201.575701 44.882751 
L 201.023027 45.31773 
L 200.48575 45.75271 
L 199.970286 46.187689 
L 199.481543 46.622669 
L 199.022933 47.057648 
L 198.596445 47.492628 
L 198.202776 47.927608 
L 197.841515 48.362587 
L 197.511354 48.797567 
L 197.210328 49.232546 
L 196.936051 49.667526 
L 196.685949 50.102505 
L 196.457466 50.537485 
L 196.248235 50.972465 
L 196.056202 51.407444 
L 195.879702 51.842424 
L 195.717491 52.277403 
L 195.568718 52.712383 
L 195.432868 53.147362 
L 195.309673 53.582342 
L 195.199 54.017322 
L 195.100739 54.452301 
L 195.014696 54.887281 
L 194.940502 55.32226 
L 194.877552 55.75724 
L 194.824971 56.192219 
L 194.781613 56.627199 
L 194.746095 57.062179 
L 194.716852 57.497158 
L 194.692216 57.932138 
L 194.670508 58.367117 
L 194.650129 58.802097 
L 194.629648 59.237076 
L 194.607883 59.672056 
L 194.583953 60.107036 
L 194.557321 60.542015 
L 194.527801 60.976995 
L 194.495547 61.411974 
L 194.461024 61.846954 
L 194.424949 62.281933 
L 194.388232 62.716913 
L 194.351898 63.151893 
L 194.317012 63.586872 
L 194.284602 64.021852 
L 194.255589 64.456831 
L 194.230736 64.891811 
L 194.210596 65.32679 
L 194.195489 65.76177 
L 194.185492 66.19675 
L 194.180437 66.631729 
L 194.179942 67.066709 
L 194.183438 67.501688 
L 194.190215 67.936668 
L 194.199478 68.371647 
L 194.210398 68.806627 
L 194.222169 69.241607 
L 194.234053 69.676586 
L 194.245429 70.111566 
L 194.25581 70.546545 
L 194.264868 70.981525 
L 194.272429 71.416504 
L 194.278458 71.851484 
L 194.283036 72.286464 
L 194.286324 72.721443 
L 194.288519 73.156423 
L 194.289815 73.591402 
L 194.290364 74.026382 
L 194.290245 74.461361 
L 194.289448 74.896341 
L 194.287861 75.331321 
L 194.285283 75.7663 
L 194.281439 76.20128 
L 194.276011 76.636259 
L 194.268673 77.071239 
L 194.259126 77.506218 
L 194.247137 77.941198 
z
" clip-path="url(#p7339a58bad)" style="fill-opacity: 0.3"/>
   </g>
   <g id="PathCollection_1">
    <defs>
     <path id="m76bf8dddf8" d="M 0 3 
C 0.795609 3 1.55874 2.683901 2.12132 2.12132 
C 2.683901 1.55874 3 0.795609 3 0 
C 3 -0.795609 2.683901 -1.55874 2.12132 -2.12132 
C 1.55874 -2.683901 0.795609 -3 0 -3 
C -0.795609 -3 -1.55874 -2.683901 -2.12132 -2.12132 
C -2.683901 -1.55874 -3 -0.795609 -3 0 
C -3 0.795609 -2.683901 1.55874 -2.12132 2.12132 
C -1.55874 2.683901 -0.795609 3 0 3 
z
" style="stroke: #1f77b4"/>
    </defs>
    <g clip-path="url(#p7339a58bad)">
     <use xlink:href="#m76bf8dddf8" x="97.515883" y="47.423919" style="fill: #1f77b4; stroke: #1f77b4"/>
     <use xlink:href="#m76bf8dddf8" x="145.671874" y="40.383592" style="fill: #1f77b4; stroke: #1f77b4"/>
     <use xlink:href="#m76bf8dddf8" x="193.827865" y="43.145062" style="fill: #1f77b4; stroke: #1f77b4"/>
    </g>
   </g>
   <g id="matplotlib.axis_1">
    <g id="xtick_1">
     <g id="line2d_1">
      <defs>
       <path id="m710c0b5efc" d="M 0 0 
L 0 3.5 
" style="stroke: #000000; stroke-width: 0.8"/>
      </defs>
      <g>
       <use xlink:href="#m710c0b5efc" x="97.515883" y="88.17222" style="stroke: #000000; stroke-width: 0.8"/>
      </g>
     </g>
     <g id="text_1">
      <text style="font: 6px 'DejaVu Sans', 'Bitstream Vera Sans', 'Computer Modern Sans Serif', 'Lucida Grande', 'Verdana', 'Geneva', 'Lucid', 'Arial', 'Helvetica', 'Avant Garde', sans-serif; text-anchor: middle" x="97.515883" y="99.731283" transform="rotate(-0 97.515883 99.731283)">0</text>
     </g>
    </g>
    <g id="xtick_2">
     <g id="line2d_2">
      <g>
       <use xlink:href="#m710c0b5efc" x="145.671874" y="88.17222" style="stroke: #000000; stroke-width: 0.8"/>
      </g>
     </g>
     <g id="text_2">
      <text style="font: 6px 'DejaVu Sans', 'Bitstream Vera Sans', 'Computer Modern Sans Serif', 'Lucida Grande', 'Verdana', 'Geneva', 'Lucid', 'Arial', 'Helvetica', 'Avant Garde', sans-serif; text-anchor: middle" x="145.671874" y="99.731283" transform="rotate(-0 145.671874 99.731283)">1</text>
     </g>
    </g>
    <g id="xtick_3">
     <g id="line2d_3">
      <g>
       <use xlink:href="#m710c0b5efc" x="193.827865" y="88.17222" style="stroke: #000000; stroke-width: 0.8"/>
      </g>
     </g>
     <g id="text_3">
      <text style="font: 6px 'DejaVu Sans', 'Bitstream Vera Sans', 'Computer Modern Sans Serif', 'Lucida Grande', 'Verdana', 'Geneva', 'Lucid', 'Arial', 'Helvetica', 'Avant Garde', sans-serif; text-anchor: middle" x="193.827865" y="99.731283" transform="rotate(-0 193.827865 99.731283)">2</text>
     </g>
    </g>
   </g>
   <g id="matplotlib.axis_2">
    <g id="ytick_1">
     <g id="line2d_4">
      <defs>
       <path id="m19fc4ccb36" d="M 0 0 
L -3.5 0 
" style="stroke: #000000; stroke-width: 0.8"/>
      </defs>
      <g>
       <use xlink:href="#m19fc4ccb36" x="79.457386" y="88.17222" style="stroke: #000000; stroke-width: 0.8"/>
      </g>
     </g>
     <g id="text_4">
      <text style="font: 6px 'DejaVu Sans', 'Bitstream Vera Sans', 'Computer Modern Sans Serif', 'Lucida Grande', 'Verdana', 'Geneva', 'Lucid', 'Arial', 'Helvetica', 'Avant Garde', sans-serif; text-anchor: end" x="72.457386" y="90.451752" transform="rotate(-0 72.457386 90.451752)">0.6</text>
     </g>
    </g>
    <g id="ytick_2">
     <g id="line2d_5">
      <g>
       <use xlink:href="#m19fc4ccb36" x="79.457386" y="72.427181" style="stroke: #000000; stroke-width: 0.8"/>
      </g>
     </g>
     <g id="text_5">
      <text style="font: 6px 'DejaVu Sans', 'Bitstream Vera Sans', 'Computer Modern Sans Serif', 'Lucida Grande', 'Verdana', 'Geneva', 'Lucid', 'Arial', 'Helvetica', 'Avant Garde', sans-serif; text-anchor: end" x="72.457386" y="74.706712" transform="rotate(-0 72.457386 74.706712)">0.7</text>
     </g>
    </g>
    <g id="ytick_3">
     <g id="line2d_6">
      <g>
       <use xlink:href="#m19fc4ccb36" x="79.457386" y="56.682142" style="stroke: #000000; stroke-width: 0.8"/>
      </g>
     </g>
     <g id="text_6">
      <text style="font: 6px 'DejaVu Sans', 'Bitstream Vera Sans', 'Computer Modern Sans Serif', 'Lucida Grande', 'Verdana', 'Geneva', 'Lucid', 'Arial', 'Helvetica', 'Avant Garde', sans-serif; text-anchor: end" x="72.457386" y="58.961673" transform="rotate(-0 72.457386 58.961673)">0.8</text>
     </g>
    </g>
    <g id="ytick_4">
     <g id="line2d_7">
      <g>
       <use xlink:href="#m19fc4ccb36" x="79.457386" y="40.937102" style="stroke: #000000; stroke-width: 0.8"/>
      </g>
     </g>
     <g id="text_7">
      <text style="font: 6px 'DejaVu Sans', 'Bitstream Vera Sans', 'Computer Modern Sans Serif', 'Lucida Grande', 'Verdana', 'Geneva', 'Lucid', 'Arial', 'Helvetica', 'Avant Garde', sans-serif; text-anchor: end" x="72.457386" y="43.216634" transform="rotate(-0 72.457386 43.216634)">0.9</text>
     </g>
    </g>
    <g id="ytick_5">
     <g id="line2d_8">
      <g>
       <use xlink:href="#m19fc4ccb36" x="79.457386" y="25.192063" style="stroke: #000000; stroke-width: 0.8"/>
      </g>
     </g>
     <g id="text_8">
      <text style="font: 6px 'DejaVu Sans', 'Bitstream Vera Sans', 'Computer Modern Sans Serif', 'Lucida Grande', 'Verdana', 'Geneva', 'Lucid', 'Arial', 'Helvetica', 'Avant Garde', sans-serif; text-anchor: end" x="72.457386" y="27.471594" transform="rotate(-0 72.457386 27.471594)">1.0</text>
     </g>
    </g>
   </g>
   <g id="patch_3">
    <path d="M 79.457386 88.17222 
L 79.457386 25.192063 
" style="fill: none; stroke: #000000; stroke-width: 0.8; stroke-linejoin: miter; stroke-linecap: square"/>
   </g>
   <g id="patch_4">
    <path d="M 79.457386 88.17222 
L 211.886362 88.17222 
" style="fill: none; stroke: #000000; stroke-width: 0.8; stroke-linejoin: miter; stroke-linecap: square"/>
   </g>
  </g>
 </g>
 <defs>
  <clipPath id="p7339a58bad">
   <rect x="79.457386" y="25.192063" width="132.428976" height="62.980157"/>
  </clipPath>
 </defs>
</svg>
