<?xml version="1.0" encoding="utf-8" standalone="no"?>
<!DOCTYPE svg PUBLIC "-//W3C//DTD SVG 1.1//EN"
  "http://www.w3.org/Graphics/SVG/1.1/DTD/svg11.dtd">
<svg xmlns:xlink="http://www.w3.org/1999/xlink" width="140.133543pt" height="125.960315pt" viewBox="0 0 140.133543 125.960315" xmlns="http://www.w3.org/2000/svg" version="1.1">
 <metadata>
  <rdf:RDF xmlns:dc="http://purl.org/dc/elements/1.1/" xmlns:cc="http://creativecommons.org/ns#" xmlns:rdf="http://www.w3.org/1999/02/22-rdf-syntax-ns#">
   <cc:Work>
    <dc:type rdf:resource="http://purl.org/dc/dcmitype/StillImage"/>
    <dc:date>2023-10-23T10:48:56.658339</dc:date>
    <dc:format>image/svg+xml</dc:format>
    <dc:creator>
     <cc:Agent>
      <dc:title>Matplotlib v3.8.0, https://matplotlib.org/</dc:title>
     </cc:Agent>
    </dc:creator>
   </cc:Work>
  </rdf:RDF>
 </metadata>
 <defs>
  <style type="text/css">*{stroke-linejoin: round; stroke-linecap: butt}</style>
 </defs>
 <g id="figure_1">
  <g id="patch_1">
   <path d="M 0 125.960315 
L 140.133543 125.960315 
L 140.133543 0 
L 0 0 
z
" style="fill: #ffffff"/>
  </g>
  <g id="axes_1">
   <g id="patch_2">
    <path d="M 42.040063 88.17222 
L 112.106835 88.17222 
L 112.106835 25.192063 
L 42.040063 25.192063 
z
" style="fill: #ffffff"/>
   </g>
   <g id="matplotlib.axis_1">
    <g id="xtick_1">
     <g id="line2d_1">
      <defs>
       <path id="ma7a0446852" d="M 0 0 
L 0 3.5 
" style="stroke: #000000; stroke-width: 0.8"/>
      </defs>
      <g>
       <use xlink:href="#ma7a0446852" x="60.986691" y="88.17222" style="stroke: #000000; stroke-width: 0.8"/>
      </g>
     </g>
     <g id="text_1">
      <text style="font: 6px 'arial'; text-anchor: middle" x="60.986691" y="99.466908" transform="rotate(-0 60.986691 99.466908)">0.0</text>
     </g>
    </g>
    <g id="xtick_2">
     <g id="line2d_2">
      <g>
       <use xlink:href="#ma7a0446852" x="93.485191" y="88.17222" style="stroke: #000000; stroke-width: 0.8"/>
      </g>
     </g>
     <g id="text_2">
      <text style="font: 6px 'arial'; text-anchor: middle" x="93.485191" y="99.466908" transform="rotate(-0 93.485191 99.466908)">0.2</text>
     </g>
    </g>
   </g>
   <g id="matplotlib.axis_2">
    <g id="ytick_1">
     <g id="line2d_3">
      <defs>
       <path id="m4319e77a24" d="M 0 0 
L -3.5 0 
" style="stroke: #000000; stroke-width: 0.8"/>
      </defs>
      <g>
       <use xlink:href="#m4319e77a24" x="42.040063" y="84.767888" style="stroke: #000000; stroke-width: 0.8"/>
      </g>
     </g>
     <g id="text_3">
      <text style="font: 6px 'arial'; text-anchor: end" x="35.040063" y="86.915231" transform="rotate(-0 35.040063 86.915231)">10</text>
     </g>
    </g>
    <g id="ytick_2">
     <g id="line2d_4">
      <g>
       <use xlink:href="#m4319e77a24" x="42.040063" y="67.746223" style="stroke: #000000; stroke-width: 0.8"/>
      </g>
     </g>
     <g id="text_4">
      <text style="font: 6px 'arial'; text-anchor: end" x="35.040063" y="69.893567" transform="rotate(-0 35.040063 69.893567)">20</text>
     </g>
    </g>
    <g id="ytick_3">
     <g id="line2d_5">
      <g>
       <use xlink:href="#m4319e77a24" x="42.040063" y="50.724559" style="stroke: #000000; stroke-width: 0.8"/>
      </g>
     </g>
     <g id="text_5">
      <text style="font: 6px 'arial'; text-anchor: end" x="35.040063" y="52.871903" transform="rotate(-0 35.040063 52.871903)">30</text>
     </g>
    </g>
    <g id="ytick_4">
     <g id="line2d_6">
      <g>
       <use xlink:href="#m4319e77a24" x="42.040063" y="33.702895" style="stroke: #000000; stroke-width: 0.8"/>
      </g>
     </g>
     <g id="text_6">
      <text style="font: 6px 'arial'; text-anchor: end" x="35.040063" y="35.850239" transform="rotate(-0 35.040063 35.850239)">40</text>
     </g>
    </g>
   </g>
   <g id="line2d_7">
    <path d="M 45.224916 83.501644 
L 45.874888 82.138527 
L 46.849842 81.391232 
L 47.824795 82.110847 
L 48.799754 82.650559 
L 49.774708 81.280521 
L 50.749663 81.211332 
L 51.724618 82.456817 
L 52.699573 82.816626 
L 53.674528 81.847911 
L 54.649483 81.488107 
L 55.624438 82.52601 
L 56.599394 82.470659 
L 57.574348 80.547071 
L 58.549304 80.630102 
L 59.524259 82.387621 
L 60.499214 82.429141 
L 61.474168 62.238402 
L 62.449124 34.588581 
L 63.424079 29.717338 
L 64.399034 36.636714 
L 65.373989 43.777509 
L 66.348944 53.27089 
L 67.323899 63.483886 
L 68.298854 69.157781 
L 69.27381 71.925522 
L 70.248764 73.143338 
L 71.22372 75.357536 
L 72.198673 77.516384 
L 73.17363 78.263676 
L 74.148586 79.78594 
L 75.123539 81.515781 
L 76.098494 82.055495 
L 77.073449 80.242617 
L 78.048405 80.630103 
L 79.02336 82.429138 
L 79.998316 81.584975 
L 80.973271 80.035036 
L 81.948222 80.906878 
L 82.923179 82.069337 
L 83.898136 81.930941 
L 84.873088 81.059103 
L 85.848045 80.560908 
L 86.823002 82.705914 
L 87.797954 82.788945 
L 88.772911 81.197488 
L 89.747868 81.086778 
L 90.722821 82.318428 
L 91.697778 82.429136 
L 92.67273 81.280524 
L 93.647687 81.280522 
L 94.622644 82.539852 
L 95.597601 82.539849 
L 96.572553 81.377395 
L 97.547507 81.432745 
L 98.522462 82.110847 
L 99.497412 82.650559 
L 100.472371 81.446587 
L 101.447323 81.142135 
L 102.422283 82.595202 
L 103.397235 82.899658 
L 104.372187 82.650556 
L 105.347149 81.626496 
L 106.322101 81.654168 
L 107.297053 82.692074 
L 108.27201 82.263071 
L 108.921981 82.442978 
" clip-path="url(#p2c3ebf605f)" style="fill: none; stroke: #000000; stroke-width: 1.5; stroke-linecap: square"/>
   </g>
   <g id="line2d_8">
    <path d="M 45.224916 78.715742 
L 45.874888 82.561378 
L 46.849842 83.00268 
L 47.824795 80.922254 
L 48.799754 80.291823 
L 49.774708 80.922254 
L 50.749663 80.039648 
L 51.724618 80.228778 
L 52.699573 81.741814 
L 53.674528 82.498333 
L 54.649483 82.057031 
L 55.624438 80.985297 
L 56.599394 80.796167 
L 57.574348 82.246163 
L 58.549304 81.363556 
L 59.524259 81.426601 
L 60.499214 81.930945 
L 61.474168 63.774507 
L 62.449124 37.8007 
L 63.424079 31.055084 
L 64.399034 37.800707 
L 65.373989 46.311539 
L 66.348944 54.318027 
L 67.323899 61.189733 
L 68.298854 68.061441 
L 69.27381 72.285333 
L 70.248764 73.041855 
L 71.22372 76.130971 
L 72.198673 79.030959 
L 73.17363 78.022265 
L 74.148586 76.824447 
L 75.123539 80.417907 
L 76.098494 83.443981 
L 77.073449 82.372249 
L 78.048405 81.300512 
L 79.02336 79.409217 
L 79.998316 78.778784 
L 80.973271 81.04834 
L 81.948222 81.61573 
L 82.923179 81.61573 
L 83.898136 81.489641 
L 84.873088 80.165735 
L 85.848045 81.61573 
L 86.823002 83.25485 
L 87.797954 83.759199 
L 88.772911 83.19181 
L 89.747868 80.859211 
L 90.722821 80.796168 
L 91.697778 81.930945 
L 92.67273 81.363558 
L 93.647687 80.670082 
L 94.622644 79.724431 
L 95.597601 80.102692 
L 96.572553 81.111383 
L 97.547507 80.733127 
L 98.522462 80.039649 
L 99.497412 81.111383 
L 100.472371 82.309204 
L 101.447323 82.687463 
L 102.422283 82.561376 
L 103.397235 82.183118 
L 104.372187 81.61573 
L 105.347149 81.489644 
L 106.322101 83.191809 
L 107.297053 82.687465 
L 108.27201 81.300512 
L 108.921981 84.105935 
" clip-path="url(#p2c3ebf605f)" style="fill: none; stroke: #ff0000; stroke-width: 1.5; stroke-linecap: square"/>
   </g>
   <g id="patch_3">
    <path d="M 42.040063 88.17222 
L 42.040063 25.192063 
" style="fill: none; stroke: #000000; stroke-width: 0.8; stroke-linejoin: miter; stroke-linecap: square"/>
   </g>
   <g id="patch_4">
    <path d="M 112.106835 88.17222 
L 112.106835 25.192063 
" style="fill: none; stroke: #000000; stroke-width: 0.8; stroke-linejoin: miter; stroke-linecap: square"/>
   </g>
   <g id="patch_5">
    <path d="M 42.040063 88.17222 
L 112.106835 88.17222 
" style="fill: none; stroke: #000000; stroke-width: 0.8; stroke-linejoin: miter; stroke-linecap: square"/>
   </g>
   <g id="patch_6">
    <path d="M 42.040063 25.192063 
L 112.106835 25.192063 
" style="fill: none; stroke: #000000; stroke-width: 0.8; stroke-linejoin: miter; stroke-linecap: square"/>
   </g>
  </g>
 </g>
 <defs>
  <clipPath id="p2c3ebf605f">
   <rect x="42.040063" y="25.192063" width="70.066772" height="62.980157"/>
  </clipPath>
 </defs>
</svg>
