<?xml version="1.0" encoding="utf-8" standalone="no"?>
<!DOCTYPE svg PUBLIC "-//W3C//DTD SVG 1.1//EN"
  "http://www.w3.org/Graphics/SVG/1.1/DTD/svg11.dtd">
<svg xmlns:xlink="http://www.w3.org/1999/xlink" width="140.133543pt" height="125.960315pt" viewBox="0 0 140.133543 125.960315" xmlns="http://www.w3.org/2000/svg" version="1.1">
 <metadata>
  <rdf:RDF xmlns:dc="http://purl.org/dc/elements/1.1/" xmlns:cc="http://creativecommons.org/ns#" xmlns:rdf="http://www.w3.org/1999/02/22-rdf-syntax-ns#">
   <cc:Work>
    <dc:type rdf:resource="http://purl.org/dc/dcmitype/StillImage"/>
    <dc:date>2023-10-23T09:57:05.861843</dc:date>
    <dc:format>image/svg+xml</dc:format>
    <dc:creator>
     <cc:Agent>
      <dc:title>Matplotlib v3.8.0, https://matplotlib.org/</dc:title>
     </cc:Agent>
    </dc:creator>
   </cc:Work>
  </rdf:RDF>
 </metadata>
 <defs>
  <style type="text/css">*{stroke-linejoin: round; stroke-linecap: butt}</style>
 </defs>
 <g id="figure_1">
  <g id="patch_1">
   <path d="M 0 125.960315 
L 140.133543 125.960315 
L 140.133543 0 
L 0 0 
z
" style="fill: #ffffff"/>
  </g>
  <g id="axes_1">
   <g id="patch_2">
    <path d="M 42.040063 88.17222 
L 112.106835 88.17222 
L 112.106835 25.192063 
L 42.040063 25.192063 
z
" style="fill: #ffffff"/>
   </g>
   <g id="matplotlib.axis_1">
    <g id="xtick_1">
     <g id="line2d_1">
      <defs>
       <path id="m846462fcb0" d="M 0 0 
L 0 3.5 
" style="stroke: #000000; stroke-width: 0.8"/>
      </defs>
      <g>
       <use xlink:href="#m846462fcb0" x="60.986691" y="88.17222" style="stroke: #000000; stroke-width: 0.8"/>
      </g>
     </g>
     <g id="text_1">
      <text style="font: 6px 'arial'; text-anchor: middle" x="60.986691" y="99.466908" transform="rotate(-0 60.986691 99.466908)">0.0</text>
     </g>
    </g>
    <g id="xtick_2">
     <g id="line2d_2">
      <g>
       <use xlink:href="#m846462fcb0" x="93.485191" y="88.17222" style="stroke: #000000; stroke-width: 0.8"/>
      </g>
     </g>
     <g id="text_2">
      <text style="font: 6px 'arial'; text-anchor: middle" x="93.485191" y="99.466908" transform="rotate(-0 93.485191 99.466908)">0.2</text>
     </g>
    </g>
   </g>
   <g id="matplotlib.axis_2">
    <g id="ytick_1">
     <g id="line2d_3">
      <defs>
       <path id="mb85315e80f" d="M 0 0 
L -3.5 0 
" style="stroke: #000000; stroke-width: 0.8"/>
      </defs>
      <g>
       <use xlink:href="#mb85315e80f" x="42.040063" y="84.767888" style="stroke: #000000; stroke-width: 0.8"/>
      </g>
     </g>
     <g id="text_3">
      <text style="font: 6px 'arial'; text-anchor: end" x="35.040063" y="86.915231" transform="rotate(-0 35.040063 86.915231)">10</text>
     </g>
    </g>
    <g id="ytick_2">
     <g id="line2d_4">
      <g>
       <use xlink:href="#mb85315e80f" x="42.040063" y="67.746223" style="stroke: #000000; stroke-width: 0.8"/>
      </g>
     </g>
     <g id="text_4">
      <text style="font: 6px 'arial'; text-anchor: end" x="35.040063" y="69.893567" transform="rotate(-0 35.040063 69.893567)">20</text>
     </g>
    </g>
    <g id="ytick_3">
     <g id="line2d_5">
      <g>
       <use xlink:href="#mb85315e80f" x="42.040063" y="50.724559" style="stroke: #000000; stroke-width: 0.8"/>
      </g>
     </g>
     <g id="text_5">
      <text style="font: 6px 'arial'; text-anchor: end" x="35.040063" y="52.871903" transform="rotate(-0 35.040063 52.871903)">30</text>
     </g>
    </g>
    <g id="ytick_4">
     <g id="line2d_6">
      <g>
       <use xlink:href="#mb85315e80f" x="42.040063" y="33.702895" style="stroke: #000000; stroke-width: 0.8"/>
      </g>
     </g>
     <g id="text_6">
      <text style="font: 6px 'arial'; text-anchor: end" x="35.040063" y="35.850239" transform="rotate(-0 35.040063 35.850239)">40</text>
     </g>
    </g>
   </g>
   <g id="line2d_7">
    <path d="M 45.224916 83.023168 
L 45.874888 81.88839 
L 46.849842 82.668547 
L 47.824795 83.377787 
L 48.799754 83.094093 
L 49.774708 82.611809 
L 50.749663 82.058607 
L 51.724618 83.079906 
L 52.699573 83.165019 
L 53.674528 81.803281 
L 54.649483 81.746543 
L 55.624438 82.852947 
L 56.599394 82.342299 
L 57.574348 81.760726 
L 58.549304 82.583438 
L 59.524259 83.548001 
L 60.499214 83.462894 
L 61.474168 62.866683 
L 62.449124 34.355402 
L 63.424079 29.674444 
L 64.399034 37.504414 
L 65.373989 44.355629 
L 66.348944 53.008303 
L 67.323899 62.469507 
L 68.298854 66.69656 
L 69.27381 69.831378 
L 70.248764 73.67544 
L 71.22372 76.937921 
L 72.198673 78.71101 
L 73.17363 78.200365 
L 74.148586 79.278404 
L 75.123539 81.88839 
L 76.098494 82.66855 
L 77.073449 81.9735 
L 78.048405 82.512516 
L 79.02336 84.200499 
L 79.998316 83.562187 
L 80.973271 81.973497 
L 81.948222 82.39904 
L 82.923179 83.746589 
L 83.898136 84.200501 
L 84.873088 82.469964 
L 85.848045 81.462848 
L 86.823002 82.654364 
L 87.797954 82.753659 
L 88.772911 81.533772 
L 89.747868 81.34937 
L 90.722821 82.413224 
L 91.697778 82.852952 
L 92.67273 81.618879 
L 93.647687 81.349372 
L 94.622644 83.008986 
L 95.597601 83.491261 
L 96.572553 81.945131 
L 97.547507 82.399038 
L 98.522462 84.328162 
L 99.497412 83.562187 
L 100.472371 81.930946 
L 101.447323 82.129533 
L 102.422283 83.136645 
L 103.397235 83.562187 
L 104.372187 82.285564 
L 105.347149 82.129529 
L 106.322101 82.72529 
L 107.297053 82.413221 
L 108.27201 81.576327 
L 108.921981 81.129509 
" clip-path="url(#pc06836e0c3)" style="fill: none; stroke: #000000; stroke-width: 1.5; stroke-linecap: square"/>
   </g>
   <g id="line2d_8">
    <path d="M 45.224916 79.916714 
L 45.874888 81.874203 
L 46.849842 84.257239 
L 47.824795 83.689849 
L 48.799754 82.838766 
L 49.774708 82.498333 
L 50.749663 84.370717 
L 51.724618 84.087022 
L 52.699573 83.746589 
L 53.674528 82.044424 
L 54.649483 81.193338 
L 55.624438 81.647251 
L 56.599394 82.384855 
L 57.574348 83.122462 
L 58.549304 81.64725 
L 59.524259 81.079861 
L 60.499214 83.1792 
L 61.474168 62.809945 
L 62.449124 33.873122 
L 63.424079 29.390748 
L 64.399034 37.617883 
L 65.373989 47.603923 
L 66.348944 54.753023 
L 67.323899 61.675165 
L 68.298854 67.632744 
L 69.27381 70.412956 
L 70.248764 75.689667 
L 71.22372 78.75357 
L 72.198673 78.469872 
L 73.17363 79.60465 
L 74.148586 80.569214 
L 75.123539 81.250079 
L 76.098494 82.214641 
L 77.073449 82.555073 
L 78.048405 81.590512 
L 79.02336 83.235939 
L 79.998316 82.328117 
L 80.973271 81.306818 
L 81.948222 82.498335 
L 82.923179 83.1792 
L 83.898136 83.746589 
L 84.873088 84.540932 
L 85.848045 83.633111 
L 86.823002 82.498333 
L 87.797954 82.725288 
L 88.772911 80.625951 
L 89.747868 80.966385 
L 90.722821 82.668552 
L 91.697778 82.328117 
L 92.67273 82.21464 
L 93.647687 80.966384 
L 94.622644 82.101162 
L 95.597601 83.689849 
L 96.572553 83.008985 
L 97.547507 82.328117 
L 98.522462 83.065723 
L 99.497412 83.406156 
L 100.472371 79.661388 
L 101.447323 78.356396 
L 102.422283 81.136603 
L 103.397235 81.250079 
L 104.372187 81.987684 
L 105.347149 83.235939 
L 106.322101 83.973546 
L 107.297053 84.257239 
L 108.27201 82.782028 
L 108.921981 84.087022 
" clip-path="url(#pc06836e0c3)" style="fill: none; stroke: #ff0000; stroke-width: 1.5; stroke-linecap: square"/>
   </g>
   <g id="patch_3">
    <path d="M 42.040063 88.17222 
L 42.040063 25.192063 
" style="fill: none; stroke: #000000; stroke-width: 0.8; stroke-linejoin: miter; stroke-linecap: square"/>
   </g>
   <g id="patch_4">
    <path d="M 112.106835 88.17222 
L 112.106835 25.192063 
" style="fill: none; stroke: #000000; stroke-width: 0.8; stroke-linejoin: miter; stroke-linecap: square"/>
   </g>
   <g id="patch_5">
    <path d="M 42.040063 88.17222 
L 112.106835 88.17222 
" style="fill: none; stroke: #000000; stroke-width: 0.8; stroke-linejoin: miter; stroke-linecap: square"/>
   </g>
   <g id="patch_6">
    <path d="M 42.040063 25.192063 
L 112.106835 25.192063 
" style="fill: none; stroke: #000000; stroke-width: 0.8; stroke-linejoin: miter; stroke-linecap: square"/>
   </g>
  </g>
 </g>
 <defs>
  <clipPath id="pc06836e0c3">
   <rect x="42.040063" y="25.192063" width="70.066772" height="62.980157"/>
  </clipPath>
 </defs>
</svg>
