<?xml version="1.0" encoding="utf-8" standalone="no"?>
<!DOCTYPE svg PUBLIC "-//W3C//DTD SVG 1.1//EN"
  "http://www.w3.org/Graphics/SVG/1.1/DTD/svg11.dtd">
<svg xmlns:xlink="http://www.w3.org/1999/xlink" width="140.133543pt" height="125.960315pt" viewBox="0 0 140.133543 125.960315" xmlns="http://www.w3.org/2000/svg" version="1.1">
 <metadata>
  <rdf:RDF xmlns:dc="http://purl.org/dc/elements/1.1/" xmlns:cc="http://creativecommons.org/ns#" xmlns:rdf="http://www.w3.org/1999/02/22-rdf-syntax-ns#">
   <cc:Work>
    <dc:type rdf:resource="http://purl.org/dc/dcmitype/StillImage"/>
    <dc:date>2023-10-23T10:42:12.737935</dc:date>
    <dc:format>image/svg+xml</dc:format>
    <dc:creator>
     <cc:Agent>
      <dc:title>Matplotlib v3.8.0, https://matplotlib.org/</dc:title>
     </cc:Agent>
    </dc:creator>
   </cc:Work>
  </rdf:RDF>
 </metadata>
 <defs>
  <style type="text/css">*{stroke-linejoin: round; stroke-linecap: butt}</style>
 </defs>
 <g id="figure_1">
  <g id="patch_1">
   <path d="M 0 125.960315 
L 140.133543 125.960315 
L 140.133543 0 
L 0 0 
z
" style="fill: #ffffff"/>
  </g>
  <g id="axes_1">
   <g id="patch_2">
    <path d="M 42.040063 88.17222 
L 112.106835 88.17222 
L 112.106835 25.192063 
L 42.040063 25.192063 
z
" style="fill: #ffffff"/>
   </g>
   <g id="matplotlib.axis_1">
    <g id="xtick_1">
     <g id="line2d_1">
      <defs>
       <path id="m4a117c4334" d="M 0 0 
L 0 3.5 
" style="stroke: #000000; stroke-width: 0.8"/>
      </defs>
      <g>
       <use xlink:href="#m4a117c4334" x="60.986691" y="88.17222" style="stroke: #000000; stroke-width: 0.8"/>
      </g>
     </g>
     <g id="text_1">
      <text style="font: 6px 'arial'; text-anchor: middle" x="60.986691" y="99.466908" transform="rotate(-0 60.986691 99.466908)">0.0</text>
     </g>
    </g>
    <g id="xtick_2">
     <g id="line2d_2">
      <g>
       <use xlink:href="#m4a117c4334" x="93.485191" y="88.17222" style="stroke: #000000; stroke-width: 0.8"/>
      </g>
     </g>
     <g id="text_2">
      <text style="font: 6px 'arial'; text-anchor: middle" x="93.485191" y="99.466908" transform="rotate(-0 93.485191 99.466908)">0.2</text>
     </g>
    </g>
   </g>
   <g id="matplotlib.axis_2">
    <g id="ytick_1">
     <g id="line2d_3">
      <defs>
       <path id="mf9f2688d46" d="M 0 0 
L -3.5 0 
" style="stroke: #000000; stroke-width: 0.8"/>
      </defs>
      <g>
       <use xlink:href="#mf9f2688d46" x="42.040063" y="84.767888" style="stroke: #000000; stroke-width: 0.8"/>
      </g>
     </g>
     <g id="text_3">
      <text style="font: 6px 'arial'; text-anchor: end" x="35.040063" y="86.915231" transform="rotate(-0 35.040063 86.915231)">10</text>
     </g>
    </g>
    <g id="ytick_2">
     <g id="line2d_4">
      <g>
       <use xlink:href="#mf9f2688d46" x="42.040063" y="67.746223" style="stroke: #000000; stroke-width: 0.8"/>
      </g>
     </g>
     <g id="text_4">
      <text style="font: 6px 'arial'; text-anchor: end" x="35.040063" y="69.893567" transform="rotate(-0 35.040063 69.893567)">20</text>
     </g>
    </g>
    <g id="ytick_3">
     <g id="line2d_5">
      <g>
       <use xlink:href="#mf9f2688d46" x="42.040063" y="50.724559" style="stroke: #000000; stroke-width: 0.8"/>
      </g>
     </g>
     <g id="text_5">
      <text style="font: 6px 'arial'; text-anchor: end" x="35.040063" y="52.871903" transform="rotate(-0 35.040063 52.871903)">30</text>
     </g>
    </g>
    <g id="ytick_4">
     <g id="line2d_6">
      <g>
       <use xlink:href="#mf9f2688d46" x="42.040063" y="33.702895" style="stroke: #000000; stroke-width: 0.8"/>
      </g>
     </g>
     <g id="text_6">
      <text style="font: 6px 'arial'; text-anchor: end" x="35.040063" y="35.850239" transform="rotate(-0 35.040063 35.850239)">40</text>
     </g>
    </g>
   </g>
   <g id="line2d_7">
    <path d="M 45.224916 83.698579 
L 45.874888 82.556527 
L 46.849842 82.207364 
L 47.824795 82.600171 
L 48.799754 82.483785 
L 49.774708 82.032786 
L 50.749663 82.425591 
L 51.724618 83.153013 
L 52.699573 82.876592 
L 53.674528 82.323752 
L 54.649483 82.731111 
L 55.624438 83.283951 
L 56.599394 82.949335 
L 57.574348 82.323751 
L 58.549304 82.71656 
L 59.524259 82.89114 
L 60.499214 82.483785 
L 61.474168 82.90569 
L 62.449124 83.894984 
L 63.424079 84.389628 
L 64.399034 83.82224 
L 65.373989 82.454687 
L 66.348944 82.236462 
L 67.323899 83.836791 
L 68.298854 84.113207 
L 69.27381 82.178268 
L 70.248764 81.683622 
L 71.22372 83.254853 
L 72.198673 82.847494 
L 73.17363 81.901848 
L 74.148586 82.440139 
L 75.123539 83.6913 
L 76.098494 83.2694 
L 77.073449 82.25101 
L 78.048405 82.891142 
L 79.02336 83.211209 
L 79.998316 83.007529 
L 80.973271 81.98914 
L 81.948222 81.770912 
L 82.923179 82.992981 
L 83.898136 83.138465 
L 84.873088 81.974592 
L 85.848045 81.945494 
L 86.823002 83.16756 
L 87.797954 82.789299 
L 88.772911 81.509039 
L 89.747868 81.916395 
L 90.722821 83.327596 
L 91.697778 83.647661 
L 92.67273 78.94852 
L 93.647687 54.492611 
L 94.622644 30.749564 
L 95.597601 30.414954 
L 96.572553 37.078125 
L 97.547507 48.920553 
L 98.522462 60.151949 
L 99.497412 65.316628 
L 100.472371 68.735522 
L 101.447323 71.703398 
L 102.422283 75.63148 
L 103.397235 77.755545 
L 104.372187 78.322935 
L 105.347149 79.559552 
L 106.322101 80.854361 
L 107.297053 80.810716 
L 108.27201 80.839809 
L 108.921981 82.651092 
" clip-path="url(#p55b8de25da)" style="fill: none; stroke: #000000; stroke-width: 1.5; stroke-linecap: square"/>
   </g>
   <g id="line2d_8">
    <path d="M 45.224916 83.607322 
L 45.874888 82.137268 
L 46.849842 81.930946 
L 47.824795 83.272046 
L 48.799754 83.839436 
L 49.774708 81.46672 
L 50.749663 82.034108 
L 51.724618 83.58153 
L 52.699573 83.272047 
L 53.674528 83.426788 
L 54.649483 82.859401 
L 55.624438 83.942596 
L 56.599394 84.355243 
L 57.574348 83.220467 
L 58.549304 82.498336 
L 59.524259 82.343592 
L 60.499214 83.065723 
L 61.474168 82.395173 
L 62.449124 82.137269 
L 63.424079 83.633113 
L 64.399034 82.962558 
L 65.373989 82.343592 
L 66.348944 82.756238 
L 67.323899 83.375209 
L 68.298854 82.75624 
L 69.27381 82.498335 
L 70.248764 82.034106 
L 71.22372 81.879364 
L 72.198673 82.859398 
L 73.17363 82.343591 
L 74.148586 81.5183 
L 75.123539 81.72462 
L 76.098494 83.168886 
L 77.073449 81.002493 
L 78.048405 79.816134 
L 79.02336 82.29201 
L 79.998316 82.085687 
L 80.973271 80.89933 
L 81.948222 81.054072 
L 82.923179 82.910981 
L 83.898136 82.653078 
L 84.873088 81.415137 
L 85.848045 81.311974 
L 86.823002 81.724623 
L 87.797954 82.910979 
L 88.772911 82.085687 
L 89.747868 82.188848 
L 90.722821 82.910982 
L 91.697778 82.807819 
L 92.67273 83.426788 
L 93.647687 83.220463 
L 94.622644 82.343592 
L 95.597601 82.498335 
L 96.572553 82.601496 
L 97.547507 82.653077 
L 98.522462 83.375207 
L 99.497412 82.137269 
L 100.472371 81.879364 
L 101.447323 82.498335 
L 102.422283 83.787853 
L 103.397235 83.323627 
L 104.372187 81.982527 
L 105.347149 83.633113 
L 106.322101 84.252083 
L 107.297053 84.974212 
L 108.27201 83.633113 
L 108.921981 81.982525 
" clip-path="url(#p55b8de25da)" style="fill: none; stroke: #ff0000; stroke-width: 1.5; stroke-linecap: square"/>
   </g>
   <g id="patch_3">
    <path d="M 42.040063 88.17222 
L 42.040063 25.192063 
" style="fill: none; stroke: #000000; stroke-width: 0.8; stroke-linejoin: miter; stroke-linecap: square"/>
   </g>
   <g id="patch_4">
    <path d="M 112.106835 88.17222 
L 112.106835 25.192063 
" style="fill: none; stroke: #000000; stroke-width: 0.8; stroke-linejoin: miter; stroke-linecap: square"/>
   </g>
   <g id="patch_5">
    <path d="M 42.040063 88.17222 
L 112.106835 88.17222 
" style="fill: none; stroke: #000000; stroke-width: 0.8; stroke-linejoin: miter; stroke-linecap: square"/>
   </g>
   <g id="patch_6">
    <path d="M 42.040063 25.192063 
L 112.106835 25.192063 
" style="fill: none; stroke: #000000; stroke-width: 0.8; stroke-linejoin: miter; stroke-linecap: square"/>
   </g>
  </g>
 </g>
 <defs>
  <clipPath id="p55b8de25da">
   <rect x="42.040063" y="25.192063" width="70.066772" height="62.980157"/>
  </clipPath>
 </defs>
</svg>
