<?xml version="1.0" encoding="utf-8" standalone="no"?>
<!DOCTYPE svg PUBLIC "-//W3C//DTD SVG 1.1//EN"
  "http://www.w3.org/Graphics/SVG/1.1/DTD/svg11.dtd">
<svg xmlns:xlink="http://www.w3.org/1999/xlink" width="264.857953pt" height="125.960315pt" viewBox="0 0 264.857953 125.960315" xmlns="http://www.w3.org/2000/svg" version="1.1">
 <metadata>
  <rdf:RDF xmlns:dc="http://purl.org/dc/elements/1.1/" xmlns:cc="http://creativecommons.org/ns#" xmlns:rdf="http://www.w3.org/1999/02/22-rdf-syntax-ns#">
   <cc:Work>
    <dc:type rdf:resource="http://purl.org/dc/dcmitype/StillImage"/>
    <dc:date>2023-10-23T10:48:56.488897</dc:date>
    <dc:format>image/svg+xml</dc:format>
    <dc:creator>
     <cc:Agent>
      <dc:title>Matplotlib v3.8.0, https://matplotlib.org/</dc:title>
     </cc:Agent>
    </dc:creator>
   </cc:Work>
  </rdf:RDF>
 </metadata>
 <defs>
  <style type="text/css">*{stroke-linejoin: round; stroke-linecap: butt}</style>
 </defs>
 <g id="figure_1">
  <g id="patch_1">
   <path d="M 0 125.960315 
L 264.857953 125.960315 
L 264.857953 0 
L 0 0 
z
" style="fill: #ffffff"/>
  </g>
  <g id="axes_1">
   <g id="patch_2">
    <path d="M 79.457386 88.17222 
L 211.886362 88.17222 
L 211.886362 25.192063 
L 79.457386 25.192063 
z
" style="fill: #ffffff"/>
   </g>
   <g id="PolyCollection_1">
    <path d="M 98.224012 90.266823 
L 96.807753 90.266823 
L 96.783728 89.692093 
L 96.76391 89.117362 
L 96.748489 88.542631 
L 96.737543 87.967901 
L 96.731042 87.39317 
L 96.728847 86.818439 
L 96.730724 86.243708 
L 96.736355 85.668978 
L 96.745355 85.094247 
L 96.757287 84.519516 
L 96.771685 83.944785 
L 96.788071 83.370055 
L 96.805973 82.795324 
L 96.824946 82.220593 
L 96.844583 81.645863 
L 96.864532 81.071132 
L 96.884504 80.496401 
L 96.904276 79.92167 
L 96.9237 79.34694 
L 96.942696 78.772209 
L 96.961253 78.197478 
L 96.979418 77.622748 
L 96.997285 77.048017 
L 97.014986 76.473286 
L 97.032676 75.898555 
L 97.050516 75.323825 
L 97.068662 74.749094 
L 97.08725 74.174363 
L 97.106387 73.599633 
L 97.126138 73.024902 
L 97.146521 72.450171 
L 97.167507 71.87544 
L 97.189016 71.30071 
L 97.210919 70.725979 
L 97.233049 70.151248 
L 97.255201 69.576518 
L 97.277143 69.001787 
L 97.298628 68.427056 
L 97.319395 67.852325 
L 97.339184 67.277595 
L 97.357736 66.702864 
L 97.374797 66.128133 
L 97.39012 65.553403 
L 97.403463 64.978672 
L 97.414584 64.403941 
L 97.423229 63.82921 
L 97.429131 63.25448 
L 97.431992 62.679749 
L 97.431469 62.105018 
L 97.427165 61.530287 
L 97.41861 60.955557 
L 97.40525 60.380826 
L 97.386428 59.806095 
L 97.361374 59.231365 
L 97.329191 58.656634 
L 97.288844 58.081903 
L 97.239151 57.507172 
L 97.17878 56.932442 
L 97.106237 56.357711 
L 97.019878 55.78298 
L 96.917903 55.20825 
L 96.798377 54.633519 
L 96.659243 54.058788 
L 96.498351 53.484057 
L 96.313493 52.909327 
L 96.102458 52.334596 
L 95.863086 51.759865 
L 95.593349 51.185135 
L 95.291435 50.610404 
L 94.955851 50.035673 
L 94.585537 49.460942 
L 94.179983 48.886212 
L 93.739352 48.311481 
L 93.26461 47.73675 
L 92.757631 47.16202 
L 92.221302 46.587289 
L 91.659597 46.012558 
L 91.077619 45.437827 
L 90.481604 44.863097 
L 89.878879 44.288366 
L 89.277775 43.713635 
L 88.687472 43.138905 
L 88.117809 42.564174 
L 87.579037 41.989443 
L 87.081527 41.414712 
L 86.635457 40.839982 
L 86.250468 40.265251 
L 85.935328 39.69052 
L 85.6976 39.11579 
L 85.543349 38.541059 
L 85.476885 37.966328 
L 85.500576 37.391597 
L 85.614728 36.816867 
L 85.817542 36.242136 
L 86.105165 35.667405 
L 86.471804 35.092674 
L 86.90994 34.517944 
L 87.410582 33.943213 
L 87.963597 33.368482 
L 107.068169 33.368482 
L 107.068169 33.368482 
L 107.621183 33.943213 
L 108.121826 34.517944 
L 108.559961 35.092674 
L 108.926601 35.667405 
L 109.214223 36.242136 
L 109.417038 36.816867 
L 109.531189 37.391597 
L 109.55488 37.966328 
L 109.488416 38.541059 
L 109.334165 39.11579 
L 109.096437 39.69052 
L 108.781297 40.265251 
L 108.396308 40.839982 
L 107.950238 41.414712 
L 107.452729 41.989443 
L 106.913956 42.564174 
L 106.344294 43.138905 
L 105.75399 43.713635 
L 105.152886 44.288366 
L 104.550162 44.863097 
L 103.954146 45.437827 
L 103.372168 46.012558 
L 102.810463 46.587289 
L 102.274134 47.16202 
L 101.767155 47.73675 
L 101.292413 48.311481 
L 100.851783 48.886212 
L 100.446228 49.460942 
L 100.075914 50.035673 
L 99.74033 50.610404 
L 99.438416 51.185135 
L 99.168679 51.759865 
L 98.929307 52.334596 
L 98.718272 52.909327 
L 98.533415 53.484057 
L 98.372522 54.058788 
L 98.233388 54.633519 
L 98.113862 55.20825 
L 98.011888 55.78298 
L 97.925528 56.357711 
L 97.852985 56.932442 
L 97.792614 57.507172 
L 97.742922 58.081903 
L 97.702575 58.656634 
L 97.670391 59.231365 
L 97.645337 59.806095 
L 97.626515 60.380826 
L 97.613155 60.955557 
L 97.604601 61.530287 
L 97.600297 62.105018 
L 97.599774 62.679749 
L 97.602634 63.25448 
L 97.608536 63.82921 
L 97.617182 64.403941 
L 97.628302 64.978672 
L 97.641645 65.553403 
L 97.656969 66.128133 
L 97.674029 66.702864 
L 97.692581 67.277595 
L 97.71237 67.852325 
L 97.733138 68.427056 
L 97.754622 69.001787 
L 97.776564 69.576518 
L 97.798716 70.151248 
L 97.820846 70.725979 
L 97.842749 71.30071 
L 97.864258 71.87544 
L 97.885244 72.450171 
L 97.905628 73.024902 
L 97.925378 73.599633 
L 97.944515 74.174363 
L 97.963104 74.749094 
L 97.98125 75.323825 
L 97.999089 75.898555 
L 98.016779 76.473286 
L 98.03448 77.048017 
L 98.052347 77.622748 
L 98.070512 78.197478 
L 98.089069 78.772209 
L 98.108066 79.34694 
L 98.127489 79.92167 
L 98.147261 80.496401 
L 98.167233 81.071132 
L 98.187182 81.645863 
L 98.20682 82.220593 
L 98.225792 82.795324 
L 98.243694 83.370055 
L 98.26008 83.944785 
L 98.274478 84.519516 
L 98.28641 85.094247 
L 98.29541 85.668978 
L 98.301041 86.243708 
L 98.302918 86.818439 
L 98.300724 87.39317 
L 98.294222 87.967901 
L 98.283277 88.542631 
L 98.267855 89.117362 
L 98.248037 89.692093 
L 98.224012 90.266823 
z
" clip-path="url(#pc8b7182623)" style="fill-opacity: 0.3"/>
   </g>
   <g id="PolyCollection_2">
    <path d="M 145.995384 77.494483 
L 145.348364 77.494483 
L 145.350573 77.031236 
L 145.358048 76.56799 
L 145.370228 76.104743 
L 145.38627 75.641497 
L 145.405099 75.178251 
L 145.425489 74.715004 
L 145.446136 74.251758 
L 145.465743 73.788511 
L 145.483101 73.325265 
L 145.497156 72.862019 
L 145.507063 72.398772 
L 145.512235 71.935526 
L 145.512366 71.472279 
L 145.507449 71.009033 
L 145.497773 70.545786 
L 145.483913 70.08254 
L 145.466701 69.619294 
L 145.447181 69.156047 
L 145.426557 68.692801 
L 145.406121 68.229554 
L 145.38718 67.766308 
L 145.370968 67.303062 
L 145.358566 66.839815 
L 145.350833 66.376569 
L 145.348344 65.913322 
L 145.35136 65.450076 
L 145.359812 64.986829 
L 145.373323 64.523583 
L 145.391245 64.060337 
L 145.412725 63.59709 
L 145.436775 63.133844 
L 145.462354 62.670597 
L 145.488446 62.207351 
L 145.514124 61.744105 
L 145.538601 61.280858 
L 145.561264 60.817612 
L 145.581682 60.354365 
L 145.599606 59.891119 
L 145.614948 59.427872 
L 145.627749 58.964626 
L 145.638146 58.50138 
L 145.646332 58.038133 
L 145.652518 57.574887 
L 145.656902 57.11164 
L 145.659631 56.648394 
L 145.660781 56.185147 
L 145.660329 55.721901 
L 145.658132 55.258655 
L 145.653909 54.795408 
L 145.647227 54.332162 
L 145.637483 53.868915 
L 145.623904 53.405669 
L 145.605539 52.942423 
L 145.581267 52.479176 
L 145.549815 52.01593 
L 145.509779 51.552683 
L 145.459665 51.089437 
L 145.39792 50.62619 
L 145.322982 50.162944 
L 145.233307 49.699698 
L 145.127402 49.236451 
L 145.003818 48.773205 
L 144.861138 48.309958 
L 144.697927 47.846712 
L 144.512658 47.383466 
L 144.303633 46.920219 
L 144.068889 46.456973 
L 143.80613 45.993726 
L 143.512703 45.53048 
L 143.185629 45.067233 
L 142.821725 44.603987 
L 142.417823 44.140741 
L 141.971089 43.677494 
L 141.479442 43.214248 
L 140.942036 42.751001 
L 140.359784 42.287755 
L 139.735854 41.824509 
L 139.076107 41.361262 
L 138.389394 40.898016 
L 137.687664 40.434769 
L 136.985845 39.971523 
L 136.301462 39.508276 
L 135.654002 39.04503 
L 135.064034 38.581784 
L 134.552155 38.118537 
L 134.13781 37.655291 
L 133.83811 37.192044 
L 133.666711 36.728798 
L 133.632876 36.265552 
L 133.740805 35.802305 
L 133.98927 35.339059 
L 134.371624 34.875812 
L 134.876155 34.412566 
L 135.486769 33.949319 
L 136.183942 33.486073 
L 136.945849 33.022827 
L 137.749587 32.55958 
L 138.572388 32.096334 
L 139.392735 31.633087 
L 151.951013 31.633087 
L 151.951013 31.633087 
L 152.77136 32.096334 
L 153.594161 32.55958 
L 154.397899 33.022827 
L 155.159806 33.486073 
L 155.856979 33.949319 
L 156.467593 34.412566 
L 156.972124 34.875812 
L 157.354478 35.339059 
L 157.602943 35.802305 
L 157.710872 36.265552 
L 157.677037 36.728798 
L 157.505638 37.192044 
L 157.205938 37.655291 
L 156.791594 38.118537 
L 156.279714 38.581784 
L 155.689746 39.04503 
L 155.042286 39.508276 
L 154.357903 39.971523 
L 153.656084 40.434769 
L 152.954354 40.898016 
L 152.267641 41.361262 
L 151.607895 41.824509 
L 150.983964 42.287755 
L 150.401712 42.751001 
L 149.864306 43.214248 
L 149.372659 43.677494 
L 148.925926 44.140741 
L 148.522023 44.603987 
L 148.158119 45.067233 
L 147.831045 45.53048 
L 147.537618 45.993726 
L 147.274859 46.456973 
L 147.040115 46.920219 
L 146.83109 47.383466 
L 146.645821 47.846712 
L 146.48261 48.309958 
L 146.33993 48.773205 
L 146.216346 49.236451 
L 146.110441 49.699698 
L 146.020767 50.162944 
L 145.945828 50.62619 
L 145.884083 51.089437 
L 145.833969 51.552683 
L 145.793933 52.01593 
L 145.762481 52.479176 
L 145.738209 52.942423 
L 145.719844 53.405669 
L 145.706265 53.868915 
L 145.696521 54.332162 
L 145.689839 54.795408 
L 145.685616 55.258655 
L 145.683419 55.721901 
L 145.682967 56.185147 
L 145.684117 56.648394 
L 145.686847 57.11164 
L 145.69123 57.574887 
L 145.697416 58.038133 
L 145.705602 58.50138 
L 145.715999 58.964626 
L 145.7288 59.427872 
L 145.744142 59.891119 
L 145.762066 60.354365 
L 145.782484 60.817612 
L 145.805147 61.280858 
L 145.829624 61.744105 
L 145.855302 62.207351 
L 145.881394 62.670597 
L 145.906973 63.133844 
L 145.931023 63.59709 
L 145.952503 64.060337 
L 145.970425 64.523583 
L 145.983936 64.986829 
L 145.992388 65.450076 
L 145.995404 65.913322 
L 145.992915 66.376569 
L 145.985182 66.839815 
L 145.97278 67.303062 
L 145.956568 67.766308 
L 145.937627 68.229554 
L 145.917191 68.692801 
L 145.896567 69.156047 
L 145.877047 69.619294 
L 145.859835 70.08254 
L 145.845975 70.545786 
L 145.836299 71.009033 
L 145.831382 71.472279 
L 145.831513 71.935526 
L 145.836685 72.398772 
L 145.846592 72.862019 
L 145.860647 73.325265 
L 145.878005 73.788511 
L 145.897612 74.251758 
L 145.918259 74.715004 
L 145.938649 75.178251 
L 145.957478 75.641497 
L 145.97352 76.104743 
L 145.9857 76.56799 
L 145.993175 77.031236 
L 145.995384 77.494483 
z
" clip-path="url(#pc8b7182623)" style="fill-opacity: 0.3"/>
   </g>
   <g id="PolyCollection_3">
    <path d="M 194.15781 94.258121 
L 193.497921 94.258121 
L 193.500438 93.661132 
L 193.507872 93.064143 
L 193.51989 92.467155 
L 193.53596 91.870166 
L 193.555395 91.273177 
L 193.577401 90.676188 
L 193.601126 90.079199 
L 193.625721 89.48221 
L 193.650383 88.885222 
L 193.674398 88.288233 
L 193.697169 87.691244 
L 193.718234 87.094255 
L 193.737271 86.497266 
L 193.75409 85.900277 
L 193.768619 85.303289 
L 193.780882 84.7063 
L 193.790971 84.109311 
L 193.799026 83.512322 
L 193.805199 82.915333 
L 193.809637 82.318344 
L 193.812459 81.721355 
L 193.813736 81.124367 
L 193.813481 80.527378 
L 193.811639 79.930389 
L 193.80808 79.3334 
L 193.802605 78.736411 
L 193.794943 78.139422 
L 193.784767 77.542434 
L 193.771709 76.945445 
L 193.75538 76.348456 
L 193.735399 75.751467 
L 193.711422 75.154478 
L 193.683182 74.557489 
L 193.650517 73.9605 
L 193.613409 73.363512 
L 193.572006 72.766523 
L 193.526641 72.169534 
L 193.477834 71.572545 
L 193.426282 70.975556 
L 193.372826 70.378567 
L 193.318407 69.781579 
L 193.264003 69.18459 
L 193.210564 68.587601 
L 193.158931 67.990612 
L 193.109763 67.393623 
L 193.06348 66.796634 
L 193.020214 66.199646 
L 192.979784 65.602657 
L 192.941701 65.005668 
L 192.905199 64.408679 
L 192.869287 63.81169 
L 192.832832 63.214701 
L 192.794645 62.617712 
L 192.753587 62.020724 
L 192.708661 61.423735 
L 192.659101 60.826746 
L 192.60444 60.229757 
L 192.544547 59.632768 
L 192.479637 59.035779 
L 192.410241 58.438791 
L 192.337142 57.841802 
L 192.261267 57.244813 
L 192.18356 56.647824 
L 192.104813 56.050835 
L 192.025492 55.453846 
L 191.945551 54.856857 
L 191.864256 54.259869 
L 191.780031 53.66288 
L 191.690345 53.065891 
L 191.591652 52.468902 
L 191.479399 51.871913 
L 191.348114 51.274924 
L 191.191578 50.677936 
L 191.003087 50.080947 
L 190.775792 49.483958 
L 190.503115 48.886969 
L 190.17922 48.28998 
L 189.799514 47.692991 
L 189.361164 47.096002 
L 188.86358 46.499014 
L 188.308846 45.902025 
L 187.702061 45.305036 
L 187.051545 44.708047 
L 186.368892 44.111058 
L 185.668829 43.514069 
L 184.968875 42.917081 
L 184.288775 42.320092 
L 183.649747 41.723103 
L 183.073534 41.126114 
L 182.581337 40.529125 
L 182.192668 39.932136 
L 181.924229 39.335148 
L 181.788868 38.738159 
L 181.794731 38.14117 
L 181.944671 37.544181 
L 182.235973 36.947192 
L 182.660433 36.350203 
L 183.204795 35.753214 
L 183.851507 35.156226 
L 203.804224 35.156226 
L 203.804224 35.156226 
L 204.450936 35.753214 
L 204.995297 36.350203 
L 205.419758 36.947192 
L 205.71106 37.544181 
L 205.861 38.14117 
L 205.866863 38.738159 
L 205.731502 39.335148 
L 205.463063 39.932136 
L 205.074394 40.529125 
L 204.582197 41.126114 
L 204.005984 41.723103 
L 203.366956 42.320092 
L 202.686856 42.917081 
L 201.986901 43.514069 
L 201.286839 44.111058 
L 200.604186 44.708047 
L 199.95367 45.305036 
L 199.346885 45.902025 
L 198.792151 46.499014 
L 198.294567 47.096002 
L 197.856217 47.692991 
L 197.476511 48.28998 
L 197.152616 48.886969 
L 196.879939 49.483958 
L 196.652644 50.080947 
L 196.464152 50.677936 
L 196.307617 51.274924 
L 196.176332 51.871913 
L 196.064079 52.468902 
L 195.965386 53.065891 
L 195.8757 53.66288 
L 195.791475 54.259869 
L 195.71018 54.856857 
L 195.630239 55.453846 
L 195.550918 56.050835 
L 195.472171 56.647824 
L 195.394464 57.244813 
L 195.318589 57.841802 
L 195.24549 58.438791 
L 195.176094 59.035779 
L 195.111184 59.632768 
L 195.051291 60.229757 
L 194.99663 60.826746 
L 194.94707 61.423735 
L 194.902144 62.020724 
L 194.861086 62.617712 
L 194.822899 63.214701 
L 194.786444 63.81169 
L 194.750532 64.408679 
L 194.71403 65.005668 
L 194.675947 65.602657 
L 194.635517 66.199646 
L 194.59225 66.796634 
L 194.545968 67.393623 
L 194.4968 67.990612 
L 194.445166 68.587601 
L 194.391727 69.18459 
L 194.337324 69.781579 
L 194.282905 70.378567 
L 194.229448 70.975556 
L 194.177896 71.572545 
L 194.12909 72.169534 
L 194.083725 72.766523 
L 194.042322 73.363512 
L 194.005214 73.9605 
L 193.972549 74.557489 
L 193.944309 75.154478 
L 193.920332 75.751467 
L 193.900351 76.348456 
L 193.884022 76.945445 
L 193.870964 77.542434 
L 193.860788 78.139422 
L 193.853126 78.736411 
L 193.847651 79.3334 
L 193.844092 79.930389 
L 193.84225 80.527378 
L 193.841995 81.124367 
L 193.843272 81.721355 
L 193.846093 82.318344 
L 193.850532 82.915333 
L 193.856705 83.512322 
L 193.864759 84.109311 
L 193.874849 84.7063 
L 193.887112 85.303289 
L 193.901641 85.900277 
L 193.91846 86.497266 
L 193.937497 87.094255 
L 193.958562 87.691244 
L 193.981333 88.288233 
L 194.005348 88.885222 
L 194.03001 89.48221 
L 194.054605 90.079199 
L 194.07833 90.676188 
L 194.100336 91.273177 
L 194.119771 91.870166 
L 194.135841 92.467155 
L 194.147859 93.064143 
L 194.155293 93.661132 
L 194.15781 94.258121 
z
" clip-path="url(#pc8b7182623)" style="fill-opacity: 0.3"/>
   </g>
   <g id="PathCollection_1">
    <defs>
     <path id="me084512ed8" d="M 0 3 
C 0.795609 3 1.55874 2.683901 2.12132 2.12132 
C 2.683901 1.55874 3 0.795609 3 0 
C 3 -0.795609 2.683901 -1.55874 2.12132 -2.12132 
C 1.55874 -2.683901 0.795609 -3 0 -3 
C -0.795609 -3 -1.55874 -2.683901 -2.12132 -2.12132 
C -2.683901 -1.55874 -3 -0.795609 -3 0 
C -3 0.795609 -2.683901 1.55874 -2.12132 2.12132 
C -1.55874 2.683901 -0.795609 3 0 3 
z
" style="stroke: #1f77b4"/>
    </defs>
    <g clip-path="url(#pc8b7182623)">
     <use xlink:href="#me084512ed8" x="97.515883" y="41.864603" style="fill: #1f77b4; stroke: #1f77b4"/>
     <use xlink:href="#me084512ed8" x="145.671874" y="38.387084" style="fill: #1f77b4; stroke: #1f77b4"/>
     <use xlink:href="#me084512ed8" x="193.827865" y="42.742249" style="fill: #1f77b4; stroke: #1f77b4"/>
    </g>
   </g>
   <g id="matplotlib.axis_1">
    <g id="xtick_1">
     <g id="line2d_1">
      <defs>
       <path id="m5e7617917e" d="M 0 0 
L 0 3.5 
" style="stroke: #000000; stroke-width: 0.8"/>
      </defs>
      <g>
       <use xlink:href="#m5e7617917e" x="97.515883" y="88.17222" style="stroke: #000000; stroke-width: 0.8"/>
      </g>
     </g>
     <g id="text_1">
      <text style="font: 6px 'DejaVu Sans', 'Bitstream Vera Sans', 'Computer Modern Sans Serif', 'Lucida Grande', 'Verdana', 'Geneva', 'Lucid', 'Arial', 'Helvetica', 'Avant Garde', sans-serif; text-anchor: middle" x="97.515883" y="99.731283" transform="rotate(-0 97.515883 99.731283)">0</text>
     </g>
    </g>
    <g id="xtick_2">
     <g id="line2d_2">
      <g>
       <use xlink:href="#m5e7617917e" x="145.671874" y="88.17222" style="stroke: #000000; stroke-width: 0.8"/>
      </g>
     </g>
     <g id="text_2">
      <text style="font: 6px 'DejaVu Sans', 'Bitstream Vera Sans', 'Computer Modern Sans Serif', 'Lucida Grande', 'Verdana', 'Geneva', 'Lucid', 'Arial', 'Helvetica', 'Avant Garde', sans-serif; text-anchor: middle" x="145.671874" y="99.731283" transform="rotate(-0 145.671874 99.731283)">1</text>
     </g>
    </g>
    <g id="xtick_3">
     <g id="line2d_3">
      <g>
       <use xlink:href="#m5e7617917e" x="193.827865" y="88.17222" style="stroke: #000000; stroke-width: 0.8"/>
      </g>
     </g>
     <g id="text_3">
      <text style="font: 6px 'DejaVu Sans', 'Bitstream Vera Sans', 'Computer Modern Sans Serif', 'Lucida Grande', 'Verdana', 'Geneva', 'Lucid', 'Arial', 'Helvetica', 'Avant Garde', sans-serif; text-anchor: middle" x="193.827865" y="99.731283" transform="rotate(-0 193.827865 99.731283)">2</text>
     </g>
    </g>
   </g>
   <g id="matplotlib.axis_2">
    <g id="ytick_1">
     <g id="line2d_4">
      <defs>
       <path id="m12339bd7f7" d="M 0 0 
L -3.5 0 
" style="stroke: #000000; stroke-width: 0.8"/>
      </defs>
      <g>
       <use xlink:href="#m12339bd7f7" x="79.457386" y="88.17222" style="stroke: #000000; stroke-width: 0.8"/>
      </g>
     </g>
     <g id="text_4">
      <text style="font: 6px 'DejaVu Sans', 'Bitstream Vera Sans', 'Computer Modern Sans Serif', 'Lucida Grande', 'Verdana', 'Geneva', 'Lucid', 'Arial', 'Helvetica', 'Avant Garde', sans-serif; text-anchor: end" x="72.457386" y="90.451752" transform="rotate(-0 72.457386 90.451752)">0.6</text>
     </g>
    </g>
    <g id="ytick_2">
     <g id="line2d_5">
      <g>
       <use xlink:href="#m12339bd7f7" x="79.457386" y="72.427181" style="stroke: #000000; stroke-width: 0.8"/>
      </g>
     </g>
     <g id="text_5">
      <text style="font: 6px 'DejaVu Sans', 'Bitstream Vera Sans', 'Computer Modern Sans Serif', 'Lucida Grande', 'Verdana', 'Geneva', 'Lucid', 'Arial', 'Helvetica', 'Avant Garde', sans-serif; text-anchor: end" x="72.457386" y="74.706712" transform="rotate(-0 72.457386 74.706712)">0.7</text>
     </g>
    </g>
    <g id="ytick_3">
     <g id="line2d_6">
      <g>
       <use xlink:href="#m12339bd7f7" x="79.457386" y="56.682142" style="stroke: #000000; stroke-width: 0.8"/>
      </g>
     </g>
     <g id="text_6">
      <text style="font: 6px 'DejaVu Sans', 'Bitstream Vera Sans', 'Computer Modern Sans Serif', 'Lucida Grande', 'Verdana', 'Geneva', 'Lucid', 'Arial', 'Helvetica', 'Avant Garde', sans-serif; text-anchor: end" x="72.457386" y="58.961673" transform="rotate(-0 72.457386 58.961673)">0.8</text>
     </g>
    </g>
    <g id="ytick_4">
     <g id="line2d_7">
      <g>
       <use xlink:href="#m12339bd7f7" x="79.457386" y="40.937102" style="stroke: #000000; stroke-width: 0.8"/>
      </g>
     </g>
     <g id="text_7">
      <text style="font: 6px 'DejaVu Sans', 'Bitstream Vera Sans', 'Computer Modern Sans Serif', 'Lucida Grande', 'Verdana', 'Geneva', 'Lucid', 'Arial', 'Helvetica', 'Avant Garde', sans-serif; text-anchor: end" x="72.457386" y="43.216634" transform="rotate(-0 72.457386 43.216634)">0.9</text>
     </g>
    </g>
    <g id="ytick_5">
     <g id="line2d_8">
      <g>
       <use xlink:href="#m12339bd7f7" x="79.457386" y="25.192063" style="stroke: #000000; stroke-width: 0.8"/>
      </g>
     </g>
     <g id="text_8">
      <text style="font: 6px 'DejaVu Sans', 'Bitstream Vera Sans', 'Computer Modern Sans Serif', 'Lucida Grande', 'Verdana', 'Geneva', 'Lucid', 'Arial', 'Helvetica', 'Avant Garde', sans-serif; text-anchor: end" x="72.457386" y="27.471594" transform="rotate(-0 72.457386 27.471594)">1.0</text>
     </g>
    </g>
   </g>
   <g id="patch_3">
    <path d="M 79.457386 88.17222 
L 79.457386 25.192063 
" style="fill: none; stroke: #000000; stroke-width: 0.8; stroke-linejoin: miter; stroke-linecap: square"/>
   </g>
   <g id="patch_4">
    <path d="M 79.457386 88.17222 
L 211.886362 88.17222 
" style="fill: none; stroke: #000000; stroke-width: 0.8; stroke-linejoin: miter; stroke-linecap: square"/>
   </g>
  </g>
 </g>
 <defs>
  <clipPath id="pc8b7182623">
   <rect x="79.457386" y="25.192063" width="132.428976" height="62.980157"/>
  </clipPath>
 </defs>
</svg>
