<?xml version="1.0" encoding="utf-8" standalone="no"?>
<!DOCTYPE svg PUBLIC "-//W3C//DTD SVG 1.1//EN"
  "http://www.w3.org/Graphics/SVG/1.1/DTD/svg11.dtd">
<svg height="125.960315pt" version="1.1" viewBox="0 0 253.51937 125.960315" width="253.51937pt" xmlns="http://www.w3.org/2000/svg" xmlns:xlink="http://www.w3.org/1999/xlink">
 <metadata>
  <rdf:RDF xmlns:cc="http://creativecommons.org/ns#" xmlns:dc="http://purl.org/dc/elements/1.1/" xmlns:rdf="http://www.w3.org/1999/02/22-rdf-syntax-ns#">
   <cc:Work>
    <dc:type rdf:resource="http://purl.org/dc/dcmitype/StillImage"/>
    <dc:date>2023-10-09T17:15:41.754389</dc:date>
    <dc:format>image/svg+xml</dc:format>
    <dc:creator>
     <cc:Agent>
      <dc:title>Matplotlib v3.4.2, https://matplotlib.org/</dc:title>
     </cc:Agent>
    </dc:creator>
   </cc:Work>
  </rdf:RDF>
 </metadata>
 <defs>
  <style type="text/css">*{stroke-linecap:butt;stroke-linejoin:round;}</style>
 </defs>
 <g id="figure_1">
  <g id="patch_1">
   <path d="M 0 125.960315 
L 253.51937 125.960315 
L 253.51937 0 
L 0 0 
z
" style="fill:#ffffff;"/>
  </g>
  <g id="axes_1">
   <g id="patch_2">
    <path d="M 76.055811 88.17222 
L 202.815496 88.17222 
L 202.815496 25.192063 
L 76.055811 25.192063 
z
" style="fill:#ffffff;"/>
   </g>
   <g id="PolyCollection_1">
    <path clip-path="url(#paa36cbfbda)" d="M 93.869326 85.309486 
L 92.813119 85.309486 
L 92.651073 84.731156 
L 92.448968 84.152826 
L 92.201102 83.574495 
L 91.902583 82.996165 
L 91.549898 82.417835 
L 91.141434 81.839505 
L 90.677889 81.261175 
L 90.162501 80.682845 
L 89.601054 80.104514 
L 89.001654 79.526184 
L 88.374297 78.947854 
L 87.730282 78.369524 
L 87.081543 77.791194 
L 86.439979 77.212863 
L 85.816841 76.634533 
L 85.222231 76.056203 
L 84.664734 75.477873 
L 84.151189 74.899543 
L 83.686598 74.321212 
L 83.274149 73.742882 
L 82.915354 73.164552 
L 82.610287 72.586222 
L 82.357901 72.007892 
L 82.156402 71.429562 
L 82.00364 70.851231 
L 81.897462 70.272901 
L 81.835968 69.694571 
L 81.817615 69.116241 
L 81.841149 68.537911 
L 81.905375 67.95958 
L 82.008809 67.38125 
L 82.149305 66.80292 
L 82.323765 66.22459 
L 82.528011 65.64626 
L 82.756898 65.067929 
L 83.004663 64.489599 
L 83.265464 63.911269 
L 83.533993 63.332939 
L 83.806028 62.754609 
L 84.078784 62.176279 
L 84.350969 61.597948 
L 84.622512 61.019618 
L 84.894023 60.441288 
L 85.166104 59.862958 
L 85.438671 59.284628 
L 85.710464 58.706297 
L 85.978848 58.127967 
L 86.239967 57.549637 
L 86.489207 56.971307 
L 86.721867 56.392977 
L 86.9339 55.814646 
L 87.122551 55.236316 
L 87.286793 54.657986 
L 87.427478 54.079656 
L 87.547185 53.501326 
L 87.649807 52.922996 
L 87.739962 52.344665 
L 87.822332 51.766335 
L 87.901026 51.188005 
L 87.979092 50.609675 
L 88.058221 50.031345 
L 88.138702 49.453014 
L 88.219597 48.874684 
L 88.299107 48.296354 
L 88.37505 47.718024 
L 88.445349 47.139694 
L 88.508465 46.561363 
L 88.563716 45.983033 
L 88.611426 45.404703 
L 88.65294 44.826373 
L 88.690495 44.248043 
L 88.726997 43.669713 
L 88.76574 43.091382 
L 88.810103 42.513052 
L 88.863245 41.934722 
L 88.92783 41.356392 
L 89.0058 40.778062 
L 89.098213 40.199731 
L 89.205169 39.621401 
L 89.325825 39.043071 
L 89.458511 38.464741 
L 89.600929 37.886411 
L 89.750419 37.30808 
L 89.904257 36.72975 
L 90.059952 36.15142 
L 90.215502 35.57309 
L 90.369583 34.99476 
L 90.521643 34.416429 
L 90.671896 33.838099 
L 90.821214 33.259769 
L 90.970923 32.681439 
L 91.12253 32.103109 
L 91.277415 31.524779 
L 91.436526 30.946448 
L 91.600114 30.368118 
L 91.767569 29.789788 
L 91.937362 29.211458 
L 92.10713 28.633128 
L 92.27389 28.054797 
L 94.408555 28.054797 
L 94.408555 28.054797 
L 94.575315 28.633128 
L 94.745084 29.211458 
L 94.914876 29.789788 
L 95.082331 30.368118 
L 95.245919 30.946448 
L 95.40503 31.524779 
L 95.559916 32.103109 
L 95.711522 32.681439 
L 95.861231 33.259769 
L 96.010549 33.838099 
L 96.160803 34.416429 
L 96.312862 34.99476 
L 96.466943 35.57309 
L 96.622493 36.15142 
L 96.778189 36.72975 
L 96.932027 37.30808 
L 97.081516 37.886411 
L 97.223934 38.464741 
L 97.35662 39.043071 
L 97.477276 39.621401 
L 97.584232 40.199731 
L 97.676645 40.778062 
L 97.754615 41.356392 
L 97.8192 41.934722 
L 97.872342 42.513052 
L 97.916705 43.091382 
L 97.955449 43.669713 
L 97.99195 44.248043 
L 98.029505 44.826373 
L 98.071019 45.404703 
L 98.11873 45.983033 
L 98.17398 46.561363 
L 98.237097 47.139694 
L 98.307395 47.718024 
L 98.383338 48.296354 
L 98.462849 48.874684 
L 98.543743 49.453014 
L 98.624224 50.031345 
L 98.703354 50.609675 
L 98.781419 51.188005 
L 98.860113 51.766335 
L 98.942483 52.344665 
L 99.032639 52.922996 
L 99.13526 53.501326 
L 99.254967 54.079656 
L 99.395652 54.657986 
L 99.559894 55.236316 
L 99.748545 55.814646 
L 99.960578 56.392977 
L 100.193239 56.971307 
L 100.442478 57.549637 
L 100.703597 58.127967 
L 100.971981 58.706297 
L 101.243774 59.284628 
L 101.516342 59.862958 
L 101.788422 60.441288 
L 102.059933 61.019618 
L 102.331476 61.597948 
L 102.603661 62.176279 
L 102.876417 62.754609 
L 103.148452 63.332939 
L 103.416982 63.911269 
L 103.677782 64.489599 
L 103.925547 65.067929 
L 104.154434 65.64626 
L 104.35868 66.22459 
L 104.53314 66.80292 
L 104.673636 67.38125 
L 104.77707 67.95958 
L 104.841296 68.537911 
L 104.86483 69.116241 
L 104.846477 69.694571 
L 104.784983 70.272901 
L 104.678805 70.851231 
L 104.526043 71.429562 
L 104.324544 72.007892 
L 104.072158 72.586222 
L 103.767091 73.164552 
L 103.408296 73.742882 
L 102.995847 74.321212 
L 102.531256 74.899543 
L 102.017711 75.477873 
L 101.460214 76.056203 
L 100.865605 76.634533 
L 100.242467 77.212863 
L 99.600902 77.791194 
L 98.952163 78.369524 
L 98.308148 78.947854 
L 97.680791 79.526184 
L 97.081391 80.104514 
L 96.519944 80.682845 
L 96.004556 81.261175 
L 95.541011 81.839505 
L 95.132547 82.417835 
L 94.779862 82.996165 
L 94.481343 83.574495 
L 94.233477 84.152826 
L 94.031373 84.731156 
L 93.869326 85.309486 
z
" style="fill-opacity:0.3;"/>
   </g>
   <g id="PolyCollection_2">
    <path clip-path="url(#paa36cbfbda)" d="M 140.260457 84.186898 
L 138.61085 84.186898 
L 138.39804 83.622208 
L 138.1464 83.057519 
L 137.853792 82.492829 
L 137.519476 81.92814 
L 137.14431 81.36345 
L 136.730756 80.79876 
L 136.282645 80.234071 
L 135.804739 79.669381 
L 135.302181 79.104692 
L 134.779953 78.540002 
L 134.24249 77.975313 
L 133.693558 77.410623 
L 133.136434 76.845933 
L 132.574354 76.281244 
L 132.011113 75.716554 
L 131.451647 75.151865 
L 130.902438 74.587175 
L 130.371618 74.022485 
L 129.868716 73.457796 
L 129.404098 72.893106 
L 128.988192 72.328417 
L 128.630646 71.763727 
L 128.339565 71.199037 
L 128.120914 70.634348 
L 127.978143 70.069658 
L 127.912046 69.504969 
L 127.920786 68.940279 
L 128.000074 68.375589 
L 128.143433 67.8109 
L 128.342543 67.24621 
L 128.587668 66.681521 
L 128.868152 66.116831 
L 129.172991 65.552141 
L 129.49145 64.987452 
L 129.813667 64.422762 
L 130.131178 63.858073 
L 130.437306 63.293383 
L 130.727342 62.728693 
L 130.998527 62.164004 
L 131.249846 61.599314 
L 131.481694 61.034625 
L 131.695504 60.469935 
L 131.893391 59.905245 
L 132.077904 59.340556 
L 132.251877 58.775866 
L 132.418382 58.211177 
L 132.580738 57.646487 
L 132.742492 57.081798 
L 132.907316 56.517108 
L 133.078768 55.952418 
L 133.259914 55.387729 
L 133.452844 54.823039 
L 133.658165 54.25835 
L 133.874587 53.69366 
L 134.098719 53.12897 
L 134.325148 52.564281 
L 134.546848 51.999591 
L 134.755886 51.434902 
L 134.944327 50.870212 
L 135.1052 50.305522 
L 135.233364 49.740833 
L 135.326136 49.176143 
L 135.383597 48.611454 
L 135.408517 48.046764 
L 135.405957 47.482074 
L 135.382616 46.917385 
L 135.346049 46.352695 
L 135.303884 45.788006 
L 135.263149 45.223316 
L 135.229792 44.658626 
L 135.208433 44.093937 
L 135.202343 43.529247 
L 135.213587 42.964558 
L 135.243284 42.399868 
L 135.291866 41.835178 
L 135.359299 41.270489 
L 135.445197 40.705799 
L 135.548828 40.14111 
L 135.669054 39.57642 
L 135.804237 39.01173 
L 135.952201 38.447041 
L 136.110283 37.882351 
L 136.275519 37.317662 
L 136.444924 36.752972 
L 136.615831 36.188282 
L 136.786197 35.623593 
L 136.954807 35.058903 
L 137.121307 34.494214 
L 137.286057 33.929524 
L 137.449837 33.364835 
L 137.613456 32.800145 
L 137.777379 32.235455 
L 137.941435 31.670766 
L 138.104674 31.106076 
L 138.265403 30.541387 
L 138.421363 29.976697 
L 138.570024 29.412007 
L 138.708904 28.847318 
L 138.835868 28.282628 
L 140.035439 28.282628 
L 140.035439 28.282628 
L 140.162403 28.847318 
L 140.301283 29.412007 
L 140.449944 29.976697 
L 140.605905 30.541387 
L 140.766633 31.106076 
L 140.929872 31.670766 
L 141.093928 32.235455 
L 141.257851 32.800145 
L 141.42147 33.364835 
L 141.58525 33.929524 
L 141.750001 34.494214 
L 141.9165 35.058903 
L 142.08511 35.623593 
L 142.255477 36.188282 
L 142.426383 36.752972 
L 142.595789 37.317662 
L 142.761024 37.882351 
L 142.919106 38.447041 
L 143.06707 39.01173 
L 143.202253 39.57642 
L 143.322479 40.14111 
L 143.426111 40.705799 
L 143.512008 41.270489 
L 143.579441 41.835178 
L 143.628023 42.399868 
L 143.65772 42.964558 
L 143.668964 43.529247 
L 143.662874 44.093937 
L 143.641515 44.658626 
L 143.608158 45.223316 
L 143.567423 45.788006 
L 143.525258 46.352695 
L 143.488692 46.917385 
L 143.46535 47.482074 
L 143.46279 48.046764 
L 143.48771 48.611454 
L 143.545171 49.176143 
L 143.637944 49.740833 
L 143.766107 50.305522 
L 143.92698 50.870212 
L 144.115421 51.434902 
L 144.324459 51.999591 
L 144.546159 52.564281 
L 144.772588 53.12897 
L 144.99672 53.69366 
L 145.213143 54.25835 
L 145.418463 54.823039 
L 145.611393 55.387729 
L 145.79254 55.952418 
L 145.963992 56.517108 
L 146.128815 57.081798 
L 146.290569 57.646487 
L 146.452925 58.211177 
L 146.61943 58.775866 
L 146.793403 59.340556 
L 146.977916 59.905245 
L 147.175803 60.469935 
L 147.389613 61.034625 
L 147.621461 61.599314 
L 147.87278 62.164004 
L 148.143965 62.728693 
L 148.434001 63.293383 
L 148.740129 63.858073 
L 149.05764 64.422762 
L 149.379857 64.987452 
L 149.698316 65.552141 
L 150.003155 66.116831 
L 150.283639 66.681521 
L 150.528764 67.24621 
L 150.727874 67.8109 
L 150.871233 68.375589 
L 150.950521 68.940279 
L 150.959261 69.504969 
L 150.893164 70.069658 
L 150.750393 70.634348 
L 150.531742 71.199037 
L 150.240661 71.763727 
L 149.883115 72.328417 
L 149.467209 72.893106 
L 149.002591 73.457796 
L 148.499689 74.022485 
L 147.968869 74.587175 
L 147.41966 75.151865 
L 146.860194 75.716554 
L 146.296953 76.281244 
L 145.734873 76.845933 
L 145.177749 77.410623 
L 144.628817 77.975313 
L 144.091355 78.540002 
L 143.569126 79.104692 
L 143.066568 79.669381 
L 142.588662 80.234071 
L 142.140551 80.79876 
L 141.726997 81.36345 
L 141.351831 81.92814 
L 141.017515 82.492829 
L 140.724907 83.057519 
L 140.473267 83.622208 
L 140.260457 84.186898 
z
" style="fill-opacity:0.3;"/>
   </g>
   <g id="PolyCollection_3">
    <path clip-path="url(#paa36cbfbda)" d="M 186.289459 84.425676 
L 184.77071 84.425676 
L 184.539577 83.861916 
L 184.259054 83.298156 
L 183.925533 82.734396 
L 183.537105 82.170636 
L 183.093926 81.606876 
L 182.598424 81.043115 
L 182.055311 80.479355 
L 181.471403 79.915595 
L 180.855248 79.351835 
L 180.216646 78.788075 
L 179.566098 78.224315 
L 178.91428 77.660555 
L 178.271606 77.096795 
L 177.6479 76.533035 
L 177.052209 75.969275 
L 176.492736 75.405515 
L 175.976832 74.841755 
L 175.511035 74.277995 
L 175.101069 73.714235 
L 174.751795 73.150475 
L 174.467094 72.586715 
L 174.249683 72.022955 
L 174.100897 71.459195 
L 174.020488 70.895435 
L 174.006477 70.331675 
L 174.055119 69.767915 
L 174.161009 69.204155 
L 174.317349 68.640395 
L 174.516347 68.076635 
L 174.749721 67.512875 
L 175.009216 66.949115 
L 175.287082 66.385355 
L 175.576411 65.821595 
L 175.871322 65.257835 
L 176.166958 64.694075 
L 176.459365 64.130315 
L 176.745279 63.566554 
L 177.021922 63.002794 
L 177.28686 62.439034 
L 177.537962 61.875274 
L 177.773458 61.311514 
L 177.992074 60.747754 
L 178.193203 60.183994 
L 178.377044 59.620234 
L 178.544679 59.056474 
L 178.698057 58.492714 
L 178.839872 57.928954 
L 178.973368 57.365194 
L 179.102085 56.801434 
L 179.22958 56.237674 
L 179.35916 55.673914 
L 179.493637 55.110154 
L 179.635121 54.546394 
L 179.784851 53.982634 
L 179.94307 53.418874 
L 180.108944 52.855114 
L 180.28055 52.291354 
L 180.454938 51.727594 
L 180.628286 51.163834 
L 180.79616 50.600074 
L 180.95386 50.036314 
L 181.096825 49.472554 
L 181.221084 48.908794 
L 181.323666 48.345034 
L 181.402959 47.781274 
L 181.458951 47.217514 
L 181.493325 46.653754 
L 181.509393 46.089994 
L 181.511859 45.526233 
L 181.506443 44.962473 
L 181.499392 44.398713 
L 181.496942 43.834953 
L 181.504787 43.271193 
L 181.527623 42.707433 
L 181.568806 42.143673 
L 181.630171 41.579913 
L 181.712003 41.016153 
L 181.81317 40.452393 
L 181.931366 39.888633 
L 182.063451 39.324873 
L 182.20583 38.761113 
L 182.354832 38.197353 
L 182.507065 37.633593 
L 182.6597 37.069833 
L 182.810665 36.506073 
L 182.958746 35.942313 
L 183.103568 35.378553 
L 183.245481 34.814793 
L 183.385359 34.251033 
L 183.524352 33.687273 
L 183.663609 33.123513 
L 183.804031 32.559753 
L 183.946066 31.995993 
L 184.089583 31.432233 
L 184.233828 30.868473 
L 184.377471 30.304713 
L 184.518718 29.740953 
L 184.655485 29.177193 
L 184.785594 28.613433 
L 186.274575 28.613433 
L 186.274575 28.613433 
L 186.404684 29.177193 
L 186.541451 29.740953 
L 186.682698 30.304713 
L 186.826341 30.868473 
L 186.970586 31.432233 
L 187.114103 31.995993 
L 187.256138 32.559753 
L 187.39656 33.123513 
L 187.535817 33.687273 
L 187.67481 34.251033 
L 187.814688 34.814793 
L 187.9566 35.378553 
L 188.101423 35.942313 
L 188.249504 36.506073 
L 188.400469 37.069833 
L 188.553104 37.633593 
L 188.705337 38.197353 
L 188.854339 38.761113 
L 188.996718 39.324873 
L 189.128803 39.888633 
L 189.246999 40.452393 
L 189.348166 41.016153 
L 189.429998 41.579913 
L 189.491363 42.143673 
L 189.532546 42.707433 
L 189.555382 43.271193 
L 189.563227 43.834953 
L 189.560777 44.398713 
L 189.553726 44.962473 
L 189.54831 45.526233 
L 189.550776 46.089994 
L 189.566843 46.653754 
L 189.601218 47.217514 
L 189.65721 47.781274 
L 189.736503 48.345034 
L 189.839085 48.908794 
L 189.963343 49.472554 
L 190.106309 50.036314 
L 190.264009 50.600074 
L 190.431883 51.163834 
L 190.605231 51.727594 
L 190.779619 52.291354 
L 190.951225 52.855114 
L 191.117099 53.418874 
L 191.275318 53.982634 
L 191.425048 54.546394 
L 191.566532 55.110154 
L 191.701009 55.673914 
L 191.830589 56.237674 
L 191.958084 56.801434 
L 192.086801 57.365194 
L 192.220297 57.928954 
L 192.362112 58.492714 
L 192.515489 59.056474 
L 192.683125 59.620234 
L 192.866966 60.183994 
L 193.068095 60.747754 
L 193.286711 61.311514 
L 193.522207 61.875274 
L 193.773309 62.439034 
L 194.038247 63.002794 
L 194.31489 63.566554 
L 194.600804 64.130315 
L 194.893211 64.694075 
L 195.188847 65.257835 
L 195.483757 65.821595 
L 195.773087 66.385355 
L 196.050953 66.949115 
L 196.310448 67.512875 
L 196.543821 68.076635 
L 196.74282 68.640395 
L 196.89916 69.204155 
L 197.00505 69.767915 
L 197.053692 70.331675 
L 197.039681 70.895435 
L 196.959272 71.459195 
L 196.810486 72.022955 
L 196.593075 72.586715 
L 196.308374 73.150475 
L 195.9591 73.714235 
L 195.549134 74.277995 
L 195.083337 74.841755 
L 194.567433 75.405515 
L 194.00796 75.969275 
L 193.412269 76.533035 
L 192.788563 77.096795 
L 192.145889 77.660555 
L 191.494071 78.224315 
L 190.843522 78.788075 
L 190.204921 79.351835 
L 189.588766 79.915595 
L 189.004858 80.479355 
L 188.461745 81.043115 
L 187.966243 81.606876 
L 187.523064 82.170636 
L 187.134636 82.734396 
L 186.801115 83.298156 
L 186.520592 83.861916 
L 186.289459 84.425676 
z
" style="fill-opacity:0.3;"/>
   </g>
   <g id="PathCollection_1">
    <defs>
     <path d="M 0 1.581139 
C 0.419323 1.581139 0.821528 1.41454 1.118034 1.118034 
C 1.41454 0.821528 1.581139 0.419323 1.581139 0 
C 1.581139 -0.419323 1.41454 -0.821528 1.118034 -1.118034 
C 0.821528 -1.41454 0.419323 -1.581139 0 -1.581139 
C -0.419323 -1.581139 -0.821528 -1.41454 -1.118034 -1.118034 
C -1.41454 -0.821528 -1.581139 -0.419323 -1.581139 0 
C -1.581139 0.419323 -1.41454 0.821528 -1.118034 1.118034 
C -0.821528 1.41454 -0.419323 1.581139 0 1.581139 
z
" id="m122d25368c" style="stroke:#000000;"/>
    </defs>
    <g clip-path="url(#paa36cbfbda)">
     <use style="stroke:#000000;" x="93.341223" xlink:href="#m122d25368c" y="60.330909"/>
     <use style="stroke:#000000;" x="139.435654" xlink:href="#m122d25368c" y="60.936378"/>
     <use style="stroke:#000000;" x="185.530084" xlink:href="#m122d25368c" y="61.450673"/>
    </g>
   </g>
   <g id="matplotlib.axis_1">
    <g id="xtick_1">
     <g id="line2d_1">
      <defs>
       <path d="M 0 0 
L 0 3.5 
" id="mb698ff7997" style="stroke:#000000;stroke-width:0.8;"/>
      </defs>
      <g>
       <use style="stroke:#000000;stroke-width:0.8;" x="93.341223" xlink:href="#mb698ff7997" y="88.17222"/>
      </g>
     </g>
     <g id="text_1">
      <!-- Data -->
      <g transform="translate(87.00466 99.466908)scale(0.06 -0.06)">
       <defs>
        <path d="M 494 0 
L 494 4581 
L 2072 4581 
Q 2606 4581 2888 4516 
Q 3281 4425 3559 4188 
Q 3922 3881 4101 3404 
Q 4281 2928 4281 2316 
Q 4281 1794 4159 1391 
Q 4038 988 3847 723 
Q 3656 459 3429 307 
Q 3203 156 2883 78 
Q 2563 0 2147 0 
L 494 0 
z
M 1100 541 
L 2078 541 
Q 2531 541 2789 625 
Q 3047 709 3200 863 
Q 3416 1078 3536 1442 
Q 3656 1806 3656 2325 
Q 3656 3044 3420 3430 
Q 3184 3816 2847 3947 
Q 2603 4041 2063 4041 
L 1100 4041 
L 1100 541 
z
" id="ArialMT-44" transform="scale(0.015625)"/>
        <path d="M 2588 409 
Q 2275 144 1986 34 
Q 1697 -75 1366 -75 
Q 819 -75 525 192 
Q 231 459 231 875 
Q 231 1119 342 1320 
Q 453 1522 633 1644 
Q 813 1766 1038 1828 
Q 1203 1872 1538 1913 
Q 2219 1994 2541 2106 
Q 2544 2222 2544 2253 
Q 2544 2597 2384 2738 
Q 2169 2928 1744 2928 
Q 1347 2928 1158 2789 
Q 969 2650 878 2297 
L 328 2372 
Q 403 2725 575 2942 
Q 747 3159 1072 3276 
Q 1397 3394 1825 3394 
Q 2250 3394 2515 3294 
Q 2781 3194 2906 3042 
Q 3031 2891 3081 2659 
Q 3109 2516 3109 2141 
L 3109 1391 
Q 3109 606 3145 398 
Q 3181 191 3288 0 
L 2700 0 
Q 2613 175 2588 409 
z
M 2541 1666 
Q 2234 1541 1622 1453 
Q 1275 1403 1131 1340 
Q 988 1278 909 1158 
Q 831 1038 831 891 
Q 831 666 1001 516 
Q 1172 366 1500 366 
Q 1825 366 2078 508 
Q 2331 650 2450 897 
Q 2541 1088 2541 1459 
L 2541 1666 
z
" id="ArialMT-61" transform="scale(0.015625)"/>
        <path d="M 1650 503 
L 1731 6 
Q 1494 -44 1306 -44 
Q 1000 -44 831 53 
Q 663 150 594 308 
Q 525 466 525 972 
L 525 2881 
L 113 2881 
L 113 3319 
L 525 3319 
L 525 4141 
L 1084 4478 
L 1084 3319 
L 1650 3319 
L 1650 2881 
L 1084 2881 
L 1084 941 
Q 1084 700 1114 631 
Q 1144 563 1211 522 
Q 1278 481 1403 481 
Q 1497 481 1650 503 
z
" id="ArialMT-74" transform="scale(0.015625)"/>
       </defs>
       <use xlink:href="#ArialMT-44"/>
       <use x="72.216797" xlink:href="#ArialMT-61"/>
       <use x="127.832031" xlink:href="#ArialMT-74"/>
       <use x="155.615234" xlink:href="#ArialMT-61"/>
      </g>
      <!-- Training set -->
      <g transform="translate(77.781066 105.813033)scale(0.06 -0.06)">
       <defs>
        <path d="M 1659 0 
L 1659 4041 
L 150 4041 
L 150 4581 
L 3781 4581 
L 3781 4041 
L 2266 4041 
L 2266 0 
L 1659 0 
z
" id="ArialMT-54" transform="scale(0.015625)"/>
        <path d="M 416 0 
L 416 3319 
L 922 3319 
L 922 2816 
Q 1116 3169 1280 3281 
Q 1444 3394 1641 3394 
Q 1925 3394 2219 3213 
L 2025 2691 
Q 1819 2813 1613 2813 
Q 1428 2813 1281 2702 
Q 1134 2591 1072 2394 
Q 978 2094 978 1738 
L 978 0 
L 416 0 
z
" id="ArialMT-72" transform="scale(0.015625)"/>
        <path d="M 425 3934 
L 425 4581 
L 988 4581 
L 988 3934 
L 425 3934 
z
M 425 0 
L 425 3319 
L 988 3319 
L 988 0 
L 425 0 
z
" id="ArialMT-69" transform="scale(0.015625)"/>
        <path d="M 422 0 
L 422 3319 
L 928 3319 
L 928 2847 
Q 1294 3394 1984 3394 
Q 2284 3394 2536 3286 
Q 2788 3178 2913 3003 
Q 3038 2828 3088 2588 
Q 3119 2431 3119 2041 
L 3119 0 
L 2556 0 
L 2556 2019 
Q 2556 2363 2490 2533 
Q 2425 2703 2258 2804 
Q 2091 2906 1866 2906 
Q 1506 2906 1245 2678 
Q 984 2450 984 1813 
L 984 0 
L 422 0 
z
" id="ArialMT-6e" transform="scale(0.015625)"/>
        <path d="M 319 -275 
L 866 -356 
Q 900 -609 1056 -725 
Q 1266 -881 1628 -881 
Q 2019 -881 2231 -725 
Q 2444 -569 2519 -288 
Q 2563 -116 2559 434 
Q 2191 0 1641 0 
Q 956 0 581 494 
Q 206 988 206 1678 
Q 206 2153 378 2554 
Q 550 2956 876 3175 
Q 1203 3394 1644 3394 
Q 2231 3394 2613 2919 
L 2613 3319 
L 3131 3319 
L 3131 450 
Q 3131 -325 2973 -648 
Q 2816 -972 2473 -1159 
Q 2131 -1347 1631 -1347 
Q 1038 -1347 672 -1080 
Q 306 -813 319 -275 
z
M 784 1719 
Q 784 1066 1043 766 
Q 1303 466 1694 466 
Q 2081 466 2343 764 
Q 2606 1063 2606 1700 
Q 2606 2309 2336 2618 
Q 2066 2928 1684 2928 
Q 1309 2928 1046 2623 
Q 784 2319 784 1719 
z
" id="ArialMT-67" transform="scale(0.015625)"/>
        <path id="ArialMT-20" transform="scale(0.015625)"/>
        <path d="M 197 991 
L 753 1078 
Q 800 744 1014 566 
Q 1228 388 1613 388 
Q 2000 388 2187 545 
Q 2375 703 2375 916 
Q 2375 1106 2209 1216 
Q 2094 1291 1634 1406 
Q 1016 1563 777 1677 
Q 538 1791 414 1992 
Q 291 2194 291 2438 
Q 291 2659 392 2848 
Q 494 3038 669 3163 
Q 800 3259 1026 3326 
Q 1253 3394 1513 3394 
Q 1903 3394 2198 3281 
Q 2494 3169 2634 2976 
Q 2775 2784 2828 2463 
L 2278 2388 
Q 2241 2644 2061 2787 
Q 1881 2931 1553 2931 
Q 1166 2931 1000 2803 
Q 834 2675 834 2503 
Q 834 2394 903 2306 
Q 972 2216 1119 2156 
Q 1203 2125 1616 2013 
Q 2213 1853 2448 1751 
Q 2684 1650 2818 1456 
Q 2953 1263 2953 975 
Q 2953 694 2789 445 
Q 2625 197 2315 61 
Q 2006 -75 1616 -75 
Q 969 -75 630 194 
Q 291 463 197 991 
z
" id="ArialMT-73" transform="scale(0.015625)"/>
        <path d="M 2694 1069 
L 3275 997 
Q 3138 488 2766 206 
Q 2394 -75 1816 -75 
Q 1088 -75 661 373 
Q 234 822 234 1631 
Q 234 2469 665 2931 
Q 1097 3394 1784 3394 
Q 2450 3394 2872 2941 
Q 3294 2488 3294 1666 
Q 3294 1616 3291 1516 
L 816 1516 
Q 847 969 1125 678 
Q 1403 388 1819 388 
Q 2128 388 2347 550 
Q 2566 713 2694 1069 
z
M 847 1978 
L 2700 1978 
Q 2663 2397 2488 2606 
Q 2219 2931 1791 2931 
Q 1403 2931 1139 2672 
Q 875 2413 847 1978 
z
" id="ArialMT-65" transform="scale(0.015625)"/>
       </defs>
       <use xlink:href="#ArialMT-54"/>
       <use x="57.333984" xlink:href="#ArialMT-72"/>
       <use x="90.634766" xlink:href="#ArialMT-61"/>
       <use x="146.25" xlink:href="#ArialMT-69"/>
       <use x="168.466797" xlink:href="#ArialMT-6e"/>
       <use x="224.082031" xlink:href="#ArialMT-69"/>
       <use x="246.298828" xlink:href="#ArialMT-6e"/>
       <use x="301.914062" xlink:href="#ArialMT-67"/>
       <use x="357.529297" xlink:href="#ArialMT-20"/>
       <use x="385.3125" xlink:href="#ArialMT-73"/>
       <use x="435.3125" xlink:href="#ArialMT-65"/>
       <use x="490.927734" xlink:href="#ArialMT-74"/>
      </g>
     </g>
    </g>
    <g id="xtick_2">
     <g id="line2d_2">
      <g>
       <use style="stroke:#000000;stroke-width:0.8;" x="139.435654" xlink:href="#mb698ff7997" y="88.17222"/>
      </g>
     </g>
     <g id="text_2">
      <!-- Model with  -->
      <g transform="translate(124.263622 99.466908)scale(0.06 -0.06)">
       <defs>
        <path d="M 475 0 
L 475 4581 
L 1388 4581 
L 2472 1338 
Q 2622 884 2691 659 
Q 2769 909 2934 1394 
L 4031 4581 
L 4847 4581 
L 4847 0 
L 4263 0 
L 4263 3834 
L 2931 0 
L 2384 0 
L 1059 3900 
L 1059 0 
L 475 0 
z
" id="ArialMT-4d" transform="scale(0.015625)"/>
        <path d="M 213 1659 
Q 213 2581 725 3025 
Q 1153 3394 1769 3394 
Q 2453 3394 2887 2945 
Q 3322 2497 3322 1706 
Q 3322 1066 3130 698 
Q 2938 331 2570 128 
Q 2203 -75 1769 -75 
Q 1072 -75 642 372 
Q 213 819 213 1659 
z
M 791 1659 
Q 791 1022 1069 705 
Q 1347 388 1769 388 
Q 2188 388 2466 706 
Q 2744 1025 2744 1678 
Q 2744 2294 2464 2611 
Q 2184 2928 1769 2928 
Q 1347 2928 1069 2612 
Q 791 2297 791 1659 
z
" id="ArialMT-6f" transform="scale(0.015625)"/>
        <path d="M 2575 0 
L 2575 419 
Q 2259 -75 1647 -75 
Q 1250 -75 917 144 
Q 584 363 401 755 
Q 219 1147 219 1656 
Q 219 2153 384 2558 
Q 550 2963 881 3178 
Q 1213 3394 1622 3394 
Q 1922 3394 2156 3267 
Q 2391 3141 2538 2938 
L 2538 4581 
L 3097 4581 
L 3097 0 
L 2575 0 
z
M 797 1656 
Q 797 1019 1065 703 
Q 1334 388 1700 388 
Q 2069 388 2326 689 
Q 2584 991 2584 1609 
Q 2584 2291 2321 2609 
Q 2059 2928 1675 2928 
Q 1300 2928 1048 2622 
Q 797 2316 797 1656 
z
" id="ArialMT-64" transform="scale(0.015625)"/>
        <path d="M 409 0 
L 409 4581 
L 972 4581 
L 972 0 
L 409 0 
z
" id="ArialMT-6c" transform="scale(0.015625)"/>
        <path d="M 1034 0 
L 19 3319 
L 600 3319 
L 1128 1403 
L 1325 691 
Q 1338 744 1497 1375 
L 2025 3319 
L 2603 3319 
L 3100 1394 
L 3266 759 
L 3456 1400 
L 4025 3319 
L 4572 3319 
L 3534 0 
L 2950 0 
L 2422 1988 
L 2294 2553 
L 1622 0 
L 1034 0 
z
" id="ArialMT-77" transform="scale(0.015625)"/>
        <path d="M 422 0 
L 422 4581 
L 984 4581 
L 984 2938 
Q 1378 3394 1978 3394 
Q 2347 3394 2619 3248 
Q 2891 3103 3008 2847 
Q 3125 2591 3125 2103 
L 3125 0 
L 2563 0 
L 2563 2103 
Q 2563 2525 2380 2717 
Q 2197 2909 1863 2909 
Q 1613 2909 1392 2779 
Q 1172 2650 1078 2428 
Q 984 2206 984 1816 
L 984 0 
L 422 0 
z
" id="ArialMT-68" transform="scale(0.015625)"/>
       </defs>
       <use xlink:href="#ArialMT-4d"/>
       <use x="83.300781" xlink:href="#ArialMT-6f"/>
       <use x="138.916016" xlink:href="#ArialMT-64"/>
       <use x="194.53125" xlink:href="#ArialMT-65"/>
       <use x="250.146484" xlink:href="#ArialMT-6c"/>
       <use x="272.363281" xlink:href="#ArialMT-20"/>
       <use x="300.146484" xlink:href="#ArialMT-77"/>
       <use x="372.363281" xlink:href="#ArialMT-69"/>
       <use x="394.580078" xlink:href="#ArialMT-74"/>
       <use x="422.363281" xlink:href="#ArialMT-68"/>
       <use x="477.978516" xlink:href="#ArialMT-20"/>
      </g>
      <!-- trial matching -->
      <g transform="translate(121.596435 105.813033)scale(0.06 -0.06)">
       <defs>
        <path d="M 422 0 
L 422 3319 
L 925 3319 
L 925 2853 
Q 1081 3097 1340 3245 
Q 1600 3394 1931 3394 
Q 2300 3394 2536 3241 
Q 2772 3088 2869 2813 
Q 3263 3394 3894 3394 
Q 4388 3394 4653 3120 
Q 4919 2847 4919 2278 
L 4919 0 
L 4359 0 
L 4359 2091 
Q 4359 2428 4304 2576 
Q 4250 2725 4106 2815 
Q 3963 2906 3769 2906 
Q 3419 2906 3187 2673 
Q 2956 2441 2956 1928 
L 2956 0 
L 2394 0 
L 2394 2156 
Q 2394 2531 2256 2718 
Q 2119 2906 1806 2906 
Q 1569 2906 1367 2781 
Q 1166 2656 1075 2415 
Q 984 2175 984 1722 
L 984 0 
L 422 0 
z
" id="ArialMT-6d" transform="scale(0.015625)"/>
        <path d="M 2588 1216 
L 3141 1144 
Q 3050 572 2676 248 
Q 2303 -75 1759 -75 
Q 1078 -75 664 370 
Q 250 816 250 1647 
Q 250 2184 428 2587 
Q 606 2991 970 3192 
Q 1334 3394 1763 3394 
Q 2303 3394 2647 3120 
Q 2991 2847 3088 2344 
L 2541 2259 
Q 2463 2594 2264 2762 
Q 2066 2931 1784 2931 
Q 1359 2931 1093 2626 
Q 828 2322 828 1663 
Q 828 994 1084 691 
Q 1341 388 1753 388 
Q 2084 388 2306 591 
Q 2528 794 2588 1216 
z
" id="ArialMT-63" transform="scale(0.015625)"/>
       </defs>
       <use xlink:href="#ArialMT-74"/>
       <use x="27.783203" xlink:href="#ArialMT-72"/>
       <use x="61.083984" xlink:href="#ArialMT-69"/>
       <use x="83.300781" xlink:href="#ArialMT-61"/>
       <use x="138.916016" xlink:href="#ArialMT-6c"/>
       <use x="161.132812" xlink:href="#ArialMT-20"/>
       <use x="188.916016" xlink:href="#ArialMT-6d"/>
       <use x="272.216797" xlink:href="#ArialMT-61"/>
       <use x="327.832031" xlink:href="#ArialMT-74"/>
       <use x="355.615234" xlink:href="#ArialMT-63"/>
       <use x="405.615234" xlink:href="#ArialMT-68"/>
       <use x="461.230469" xlink:href="#ArialMT-69"/>
       <use x="483.447266" xlink:href="#ArialMT-6e"/>
       <use x="539.0625" xlink:href="#ArialMT-67"/>
      </g>
     </g>
    </g>
    <g id="xtick_3">
     <g id="line2d_3">
      <g>
       <use style="stroke:#000000;stroke-width:0.8;" x="185.530084" xlink:href="#mb698ff7997" y="88.17222"/>
      </g>
     </g>
     <g id="text_3">
      <!-- Model without  -->
      <g transform="translate(166.188053 99.466908)scale(0.06 -0.06)">
       <defs>
        <path d="M 2597 0 
L 2597 488 
Q 2209 -75 1544 -75 
Q 1250 -75 995 37 
Q 741 150 617 320 
Q 494 491 444 738 
Q 409 903 409 1263 
L 409 3319 
L 972 3319 
L 972 1478 
Q 972 1038 1006 884 
Q 1059 663 1231 536 
Q 1403 409 1656 409 
Q 1909 409 2131 539 
Q 2353 669 2445 892 
Q 2538 1116 2538 1541 
L 2538 3319 
L 3100 3319 
L 3100 0 
L 2597 0 
z
" id="ArialMT-75" transform="scale(0.015625)"/>
       </defs>
       <use xlink:href="#ArialMT-4d"/>
       <use x="83.300781" xlink:href="#ArialMT-6f"/>
       <use x="138.916016" xlink:href="#ArialMT-64"/>
       <use x="194.53125" xlink:href="#ArialMT-65"/>
       <use x="250.146484" xlink:href="#ArialMT-6c"/>
       <use x="272.363281" xlink:href="#ArialMT-20"/>
       <use x="300.146484" xlink:href="#ArialMT-77"/>
       <use x="372.363281" xlink:href="#ArialMT-69"/>
       <use x="394.580078" xlink:href="#ArialMT-74"/>
       <use x="422.363281" xlink:href="#ArialMT-68"/>
       <use x="477.978516" xlink:href="#ArialMT-6f"/>
       <use x="533.59375" xlink:href="#ArialMT-75"/>
       <use x="589.208984" xlink:href="#ArialMT-74"/>
       <use x="616.992188" xlink:href="#ArialMT-20"/>
      </g>
      <!-- trial matching -->
      <g transform="translate(167.690866 105.813033)scale(0.06 -0.06)">
       <use xlink:href="#ArialMT-74"/>
       <use x="27.783203" xlink:href="#ArialMT-72"/>
       <use x="61.083984" xlink:href="#ArialMT-69"/>
       <use x="83.300781" xlink:href="#ArialMT-61"/>
       <use x="138.916016" xlink:href="#ArialMT-6c"/>
       <use x="161.132812" xlink:href="#ArialMT-20"/>
       <use x="188.916016" xlink:href="#ArialMT-6d"/>
       <use x="272.216797" xlink:href="#ArialMT-61"/>
       <use x="327.832031" xlink:href="#ArialMT-74"/>
       <use x="355.615234" xlink:href="#ArialMT-63"/>
       <use x="405.615234" xlink:href="#ArialMT-68"/>
       <use x="461.230469" xlink:href="#ArialMT-69"/>
       <use x="483.447266" xlink:href="#ArialMT-6e"/>
       <use x="539.0625" xlink:href="#ArialMT-67"/>
      </g>
     </g>
    </g>
   </g>
   <g id="matplotlib.axis_2">
    <g id="ytick_1">
     <g id="line2d_4">
      <defs>
       <path d="M 0 0 
L -3.5 0 
" id="mc547bb0b87" style="stroke:#000000;stroke-width:0.8;"/>
      </defs>
      <g>
       <use style="stroke:#000000;stroke-width:0.8;" x="76.055811" xlink:href="#mc547bb0b87" y="75.847424"/>
      </g>
     </g>
     <g id="text_4">
      <!-- 0.0 -->
      <g transform="translate(60.715811 77.994768)scale(0.06 -0.06)">
       <defs>
        <path d="M 266 2259 
Q 266 3072 433 3567 
Q 600 4063 929 4331 
Q 1259 4600 1759 4600 
Q 2128 4600 2406 4451 
Q 2684 4303 2865 4023 
Q 3047 3744 3150 3342 
Q 3253 2941 3253 2259 
Q 3253 1453 3087 958 
Q 2922 463 2592 192 
Q 2263 -78 1759 -78 
Q 1097 -78 719 397 
Q 266 969 266 2259 
z
M 844 2259 
Q 844 1131 1108 757 
Q 1372 384 1759 384 
Q 2147 384 2411 759 
Q 2675 1134 2675 2259 
Q 2675 3391 2411 3762 
Q 2147 4134 1753 4134 
Q 1366 4134 1134 3806 
Q 844 3388 844 2259 
z
" id="ArialMT-30" transform="scale(0.015625)"/>
        <path d="M 581 0 
L 581 641 
L 1222 641 
L 1222 0 
L 581 0 
z
" id="ArialMT-2e" transform="scale(0.015625)"/>
       </defs>
       <use xlink:href="#ArialMT-30"/>
       <use x="55.615234" xlink:href="#ArialMT-2e"/>
       <use x="83.398438" xlink:href="#ArialMT-30"/>
      </g>
     </g>
    </g>
    <g id="ytick_2">
     <g id="line2d_5">
      <g>
       <use style="stroke:#000000;stroke-width:0.8;" x="76.055811" xlink:href="#mc547bb0b87" y="51.143971"/>
      </g>
     </g>
     <g id="text_5">
      <!-- 0.5 -->
      <g transform="translate(60.715811 53.291314)scale(0.06 -0.06)">
       <defs>
        <path d="M 266 1200 
L 856 1250 
Q 922 819 1161 601 
Q 1400 384 1738 384 
Q 2144 384 2425 690 
Q 2706 997 2706 1503 
Q 2706 1984 2436 2262 
Q 2166 2541 1728 2541 
Q 1456 2541 1237 2417 
Q 1019 2294 894 2097 
L 366 2166 
L 809 4519 
L 3088 4519 
L 3088 3981 
L 1259 3981 
L 1013 2750 
Q 1425 3038 1878 3038 
Q 2478 3038 2890 2622 
Q 3303 2206 3303 1553 
Q 3303 931 2941 478 
Q 2500 -78 1738 -78 
Q 1113 -78 717 272 
Q 322 622 266 1200 
z
" id="ArialMT-35" transform="scale(0.015625)"/>
       </defs>
       <use xlink:href="#ArialMT-30"/>
       <use x="55.615234" xlink:href="#ArialMT-2e"/>
       <use x="83.398438" xlink:href="#ArialMT-35"/>
      </g>
     </g>
    </g>
    <g id="ytick_3">
     <g id="line2d_6">
      <g>
       <use style="stroke:#000000;stroke-width:0.8;" x="76.055811" xlink:href="#mc547bb0b87" y="26.440517"/>
      </g>
     </g>
     <g id="text_6">
      <!-- 1.0 -->
      <g transform="translate(60.715811 28.58786)scale(0.06 -0.06)">
       <defs>
        <path d="M 2384 0 
L 1822 0 
L 1822 3584 
Q 1619 3391 1289 3197 
Q 959 3003 697 2906 
L 697 3450 
Q 1169 3672 1522 3987 
Q 1875 4303 2022 4600 
L 2384 4600 
L 2384 0 
z
" id="ArialMT-31" transform="scale(0.015625)"/>
       </defs>
       <use xlink:href="#ArialMT-31"/>
       <use x="55.615234" xlink:href="#ArialMT-2e"/>
       <use x="83.398438" xlink:href="#ArialMT-30"/>
      </g>
     </g>
    </g>
   </g>
   <g id="patch_3">
    <path d="M 76.055811 88.17222 
L 76.055811 25.192063 
" style="fill:none;stroke:#000000;stroke-linecap:square;stroke-linejoin:miter;stroke-width:0.8;"/>
   </g>
   <g id="patch_4">
    <path d="M 76.055811 88.17222 
L 202.815496 88.17222 
" style="fill:none;stroke:#000000;stroke-linecap:square;stroke-linejoin:miter;stroke-width:0.8;"/>
   </g>
  </g>
 </g>
 <defs>
  <clipPath id="paa36cbfbda">
   <rect height="62.980157" width="126.759685" x="76.055811" y="25.192063"/>
  </clipPath>
 </defs>
</svg>
