<?xml version="1.0" encoding="utf-8" standalone="no"?>
<!DOCTYPE svg PUBLIC "-//W3C//DTD SVG 1.1//EN"
  "http://www.w3.org/Graphics/SVG/1.1/DTD/svg11.dtd">
<svg height="125.960315pt" version="1.1" viewBox="0 0 253.51937 125.960315" width="253.51937pt" xmlns="http://www.w3.org/2000/svg" xmlns:xlink="http://www.w3.org/1999/xlink">
 <metadata>
  <rdf:RDF xmlns:cc="http://creativecommons.org/ns#" xmlns:dc="http://purl.org/dc/elements/1.1/" xmlns:rdf="http://www.w3.org/1999/02/22-rdf-syntax-ns#">
   <cc:Work>
    <dc:type rdf:resource="http://purl.org/dc/dcmitype/StillImage"/>
    <dc:date>2023-10-09T17:15:49.204794</dc:date>
    <dc:format>image/svg+xml</dc:format>
    <dc:creator>
     <cc:Agent>
      <dc:title>Matplotlib v3.4.2, https://matplotlib.org/</dc:title>
     </cc:Agent>
    </dc:creator>
   </cc:Work>
  </rdf:RDF>
 </metadata>
 <defs>
  <style type="text/css">*{stroke-linecap:butt;stroke-linejoin:round;}</style>
 </defs>
 <g id="figure_1">
  <g id="patch_1">
   <path d="M 0 125.960315 
L 253.51937 125.960315 
L 253.51937 0 
L 0 0 
z
" style="fill:#ffffff;"/>
  </g>
  <g id="axes_1">
   <g id="patch_2">
    <path d="M 76.055811 88.17222 
L 202.815496 88.17222 
L 202.815496 25.192063 
L 76.055811 25.192063 
z
" style="fill:#ffffff;"/>
   </g>
   <g id="PolyCollection_1">
    <path clip-path="url(#p2a1779e5e7)" d="M 93.460686 81.643687 
L 93.22176 81.643687 
L 93.191725 81.074323 
L 93.155459 80.504959 
L 93.111562 79.935596 
L 93.058174 79.366232 
L 92.992819 78.796868 
L 92.912312 78.227504 
L 92.812811 77.65814 
L 92.690101 77.088776 
L 92.540097 76.519412 
L 92.359459 75.950049 
L 92.14615 75.380685 
L 91.899681 74.811321 
L 91.620913 74.241957 
L 91.311404 73.672593 
L 90.972491 73.103229 
L 90.604451 72.533865 
L 90.206086 71.964502 
L 89.774984 71.395138 
L 89.308454 70.825774 
L 88.804905 70.25641 
L 88.265269 69.687046 
L 87.69404 69.117682 
L 87.099628 68.548318 
L 86.493943 67.978955 
L 85.891318 67.409591 
L 85.307056 66.840227 
L 84.755875 66.270863 
L 84.250538 65.701499 
L 83.800832 65.132135 
L 83.412959 64.562771 
L 83.089349 63.993408 
L 82.828836 63.424044 
L 82.627119 62.85468 
L 82.477423 62.285316 
L 82.371235 61.715952 
L 82.299045 61.146588 
L 82.250999 60.577224 
L 82.217468 60.007861 
L 82.189578 59.438497 
L 82.159792 58.869133 
L 82.122599 58.299769 
L 82.075301 57.730405 
L 82.018718 57.161041 
L 81.957558 56.591677 
L 81.900184 56.022313 
L 81.857606 55.45295 
L 81.841754 54.883586 
L 81.863319 54.314222 
L 81.929599 53.744858 
L 82.042836 53.175494 
L 82.199413 52.60613 
L 82.390083 52.036766 
L 82.601151 51.467403 
L 82.81636 50.898039 
L 83.019069 50.328675 
L 83.194336 49.759311 
L 83.330576 49.189947 
L 83.420567 48.620583 
L 83.46175 48.051219 
L 83.455861 47.481856 
L 83.408021 46.912492 
L 83.325511 46.343128 
L 83.216444 45.773764 
L 83.088587 45.2044 
L 82.94853 44.635036 
L 82.801323 44.065672 
L 82.650605 43.496309 
L 82.49915 42.926945 
L 82.349683 42.357581 
L 82.205766 41.788217 
L 82.072561 41.218853 
L 81.95727 40.649489 
L 81.869117 40.080125 
L 81.81882 39.510762 
L 81.817615 38.941398 
L 81.876035 38.372034 
L 82.002719 37.80267 
L 82.203547 37.233306 
L 82.481287 36.663942 
L 82.835777 36.094578 
L 83.26452 35.525215 
L 83.763392 34.955851 
L 84.327175 34.386487 
L 84.949681 33.817123 
L 85.623394 33.247759 
L 86.338768 32.678395 
L 87.083483 32.109031 
L 87.842068 31.539668 
L 88.596209 30.970304 
L 89.325917 30.40094 
L 90.011415 29.831576 
L 90.635387 29.262212 
L 91.18504 28.692848 
L 91.65349 28.123484 
L 92.040127 27.554121 
L 92.349937 26.984757 
L 92.591996 26.415393 
L 92.777576 25.846029 
L 92.9183 25.276665 
L 93.764145 25.276665 
L 93.764145 25.276665 
L 93.90487 25.846029 
L 94.090449 26.415393 
L 94.332508 26.984757 
L 94.642318 27.554121 
L 95.028955 28.123484 
L 95.497405 28.692848 
L 96.047058 29.262212 
L 96.67103 29.831576 
L 97.356528 30.40094 
L 98.086236 30.970304 
L 98.840377 31.539668 
L 99.598962 32.109031 
L 100.343678 32.678395 
L 101.059051 33.247759 
L 101.732764 33.817123 
L 102.35527 34.386487 
L 102.919053 34.955851 
L 103.417925 35.525215 
L 103.846668 36.094578 
L 104.201159 36.663942 
L 104.478898 37.233306 
L 104.679726 37.80267 
L 104.806411 38.372034 
L 104.86483 38.941398 
L 104.863626 39.510762 
L 104.813328 40.080125 
L 104.725175 40.649489 
L 104.609884 41.218853 
L 104.476679 41.788217 
L 104.332763 42.357581 
L 104.183295 42.926945 
L 104.03184 43.496309 
L 103.881122 44.065672 
L 103.733915 44.635036 
L 103.593858 45.2044 
L 103.466002 45.773764 
L 103.356935 46.343128 
L 103.274424 46.912492 
L 103.226585 47.481856 
L 103.220695 48.051219 
L 103.261879 48.620583 
L 103.351869 49.189947 
L 103.488109 49.759311 
L 103.663377 50.328675 
L 103.866085 50.898039 
L 104.081295 51.467403 
L 104.292363 52.036766 
L 104.483032 52.60613 
L 104.639609 53.175494 
L 104.752847 53.744858 
L 104.819126 54.314222 
L 104.840691 54.883586 
L 104.824839 55.45295 
L 104.782261 56.022313 
L 104.724887 56.591677 
L 104.663728 57.161041 
L 104.607144 57.730405 
L 104.559846 58.299769 
L 104.522653 58.869133 
L 104.492867 59.438497 
L 104.464977 60.007861 
L 104.431446 60.577224 
L 104.3834 61.146588 
L 104.31121 61.715952 
L 104.205023 62.285316 
L 104.055326 62.85468 
L 103.85361 63.424044 
L 103.593096 63.993408 
L 103.269486 64.562771 
L 102.881613 65.132135 
L 102.431907 65.701499 
L 101.92657 66.270863 
L 101.375389 66.840227 
L 100.791127 67.409591 
L 100.188503 67.978955 
L 99.582817 68.548318 
L 98.988405 69.117682 
L 98.417176 69.687046 
L 97.877541 70.25641 
L 97.373991 70.825774 
L 96.907461 71.395138 
L 96.476359 71.964502 
L 96.077994 72.533865 
L 95.709954 73.103229 
L 95.371041 73.672593 
L 95.061532 74.241957 
L 94.782764 74.811321 
L 94.536295 75.380685 
L 94.322986 75.950049 
L 94.142349 76.519412 
L 93.992344 77.088776 
L 93.869635 77.65814 
L 93.770134 78.227504 
L 93.689626 78.796868 
L 93.624271 79.366232 
L 93.570883 79.935596 
L 93.526986 80.504959 
L 93.49072 81.074323 
L 93.460686 81.643687 
z
" style="fill-opacity:0.3;"/>
   </g>
   <g id="PolyCollection_2">
    <path clip-path="url(#p2a1779e5e7)" d="M 139.659998 84.725063 
L 139.211309 84.725063 
L 139.165218 84.154568 
L 139.111739 83.584072 
L 139.048556 83.013577 
L 138.97269 82.443081 
L 138.880731 81.872586 
L 138.769225 81.30209 
L 138.635155 80.731594 
L 138.476435 80.161099 
L 138.292313 79.590603 
L 138.083544 79.020108 
L 137.852267 78.449612 
L 137.601538 77.879117 
L 137.334563 77.308621 
L 137.053789 76.738125 
L 136.760032 76.16763 
L 136.45192 75.597134 
L 136.125822 75.026639 
L 135.776367 74.456143 
L 135.39751 73.885648 
L 134.983935 73.315152 
L 134.532506 72.744656 
L 134.043448 72.174161 
L 133.520992 71.603665 
L 132.97338 71.03317 
L 132.412228 70.462674 
L 131.85142 69.892178 
L 131.305751 69.321683 
L 130.789556 68.751187 
L 130.315505 68.180692 
L 129.893666 67.610196 
L 129.53087 67.039701 
L 129.230356 66.469205 
L 128.991648 65.898709 
L 128.810684 65.328214 
L 128.680171 64.757718 
L 128.590226 64.187223 
L 128.529317 63.616727 
L 128.485457 63.046232 
L 128.447568 62.475736 
L 128.406801 61.90524 
L 128.357574 61.334745 
L 128.298076 60.764249 
L 128.230096 60.193754 
L 128.158163 59.623258 
L 128.088196 59.052763 
L 128.025999 58.482267 
L 127.975985 57.911771 
L 127.940463 57.341276 
L 127.91961 56.77078 
L 127.912046 56.200285 
L 127.91572 55.629789 
L 127.928749 55.059293 
L 127.949915 54.488798 
L 127.978697 53.918302 
L 128.014931 53.347807 
L 128.058315 52.777311 
L 128.108031 52.206816 
L 128.162648 51.63632 
L 128.220317 51.065824 
L 128.279146 50.495329 
L 128.337545 49.924833 
L 128.394404 49.354338 
L 128.449021 48.783842 
L 128.500845 48.213347 
L 128.54914 47.642851 
L 128.592707 47.072355 
L 128.629731 46.50186 
L 128.657772 45.931364 
L 128.673903 45.360869 
L 128.674938 44.790373 
L 128.657792 44.219878 
L 128.619986 43.649382 
L 128.560315 43.078886 
L 128.479675 42.508391 
L 128.381896 41.937895 
L 128.274408 41.3674 
L 128.168481 40.796904 
L 128.078867 40.226408 
L 128.022764 39.655913 
L 128.018199 39.085417 
L 128.082081 38.514922 
L 128.228247 37.944426 
L 128.465863 37.373931 
L 128.798437 36.803435 
L 129.223596 36.232939 
L 129.733624 35.662444 
L 130.316593 35.091948 
L 130.957853 34.521453 
L 131.641561 33.950957 
L 132.351969 33.380462 
L 133.074278 32.809966 
L 133.79501 32.23947 
L 134.501977 31.668975 
L 135.184051 31.098479 
L 135.830972 30.527984 
L 136.433364 29.957488 
L 136.983043 29.386993 
L 137.473534 28.816497 
L 137.90064 28.246001 
L 140.970667 28.246001 
L 140.970667 28.246001 
L 141.397773 28.816497 
L 141.888264 29.386993 
L 142.437943 29.957488 
L 143.040336 30.527984 
L 143.687256 31.098479 
L 144.36933 31.668975 
L 145.076297 32.23947 
L 145.797029 32.809966 
L 146.519338 33.380462 
L 147.229746 33.950957 
L 147.913454 34.521453 
L 148.554714 35.091948 
L 149.137683 35.662444 
L 149.647711 36.232939 
L 150.07287 36.803435 
L 150.405444 37.373931 
L 150.64306 37.944426 
L 150.789226 38.514922 
L 150.853108 39.085417 
L 150.848543 39.655913 
L 150.79244 40.226408 
L 150.702826 40.796904 
L 150.596899 41.3674 
L 150.489411 41.937895 
L 150.391632 42.508391 
L 150.310992 43.078886 
L 150.251321 43.649382 
L 150.213515 44.219878 
L 150.19637 44.790373 
L 150.197404 45.360869 
L 150.213535 45.931364 
L 150.241576 46.50186 
L 150.2786 47.072355 
L 150.322167 47.642851 
L 150.370462 48.213347 
L 150.422286 48.783842 
L 150.476903 49.354338 
L 150.533762 49.924833 
L 150.592161 50.495329 
L 150.65099 51.065824 
L 150.708659 51.63632 
L 150.763276 52.206816 
L 150.812992 52.777311 
L 150.856376 53.347807 
L 150.89261 53.918302 
L 150.921392 54.488798 
L 150.942558 55.059293 
L 150.955587 55.629789 
L 150.959261 56.200285 
L 150.951697 56.77078 
L 150.930844 57.341276 
L 150.895322 57.911771 
L 150.845308 58.482267 
L 150.783111 59.052763 
L 150.713145 59.623258 
L 150.641211 60.193754 
L 150.573231 60.764249 
L 150.513733 61.334745 
L 150.464506 61.90524 
L 150.423739 62.475736 
L 150.38585 63.046232 
L 150.34199 63.616727 
L 150.281081 64.187223 
L 150.191136 64.757718 
L 150.060623 65.328214 
L 149.879659 65.898709 
L 149.640952 66.469205 
L 149.340437 67.039701 
L 148.977642 67.610196 
L 148.555802 68.180692 
L 148.081751 68.751187 
L 147.565557 69.321683 
L 147.019888 69.892178 
L 146.459079 70.462674 
L 145.897927 71.03317 
L 145.350315 71.603665 
L 144.827859 72.174161 
L 144.338801 72.744656 
L 143.887372 73.315152 
L 143.473797 73.885648 
L 143.09494 74.456143 
L 142.745485 75.026639 
L 142.419387 75.597134 
L 142.111275 76.16763 
L 141.817518 76.738125 
L 141.536744 77.308621 
L 141.26977 77.879117 
L 141.01904 78.449612 
L 140.787763 79.020108 
L 140.578994 79.590603 
L 140.394872 80.161099 
L 140.236153 80.731594 
L 140.102082 81.30209 
L 139.990576 81.872586 
L 139.898618 82.443081 
L 139.822751 83.013577 
L 139.759568 83.584072 
L 139.706089 84.154568 
L 139.659998 84.725063 
z
" style="fill-opacity:0.3;"/>
   </g>
   <g id="PolyCollection_3">
    <path clip-path="url(#p2a1779e5e7)" d="M 185.566234 93.05854 
L 185.493935 93.05854 
L 185.494727 92.532732 
L 185.497632 92.006924 
L 185.50095 91.481115 
L 185.502861 90.955307 
L 185.502182 90.429499 
L 185.498786 89.903691 
L 185.493447 89.377882 
L 185.487185 88.852074 
L 185.480442 88.326266 
L 185.472521 87.800458 
L 185.461582 87.274649 
L 185.445149 86.748841 
L 185.420799 86.223033 
L 185.386667 85.697225 
L 185.341683 85.171417 
L 185.285605 84.645608 
L 185.218889 84.1198 
L 185.142173 83.593992 
L 185.055234 83.068184 
L 184.955688 82.542375 
L 184.838238 82.016567 
L 184.695225 81.490759 
L 184.51839 80.964951 
L 184.30086 80.439142 
L 184.038139 79.913334 
L 183.727692 79.387526 
L 183.367785 78.861718 
L 182.95679 78.33591 
L 182.493696 77.810101 
L 181.979609 77.284293 
L 181.419213 76.758485 
L 180.821082 76.232677 
L 180.196527 75.706868 
L 179.557802 75.18106 
L 178.917185 74.655252 
L 178.287999 74.129444 
L 177.686978 73.603635 
L 177.135432 73.077827 
L 176.656349 72.552019 
L 176.266835 72.026211 
L 175.969401 71.500403 
L 175.748154 70.974594 
L 175.573834 70.448786 
L 175.415587 69.922978 
L 175.252095 69.39717 
L 175.075314 68.871361 
L 174.886367 68.345553 
L 174.689552 67.819745 
L 174.490798 67.293937 
L 174.301272 66.768128 
L 174.140736 66.24232 
L 174.034873 65.716512 
L 174.006477 65.190704 
L 174.066488 64.664895 
L 174.211497 64.139087 
L 174.428789 63.613279 
L 174.703714 63.087471 
L 175.022903 62.561663 
L 175.371499 62.035854 
L 175.728689 61.510046 
L 176.067925 60.984238 
L 176.364672 60.45843 
L 176.608534 59.932621 
L 176.812666 59.406813 
L 177.014069 58.881005 
L 177.26301 58.355197 
L 177.605555 57.829388 
L 178.06697 57.30358 
L 178.643452 56.777772 
L 179.305277 56.251964 
L 180.008588 55.726156 
L 180.709163 55.200347 
L 181.371917 54.674539 
L 181.973763 54.148731 
L 182.501708 53.622923 
L 182.949876 53.097114 
L 183.318091 52.571306 
L 183.612191 52.045498 
L 183.844544 51.51969 
L 184.032944 50.993881 
L 184.197158 50.468073 
L 184.353953 49.942265 
L 184.512668 49.416457 
L 184.673492 48.890649 
L 184.829361 48.36484 
L 184.970382 47.839032 
L 185.088424 47.313224 
L 185.179706 46.787416 
L 185.244802 46.261607 
L 185.287001 45.735799 
L 185.310587 45.209991 
L 185.319965 44.684183 
L 185.319632 44.158374 
L 185.314375 43.632566 
L 185.30916 43.106758 
L 185.308594 42.58095 
L 185.316134 42.055142 
L 185.333349 41.529333 
L 185.3595 41.003525 
L 185.700669 41.003525 
L 185.700669 41.003525 
L 185.72682 41.529333 
L 185.744034 42.055142 
L 185.751575 42.58095 
L 185.751009 43.106758 
L 185.745794 43.632566 
L 185.740536 44.158374 
L 185.740204 44.684183 
L 185.749582 45.209991 
L 185.773168 45.735799 
L 185.815367 46.261607 
L 185.880463 46.787416 
L 185.971745 47.313224 
L 186.089787 47.839032 
L 186.230808 48.36484 
L 186.386677 48.890649 
L 186.547501 49.416457 
L 186.706215 49.942265 
L 186.863011 50.468073 
L 187.027225 50.993881 
L 187.215625 51.51969 
L 187.447978 52.045498 
L 187.742078 52.571306 
L 188.110293 53.097114 
L 188.558461 53.622923 
L 189.086406 54.148731 
L 189.688252 54.674539 
L 190.351006 55.200347 
L 191.051581 55.726156 
L 191.754892 56.251964 
L 192.416717 56.777772 
L 192.993199 57.30358 
L 193.454614 57.829388 
L 193.797159 58.355197 
L 194.0461 58.881005 
L 194.247503 59.406813 
L 194.451635 59.932621 
L 194.695497 60.45843 
L 194.992244 60.984238 
L 195.33148 61.510046 
L 195.68867 62.035854 
L 196.037266 62.561663 
L 196.356455 63.087471 
L 196.63138 63.613279 
L 196.848671 64.139087 
L 196.993681 64.664895 
L 197.053692 65.190704 
L 197.025296 65.716512 
L 196.919433 66.24232 
L 196.758897 66.768128 
L 196.569371 67.293937 
L 196.370617 67.819745 
L 196.173802 68.345553 
L 195.984855 68.871361 
L 195.808074 69.39717 
L 195.644582 69.922978 
L 195.486335 70.448786 
L 195.312015 70.974594 
L 195.090768 71.500403 
L 194.793334 72.026211 
L 194.40382 72.552019 
L 193.924737 73.077827 
L 193.373191 73.603635 
L 192.77217 74.129444 
L 192.142984 74.655252 
L 191.502367 75.18106 
L 190.863642 75.706868 
L 190.239087 76.232677 
L 189.640955 76.758485 
L 189.08056 77.284293 
L 188.566473 77.810101 
L 188.103378 78.33591 
L 187.692384 78.861718 
L 187.332477 79.387526 
L 187.02203 79.913334 
L 186.759309 80.439142 
L 186.541779 80.964951 
L 186.364944 81.490759 
L 186.221931 82.016567 
L 186.104481 82.542375 
L 186.004935 83.068184 
L 185.917996 83.593992 
L 185.84128 84.1198 
L 185.774564 84.645608 
L 185.718486 85.171417 
L 185.673502 85.697225 
L 185.63937 86.223033 
L 185.61502 86.748841 
L 185.598587 87.274649 
L 185.587648 87.800458 
L 185.579727 88.326266 
L 185.572984 88.852074 
L 185.566722 89.377882 
L 185.561383 89.903691 
L 185.557987 90.429499 
L 185.557308 90.955307 
L 185.559219 91.481115 
L 185.562537 92.006924 
L 185.565442 92.532732 
L 185.566234 93.05854 
z
" style="fill-opacity:0.3;"/>
   </g>
   <g id="PathCollection_1">
    <defs>
     <path d="M 0 1.581139 
C 0.419323 1.581139 0.821528 1.41454 1.118034 1.118034 
C 1.41454 0.821528 1.581139 0.419323 1.581139 0 
C 1.581139 -0.419323 1.41454 -0.821528 1.118034 -1.118034 
C 0.821528 -1.41454 0.419323 -1.581139 0 -1.581139 
C -0.419323 -1.581139 -0.821528 -1.41454 -1.118034 -1.118034 
C -1.41454 -0.821528 -1.581139 -0.419323 -1.581139 0 
C -1.581139 0.419323 -1.41454 0.821528 -1.118034 1.118034 
C -0.821528 1.41454 -0.419323 1.581139 0 1.581139 
z
" id="mfc9ae96052" style="stroke:#000000;"/>
    </defs>
    <g clip-path="url(#p2a1779e5e7)">
     <use style="stroke:#000000;" x="93.341223" xlink:href="#mfc9ae96052" y="50.707295"/>
     <use style="stroke:#000000;" x="139.435654" xlink:href="#mfc9ae96052" y="52.540844"/>
     <use style="stroke:#000000;" x="185.530084" xlink:href="#mfc9ae96052" y="65.542744"/>
    </g>
   </g>
   <g id="matplotlib.axis_1">
    <g id="xtick_1">
     <g id="line2d_1">
      <defs>
       <path d="M 0 0 
L 0 3.5 
" id="m7b91d8e31d" style="stroke:#000000;stroke-width:0.8;"/>
      </defs>
      <g>
       <use style="stroke:#000000;stroke-width:0.8;" x="93.341223" xlink:href="#m7b91d8e31d" y="88.17222"/>
      </g>
     </g>
     <g id="text_1">
      <!-- Data -->
      <g transform="translate(87.00466 99.466908)scale(0.06 -0.06)">
       <defs>
        <path d="M 494 0 
L 494 4581 
L 2072 4581 
Q 2606 4581 2888 4516 
Q 3281 4425 3559 4188 
Q 3922 3881 4101 3404 
Q 4281 2928 4281 2316 
Q 4281 1794 4159 1391 
Q 4038 988 3847 723 
Q 3656 459 3429 307 
Q 3203 156 2883 78 
Q 2563 0 2147 0 
L 494 0 
z
M 1100 541 
L 2078 541 
Q 2531 541 2789 625 
Q 3047 709 3200 863 
Q 3416 1078 3536 1442 
Q 3656 1806 3656 2325 
Q 3656 3044 3420 3430 
Q 3184 3816 2847 3947 
Q 2603 4041 2063 4041 
L 1100 4041 
L 1100 541 
z
" id="ArialMT-44" transform="scale(0.015625)"/>
        <path d="M 2588 409 
Q 2275 144 1986 34 
Q 1697 -75 1366 -75 
Q 819 -75 525 192 
Q 231 459 231 875 
Q 231 1119 342 1320 
Q 453 1522 633 1644 
Q 813 1766 1038 1828 
Q 1203 1872 1538 1913 
Q 2219 1994 2541 2106 
Q 2544 2222 2544 2253 
Q 2544 2597 2384 2738 
Q 2169 2928 1744 2928 
Q 1347 2928 1158 2789 
Q 969 2650 878 2297 
L 328 2372 
Q 403 2725 575 2942 
Q 747 3159 1072 3276 
Q 1397 3394 1825 3394 
Q 2250 3394 2515 3294 
Q 2781 3194 2906 3042 
Q 3031 2891 3081 2659 
Q 3109 2516 3109 2141 
L 3109 1391 
Q 3109 606 3145 398 
Q 3181 191 3288 0 
L 2700 0 
Q 2613 175 2588 409 
z
M 2541 1666 
Q 2234 1541 1622 1453 
Q 1275 1403 1131 1340 
Q 988 1278 909 1158 
Q 831 1038 831 891 
Q 831 666 1001 516 
Q 1172 366 1500 366 
Q 1825 366 2078 508 
Q 2331 650 2450 897 
Q 2541 1088 2541 1459 
L 2541 1666 
z
" id="ArialMT-61" transform="scale(0.015625)"/>
        <path d="M 1650 503 
L 1731 6 
Q 1494 -44 1306 -44 
Q 1000 -44 831 53 
Q 663 150 594 308 
Q 525 466 525 972 
L 525 2881 
L 113 2881 
L 113 3319 
L 525 3319 
L 525 4141 
L 1084 4478 
L 1084 3319 
L 1650 3319 
L 1650 2881 
L 1084 2881 
L 1084 941 
Q 1084 700 1114 631 
Q 1144 563 1211 522 
Q 1278 481 1403 481 
Q 1497 481 1650 503 
z
" id="ArialMT-74" transform="scale(0.015625)"/>
       </defs>
       <use xlink:href="#ArialMT-44"/>
       <use x="72.216797" xlink:href="#ArialMT-61"/>
       <use x="127.832031" xlink:href="#ArialMT-74"/>
       <use x="155.615234" xlink:href="#ArialMT-61"/>
      </g>
      <!-- Training set -->
      <g transform="translate(77.781066 105.813033)scale(0.06 -0.06)">
       <defs>
        <path d="M 1659 0 
L 1659 4041 
L 150 4041 
L 150 4581 
L 3781 4581 
L 3781 4041 
L 2266 4041 
L 2266 0 
L 1659 0 
z
" id="ArialMT-54" transform="scale(0.015625)"/>
        <path d="M 416 0 
L 416 3319 
L 922 3319 
L 922 2816 
Q 1116 3169 1280 3281 
Q 1444 3394 1641 3394 
Q 1925 3394 2219 3213 
L 2025 2691 
Q 1819 2813 1613 2813 
Q 1428 2813 1281 2702 
Q 1134 2591 1072 2394 
Q 978 2094 978 1738 
L 978 0 
L 416 0 
z
" id="ArialMT-72" transform="scale(0.015625)"/>
        <path d="M 425 3934 
L 425 4581 
L 988 4581 
L 988 3934 
L 425 3934 
z
M 425 0 
L 425 3319 
L 988 3319 
L 988 0 
L 425 0 
z
" id="ArialMT-69" transform="scale(0.015625)"/>
        <path d="M 422 0 
L 422 3319 
L 928 3319 
L 928 2847 
Q 1294 3394 1984 3394 
Q 2284 3394 2536 3286 
Q 2788 3178 2913 3003 
Q 3038 2828 3088 2588 
Q 3119 2431 3119 2041 
L 3119 0 
L 2556 0 
L 2556 2019 
Q 2556 2363 2490 2533 
Q 2425 2703 2258 2804 
Q 2091 2906 1866 2906 
Q 1506 2906 1245 2678 
Q 984 2450 984 1813 
L 984 0 
L 422 0 
z
" id="ArialMT-6e" transform="scale(0.015625)"/>
        <path d="M 319 -275 
L 866 -356 
Q 900 -609 1056 -725 
Q 1266 -881 1628 -881 
Q 2019 -881 2231 -725 
Q 2444 -569 2519 -288 
Q 2563 -116 2559 434 
Q 2191 0 1641 0 
Q 956 0 581 494 
Q 206 988 206 1678 
Q 206 2153 378 2554 
Q 550 2956 876 3175 
Q 1203 3394 1644 3394 
Q 2231 3394 2613 2919 
L 2613 3319 
L 3131 3319 
L 3131 450 
Q 3131 -325 2973 -648 
Q 2816 -972 2473 -1159 
Q 2131 -1347 1631 -1347 
Q 1038 -1347 672 -1080 
Q 306 -813 319 -275 
z
M 784 1719 
Q 784 1066 1043 766 
Q 1303 466 1694 466 
Q 2081 466 2343 764 
Q 2606 1063 2606 1700 
Q 2606 2309 2336 2618 
Q 2066 2928 1684 2928 
Q 1309 2928 1046 2623 
Q 784 2319 784 1719 
z
" id="ArialMT-67" transform="scale(0.015625)"/>
        <path id="ArialMT-20" transform="scale(0.015625)"/>
        <path d="M 197 991 
L 753 1078 
Q 800 744 1014 566 
Q 1228 388 1613 388 
Q 2000 388 2187 545 
Q 2375 703 2375 916 
Q 2375 1106 2209 1216 
Q 2094 1291 1634 1406 
Q 1016 1563 777 1677 
Q 538 1791 414 1992 
Q 291 2194 291 2438 
Q 291 2659 392 2848 
Q 494 3038 669 3163 
Q 800 3259 1026 3326 
Q 1253 3394 1513 3394 
Q 1903 3394 2198 3281 
Q 2494 3169 2634 2976 
Q 2775 2784 2828 2463 
L 2278 2388 
Q 2241 2644 2061 2787 
Q 1881 2931 1553 2931 
Q 1166 2931 1000 2803 
Q 834 2675 834 2503 
Q 834 2394 903 2306 
Q 972 2216 1119 2156 
Q 1203 2125 1616 2013 
Q 2213 1853 2448 1751 
Q 2684 1650 2818 1456 
Q 2953 1263 2953 975 
Q 2953 694 2789 445 
Q 2625 197 2315 61 
Q 2006 -75 1616 -75 
Q 969 -75 630 194 
Q 291 463 197 991 
z
" id="ArialMT-73" transform="scale(0.015625)"/>
        <path d="M 2694 1069 
L 3275 997 
Q 3138 488 2766 206 
Q 2394 -75 1816 -75 
Q 1088 -75 661 373 
Q 234 822 234 1631 
Q 234 2469 665 2931 
Q 1097 3394 1784 3394 
Q 2450 3394 2872 2941 
Q 3294 2488 3294 1666 
Q 3294 1616 3291 1516 
L 816 1516 
Q 847 969 1125 678 
Q 1403 388 1819 388 
Q 2128 388 2347 550 
Q 2566 713 2694 1069 
z
M 847 1978 
L 2700 1978 
Q 2663 2397 2488 2606 
Q 2219 2931 1791 2931 
Q 1403 2931 1139 2672 
Q 875 2413 847 1978 
z
" id="ArialMT-65" transform="scale(0.015625)"/>
       </defs>
       <use xlink:href="#ArialMT-54"/>
       <use x="57.333984" xlink:href="#ArialMT-72"/>
       <use x="90.634766" xlink:href="#ArialMT-61"/>
       <use x="146.25" xlink:href="#ArialMT-69"/>
       <use x="168.466797" xlink:href="#ArialMT-6e"/>
       <use x="224.082031" xlink:href="#ArialMT-69"/>
       <use x="246.298828" xlink:href="#ArialMT-6e"/>
       <use x="301.914062" xlink:href="#ArialMT-67"/>
       <use x="357.529297" xlink:href="#ArialMT-20"/>
       <use x="385.3125" xlink:href="#ArialMT-73"/>
       <use x="435.3125" xlink:href="#ArialMT-65"/>
       <use x="490.927734" xlink:href="#ArialMT-74"/>
      </g>
     </g>
    </g>
    <g id="xtick_2">
     <g id="line2d_2">
      <g>
       <use style="stroke:#000000;stroke-width:0.8;" x="139.435654" xlink:href="#m7b91d8e31d" y="88.17222"/>
      </g>
     </g>
     <g id="text_2">
      <!-- Model with  -->
      <g transform="translate(124.263622 99.466908)scale(0.06 -0.06)">
       <defs>
        <path d="M 475 0 
L 475 4581 
L 1388 4581 
L 2472 1338 
Q 2622 884 2691 659 
Q 2769 909 2934 1394 
L 4031 4581 
L 4847 4581 
L 4847 0 
L 4263 0 
L 4263 3834 
L 2931 0 
L 2384 0 
L 1059 3900 
L 1059 0 
L 475 0 
z
" id="ArialMT-4d" transform="scale(0.015625)"/>
        <path d="M 213 1659 
Q 213 2581 725 3025 
Q 1153 3394 1769 3394 
Q 2453 3394 2887 2945 
Q 3322 2497 3322 1706 
Q 3322 1066 3130 698 
Q 2938 331 2570 128 
Q 2203 -75 1769 -75 
Q 1072 -75 642 372 
Q 213 819 213 1659 
z
M 791 1659 
Q 791 1022 1069 705 
Q 1347 388 1769 388 
Q 2188 388 2466 706 
Q 2744 1025 2744 1678 
Q 2744 2294 2464 2611 
Q 2184 2928 1769 2928 
Q 1347 2928 1069 2612 
Q 791 2297 791 1659 
z
" id="ArialMT-6f" transform="scale(0.015625)"/>
        <path d="M 2575 0 
L 2575 419 
Q 2259 -75 1647 -75 
Q 1250 -75 917 144 
Q 584 363 401 755 
Q 219 1147 219 1656 
Q 219 2153 384 2558 
Q 550 2963 881 3178 
Q 1213 3394 1622 3394 
Q 1922 3394 2156 3267 
Q 2391 3141 2538 2938 
L 2538 4581 
L 3097 4581 
L 3097 0 
L 2575 0 
z
M 797 1656 
Q 797 1019 1065 703 
Q 1334 388 1700 388 
Q 2069 388 2326 689 
Q 2584 991 2584 1609 
Q 2584 2291 2321 2609 
Q 2059 2928 1675 2928 
Q 1300 2928 1048 2622 
Q 797 2316 797 1656 
z
" id="ArialMT-64" transform="scale(0.015625)"/>
        <path d="M 409 0 
L 409 4581 
L 972 4581 
L 972 0 
L 409 0 
z
" id="ArialMT-6c" transform="scale(0.015625)"/>
        <path d="M 1034 0 
L 19 3319 
L 600 3319 
L 1128 1403 
L 1325 691 
Q 1338 744 1497 1375 
L 2025 3319 
L 2603 3319 
L 3100 1394 
L 3266 759 
L 3456 1400 
L 4025 3319 
L 4572 3319 
L 3534 0 
L 2950 0 
L 2422 1988 
L 2294 2553 
L 1622 0 
L 1034 0 
z
" id="ArialMT-77" transform="scale(0.015625)"/>
        <path d="M 422 0 
L 422 4581 
L 984 4581 
L 984 2938 
Q 1378 3394 1978 3394 
Q 2347 3394 2619 3248 
Q 2891 3103 3008 2847 
Q 3125 2591 3125 2103 
L 3125 0 
L 2563 0 
L 2563 2103 
Q 2563 2525 2380 2717 
Q 2197 2909 1863 2909 
Q 1613 2909 1392 2779 
Q 1172 2650 1078 2428 
Q 984 2206 984 1816 
L 984 0 
L 422 0 
z
" id="ArialMT-68" transform="scale(0.015625)"/>
       </defs>
       <use xlink:href="#ArialMT-4d"/>
       <use x="83.300781" xlink:href="#ArialMT-6f"/>
       <use x="138.916016" xlink:href="#ArialMT-64"/>
       <use x="194.53125" xlink:href="#ArialMT-65"/>
       <use x="250.146484" xlink:href="#ArialMT-6c"/>
       <use x="272.363281" xlink:href="#ArialMT-20"/>
       <use x="300.146484" xlink:href="#ArialMT-77"/>
       <use x="372.363281" xlink:href="#ArialMT-69"/>
       <use x="394.580078" xlink:href="#ArialMT-74"/>
       <use x="422.363281" xlink:href="#ArialMT-68"/>
       <use x="477.978516" xlink:href="#ArialMT-20"/>
      </g>
      <!--  trial matching -->
      <g transform="translate(120.762997 105.813033)scale(0.06 -0.06)">
       <defs>
        <path d="M 422 0 
L 422 3319 
L 925 3319 
L 925 2853 
Q 1081 3097 1340 3245 
Q 1600 3394 1931 3394 
Q 2300 3394 2536 3241 
Q 2772 3088 2869 2813 
Q 3263 3394 3894 3394 
Q 4388 3394 4653 3120 
Q 4919 2847 4919 2278 
L 4919 0 
L 4359 0 
L 4359 2091 
Q 4359 2428 4304 2576 
Q 4250 2725 4106 2815 
Q 3963 2906 3769 2906 
Q 3419 2906 3187 2673 
Q 2956 2441 2956 1928 
L 2956 0 
L 2394 0 
L 2394 2156 
Q 2394 2531 2256 2718 
Q 2119 2906 1806 2906 
Q 1569 2906 1367 2781 
Q 1166 2656 1075 2415 
Q 984 2175 984 1722 
L 984 0 
L 422 0 
z
" id="ArialMT-6d" transform="scale(0.015625)"/>
        <path d="M 2588 1216 
L 3141 1144 
Q 3050 572 2676 248 
Q 2303 -75 1759 -75 
Q 1078 -75 664 370 
Q 250 816 250 1647 
Q 250 2184 428 2587 
Q 606 2991 970 3192 
Q 1334 3394 1763 3394 
Q 2303 3394 2647 3120 
Q 2991 2847 3088 2344 
L 2541 2259 
Q 2463 2594 2264 2762 
Q 2066 2931 1784 2931 
Q 1359 2931 1093 2626 
Q 828 2322 828 1663 
Q 828 994 1084 691 
Q 1341 388 1753 388 
Q 2084 388 2306 591 
Q 2528 794 2588 1216 
z
" id="ArialMT-63" transform="scale(0.015625)"/>
       </defs>
       <use xlink:href="#ArialMT-20"/>
       <use x="27.783203" xlink:href="#ArialMT-74"/>
       <use x="55.566406" xlink:href="#ArialMT-72"/>
       <use x="88.867188" xlink:href="#ArialMT-69"/>
       <use x="111.083984" xlink:href="#ArialMT-61"/>
       <use x="166.699219" xlink:href="#ArialMT-6c"/>
       <use x="188.916016" xlink:href="#ArialMT-20"/>
       <use x="216.699219" xlink:href="#ArialMT-6d"/>
       <use x="300" xlink:href="#ArialMT-61"/>
       <use x="355.615234" xlink:href="#ArialMT-74"/>
       <use x="383.398438" xlink:href="#ArialMT-63"/>
       <use x="433.398438" xlink:href="#ArialMT-68"/>
       <use x="489.013672" xlink:href="#ArialMT-69"/>
       <use x="511.230469" xlink:href="#ArialMT-6e"/>
       <use x="566.845703" xlink:href="#ArialMT-67"/>
      </g>
     </g>
    </g>
    <g id="xtick_3">
     <g id="line2d_3">
      <g>
       <use style="stroke:#000000;stroke-width:0.8;" x="185.530084" xlink:href="#m7b91d8e31d" y="88.17222"/>
      </g>
     </g>
     <g id="text_3">
      <!-- Model without  -->
      <g transform="translate(166.188053 99.466908)scale(0.06 -0.06)">
       <defs>
        <path d="M 2597 0 
L 2597 488 
Q 2209 -75 1544 -75 
Q 1250 -75 995 37 
Q 741 150 617 320 
Q 494 491 444 738 
Q 409 903 409 1263 
L 409 3319 
L 972 3319 
L 972 1478 
Q 972 1038 1006 884 
Q 1059 663 1231 536 
Q 1403 409 1656 409 
Q 1909 409 2131 539 
Q 2353 669 2445 892 
Q 2538 1116 2538 1541 
L 2538 3319 
L 3100 3319 
L 3100 0 
L 2597 0 
z
" id="ArialMT-75" transform="scale(0.015625)"/>
       </defs>
       <use xlink:href="#ArialMT-4d"/>
       <use x="83.300781" xlink:href="#ArialMT-6f"/>
       <use x="138.916016" xlink:href="#ArialMT-64"/>
       <use x="194.53125" xlink:href="#ArialMT-65"/>
       <use x="250.146484" xlink:href="#ArialMT-6c"/>
       <use x="272.363281" xlink:href="#ArialMT-20"/>
       <use x="300.146484" xlink:href="#ArialMT-77"/>
       <use x="372.363281" xlink:href="#ArialMT-69"/>
       <use x="394.580078" xlink:href="#ArialMT-74"/>
       <use x="422.363281" xlink:href="#ArialMT-68"/>
       <use x="477.978516" xlink:href="#ArialMT-6f"/>
       <use x="533.59375" xlink:href="#ArialMT-75"/>
       <use x="589.208984" xlink:href="#ArialMT-74"/>
       <use x="616.992188" xlink:href="#ArialMT-20"/>
      </g>
      <!--  trial matching -->
      <g transform="translate(166.857428 105.813033)scale(0.06 -0.06)">
       <use xlink:href="#ArialMT-20"/>
       <use x="27.783203" xlink:href="#ArialMT-74"/>
       <use x="55.566406" xlink:href="#ArialMT-72"/>
       <use x="88.867188" xlink:href="#ArialMT-69"/>
       <use x="111.083984" xlink:href="#ArialMT-61"/>
       <use x="166.699219" xlink:href="#ArialMT-6c"/>
       <use x="188.916016" xlink:href="#ArialMT-20"/>
       <use x="216.699219" xlink:href="#ArialMT-6d"/>
       <use x="300" xlink:href="#ArialMT-61"/>
       <use x="355.615234" xlink:href="#ArialMT-74"/>
       <use x="383.398438" xlink:href="#ArialMT-63"/>
       <use x="433.398438" xlink:href="#ArialMT-68"/>
       <use x="489.013672" xlink:href="#ArialMT-69"/>
       <use x="511.230469" xlink:href="#ArialMT-6e"/>
       <use x="566.845703" xlink:href="#ArialMT-67"/>
      </g>
     </g>
    </g>
   </g>
   <g id="matplotlib.axis_2">
    <g id="ytick_1">
     <g id="line2d_4">
      <defs>
       <path d="M 0 0 
L -3.5 0 
" id="m6d382d79a3" style="stroke:#000000;stroke-width:0.8;"/>
      </defs>
      <g>
       <use style="stroke:#000000;stroke-width:0.8;" x="76.055811" xlink:href="#m6d382d79a3" y="79.485302"/>
      </g>
     </g>
     <g id="text_4">
      <!-- 0.00 -->
      <g transform="translate(57.379249 81.632646)scale(0.06 -0.06)">
       <defs>
        <path d="M 266 2259 
Q 266 3072 433 3567 
Q 600 4063 929 4331 
Q 1259 4600 1759 4600 
Q 2128 4600 2406 4451 
Q 2684 4303 2865 4023 
Q 3047 3744 3150 3342 
Q 3253 2941 3253 2259 
Q 3253 1453 3087 958 
Q 2922 463 2592 192 
Q 2263 -78 1759 -78 
Q 1097 -78 719 397 
Q 266 969 266 2259 
z
M 844 2259 
Q 844 1131 1108 757 
Q 1372 384 1759 384 
Q 2147 384 2411 759 
Q 2675 1134 2675 2259 
Q 2675 3391 2411 3762 
Q 2147 4134 1753 4134 
Q 1366 4134 1134 3806 
Q 844 3388 844 2259 
z
" id="ArialMT-30" transform="scale(0.015625)"/>
        <path d="M 581 0 
L 581 641 
L 1222 641 
L 1222 0 
L 581 0 
z
" id="ArialMT-2e" transform="scale(0.015625)"/>
       </defs>
       <use xlink:href="#ArialMT-30"/>
       <use x="55.615234" xlink:href="#ArialMT-2e"/>
       <use x="83.398438" xlink:href="#ArialMT-30"/>
       <use x="139.013672" xlink:href="#ArialMT-30"/>
      </g>
     </g>
    </g>
    <g id="ytick_2">
     <g id="line2d_5">
      <g>
       <use style="stroke:#000000;stroke-width:0.8;" x="76.055811" xlink:href="#m6d382d79a3" y="65.911992"/>
      </g>
     </g>
     <g id="text_5">
      <!-- 0.25 -->
      <g transform="translate(57.379249 68.059336)scale(0.06 -0.06)">
       <defs>
        <path d="M 3222 541 
L 3222 0 
L 194 0 
Q 188 203 259 391 
Q 375 700 629 1000 
Q 884 1300 1366 1694 
Q 2113 2306 2375 2664 
Q 2638 3022 2638 3341 
Q 2638 3675 2398 3904 
Q 2159 4134 1775 4134 
Q 1369 4134 1125 3890 
Q 881 3647 878 3216 
L 300 3275 
Q 359 3922 746 4261 
Q 1134 4600 1788 4600 
Q 2447 4600 2831 4234 
Q 3216 3869 3216 3328 
Q 3216 3053 3103 2787 
Q 2991 2522 2730 2228 
Q 2469 1934 1863 1422 
Q 1356 997 1212 845 
Q 1069 694 975 541 
L 3222 541 
z
" id="ArialMT-32" transform="scale(0.015625)"/>
        <path d="M 266 1200 
L 856 1250 
Q 922 819 1161 601 
Q 1400 384 1738 384 
Q 2144 384 2425 690 
Q 2706 997 2706 1503 
Q 2706 1984 2436 2262 
Q 2166 2541 1728 2541 
Q 1456 2541 1237 2417 
Q 1019 2294 894 2097 
L 366 2166 
L 809 4519 
L 3088 4519 
L 3088 3981 
L 1259 3981 
L 1013 2750 
Q 1425 3038 1878 3038 
Q 2478 3038 2890 2622 
Q 3303 2206 3303 1553 
Q 3303 931 2941 478 
Q 2500 -78 1738 -78 
Q 1113 -78 717 272 
Q 322 622 266 1200 
z
" id="ArialMT-35" transform="scale(0.015625)"/>
       </defs>
       <use xlink:href="#ArialMT-30"/>
       <use x="55.615234" xlink:href="#ArialMT-2e"/>
       <use x="83.398438" xlink:href="#ArialMT-32"/>
       <use x="139.013672" xlink:href="#ArialMT-35"/>
      </g>
     </g>
    </g>
    <g id="ytick_3">
     <g id="line2d_6">
      <g>
       <use style="stroke:#000000;stroke-width:0.8;" x="76.055811" xlink:href="#m6d382d79a3" y="52.338683"/>
      </g>
     </g>
     <g id="text_6">
      <!-- 0.50 -->
      <g transform="translate(57.379249 54.486026)scale(0.06 -0.06)">
       <use xlink:href="#ArialMT-30"/>
       <use x="55.615234" xlink:href="#ArialMT-2e"/>
       <use x="83.398438" xlink:href="#ArialMT-35"/>
       <use x="139.013672" xlink:href="#ArialMT-30"/>
      </g>
     </g>
    </g>
    <g id="ytick_4">
     <g id="line2d_7">
      <g>
       <use style="stroke:#000000;stroke-width:0.8;" x="76.055811" xlink:href="#m6d382d79a3" y="38.765373"/>
      </g>
     </g>
     <g id="text_7">
      <!-- 0.75 -->
      <g transform="translate(57.379249 40.912717)scale(0.06 -0.06)">
       <defs>
        <path d="M 303 3981 
L 303 4522 
L 3269 4522 
L 3269 4084 
Q 2831 3619 2401 2847 
Q 1972 2075 1738 1259 
Q 1569 684 1522 0 
L 944 0 
Q 953 541 1156 1306 
Q 1359 2072 1739 2783 
Q 2119 3494 2547 3981 
L 303 3981 
z
" id="ArialMT-37" transform="scale(0.015625)"/>
       </defs>
       <use xlink:href="#ArialMT-30"/>
       <use x="55.615234" xlink:href="#ArialMT-2e"/>
       <use x="83.398438" xlink:href="#ArialMT-37"/>
       <use x="139.013672" xlink:href="#ArialMT-35"/>
      </g>
     </g>
    </g>
    <g id="ytick_5">
     <g id="line2d_8">
      <g>
       <use style="stroke:#000000;stroke-width:0.8;" x="76.055811" xlink:href="#m6d382d79a3" y="25.192063"/>
      </g>
     </g>
     <g id="text_8">
      <!-- 1.00 -->
      <g transform="translate(57.379249 27.339407)scale(0.06 -0.06)">
       <defs>
        <path d="M 2384 0 
L 1822 0 
L 1822 3584 
Q 1619 3391 1289 3197 
Q 959 3003 697 2906 
L 697 3450 
Q 1169 3672 1522 3987 
Q 1875 4303 2022 4600 
L 2384 4600 
L 2384 0 
z
" id="ArialMT-31" transform="scale(0.015625)"/>
       </defs>
       <use xlink:href="#ArialMT-31"/>
       <use x="55.615234" xlink:href="#ArialMT-2e"/>
       <use x="83.398438" xlink:href="#ArialMT-30"/>
       <use x="139.013672" xlink:href="#ArialMT-30"/>
      </g>
     </g>
    </g>
   </g>
   <g id="patch_3">
    <path d="M 76.055811 88.17222 
L 76.055811 25.192063 
" style="fill:none;stroke:#000000;stroke-linecap:square;stroke-linejoin:miter;stroke-width:0.8;"/>
   </g>
   <g id="patch_4">
    <path d="M 76.055811 88.17222 
L 202.815496 88.17222 
" style="fill:none;stroke:#000000;stroke-linecap:square;stroke-linejoin:miter;stroke-width:0.8;"/>
   </g>
  </g>
 </g>
 <defs>
  <clipPath id="p2a1779e5e7">
   <rect height="62.980157" width="126.759685" x="76.055811" y="25.192063"/>
  </clipPath>
 </defs>
</svg>
